<svg width="90" height="91" viewBox="0 0 90 91" fill="none" xmlns="http://www.w3.org/2000/svg">
<path d="M82.6431 34.7792C81.6537 34.7792 80.8538 35.5842 80.8538 36.5798V59.7151C80.8538 60.4459 80.2644 61.0391 79.5381 61.0391H25.8053C24.8159 61.0391 24.016 61.844 24.016 62.8396C24.016 63.8352 24.8159 64.6402 25.8053 64.6402H36.2677L33.7907 71.1716L21.7039 71.1963C20.6618 71.1963 19.8163 72.1495 19.8163 73.3252V73.5017C19.8163 74.6068 20.6162 75.5035 21.6021 75.5L82.6186 75.38L82.6115 71.0763L60.95 71.1186L58.4941 64.6402H79.5381C82.2361 64.6402 84.4325 62.4301 84.4325 59.7151V36.5798C84.4325 35.5842 83.6325 34.7792 82.6431 34.7792Z" fill="white"/>
<path d="M68.8477 17.3103C68.8477 16.2476 67.9916 15.3897 66.9355 15.3897H16.0096C13.0028 15.3897 10.5609 17.6527 10.5609 20.4348V44.6046C10.5609 45.6673 11.4169 46.5252 12.4695 46.5252C13.522 46.5252 14.3781 45.6637 14.3781 44.6046V20.4312C14.3781 19.7816 15.1254 19.2309 16.0061 19.2309H66.932C67.9881 19.2309 68.8442 18.3694 68.8442 17.3103H68.8477Z" fill="white"/>
<path d="M55.7995 50.098C55.7925 49.9992 55.7609 49.9039 55.7399 49.8191L52.3507 44.4033C52.4103 43.4148 52.4384 42.391 52.4384 41.3459C52.3191 34.0201 48.793 25.7482 47.6177 24.1948C47.4879 24.0324 47.2984 24.0324 47.1686 24.1948C45.9827 25.7552 42.3409 33.833 42.3409 41.3459C42.3409 42.3874 42.3725 43.4042 42.4286 44.3892L39.0534 49.7874C39.0008 49.9003 38.9692 49.9957 38.9622 50.0945L38.5412 56.2341C38.5272 56.4247 38.7517 56.5412 38.9271 56.4176L43.6847 52.4035H51.1016C51.1087 52.3823 51.1157 52.3576 51.1192 52.3364L51.1087 52.4035L55.8662 56.4176C56.0136 56.5412 56.2346 56.4282 56.2241 56.2341L55.803 50.0945L55.7995 50.098Z" fill="white"/>
<path d="M86.306 25.321L77.9768 15.658C77.854 15.4956 77.7172 15.3403 77.5558 15.2026C77.1453 14.8425 76.6611 14.6271 76.1594 14.5424C76.1524 14.5424 76.1419 14.5424 76.1348 14.5388C76.0612 14.5282 75.9875 14.5177 75.9138 14.5106C75.8892 14.5106 75.8612 14.5071 75.8366 14.5035C75.7805 14.5035 75.7243 14.5 75.6682 14.5C75.6226 14.5 75.577 14.5 75.5349 14.5C75.4998 14.5 75.4612 14.5035 75.4261 14.5071C75.363 14.5141 75.2998 14.5212 75.2367 14.5282C75.2191 14.5282 75.2016 14.5353 75.184 14.5388C75.1033 14.553 75.0262 14.5706 74.9455 14.5918C74.9455 14.5918 74.9419 14.5918 74.9384 14.5918C74.5315 14.7012 74.142 14.8989 73.8017 15.1955C73.6438 15.3332 73.5035 15.4885 73.3807 15.6509L65.0515 25.3139C64.0165 26.5143 64.1463 28.329 65.3392 29.3669C65.8795 29.84 66.5461 30.0695 67.2092 30.0695C68.0091 30.0695 68.8021 29.7341 69.3669 29.0774L72.8333 25.0562V39.2064C72.8333 40.7952 74.1104 42.0803 75.6893 42.0803C77.2681 42.0803 78.5452 40.7952 78.5452 39.2064V25.088L81.987 29.081C82.5519 29.7376 83.3483 30.073 84.1448 30.073C84.8079 30.073 85.4745 29.84 86.0148 29.3705C87.2077 28.329 87.334 26.5143 86.3025 25.3175L86.306 25.321Z" fill="#D4AF37"/>
<path d="M23.1634 58.483C22.588 58.3947 22.0512 58.7901 21.9635 59.3691C21.4583 62.6419 19.076 65.2933 15.8938 66.1265C13.7641 66.6843 11.5467 66.3736 9.64864 65.2545C8.19612 64.3966 7.06638 63.1397 6.36468 61.6357L7.12252 62.1582C7.30496 62.2853 7.51196 62.3453 7.71897 62.3453C8.05578 62.3453 8.38207 62.1829 8.58907 61.8864C8.91887 61.4027 8.79608 60.746 8.31541 60.4142L5.33669 58.3559C5.33669 58.3559 5.32616 58.3488 5.32265 58.3453L5.28055 58.317C5.28055 58.317 5.2595 58.3065 5.24898 58.2994C5.2174 58.2782 5.18933 58.257 5.15425 58.2394C5.14021 58.2323 5.12618 58.2288 5.11214 58.2217C5.09109 58.2111 5.07004 58.2041 5.04548 58.197C5.00338 58.1794 4.95777 58.1652 4.91567 58.1546C4.89111 58.1476 4.86655 58.1476 4.84199 58.1441C4.79989 58.137 4.75779 58.1335 4.71568 58.1299C4.68762 58.1299 4.65955 58.1299 4.63148 58.1299C4.59289 58.1299 4.55429 58.1335 4.51921 58.1405C4.48412 58.1476 4.45255 58.1546 4.42097 58.1652C4.38939 58.1723 4.36132 58.1794 4.32975 58.1899C4.29115 58.2041 4.25607 58.2217 4.21748 58.2394C4.19642 58.25 4.17186 58.2606 4.15081 58.2747C4.11222 58.2994 4.07714 58.3241 4.03854 58.3523C4.021 58.3665 4.00346 58.3771 3.98591 58.3947C3.95083 58.4265 3.91925 58.4618 3.88768 58.5006C3.87364 58.5148 3.85961 58.5324 3.84908 58.5465C3.83856 58.5606 3.82803 58.5712 3.81751 58.5854C3.79645 58.6171 3.77891 58.6524 3.76137 58.6877C3.75786 58.6983 3.75084 58.7054 3.74383 58.7125L3.72278 58.7513C3.72278 58.7513 3.71576 58.7689 3.71225 58.776L2.10886 62.0347C1.85274 62.5572 2.06325 63.1927 2.58602 63.4539C2.73689 63.5281 2.89477 63.5634 3.05265 63.5634C3.43859 63.5634 3.814 63.348 3.99644 62.9738L4.34027 62.2712C5.20687 64.2765 6.67343 65.95 8.58206 67.0762C10.189 68.0259 11.9818 68.5131 13.7992 68.5131C14.6728 68.5131 15.5535 68.4002 16.4236 68.1742C20.4198 67.1256 23.409 63.7964 24.0405 59.6904C24.1282 59.1114 23.7353 58.5712 23.1599 58.483H23.1634Z" fill="white"/>
<path d="M25.1001 54.1687C25.3562 53.6462 25.1457 53.0107 24.6229 52.7495C24.1037 52.4882 23.4722 52.7036 23.2125 53.2296L22.8652 53.9322C20.8653 49.3249 15.7675 46.7229 10.7819 48.0292C6.7857 49.0777 3.79645 52.407 3.16492 56.513C3.07721 57.092 3.47016 57.6321 4.04556 57.7204C4.1017 57.7275 4.15432 57.7345 4.20695 57.7345C4.71568 57.7345 5.16477 57.3603 5.24547 56.8378C5.75069 53.565 8.13297 50.9136 11.3152 50.0804C15.2096 49.0601 19.1918 51.0336 20.8443 54.5712L20.0865 54.0451C19.6058 53.7133 18.9532 53.8368 18.6234 54.3205C18.2936 54.8042 18.4164 55.4609 18.8971 55.7927L21.8758 57.851C21.8758 57.851 21.8898 57.8581 21.8968 57.8651L21.9354 57.8934C21.9354 57.8934 21.967 57.911 21.9846 57.9216C22.0091 57.9358 22.0337 57.9569 22.0617 57.9711C22.0688 57.9746 22.0758 57.9746 22.0863 57.9781C22.1424 58.0064 22.2021 58.024 22.2582 58.0417C22.2828 58.0487 22.3073 58.0523 22.3319 58.0593C22.388 58.0699 22.4442 58.077 22.5003 58.077C22.5108 58.077 22.5178 58.077 22.5284 58.077C22.6056 58.077 22.6827 58.0664 22.7599 58.0487C22.7705 58.0487 22.781 58.0452 22.7915 58.0417C22.8582 58.024 22.9248 57.9993 22.988 57.9675C23.0055 57.9605 23.0231 57.9499 23.0371 57.9428C23.0967 57.911 23.1529 57.8722 23.2055 57.8263C23.2195 57.8122 23.2371 57.7981 23.2511 57.7839C23.2967 57.7416 23.3388 57.6921 23.3774 57.6392C23.3844 57.6286 23.3915 57.6251 23.3985 57.6145C23.416 57.5898 23.4265 57.565 23.4406 57.5403C23.4511 57.5227 23.4616 57.505 23.4722 57.4874L23.4932 57.445C23.4932 57.445 23.5002 57.4309 23.5037 57.4203L25.1071 54.1617L25.1001 54.1687Z" fill="white"/>
</svg>
