<svg width="32" height="33" viewBox="0 0 32 33" fill="none" xmlns="http://www.w3.org/2000/svg">
<path d="M9.00078 28.125C8.40798 28.125 7.81051 27.9744 7.27373 27.6685C6.17682 27.0427 5.5 25.8709 5.5 24.5956V7.65468C5.5 6.38411 6.17682 5.20766 7.27373 4.58178C8.37064 3.95591 9.7196 3.97473 10.7978 4.62884L24.801 13.0993C25.8559 13.7393 26.5 14.8875 26.5 16.1252C26.5 17.3628 25.8559 18.5157 24.801 19.151L10.7978 27.6215C10.2424 27.9556 9.62158 28.125 8.99611 28.125H9.00078ZM12.5016 13.8899V18.3651L16.1984 16.1299L12.5016 13.8946V13.8899Z" fill="#6C757D"/>
</svg>
