<?xml version="1.0" encoding="UTF-8"?><svg id="Secondary_Blue" xmlns="http://www.w3.org/2000/svg" width="578" height="125" viewBox="0 0 578 125"><path d="M17.72,1.58c3.38,0,6.3.39,8.77,1.18,2.46.79,4.49,1.88,6.08,3.28,1.59,1.4,2.76,3.07,3.52,5,.76,1.93,1.14,4.03,1.14,6.29,0,2.4-.4,4.6-1.19,6.59-.79,2-2,3.71-3.61,5.15-1.61,1.44-3.64,2.55-6.09,3.35-2.45.8-5.32,1.19-8.61,1.19h-6.47v16.79H1.04V1.58h16.68ZM17.72,25.87c3.2,0,5.54-.76,7.03-2.29,1.49-1.53,2.23-3.61,2.23-6.26,0-1.21-.19-2.32-.56-3.31s-.94-1.85-1.7-2.56c-.76-.71-1.72-1.25-2.88-1.63-1.16-.38-2.53-.57-4.12-.57h-6.47v16.62h6.47Z" fill="#1b1464"/><path d="M58.85,42.33c1.66,0,3.14-.27,4.46-.82,1.32-.55,2.43-1.33,3.34-2.34.91-1.01,1.6-2.23,2.08-3.67.48-1.44.71-3.05.71-4.84V1.58h10.21v29.07c0,2.96-.48,5.68-1.45,8.16-.96,2.48-2.34,4.61-4.14,6.41-1.79,1.79-3.97,3.2-6.54,4.21-2.56,1.01-5.46,1.51-8.68,1.51s-6.12-.5-8.7-1.51c-2.58-1.01-4.76-2.41-6.55-4.21-1.79-1.79-3.17-3.93-4.14-6.41-.96-2.48-1.45-5.2-1.45-8.16V1.58h10.21v29.07c0,1.79.24,3.41.71,4.84.48,1.44,1.17,2.66,2.08,3.67.91,1.01,2.02,1.79,3.34,2.34,1.32.55,2.81.82,4.49.82Z" fill="#1b1464"/><path d="M120.19,50.4h-9.23c-1.73,0-2.97-.65-3.74-1.95l-9.4-14.97c-.39-.58-.81-1.01-1.28-1.28-.47-.27-1.15-.4-2.06-.4h-3.47v18.61h-10.21V1.58h15.52c3.45,0,6.4.35,8.85,1.06,2.45.71,4.46,1.69,6.03,2.94,1.57,1.26,2.71,2.75,3.44,4.49.73,1.74,1.09,3.65,1.09,5.74,0,1.61-.23,3.15-.7,4.59-.47,1.45-1.14,2.76-2.03,3.95s-1.97,2.24-3.27,3.16-2.77,1.66-4.43,2.22c.66.36,1.27.79,1.84,1.3.57.5,1.08,1.1,1.53,1.8l11.51,17.56ZM96.26,24.7c1.66,0,3.09-.21,4.29-.62,1.2-.42,2.19-.99,2.96-1.72.77-.73,1.34-1.59,1.7-2.57.36-.99.54-2.06.54-3.23,0-2.31-.78-4.1-2.33-5.38-1.55-1.28-3.92-1.92-7.1-1.92h-5.31v15.44h5.24Z" fill="#1b1464"/><path d="M137.08,1.58c3.38,0,6.3.39,8.77,1.18,2.46.79,4.49,1.88,6.08,3.28,1.59,1.4,2.76,3.07,3.52,5,.76,1.93,1.14,4.03,1.14,6.29,0,2.4-.4,4.6-1.19,6.59-.79,2-2,3.71-3.61,5.15-1.61,1.44-3.64,2.55-6.09,3.35-2.45.8-5.32,1.19-8.61,1.19h-6.47v16.79h-10.21V1.58h16.68ZM137.08,25.87c3.2,0,5.54-.76,7.03-2.29,1.49-1.53,2.23-3.61,2.23-6.26,0-1.21-.19-2.32-.56-3.31s-.94-1.85-1.7-2.56c-.76-.71-1.72-1.25-2.88-1.63-1.16-.38-2.53-.57-4.12-.57h-6.47v16.62h6.47Z" fill="#1b1464"/><path d="M207.14,25.97c0,3.57-.61,6.88-1.82,9.93-1.21,3.05-2.93,5.69-5.14,7.91-2.21,2.22-4.87,3.96-7.98,5.23-3.11,1.27-6.56,1.9-10.35,1.9s-7.24-.63-10.35-1.9c-3.11-1.27-5.78-3.01-8-5.23-2.22-2.22-3.94-4.86-5.16-7.91-1.21-3.05-1.82-6.36-1.82-9.93s.61-6.87,1.82-9.91c1.21-3.04,2.93-5.67,5.16-7.89,2.22-2.22,4.89-3.96,8-5.23,3.11-1.27,6.56-1.9,10.35-1.9s7.24.63,10.35,1.9c3.11,1.27,5.77,3.02,7.98,5.25,2.21,2.23,3.93,4.87,5.14,7.91,1.21,3.04,1.82,6.33,1.82,9.87ZM196.69,25.97c0-2.56-.34-4.85-1.02-6.88-.68-2.03-1.66-3.76-2.94-5.18-1.28-1.42-2.84-2.51-4.66-3.26-1.83-.75-3.9-1.13-6.21-1.13s-4.39.38-6.23,1.13c-1.84.75-3.4,1.84-4.68,3.26-1.28,1.42-2.26,3.15-2.94,5.18-.68,2.03-1.02,4.32-1.02,6.88s.34,4.88,1.02,6.91c.68,2.03,1.66,3.75,2.94,5.16,1.28,1.41,2.84,2.5,4.68,3.25,1.84.75,3.91,1.13,6.23,1.13s4.39-.38,6.21-1.13c1.83-.75,3.38-1.83,4.66-3.25,1.28-1.41,2.26-3.13,2.94-5.16.68-2.03,1.02-4.33,1.02-6.91Z" fill="#1b1464"/><path d="M235.06,10.94c-.32.52-.64.89-.97,1.13-.33.24-.75.35-1.28.35s-1.04-.17-1.62-.52-1.25-.72-2.03-1.13c-.77-.4-1.66-.78-2.66-1.13-1-.35-2.17-.52-3.51-.52-2.36,0-4.13.52-5.31,1.56-1.18,1.04-1.77,2.41-1.77,4.09,0,1.08.32,1.97.97,2.67.65.71,1.5,1.32,2.55,1.83,1.06.52,2.25.98,3.59,1.38,1.34.4,2.71.85,4.12,1.33,1.41.48,2.78,1.05,4.12,1.7,1.34.65,2.54,1.47,3.59,2.46,1.06.99,1.91,2.19,2.55,3.62.65,1.42.97,3.16.97,5.2,0,2.22-.39,4.3-1.17,6.24-.78,1.94-1.91,3.63-3.39,5.08-1.48,1.45-3.3,2.59-5.46,3.42-2.17.83-4.62,1.24-7.37,1.24-1.57,0-3.13-.16-4.68-.47-1.55-.31-3.05-.75-4.49-1.31-1.44-.56-2.8-1.23-4.07-2.02-1.27-.78-2.38-1.66-3.34-2.62l3-4.78c.25-.36.58-.66.99-.89.41-.24.84-.35,1.29-.35.61,0,1.26.22,1.94.67.68.45,1.46.94,2.35,1.48.89.54,1.91,1.03,3.08,1.48,1.17.45,2.57.67,4.2.67,2.38,0,4.23-.54,5.53-1.62,1.3-1.08,1.96-2.68,1.96-4.81,0-1.23-.32-2.23-.97-2.99-.65-.76-1.49-1.4-2.54-1.92-1.04-.52-2.24-.96-3.57-1.33-1.34-.37-2.71-.78-4.12-1.23-1.41-.45-2.78-.99-4.12-1.62-1.34-.63-2.53-1.46-3.57-2.49-1.04-1.03-1.89-2.31-2.54-3.84-.65-1.52-.97-3.42-.97-5.69,0-1.82.36-3.58,1.09-5.28.73-1.7,1.79-3.22,3.2-4.54,1.41-1.32,3.14-2.39,5.19-3.2,2.05-.81,4.41-1.21,7.06-1.21,2.97,0,5.72.45,8.26,1.36,2.53.91,4.67,2.17,6.42,3.79l-2.52,4.74Z" fill="#1b1464"/><path d="M249.76,9.49v12.55h16.48v7.64h-16.48v12.82h21.17v7.91h-31.46V1.58h31.46v7.91h-21.17Z" fill="#1b1464"/><path d="M282.37,9.49v13.49h17.77v7.94h-17.77v19.48h-10.28V1.58h31.46v7.91h-21.17Z" fill="#1b1464"/><path d="M325.54,42.33c1.66,0,3.14-.27,4.46-.82,1.32-.55,2.43-1.33,3.34-2.34.91-1.01,1.6-2.23,2.08-3.67.48-1.44.71-3.05.71-4.84V1.58h10.21v29.07c0,2.96-.48,5.68-1.45,8.16-.96,2.48-2.34,4.61-4.14,6.41-1.79,1.79-3.97,3.2-6.54,4.21-2.56,1.01-5.46,1.51-8.68,1.51s-6.12-.5-8.7-1.51c-2.58-1.01-4.76-2.41-6.55-4.21-1.79-1.79-3.17-3.93-4.14-6.41-.96-2.48-1.45-5.2-1.45-8.16V1.58h10.21v29.07c0,1.79.24,3.41.71,4.84.48,1.44,1.17,2.66,2.08,3.67.91,1.01,2.02,1.79,3.34,2.34,1.32.55,2.81.82,4.49.82Z" fill="#1b1464"/><path d="M376.67,42.19v8.21h-29.31V1.58h10.21v40.61h19.1Z" fill="#1b1464"/><path d="M438.84,1.58v48.82h-9.02v-29.98c0-.63.02-1.3.05-2.02s.1-1.45.19-2.19l-14.13,26.48c-.77,1.46-1.96,2.19-3.57,2.19h-1.43c-.79,0-1.5-.19-2.11-.56s-1.1-.91-1.46-1.63l-14.2-26.58c.07.79.12,1.54.17,2.27.05.73.07,1.41.07,2.04v29.98h-9.02V1.58h7.76c.43,0,.82.01,1.16.03s.64.08.9.19c.26.1.5.26.71.47.22.21.43.51.63.89l13.82,26.04c.43.79.83,1.59,1.21,2.42.37.83.73,1.68,1.07,2.56.34-.9.7-1.77,1.07-2.62.37-.85.78-1.67,1.21-2.46l13.72-25.94c.2-.38.42-.68.65-.89.23-.21.47-.37.73-.47.26-.1.56-.16.89-.19.33-.02.72-.03,1.17-.03h7.76Z" fill="#1b1464"/><path d="M450.17,9.49v12.55h16.48v7.64h-16.48v12.82h21.17v7.91h-31.46V1.58h31.46v7.91h-21.17Z" fill="#1b1464"/><path d="M516.93,25.97c0,3.57-.61,6.85-1.82,9.84-1.21,2.99-2.93,5.57-5.14,7.72-2.21,2.15-4.87,3.84-7.98,5.05-3.11,1.21-6.56,1.82-10.35,1.82h-19V1.58h19c3.79,0,7.24.61,10.35,1.82,3.11,1.21,5.77,2.9,7.98,5.06,2.21,2.16,3.93,4.74,5.14,7.72,1.21,2.98,1.82,6.25,1.82,9.79ZM506.44,25.97c0-2.56-.34-4.86-1.02-6.9-.68-2.04-1.66-3.77-2.93-5.18-1.27-1.41-2.82-2.5-4.65-3.26-1.83-.76-3.9-1.14-6.21-1.14h-8.72v33.01h8.72c2.31,0,4.39-.38,6.21-1.13,1.83-.75,3.38-1.84,4.65-3.26,1.27-1.42,2.25-3.16,2.93-5.2.68-2.04,1.02-4.35,1.02-6.93Z" fill="#1b1464"/><path d="M527.72,50.4h-10.28V1.58h10.28v48.82Z" fill="#1b1464"/><path d="M576.74,50.4h-7.93c-.89,0-1.61-.21-2.16-.62-.56-.41-.97-.95-1.24-1.6l-3.34-9.32h-19.68l-3.34,9.32c-.23.56-.62,1.07-1.19,1.53-.57.46-1.28.69-2.14.69h-8l19.3-48.82h10.45l19.27,48.82ZM559.58,31.86l-5.34-14.94c-.32-.79-.65-1.7-1-2.76-.35-1.05-.69-2.2-1-3.43-.32,1.26-.65,2.42-1,3.48-.35,1.07-.69,1.99-1,2.78l-5.31,14.87h14.67Z" fill="#1b1464"/><path d="M266.11,82.67c-1.25-1.39-2.77-2.45-4.56-3.19-1.78-.73-3.81-1.1-6.07-1.1s-4.29.37-6.08,1.1c-1.8.73-3.32,1.8-4.57,3.19-1.25,1.39-2.21,3.08-2.88,5.06-.67,1.98-1,4.22-1,6.72s.33,4.77,1,6.75c.67,1.98,1.62,3.66,2.88,5.04,1.25,1.38,2.78,2.44,4.57,3.17,1.8.73,3.82,1.1,6.08,1.1s4.28-.37,6.07-1.1c1.78-.73,3.3-1.79,4.56-3.17,1.25-1.38,2.21-3.06,2.88-5.04.67-1.98,1-4.23,1-6.75s-.33-4.74-1-6.72c-.67-1.98-1.62-3.67-2.88-5.06Z" fill="#1b1464"/><path d="M184.15,80.27c-.74-.69-1.68-1.22-2.81-1.59-1.13-.37-2.47-.56-4.02-.56h-6.32v16.23h6.32c3.13,0,5.41-.74,6.87-2.23,1.45-1.49,2.18-3.53,2.18-6.11,0-1.18-.18-2.26-.55-3.24-.37-.97-.92-1.81-1.66-2.5Z" fill="#1b1464"/><path d="M219.03,80c-1.52-1.25-3.83-1.87-6.93-1.87h-5.19v15.08h5.12c1.62,0,3.01-.2,4.19-.61,1.17-.41,2.14-.96,2.89-1.68s1.31-1.55,1.66-2.51c.35-.96.53-2.02.53-3.15,0-2.26-.76-4.01-2.28-5.26Z" fill="#1b1464"/><path d="M.43,64.11v60.11h286.44v-60.11H.43ZM195.2,92.45c-.78,1.95-1.95,3.63-3.52,5.03-1.57,1.4-3.56,2.49-5.95,3.27-2.39.78-5.2,1.17-8.41,1.17h-6.32v16.4h-9.97v-47.68h16.29c3.3,0,6.16.38,8.56,1.15,2.4.77,4.38,1.83,5.93,3.2,1.55,1.37,2.7,3,3.44,4.88.74,1.88,1.11,3.93,1.11,6.14,0,2.34-.39,4.49-1.16,6.44ZM226.39,118.31c-1.69,0-2.9-.64-3.66-1.91l-9.18-14.62c-.38-.57-.79-.99-1.25-1.25-.45-.26-1.12-.39-2.01-.39h-3.39v18.17h-9.97v-47.68h15.16c3.37,0,6.25.34,8.64,1.03,2.39.69,4.36,1.65,5.89,2.88,1.53,1.23,2.65,2.69,3.36,4.39.71,1.7,1.06,3.56,1.06,5.6,0,1.58-.23,3.07-.68,4.49-.45,1.41-1.11,2.7-1.98,3.86-.86,1.16-1.93,2.19-3.19,3.09-1.26.9-2.7,1.62-4.32,2.17.64.35,1.24.77,1.8,1.27.55.49,1.05,1.08,1.5,1.76l11.24,17.15h-9.01ZM278.41,104.15c-1.19,2.98-2.86,5.55-5.02,7.72s-4.76,3.87-7.8,5.11c-3.04,1.24-6.41,1.86-10.11,1.86s-7.07-.62-10.11-1.86c-3.04-1.24-5.64-2.94-7.81-5.11-2.17-2.17-3.85-4.74-5.04-7.72-1.19-2.98-1.78-6.21-1.78-9.69s.59-6.71,1.78-9.68c1.19-2.97,2.86-5.54,5.04-7.71,2.17-2.17,4.78-3.87,7.81-5.11,3.04-1.24,6.41-1.86,10.11-1.86s7.07.62,10.11,1.86c3.04,1.24,5.64,2.95,7.8,5.13,2.16,2.18,3.83,4.75,5.02,7.72,1.19,2.97,1.78,6.18,1.78,9.64s-.59,6.71-1.78,9.69Z" fill="#1b1464"/><path d="M346.51,69.49v48.82h-9.02v-29.98c0-.63.02-1.3.05-2.02s.1-1.45.19-2.19l-14.13,26.48c-.77,1.46-1.96,2.19-3.57,2.19h-1.43c-.79,0-1.5-.19-2.11-.56-.61-.37-1.1-.91-1.46-1.63l-14.2-26.58c.07.79.12,1.54.17,2.27.05.73.07,1.41.07,2.04v29.98h-9.02v-48.82h7.76c.43,0,.82.01,1.16.03.34.02.64.08.9.19.26.1.5.26.71.47.22.21.43.51.63.89l13.82,26.04c.43.79.83,1.59,1.21,2.42.37.83.73,1.68,1.07,2.56.34-.9.7-1.77,1.07-2.62.37-.85.78-1.67,1.21-2.46l13.72-25.94c.2-.38.42-.68.65-.89.23-.21.47-.37.73-.47.26-.1.56-.16.89-.19.33-.02.72-.03,1.17-.03h7.76Z" fill="#1b1464"/><path d="M398.29,93.88c0,3.57-.61,6.88-1.82,9.93-1.21,3.05-2.93,5.69-5.14,7.91-2.21,2.22-4.87,3.96-7.98,5.23-3.11,1.27-6.56,1.9-10.35,1.9s-7.24-.63-10.35-1.9c-3.11-1.27-5.78-3.01-8-5.23-2.22-2.22-3.94-4.86-5.16-7.91-1.21-3.05-1.82-6.36-1.82-9.93s.61-6.87,1.82-9.91c1.21-3.04,2.93-5.67,5.16-7.89,2.22-2.22,4.89-3.96,8-5.23,3.11-1.27,6.56-1.9,10.35-1.9s7.24.63,10.35,1.9c3.11,1.27,5.77,3.02,7.98,5.25,2.21,2.23,3.93,4.87,5.14,7.91,1.21,3.04,1.82,6.33,1.82,9.87ZM387.84,93.88c0-2.56-.34-4.85-1.02-6.88-.68-2.03-1.66-3.76-2.94-5.18-1.28-1.42-2.84-2.51-4.66-3.26-1.83-.75-3.9-1.13-6.21-1.13s-4.39.38-6.23,1.13c-1.84.75-3.4,1.84-4.68,3.26-1.28,1.42-2.26,3.15-2.94,5.18-.68,2.03-1.02,4.32-1.02,6.88s.34,4.88,1.02,6.91c.68,2.03,1.66,3.75,2.94,5.16,1.28,1.41,2.84,2.5,4.68,3.25s3.92,1.13,6.23,1.13,4.39-.38,6.21-1.13c1.83-.75,3.38-1.83,4.66-3.25,1.28-1.41,2.26-3.13,2.94-5.16.68-2.03,1.02-4.33,1.02-6.91Z" fill="#1b1464"/><path d="M433.01,77.63h-14.43v40.68h-10.25v-40.68h-14.43v-8.14h39.12v8.14Z" fill="#1b1464"/><path d="M444.62,118.31h-10.28v-48.82h10.28v48.82Z" fill="#1b1464"/><path d="M496.44,93.88c0,3.57-.61,6.88-1.82,9.93-1.21,3.05-2.93,5.69-5.14,7.91-2.21,2.22-4.87,3.96-7.98,5.23-3.11,1.27-6.56,1.9-10.35,1.9s-7.24-.63-10.35-1.9c-3.11-1.27-5.78-3.01-8-5.23-2.22-2.22-3.94-4.86-5.16-7.91-1.21-3.05-1.82-6.36-1.82-9.93s.61-6.87,1.82-9.91c1.21-3.04,2.93-5.67,5.16-7.89,2.22-2.22,4.89-3.96,8-5.23,3.11-1.27,6.56-1.9,10.35-1.9s7.24.63,10.35,1.9c3.11,1.27,5.77,3.02,7.98,5.25,2.21,2.23,3.93,4.87,5.14,7.91,1.21,3.04,1.82,6.33,1.82,9.87ZM485.98,93.88c0-2.56-.34-4.85-1.02-6.88-.68-2.03-1.66-3.76-2.94-5.18-1.28-1.42-2.84-2.51-4.66-3.26-1.83-.75-3.9-1.13-6.21-1.13s-4.39.38-6.23,1.13c-1.84.75-3.4,1.84-4.68,3.26-1.28,1.42-2.26,3.15-2.94,5.18-.68,2.03-1.02,4.32-1.02,6.88s.34,4.88,1.02,6.91c.68,2.03,1.66,3.75,2.94,5.16,1.28,1.41,2.84,2.5,4.68,3.25,1.84.75,3.91,1.13,6.23,1.13s4.39-.38,6.21-1.13c1.83-.75,3.38-1.83,4.66-3.25,1.28-1.41,2.26-3.13,2.94-5.16.68-2.03,1.02-4.33,1.02-6.91Z" fill="#1b1464"/><path d="M539.7,69.49v48.82h-5.28c-.79,0-1.46-.13-2.01-.39s-1.08-.7-1.6-1.33l-24.61-30.95c.07.79.12,1.56.15,2.32.03.76.05,1.47.05,2.12v28.23h-9.02v-48.82h5.38c.43,0,.8.02,1.11.05s.58.11.83.24c.25.12.49.29.71.49.23.2.48.47.75.81l24.78,31.09c-.09-.85-.16-1.68-.2-2.47-.05-.8-.07-1.55-.07-2.27v-27.92h9.02Z" fill="#1b1464"/><path d="M570.55,78.84c-.32.52-.64.89-.97,1.13-.33.24-.75.35-1.28.35s-1.04-.17-1.62-.52-1.25-.72-2.03-1.13c-.77-.4-1.66-.78-2.66-1.13-1-.35-2.17-.52-3.51-.52-2.36,0-4.13.52-5.31,1.56-1.18,1.04-1.77,2.41-1.77,4.09,0,1.08.32,1.97.97,2.67s1.5,1.32,2.55,1.83c1.06.52,2.25.98,3.59,1.38,1.34.4,2.71.85,4.12,1.33,1.41.48,2.78,1.05,4.12,1.7,1.34.65,2.54,1.47,3.59,2.46,1.06.99,1.91,2.19,2.55,3.62.65,1.42.97,3.16.97,5.2,0,2.22-.39,4.3-1.17,6.24-.78,1.94-1.91,3.63-3.39,5.08-1.48,1.45-3.3,2.59-5.46,3.42-2.17.83-4.62,1.24-7.37,1.24-1.57,0-3.13-.16-4.68-.47-1.55-.31-3.05-.75-4.49-1.31-1.44-.56-2.8-1.23-4.07-2.02-1.27-.78-2.38-1.66-3.34-2.62l3-4.78c.25-.36.58-.66.99-.89.41-.24.84-.35,1.29-.35.61,0,1.26.22,1.94.67.68.45,1.46.94,2.35,1.48.89.54,1.91,1.03,3.08,1.48,1.17.45,2.57.67,4.2.67,2.38,0,4.23-.54,5.53-1.62,1.3-1.08,1.96-2.68,1.96-4.81,0-1.23-.32-2.23-.97-2.99-.65-.76-1.49-1.4-2.54-1.92-1.04-.52-2.24-.96-3.57-1.33-1.34-.37-2.71-.78-4.12-1.23-1.41-.45-2.78-.99-4.12-1.62-1.34-.63-2.53-1.46-3.57-2.49-1.04-1.03-1.89-2.31-2.54-3.84-.65-1.52-.97-3.42-.97-5.69,0-1.82.36-3.58,1.09-5.28.73-1.7,1.79-3.22,3.2-4.54,1.41-1.32,3.14-2.39,5.19-3.2,2.05-.81,4.41-1.21,7.06-1.21,2.97,0,5.72.45,8.26,1.36,2.53.91,4.67,2.17,6.42,3.79l-2.52,4.74Z" fill="#1b1464"/></svg>