<?xml version="1.0" encoding="UTF-8"?><svg id="Primary_Blue" xmlns="http://www.w3.org/2000/svg" width="747" height="125" viewBox="0 0 747 125"><g id="Icon_Blue"><rect x="4.92" y="114.48" width="148.12" height="9.03" transform="translate(-.21 .14) rotate(-.1)" fill="#1b1464" stroke="#1b1464" stroke-miterlimit="10"/><path d="M4.34,124.23l-.02-10.21,149.3-.27.02,10.21-149.3.27ZM5.5,115.2v7.85s146.95-.26,146.95-.26v-7.85s-146.95.26-146.95.26Z" fill="#1b1464" stroke="#1b1464" stroke-miterlimit="10"/><g id="_Mirror_Repeat_"><polygon points="44.42 114.35 79.21 114.35 79.01 97.66 53.47 97.66 44.42 114.35" fill="#1b1464" stroke="#1b1464" stroke-miterlimit="10"/></g><g id="_Mirror_Repeat_-2"><polygon points="112.84 114.35 78.06 114.35 78.26 97.66 103.79 97.66 112.84 114.35" fill="#1b1464" stroke="#1b1464" stroke-miterlimit="10"/></g><path d="M148.58,97.07H8.98c-2.49,0-4.51-2.02-4.51-4.51V6.04c0-2.49,2.02-4.51,4.51-4.51h139.6c2.49,0,4.51,2.02,4.51,4.51v86.51c0,2.49-2.02,4.51-4.51,4.51ZM13.49,88.04h130.57V10.56H13.49v77.48Z" fill="#1b1464" stroke="#1b1464" stroke-miterlimit="10"/><path d="M148.58,97.66H8.98c-2.82,0-5.11-2.29-5.11-5.11V6.04C3.87,3.23,6.16.94,8.98.94h139.6c2.82,0,5.11,2.29,5.11,5.11v86.51c0,2.82-2.29,5.11-5.11,5.11ZM8.98,2.12c-2.16,0-3.92,1.76-3.92,3.92v86.51c0,2.16,1.76,3.92,3.92,3.92h139.6c2.16,0,3.92-1.76,3.92-3.92V6.04c0-2.16-1.76-3.92-3.92-3.92H8.98ZM144.66,88.63H12.9V9.96h131.75v78.67ZM14.09,87.45h129.39V11.15H14.09v76.3Z" fill="#1b1464" stroke="#1b1464" stroke-miterlimit="10"/><rect x="49.5" y="57.02" width="9.03" height="16.33" transform="translate(-.66 .55) rotate(-.58)" fill="#1b1464" stroke="#1b1464" stroke-miterlimit="10"/><path d="M49,74l-.18-17.51,10.21-.1.18,17.51-10.21.1ZM50.02,57.66l.15,15.15,7.85-.08-.15-15.15-7.85.08Z" fill="#1b1464" stroke="#1b1464" stroke-miterlimit="10"/><rect x="66.25" y="45.69" width="9.03" height="27.55" transform="translate(-.36 .43) rotate(-.34)" fill="#1b1464" stroke="#1b1464" stroke-miterlimit="10"/><path d="M65.74,73.86l-.17-28.73,10.21-.06.17,28.73-10.21.06ZM66.76,46.3l.16,26.36,7.85-.05-.16-26.36-7.85.05Z" fill="#1b1464" stroke="#1b1464" stroke-miterlimit="10"/><rect x="83.06" y="34.27" width="9.03" height="38.97" transform="translate(-.23 .37) rotate(-.24)" fill="#1b1464" stroke="#1b1464" stroke-miterlimit="10"/><path d="M82.55,73.85l-.17-40.15,10.21-.04.17,40.15-10.21.04ZM83.57,34.88l.16,37.78,7.85-.03-.16-37.78-7.85.03Z" fill="#1b1464" stroke="#1b1464" stroke-miterlimit="10"/><rect x="99.9" y="22.86" width="9.03" height="50.5" transform="translate(-.16 .34) rotate(-.19)" fill="#1b1464" stroke="#1b1464" stroke-miterlimit="10"/><path d="M99.39,73.96l-.17-51.68,10.21-.03.17,51.68-10.21.03ZM100.41,23.46l.16,49.31,7.85-.03-.16-49.31-7.85.03Z" fill="#1b1464" stroke="#1b1464" stroke-miterlimit="10"/></g><path d="M189.44,1.3c3.39,0,6.31.39,8.78,1.18,2.47.79,4.5,1.88,6.09,3.29,1.59,1.4,2.77,3.07,3.53,5,.76,1.93,1.14,4.03,1.14,6.3,0,2.4-.4,4.61-1.19,6.6-.8,2-2,3.72-3.61,5.16-1.61,1.44-3.65,2.56-6.1,3.35-2.46.8-5.33,1.2-8.63,1.2h-6.48v16.82h-10.23V1.3h16.71ZM189.44,25.63c3.21,0,5.55-.76,7.04-2.29,1.49-1.53,2.23-3.62,2.23-6.27,0-1.21-.19-2.32-.56-3.32-.38-1-.94-1.85-1.7-2.56-.76-.71-1.72-1.25-2.88-1.63-1.16-.38-2.53-.57-4.13-.57h-6.48v16.65h6.48Z" fill="#1b1464" stroke="#1b1464" stroke-miterlimit="10"/><path d="M230.63,42.11c1.66,0,3.15-.27,4.47-.83,1.32-.55,2.43-1.33,3.34-2.34.91-1.01,1.6-2.24,2.08-3.67.48-1.44.72-3.05.72-4.85V1.3h10.23v29.11c0,2.97-.48,5.69-1.45,8.17-.97,2.48-2.35,4.62-4.14,6.42-1.8,1.8-3.98,3.2-6.55,4.21-2.57,1.01-5.47,1.52-8.69,1.52s-6.13-.51-8.71-1.52c-2.58-1.01-4.77-2.42-6.56-4.21-1.8-1.8-3.18-3.94-4.14-6.42-.97-2.48-1.45-5.21-1.45-8.17V1.3h10.23v29.11c0,1.8.24,3.42.72,4.85.48,1.44,1.17,2.66,2.08,3.67.91,1.01,2.02,1.79,3.34,2.34,1.32.55,2.82.83,4.5.83Z" fill="#1b1464" stroke="#1b1464" stroke-miterlimit="10"/><path d="M292.08,50.2h-9.24c-1.73,0-2.98-.65-3.75-1.95l-9.41-15c-.39-.58-.81-1.01-1.28-1.28-.47-.27-1.15-.4-2.06-.4h-3.48v18.63h-10.23V1.3h15.55c3.46,0,6.41.35,8.87,1.06,2.46.71,4.47,1.69,6.04,2.95,1.57,1.26,2.72,2.76,3.44,4.5.73,1.74,1.09,3.66,1.09,5.75,0,1.62-.23,3.15-.7,4.6-.47,1.45-1.14,2.77-2.03,3.96-.89,1.19-1.98,2.25-3.27,3.17-1.3.92-2.77,1.66-4.43,2.22.66.36,1.27.79,1.84,1.3.57.51,1.08,1.11,1.53,1.8l11.53,17.59ZM268.11,24.45c1.66,0,3.09-.21,4.3-.62,1.2-.42,2.19-.99,2.97-1.72.77-.73,1.34-1.59,1.7-2.58.36-.99.55-2.07.55-3.23,0-2.31-.78-4.11-2.34-5.39-1.56-1.28-3.93-1.92-7.11-1.92h-5.32v15.47h5.25Z" fill="#1b1464" stroke="#1b1464" stroke-miterlimit="10"/><path d="M308.99,1.3c3.39,0,6.31.39,8.78,1.18,2.47.79,4.5,1.88,6.09,3.29,1.59,1.4,2.77,3.07,3.53,5,.76,1.93,1.14,4.03,1.14,6.3,0,2.4-.4,4.61-1.19,6.6-.8,2-2,3.72-3.61,5.16-1.61,1.44-3.65,2.56-6.1,3.35-2.46.8-5.33,1.2-8.63,1.2h-6.48v16.82h-10.23V1.3h16.71ZM308.99,25.63c3.21,0,5.55-.76,7.04-2.29,1.49-1.53,2.23-3.62,2.23-6.27,0-1.21-.19-2.32-.56-3.32-.38-1-.94-1.85-1.7-2.56-.76-.71-1.72-1.25-2.88-1.63-1.16-.38-2.53-.57-4.13-.57h-6.48v16.65h6.48Z" fill="#1b1464" stroke="#1b1464" stroke-miterlimit="10"/><path d="M379.16,25.73c0,3.57-.61,6.89-1.82,9.94-1.22,3.06-2.93,5.69-5.15,7.92s-4.88,3.97-8,5.24c-3.11,1.27-6.57,1.9-10.37,1.9s-7.25-.63-10.37-1.9c-3.11-1.27-5.79-3.02-8.01-5.24-2.23-2.22-3.95-4.86-5.17-7.92-1.22-3.05-1.82-6.37-1.82-9.94s.61-6.88,1.82-9.92c1.22-3.04,2.94-5.68,5.17-7.9,2.23-2.22,4.9-3.97,8.01-5.24,3.11-1.27,6.57-1.9,10.37-1.9s7.25.64,10.37,1.9c3.11,1.27,5.78,3.02,8,5.26s3.93,4.88,5.15,7.92c1.22,3.04,1.82,6.34,1.82,9.89ZM368.7,25.73c0-2.56-.34-4.86-1.02-6.89-.68-2.03-1.67-3.76-2.95-5.19-1.28-1.43-2.84-2.52-4.67-3.27-1.83-.75-3.9-1.13-6.22-1.13s-4.4.38-6.24,1.13c-1.84.75-3.4,1.84-4.69,3.27-1.28,1.43-2.27,3.16-2.95,5.19-.68,2.03-1.02,4.33-1.02,6.89s.34,4.89,1.02,6.93c.68,2.03,1.66,3.76,2.95,5.17,1.28,1.42,2.85,2.5,4.69,3.25,1.84.75,3.92,1.13,6.24,1.13s4.39-.38,6.22-1.13c1.83-.75,3.39-1.84,4.67-3.25,1.28-1.42,2.27-3.14,2.95-5.17.68-2.03,1.02-4.34,1.02-6.93Z" fill="#1b1464" stroke="#1b1464" stroke-miterlimit="10"/><path d="M407.12,10.67c-.32.52-.64.89-.97,1.13-.33.24-.76.35-1.28.35s-1.04-.17-1.62-.52c-.58-.35-1.26-.72-2.03-1.13-.77-.4-1.66-.78-2.66-1.13-1-.35-2.17-.52-3.51-.52-2.36,0-4.14.52-5.32,1.57-1.18,1.04-1.77,2.41-1.77,4.09,0,1.08.32,1.97.97,2.68.65.71,1.5,1.32,2.56,1.84,1.06.52,2.26.98,3.6,1.38,1.34.4,2.72.85,4.13,1.33,1.41.48,2.78,1.05,4.13,1.7,1.34.65,2.54,1.47,3.6,2.46,1.06.99,1.91,2.2,2.56,3.62.65,1.43.97,3.16.97,5.21,0,2.22-.39,4.31-1.18,6.25-.78,1.94-1.92,3.64-3.39,5.09-1.48,1.45-3.3,2.59-5.47,3.42-2.17.83-4.63,1.25-7.38,1.25-1.57,0-3.13-.16-4.69-.47-1.56-.31-3.06-.75-4.5-1.31-1.44-.56-2.8-1.24-4.07-2.02-1.27-.79-2.39-1.66-3.34-2.63l3-4.79c.25-.36.58-.66.99-.89.41-.24.84-.35,1.3-.35.61,0,1.26.23,1.94.67.68.45,1.47.94,2.35,1.48.89.54,1.91,1.03,3.09,1.48,1.17.45,2.57.67,4.21.67,2.39,0,4.23-.54,5.54-1.62,1.31-1.08,1.96-2.68,1.96-4.82,0-1.23-.32-2.23-.97-3-.65-.76-1.49-1.4-2.54-1.92-1.05-.52-2.24-.96-3.58-1.33-1.34-.37-2.72-.78-4.13-1.23-1.41-.45-2.78-.99-4.13-1.62-1.34-.63-2.53-1.46-3.58-2.49-1.05-1.03-1.89-2.31-2.54-3.84-.65-1.53-.97-3.43-.97-5.69,0-1.82.36-3.58,1.09-5.29.73-1.71,1.8-3.22,3.21-4.55,1.41-1.33,3.14-2.39,5.2-3.2,2.06-.81,4.42-1.21,7.08-1.21,2.98,0,5.73.46,8.27,1.36,2.53.91,4.68,2.17,6.43,3.79l-2.52,4.75Z" fill="#1b1464" stroke="#1b1464" stroke-miterlimit="10"/><path d="M421.85,9.22v12.57h16.5v7.65h-16.5v12.84h21.21v7.92h-31.51V1.3h31.51v7.92h-21.21Z" fill="#1b1464" stroke="#1b1464" stroke-miterlimit="10"/><path d="M454.52,9.22v13.51h17.8v7.95h-17.8v19.51h-10.3V1.3h31.51v7.92h-21.21Z" fill="#1b1464" stroke="#1b1464" stroke-miterlimit="10"/><path d="M497.75,42.11c1.66,0,3.15-.27,4.47-.83,1.32-.55,2.43-1.33,3.34-2.34.91-1.01,1.6-2.24,2.08-3.67.48-1.44.72-3.05.72-4.85V1.3h10.23v29.11c0,2.97-.48,5.69-1.45,8.17-.97,2.48-2.35,4.62-4.14,6.42-1.8,1.8-3.98,3.2-6.55,4.21-2.57,1.01-5.47,1.52-8.69,1.52s-6.13-.51-8.71-1.52c-2.58-1.01-4.77-2.42-6.56-4.21-1.8-1.8-3.18-3.94-4.14-6.42-.97-2.48-1.45-5.21-1.45-8.17V1.3h10.23v29.11c0,1.8.24,3.42.72,4.85.48,1.44,1.17,2.66,2.08,3.67.91,1.01,2.02,1.79,3.34,2.34,1.32.55,2.82.83,4.5.83Z" fill="#1b1464" stroke="#1b1464" stroke-miterlimit="10"/><path d="M548.97,41.98v8.22h-29.36V1.3h10.23v40.67h19.13Z" fill="#1b1464" stroke="#1b1464" stroke-miterlimit="10"/><path d="M611.23,1.3v48.9h-9.04v-30.02c0-.63.02-1.3.05-2.02.03-.72.1-1.45.19-2.19l-14.15,26.52c-.77,1.46-1.97,2.19-3.58,2.19h-1.43c-.8,0-1.5-.19-2.11-.56s-1.1-.92-1.47-1.63l-14.22-26.62c.07.79.12,1.54.17,2.27.05.73.07,1.41.07,2.04v30.02h-9.04V1.3h7.77c.43,0,.82.01,1.16.03.34.02.64.08.9.19.26.1.5.26.72.47.22.21.43.51.63.89l13.84,26.08c.43.79.84,1.6,1.21,2.43.38.83.73,1.68,1.07,2.56.34-.9.7-1.77,1.07-2.63.38-.85.78-1.67,1.21-2.46l13.74-25.98c.2-.38.42-.68.65-.89.23-.21.47-.37.73-.47.26-.1.56-.16.89-.19.33-.02.72-.03,1.18-.03h7.77Z" fill="#1b1464" stroke="#1b1464" stroke-miterlimit="10"/><path d="M622.71,9.22v12.57h16.5v7.65h-16.5v12.84h21.21v7.92h-31.51V1.3h31.51v7.92h-21.21Z" fill="#1b1464" stroke="#1b1464" stroke-miterlimit="10"/><path d="M689.45,25.73c0,3.57-.61,6.86-1.82,9.86-1.22,3-2.93,5.58-5.15,7.73-2.22,2.16-4.88,3.84-8,5.05-3.11,1.21-6.57,1.82-10.37,1.82h-19.03V1.3h19.03c3.8,0,7.25.61,10.37,1.82,3.11,1.21,5.78,2.9,8,5.07,2.22,2.17,3.93,4.75,5.15,7.73,1.22,2.99,1.82,6.26,1.82,9.81ZM678.94,25.73c0-2.56-.34-4.86-1.02-6.91-.68-2.04-1.66-3.77-2.93-5.19-1.27-1.42-2.82-2.5-4.65-3.27-1.83-.76-3.9-1.15-6.22-1.15h-8.73v33.06h8.73c2.32,0,4.39-.38,6.22-1.13,1.83-.75,3.38-1.84,4.65-3.27,1.27-1.43,2.25-3.16,2.93-5.21.68-2.04,1.02-4.36,1.02-6.94Z" fill="#1b1464" stroke="#1b1464" stroke-miterlimit="10"/><path d="M700.25,50.2h-10.3V1.3h10.3v48.9Z" fill="#1b1464" stroke="#1b1464" stroke-miterlimit="10"/><path d="M749.35,50.2h-7.94c-.89,0-1.61-.21-2.17-.62-.56-.42-.97-.95-1.24-1.6l-3.34-9.33h-19.71l-3.34,9.33c-.23.56-.63,1.07-1.19,1.53-.57.46-1.28.69-2.15.69h-8.01l19.33-48.9h10.47l19.3,48.9ZM732.17,31.63l-5.35-14.96c-.32-.79-.65-1.71-1.01-2.76-.35-1.06-.69-2.2-1.01-3.44-.32,1.26-.65,2.42-1.01,3.49-.35,1.07-.69,1.99-1.01,2.78l-5.32,14.89h14.7Z" fill="#1b1464" stroke="#1b1464" stroke-miterlimit="10"/><path d="M392.98,79.84c-1.52-1.25-3.84-1.88-6.94-1.88h-5.2v15.11h5.13c1.62,0,3.02-.2,4.2-.61,1.18-.41,2.14-.97,2.9-1.68.75-.71,1.31-1.55,1.67-2.52.35-.97.53-2.02.53-3.16,0-2.26-.76-4.02-2.28-5.27Z" fill="#1b1464" stroke="#1b1464" stroke-miterlimit="10"/><path d="M358.04,80.12c-.74-.69-1.68-1.22-2.81-1.6-1.13-.37-2.48-.56-4.03-.56h-6.33v16.26h6.33c3.13,0,5.42-.75,6.88-2.24,1.45-1.49,2.18-3.53,2.18-6.12,0-1.19-.18-2.27-.55-3.24-.37-.98-.92-1.81-1.67-2.5Z" fill="#1b1464" stroke="#1b1464" stroke-miterlimit="10"/><path d="M440.13,82.52c-1.25-1.39-2.78-2.46-4.56-3.19-1.79-.73-3.81-1.1-6.08-1.1s-4.3.37-6.09,1.1c-1.8.74-3.33,1.8-4.58,3.19-1.25,1.39-2.21,3.08-2.88,5.07-.67,1.99-1,4.23-1,6.73s.33,4.78,1,6.76,1.63,3.67,2.88,5.05c1.25,1.38,2.78,2.44,4.58,3.18,1.8.74,3.83,1.1,6.09,1.1s4.29-.37,6.08-1.1c1.79-.73,3.31-1.79,4.56-3.18,1.25-1.38,2.21-3.07,2.88-5.05.67-1.99,1-4.24,1-6.76s-.33-4.74-1-6.73c-.67-1.99-1.63-3.67-2.88-5.07Z" fill="#1b1464" stroke="#1b1464" stroke-miterlimit="10"/><path d="M172.13,63.83v60.4h287.83v-60.4H172.13ZM369.12,92.31c-.78,1.95-1.95,3.63-3.53,5.04-1.58,1.4-3.56,2.5-5.96,3.27-2.4.78-5.21,1.17-8.43,1.17h-6.33v16.42h-9.99v-47.75h16.32c3.31,0,6.17.38,8.58,1.15,2.41.77,4.39,1.84,5.94,3.21,1.55,1.37,2.7,3,3.45,4.89.74,1.89,1.12,3.94,1.12,6.15,0,2.35-.39,4.5-1.17,6.45ZM400.35,118.22c-1.69,0-2.91-.64-3.66-1.91l-9.19-14.65c-.38-.57-.79-.99-1.25-1.25s-1.13-.4-2.01-.4h-3.4v18.2h-9.99v-47.75h15.19c3.37,0,6.26.35,8.66,1.04,2.4.69,4.36,1.65,5.89,2.88,1.53,1.23,2.65,2.69,3.36,4.39.71,1.7,1.07,3.57,1.07,5.61,0,1.58-.23,3.08-.68,4.49s-1.12,2.7-1.98,3.87c-.87,1.16-1.93,2.19-3.2,3.09-1.27.9-2.71,1.62-4.33,2.17.64.35,1.24.77,1.8,1.27.55.49,1.05,1.08,1.5,1.76l11.26,17.18h-9.02ZM452.46,104.03c-1.19,2.98-2.86,5.56-5.03,7.73s-4.77,3.88-7.81,5.12c-3.04,1.24-6.42,1.86-10.12,1.86s-7.08-.62-10.12-1.86c-3.04-1.24-5.65-2.95-7.83-5.12s-3.86-4.75-5.05-7.73c-1.19-2.98-1.78-6.22-1.78-9.71s.59-6.72,1.78-9.69c1.19-2.97,2.87-5.55,5.05-7.72,2.18-2.17,4.78-3.88,7.83-5.12,3.04-1.24,6.42-1.86,10.12-1.86s7.08.62,10.12,1.86c3.04,1.24,5.64,2.95,7.81,5.13,2.16,2.18,3.84,4.76,5.03,7.73,1.19,2.97,1.78,6.19,1.78,9.66s-.59,6.73-1.78,9.71Z" fill="#1b1464" stroke="#1b1464" stroke-miterlimit="10"/><path d="M518.76,69.32v48.9h-9.04v-30.02c0-.63.02-1.3.05-2.02.03-.72.1-1.45.19-2.19l-14.15,26.52c-.77,1.46-1.97,2.19-3.58,2.19h-1.43c-.8,0-1.5-.19-2.11-.56s-1.1-.92-1.47-1.63l-14.22-26.62c.07.79.12,1.54.17,2.27.05.73.07,1.41.07,2.04v30.02h-9.04v-48.9h7.77c.43,0,.82.01,1.16.03.34.02.64.08.9.19.26.1.5.26.72.47.22.21.43.51.63.89l13.84,26.08c.43.79.84,1.6,1.21,2.43.38.83.73,1.68,1.07,2.56.34-.9.7-1.77,1.07-2.63.38-.85.78-1.67,1.21-2.46l13.74-25.98c.2-.38.42-.68.65-.89.23-.21.47-.37.73-.47.26-.1.56-.16.89-.19.33-.02.72-.03,1.18-.03h7.77Z" fill="#1b1464" stroke="#1b1464" stroke-miterlimit="10"/><path d="M570.62,93.75c0,3.57-.61,6.89-1.82,9.94-1.22,3.06-2.93,5.69-5.15,7.92-2.22,2.22-4.88,3.97-8,5.24-3.11,1.27-6.57,1.9-10.37,1.9s-7.25-.63-10.37-1.9c-3.11-1.27-5.79-3.02-8.01-5.24-2.23-2.22-3.95-4.86-5.17-7.92-1.22-3.05-1.82-6.37-1.82-9.94s.61-6.88,1.82-9.92c1.22-3.04,2.94-5.68,5.17-7.9,2.23-2.22,4.9-3.97,8.01-5.24,3.11-1.27,6.57-1.9,10.37-1.9s7.25.64,10.37,1.9c3.11,1.27,5.78,3.02,8,5.26,2.22,2.24,3.93,4.88,5.15,7.92,1.22,3.04,1.82,6.34,1.82,9.89ZM560.15,93.75c0-2.56-.34-4.86-1.02-6.89-.68-2.03-1.67-3.76-2.95-5.19-1.28-1.43-2.84-2.52-4.67-3.27-1.83-.75-3.9-1.13-6.22-1.13s-4.4.38-6.24,1.13c-1.84.75-3.4,1.84-4.69,3.27-1.28,1.43-2.27,3.16-2.95,5.19-.68,2.03-1.02,4.33-1.02,6.89s.34,4.89,1.02,6.93c.68,2.03,1.66,3.76,2.95,5.17,1.28,1.42,2.85,2.5,4.69,3.25,1.84.75,3.92,1.13,6.24,1.13s4.39-.38,6.22-1.13c1.83-.75,3.39-1.84,4.67-3.25,1.28-1.42,2.27-3.14,2.95-5.17.68-2.03,1.02-4.34,1.02-6.93Z" fill="#1b1464" stroke="#1b1464" stroke-miterlimit="10"/><path d="M605.4,77.48h-14.46v40.74h-10.26v-40.74h-14.46v-8.15h39.18v8.15Z" fill="#1b1464" stroke="#1b1464" stroke-miterlimit="10"/><path d="M617.02,118.22h-10.3v-48.9h10.3v48.9Z" fill="#1b1464" stroke="#1b1464" stroke-miterlimit="10"/><path d="M668.92,93.75c0,3.57-.61,6.89-1.82,9.94-1.22,3.06-2.93,5.69-5.15,7.92s-4.88,3.97-8,5.24c-3.11,1.27-6.57,1.9-10.37,1.9s-7.25-.63-10.37-1.9c-3.11-1.27-5.79-3.02-8.01-5.24-2.23-2.22-3.95-4.86-5.17-7.92-1.22-3.05-1.82-6.37-1.82-9.94s.61-6.88,1.82-9.92c1.22-3.04,2.94-5.68,5.17-7.9,2.23-2.22,4.9-3.97,8.01-5.24,3.11-1.27,6.57-1.9,10.37-1.9s7.25.64,10.37,1.9c3.11,1.27,5.78,3.02,8,5.26s3.93,4.88,5.15,7.92c1.22,3.04,1.82,6.34,1.82,9.89ZM658.45,93.75c0-2.56-.34-4.86-1.02-6.89-.68-2.03-1.67-3.76-2.95-5.19-1.28-1.43-2.84-2.52-4.67-3.27-1.83-.75-3.9-1.13-6.22-1.13s-4.4.38-6.24,1.13c-1.84.75-3.4,1.84-4.69,3.27-1.28,1.43-2.27,3.16-2.95,5.19-.68,2.03-1.02,4.33-1.02,6.89s.34,4.89,1.02,6.93c.68,2.03,1.66,3.76,2.95,5.17,1.28,1.42,2.85,2.5,4.69,3.25,1.84.75,3.92,1.13,6.24,1.13s4.39-.38,6.22-1.13c1.83-.75,3.39-1.84,4.67-3.25,1.28-1.42,2.27-3.14,2.95-5.17.68-2.03,1.02-4.34,1.02-6.93Z" fill="#1b1464" stroke="#1b1464" stroke-miterlimit="10"/><path d="M712.26,69.32v48.9h-5.29c-.8,0-1.47-.13-2.01-.39-.55-.26-1.08-.7-1.6-1.33l-24.65-31c.07.79.12,1.56.15,2.33.03.76.05,1.47.05,2.12v28.27h-9.04v-48.9h5.39c.43,0,.8.02,1.11.05.31.03.59.11.84.24.25.12.49.29.72.49.23.2.48.47.75.81l24.82,31.14c-.09-.85-.16-1.68-.2-2.48-.05-.8-.07-1.56-.07-2.27v-27.97h9.04Z" fill="#1b1464" stroke="#1b1464" stroke-miterlimit="10"/><path d="M743.15,78.69c-.32.52-.64.89-.97,1.13-.33.24-.76.35-1.28.35s-1.04-.17-1.62-.52c-.58-.35-1.26-.72-2.03-1.13-.77-.4-1.66-.78-2.66-1.13-1-.35-2.17-.52-3.51-.52-2.36,0-4.14.52-5.32,1.57-1.18,1.04-1.77,2.41-1.77,4.09,0,1.08.32,1.97.97,2.68.65.71,1.5,1.32,2.56,1.84,1.06.52,2.26.98,3.6,1.38,1.34.4,2.72.85,4.13,1.33,1.41.48,2.78,1.05,4.13,1.7,1.34.65,2.54,1.47,3.6,2.46,1.06.99,1.91,2.2,2.56,3.62.65,1.43.97,3.16.97,5.21,0,2.22-.39,4.31-1.18,6.25-.78,1.94-1.92,3.64-3.39,5.09-1.48,1.45-3.3,2.59-5.47,3.42-2.17.83-4.63,1.25-7.38,1.25-1.57,0-3.13-.16-4.69-.47-1.56-.31-3.06-.75-4.5-1.31-1.44-.56-2.8-1.24-4.07-2.02-1.27-.79-2.39-1.66-3.34-2.63l3-4.79c.25-.36.58-.66.99-.89s.84-.35,1.3-.35c.61,0,1.26.23,1.94.67.68.45,1.47.94,2.35,1.48.89.54,1.91,1.03,3.09,1.48,1.17.45,2.57.67,4.21.67,2.39,0,4.23-.54,5.54-1.62,1.31-1.08,1.96-2.68,1.96-4.82,0-1.23-.32-2.23-.97-3-.65-.76-1.49-1.4-2.54-1.92-1.05-.52-2.24-.96-3.58-1.33-1.34-.37-2.72-.78-4.13-1.23-1.41-.45-2.78-.99-4.13-1.62-1.34-.63-2.53-1.46-3.58-2.49-1.05-1.03-1.89-2.31-2.54-3.84-.65-1.53-.97-3.43-.97-5.69,0-1.82.36-3.58,1.09-5.29.73-1.71,1.8-3.22,3.21-4.55,1.41-1.33,3.14-2.39,5.2-3.2,2.06-.81,4.42-1.21,7.08-1.21,2.98,0,5.73.46,8.27,1.36,2.53.91,4.68,2.17,6.43,3.79l-2.52,4.75Z" fill="#1b1464" stroke="#1b1464" stroke-miterlimit="10"/></svg>