<?xml version="1.0" encoding="UTF-8"?><svg id="Submark_White" xmlns="http://www.w3.org/2000/svg" width="375" height="200" viewBox="0 0 375 200"><path d="M35.28,17.03c3.04,0,5.65.36,7.83,1.07,2.18.71,3.98,1.69,5.39,2.94,1.41,1.25,2.45,2.72,3.12,4.42.67,1.7,1.01,3.53,1.01,5.5,0,2.13-.35,4.08-1.04,5.85-.69,1.78-1.75,3.3-3.17,4.56-1.42,1.27-3.22,2.26-5.4,2.97-2.18.71-4.76,1.07-7.74,1.07h-5.21v14.25h-10.01V17.03h15.22ZM35.28,37.95c2.61,0,4.48-.61,5.63-1.84,1.14-1.23,1.72-2.95,1.72-5.15,0-.98-.15-1.86-.44-2.66-.3-.8-.75-1.49-1.35-2.06-.6-.58-1.36-1.02-2.28-1.33-.92-.31-2.01-.47-3.27-.47h-5.21v13.52h5.21Z" fill="#fff"/><path d="M71.46,51.85c1.34,0,2.54-.22,3.6-.66,1.06-.44,1.95-1.07,2.68-1.89.73-.82,1.29-1.82,1.67-3,.38-1.18.58-2.52.58-4.02v-25.25h10.01v25.25c0,2.61-.43,5.01-1.29,7.2-.86,2.19-2.09,4.07-3.69,5.65-1.6,1.58-3.54,2.81-5.83,3.69-2.29.88-4.87,1.32-7.73,1.32s-5.47-.44-7.76-1.32c-2.29-.88-4.23-2.11-5.83-3.69-1.6-1.58-2.82-3.46-3.67-5.65-.85-2.18-1.27-4.58-1.27-7.2v-25.25h10.01v25.22c0,1.5.19,2.84.58,4.02.39,1.18.94,2.18,1.67,3.01.73.83,1.62,1.46,2.68,1.9,1.06.44,2.25.66,3.6.66Z" fill="#fff"/><path d="M126.7,59.66h-9.06c-1.68,0-2.88-.62-3.61-1.87l-7.17-12.38c-.34-.53-.71-.91-1.12-1.16-.41-.24-1.01-.37-1.78-.37h-2.55v15.77h-10.01V17.03h14.03c3.12,0,5.78.32,7.98.95,2.2.63,4,1.52,5.39,2.65s2.4,2.47,3.03,4.01c.63,1.54.95,3.22.95,5.03,0,1.39-.19,2.69-.56,3.92-.38,1.23-.93,2.37-1.66,3.41-.73,1.04-1.63,1.98-2.71,2.79-1.08.82-2.31,1.49-3.72,2.02.65.33,1.26.75,1.84,1.24.57.5,1.09,1.09,1.54,1.77l9.18,14.83ZM105.45,37.07c1.36,0,2.52-.17,3.48-.51.96-.34,1.74-.81,2.35-1.42.61-.6,1.06-1.31,1.33-2.12.28-.81.41-1.68.41-2.62,0-1.87-.62-3.34-1.85-4.39-1.23-1.05-3.14-1.58-5.73-1.58h-4.03v12.64h4.03Z" fill="#fff"/><path d="M141.3,17.03c3.04,0,5.65.36,7.83,1.07,2.18.71,3.98,1.69,5.39,2.94,1.41,1.25,2.45,2.72,3.12,4.42.67,1.7,1.01,3.53,1.01,5.5,0,2.13-.35,4.08-1.04,5.85-.69,1.78-1.75,3.3-3.17,4.56-1.42,1.27-3.22,2.26-5.4,2.97-2.18.71-4.76,1.07-7.74,1.07h-5.21v14.25h-10.01V17.03h15.22ZM141.3,37.95c2.61,0,4.48-.61,5.63-1.84,1.14-1.23,1.72-2.95,1.72-5.15,0-.98-.15-1.86-.44-2.66-.3-.8-.75-1.49-1.35-2.06-.6-.58-1.36-1.02-2.28-1.33-.92-.31-2.01-.47-3.27-.47h-5.21v13.52h5.21Z" fill="#fff"/><path d="M203.18,38.33c0,3.08-.54,5.95-1.61,8.6-1.08,2.65-2.59,4.96-4.54,6.92-1.95,1.96-4.31,3.5-7.06,4.61-2.75,1.11-5.81,1.67-9.16,1.67s-6.42-.56-9.18-1.67c-2.76-1.11-5.13-2.65-7.09-4.61-1.96-1.96-3.48-4.27-4.56-6.92-1.08-2.65-1.61-5.52-1.61-8.6s.54-5.95,1.61-8.6c1.08-2.65,2.6-4.95,4.56-6.91,1.96-1.95,4.33-3.48,7.09-4.59,2.76-1.11,5.82-1.67,9.18-1.67s6.41.56,9.16,1.68c2.75,1.12,5.11,2.66,7.06,4.61,1.95,1.95,3.47,4.25,4.54,6.91,1.08,2.65,1.61,5.51,1.61,8.57ZM192.93,38.33c0-2.11-.28-4-.83-5.69-.55-1.69-1.35-3.12-2.38-4.29-1.04-1.17-2.3-2.07-3.8-2.69-1.5-.62-3.21-.94-5.12-.94s-3.66.31-5.17.94c-1.51.62-2.78,1.52-3.82,2.69-1.04,1.17-1.83,2.6-2.38,4.29-.55,1.69-.83,3.58-.83,5.69s.28,4.03.83,5.72c.55,1.69,1.35,3.12,2.38,4.29,1.04,1.17,2.31,2.06,3.82,2.68,1.51.61,3.23.92,5.17.92s3.62-.31,5.12-.92c1.5-.61,2.77-1.51,3.8-2.68,1.04-1.17,1.83-2.6,2.38-4.29.55-1.69.83-3.59.83-5.72Z" fill="#fff"/><path d="M228.64,25.69c-.3.47-.61.82-.93,1.05s-.75.35-1.26.35c-.45,0-.94-.14-1.47-.42-.52-.28-1.12-.6-1.78-.95-.66-.35-1.42-.67-2.27-.95-.85-.28-1.82-.42-2.9-.42-1.88,0-3.27.4-4.19,1.19-.92.79-1.38,1.86-1.38,3.2,0,.86.28,1.57.83,2.14.55.57,1.28,1.05,2.18,1.46.9.41,1.92.79,3.08,1.13,1.15.34,2.33.72,3.54,1.14,1.2.42,2.38.91,3.54,1.48,1.15.57,2.18,1.29,3.08,2.17.9.88,1.62,1.95,2.18,3.2.55,1.26.83,2.77.83,4.55,0,1.97-.35,3.81-1.04,5.53-.69,1.72-1.69,3.21-3.01,4.49-1.31,1.28-2.93,2.28-4.86,3.01-1.92.73-4.11,1.1-6.56,1.1-1.34,0-2.71-.14-4.1-.41s-2.74-.66-4.04-1.16c-1.3-.5-2.53-1.09-3.67-1.77-1.15-.68-2.14-1.44-2.99-2.28l2.96-4.62c.24-.33.55-.61.93-.83.38-.22.8-.34,1.26-.34.59,0,1.19.19,1.79.56.6.37,1.28.78,2.04,1.23.76.45,1.63.86,2.62,1.23.99.37,2.15.56,3.49.56,1.82,0,3.23-.4,4.23-1.19s1.51-2.04,1.51-3.76c0-1-.28-1.8-.83-2.43-.55-.62-1.28-1.14-2.18-1.55-.9-.41-1.92-.77-3.06-1.08-1.14-.31-2.32-.66-3.52-1.04-1.2-.38-2.38-.85-3.52-1.4-1.15-.56-2.17-1.29-3.06-2.19-.9-.91-1.62-2.04-2.18-3.39-.55-1.36-.83-3.03-.83-5.02,0-1.6.33-3.16.98-4.68s1.61-2.88,2.87-4.07c1.26-1.19,2.81-2.14,4.65-2.85,1.84-.71,3.94-1.07,6.31-1.07,1.32,0,2.61.1,3.86.31,1.25.21,2.44.51,3.57.91,1.12.4,2.18.88,3.15,1.43.98.56,1.85,1.19,2.62,1.89l-2.49,4.59Z" fill="#fff"/><path d="M242.94,24.64v9.95h13.56v7.31h-13.56v10.15h17.71v7.61h-27.77V17.03h27.77v7.61h-17.71Z" fill="#fff"/><path d="M271.89,24.64v10.8h14.74v7.64h-14.74v16.59h-10.07V17.03h27.77v7.61h-17.71Z" fill="#fff"/><path d="M309.46,51.85c1.34,0,2.54-.22,3.6-.66,1.06-.44,1.95-1.07,2.68-1.89.73-.82,1.29-1.82,1.67-3,.38-1.18.58-2.52.58-4.02v-25.25h10.01v25.25c0,2.61-.43,5.01-1.29,7.2-.86,2.19-2.09,4.07-3.69,5.65-1.6,1.58-3.54,2.81-5.83,3.69-2.29.88-4.87,1.32-7.73,1.32s-5.47-.44-7.76-1.32c-2.29-.88-4.23-2.11-5.83-3.69-1.6-1.58-2.82-3.46-3.67-5.65-.85-2.18-1.27-4.58-1.27-7.2v-25.25h10.01v25.22c0,1.5.19,2.84.58,4.02.39,1.18.94,2.18,1.67,3.01.73.83,1.62,1.46,2.68,1.9,1.06.44,2.25.66,3.6.66Z" fill="#fff"/><path d="M355.41,51.76v7.9h-26V17.03h10.01v34.73h15.99Z" fill="#fff"/><path d="M75.29,73.18v48.08h-9.95v-27.65c0-.64.02-1.33.05-2.08.03-.75.09-1.51.18-2.28l-12.92,24.72c-.4.77-.94,1.35-1.62,1.75-.68.4-1.45.59-2.32.59h-1.54c-.87,0-1.64-.2-2.32-.59-.68-.4-1.22-.98-1.62-1.75l-12.92-24.78c.07.79.12,1.57.17,2.33.04.76.07,1.46.07,2.1v27.65h-9.95v-48.08h8.61c.49,0,.92.01,1.29.03.37.02.7.09.99.2.29.11.55.28.78.51.23.23.46.56.68.97l12.52,24.39c.45.84.87,1.71,1.29,2.61.41.9.81,1.83,1.19,2.77.38-.97.77-1.91,1.19-2.84.41-.92.85-1.8,1.32-2.64l12.49-24.29c.22-.42.45-.74.68-.97.23-.23.5-.4.78-.51.29-.11.62-.18.99-.2.37-.02.8-.03,1.29-.03h8.61Z" fill="#fff"/><path d="M88.04,81.76v11.22h15.29v8.25h-15.29v11.45h19.97v8.58h-31.32v-48.08h31.32v8.58h-19.97Z" fill="#fff"/><path d="M153.56,97.21c0,3.48-.61,6.68-1.82,9.62-1.21,2.94-2.92,5.48-5.13,7.62-2.2,2.15-4.86,3.82-7.96,5.02s-6.55,1.8-10.33,1.8h-18.9v-48.08h18.9c3.78,0,7.23.61,10.33,1.81,3.11,1.21,5.76,2.88,7.96,5.02,2.2,2.13,3.91,4.67,5.13,7.61,1.21,2.94,1.82,6.13,1.82,9.59ZM142,97.21c0-2.38-.31-4.52-.93-6.44-.62-1.91-1.52-3.54-2.69-4.87-1.17-1.33-2.6-2.35-4.29-3.07-1.69-.71-3.62-1.07-5.78-1.07h-7.55v30.92h7.55c2.16,0,4.08-.36,5.78-1.07,1.69-.71,3.12-1.74,4.29-3.07,1.17-1.33,2.06-2.95,2.69-4.87.62-1.91.93-4.07.93-6.47Z" fill="#fff"/><path d="M165.84,121.26h-11.35v-48.08h11.35v48.08Z" fill="#fff"/><path d="M214.63,121.26h-8.75c-.98,0-1.77-.23-2.37-.68-.6-.45-1.06-1.03-1.37-1.73l-2.87-8.38h-18.5l-2.87,8.38c-.25.62-.68,1.17-1.32,1.67-.63.5-1.42.74-2.35.74h-8.82l18.83-48.08h11.55l18.83,48.08ZM196.7,102.88l-4.51-13.17c-.33-.84-.69-1.82-1.07-2.95-.38-1.13-.76-2.36-1.14-3.68-.33,1.34-.69,2.59-1.07,3.73-.38,1.14-.73,2.13-1.07,2.97l-4.47,13.1h13.32Z" fill="#fff"/><path d="M253.96,84.57c-.66-.63-1.5-1.12-2.5-1.46-1.01-.34-2.2-.51-3.59-.51h-5.72v14.84h5.72c2.86,0,4.92-.67,6.18-2.02,1.26-1.35,1.89-3.23,1.89-5.65,0-1.07-.16-2.04-.49-2.92-.32-.88-.82-1.63-1.48-2.26Z" fill="#fff"/><path d="M289.19,84.33c-1.35-1.16-3.45-1.73-6.29-1.73h-4.42v13.88h4.42c1.5,0,2.77-.19,3.82-.56,1.05-.37,1.91-.89,2.58-1.56.67-.66,1.16-1.44,1.46-2.33.3-.89.46-1.85.46-2.88,0-2.06-.68-3.66-2.03-4.82Z" fill="#fff"/><path d="M336.42,86.9c-1.14-1.29-2.53-2.27-4.18-2.96s-3.52-1.03-5.62-1.03-4.01.34-5.67,1.03c-1.66.69-3.06,1.67-4.19,2.96-1.14,1.28-2.01,2.85-2.62,4.71-.61,1.85-.91,3.93-.91,6.25s.3,4.43.91,6.28c.61,1.85,1.48,3.42,2.62,4.71,1.14,1.29,2.54,2.26,4.19,2.94,1.66.67,3.55,1.01,5.67,1.01s3.98-.34,5.62-1.01c1.65-.67,3.04-1.65,4.18-2.94,1.14-1.29,2.01-2.85,2.62-4.71.61-1.85.91-3.94.91-6.28s-.3-4.39-.91-6.25c-.61-1.85-1.48-3.42-2.62-4.71Z" fill="#fff"/><path d="M223.74,67.14v58.6h132.52v-58.6h-132.52ZM265.78,96.18c-.76,1.95-1.92,3.62-3.48,5.01-1.56,1.39-3.54,2.48-5.93,3.26-2.39.78-5.23,1.17-8.5,1.17h-5.72v15.64h-10.99v-46.8h16.71c3.34,0,6.2.39,8.6,1.17,2.39.78,4.37,1.86,5.92,3.23,1.55,1.37,2.69,2.99,3.43,4.85.74,1.86,1.11,3.88,1.11,6.04,0,2.33-.38,4.48-1.14,6.42ZM296.3,121.26c-1.84,0-3.16-.69-3.97-2.06l-7.87-13.59c-.37-.58-.78-1-1.23-1.27s-1.1-.4-1.95-.4h-2.79v17.31h-10.99v-46.8h15.41c3.42,0,6.34.35,8.76,1.04,2.42.7,4.39,1.67,5.92,2.91,1.53,1.24,2.64,2.71,3.33,4.4.69,1.69,1.04,3.53,1.04,5.53,0,1.52-.21,2.96-.62,4.3-.41,1.35-1.02,2.6-1.82,3.74s-1.79,2.17-2.97,3.07c-1.18.9-2.54,1.64-4.08,2.22.71.36,1.39.82,2.01,1.37s1.19,1.19,1.69,1.94l10.08,16.29h-9.95ZM349.42,107.29c-1.18,2.91-2.84,5.44-4.99,7.6s-4.73,3.84-7.75,5.06-6.38,1.83-10.06,1.83-7.04-.61-10.08-1.83c-3.03-1.22-5.63-2.91-7.78-5.06-2.16-2.15-3.82-4.68-5-7.6-1.18-2.91-1.77-6.06-1.77-9.44s.59-6.53,1.77-9.44c1.18-2.91,2.85-5.44,5-7.58,2.16-2.14,4.75-3.82,7.78-5.04,3.03-1.22,6.39-1.83,10.08-1.83s7.04.62,10.06,1.85,5.61,2.92,7.75,5.06c2.15,2.14,3.81,4.67,4.99,7.58,1.18,2.91,1.77,6.05,1.77,9.41s-.59,6.53-1.77,9.44Z" fill="#fff"/><path d="M75.29,134.78v48.08h-9.95v-27.65c0-.64.02-1.33.05-2.08.03-.75.09-1.51.18-2.28l-12.92,24.72c-.4.77-.94,1.35-1.62,1.75-.68.4-1.45.59-2.32.59h-1.54c-.87,0-1.64-.2-2.32-.59-.68-.4-1.22-.98-1.62-1.75l-12.92-24.78c.07.79.12,1.57.17,2.33.04.76.07,1.46.07,2.1v27.65h-9.95v-48.08h8.61c.49,0,.92.01,1.29.03.37.02.7.09.99.2.29.11.55.28.78.51.23.23.46.56.68.97l12.52,24.39c.45.84.87,1.71,1.29,2.61.41.9.81,1.83,1.19,2.77.38-.97.77-1.91,1.19-2.84.41-.92.85-1.8,1.32-2.64l12.49-24.29c.22-.42.45-.74.68-.97.23-.23.5-.4.78-.51.29-.11.62-.18.99-.2.37-.02.8-.03,1.29-.03h8.61Z" fill="#fff"/><path d="M135.39,158.81c0,3.48-.61,6.71-1.82,9.7-1.21,2.99-2.92,5.59-5.13,7.8-2.2,2.21-4.86,3.94-7.96,5.2s-6.55,1.88-10.33,1.88-7.23-.63-10.35-1.88c-3.12-1.25-5.78-2.99-8-5.2-2.22-2.21-3.93-4.81-5.14-7.8-1.21-2.99-1.82-6.23-1.82-9.7s.61-6.71,1.82-9.7c1.21-2.99,2.93-5.59,5.14-7.79,2.21-2.2,4.88-3.93,8-5.18,3.12-1.25,6.57-1.88,10.35-1.88s7.23.63,10.33,1.9,5.76,3,7.96,5.2c2.2,2.2,3.91,4.8,5.13,7.79,1.21,2.99,1.82,6.22,1.82,9.67ZM123.84,158.81c0-2.38-.31-4.52-.94-6.42-.62-1.9-1.52-3.51-2.69-4.83-1.17-1.32-2.6-2.33-4.29-3.04-1.69-.7-3.62-1.06-5.78-1.06s-4.12.35-5.83,1.06c-1.7.7-3.14,1.72-4.31,3.04-1.17,1.32-2.06,2.93-2.69,4.83-.62,1.9-.93,4.04-.93,6.42s.31,4.55.93,6.45c.62,1.9,1.52,3.51,2.69,4.83,1.17,1.32,2.6,2.33,4.31,3.02s3.64,1.04,5.83,1.04,4.08-.35,5.78-1.04c1.69-.69,3.12-1.7,4.29-3.02,1.17,1.32,2.06-2.93,2.69-4.83.62-1.9.94-4.05.94-6.45Z" fill="#fff"/><path d="M178.77,143.63h-13.69v39.24h-11.29v-39.24h-13.69v-8.84h38.67v8.84Z" fill="#fff"/><path d="M198.77,182.86h-11.35v-48.08h11.35v48.08Z" fill="#fff"/><path d="M258.87,158.81c0,3.48-.61,6.71-1.82,9.7-1.21,2.99-2.92,5.59-5.13,7.8-2.2,2.21-4.86,3.94-7.96,5.2s-6.55,1.88-10.33,1.88-7.23-.63-10.35-1.88c-3.12-1.25-5.78-2.99-8-5.2-2.22-2.21-3.93-4.81-5.14-7.8-1.21-2.99-1.82-6.23-1.82-9.7s.61-6.71,1.82-9.7c1.21-2.99,2.93-5.59,5.14-7.79,2.21-2.2,4.88-3.93,8-5.18,3.12-1.25,6.57-1.88,10.35-1.88s7.23.63,10.33,1.9,5.76,3,7.96,5.2c2.2,2.2,3.91,4.8,5.13,7.79,1.21,2.99,1.82,6.22,1.82,9.67ZM247.32,158.81c0-2.38-.31-4.52-.94-6.42-.62-1.9-1.52-3.51-2.69-4.83-1.17-1.32-2.6-2.33-4.29-3.04-1.69-.7-3.62-1.06-5.78-1.06s-4.12.35-5.83,1.06c-1.7.7-3.14,1.72-4.31,3.04-1.17,1.32-2.06,2.93-2.69,4.83-.62,1.9-.93,4.04-.93,6.42s.31,4.55.93,6.45c.62,1.9,1.52,3.51,2.69,4.83,1.17,1.32,2.6,2.33,4.31,3.02s3.64,1.04,5.83,1.04,4.08-.35,5.78-1.04c1.69-.69,3.12-1.7,4.29-3.02,1.17-1.32,2.06-2.93,2.69-4.83.62-1.9.94-4.05.94-6.45Z" fill="#fff"/><path d="M310.93,134.78v48.08h-5.88c-.87,0-1.6-.14-2.19-.41-.59-.27-1.17-.75-1.75-1.44l-22.94-28.68c.09.86.15,1.69.18,2.49.03.8.05,1.56.05,2.26v25.77h-9.95v-48.08h5.94c.49,0,.9.02,1.24.07.33.04.63.13.9.25.27.12.52.29.77.51.24.22.52.52.83.89l23.14,28.88c-.11-.92-.19-1.82-.23-2.69-.04-.87-.07-1.69-.07-2.46v-25.44h9.95Z" fill="#fff"/><path d="M350.17,144.55c-.33.53-.68.92-1.05,1.19-.37.26-.84.4-1.42.4-.51,0-1.06-.16-1.65-.48-.59-.32-1.26-.68-2-1.07-.75-.4-1.6-.75-2.55-1.07-.96-.32-2.05-.48-3.27-.48-2.11,0-3.69.45-4.72,1.34s-1.55,2.1-1.55,3.61c0,.97.31,1.77.94,2.41.62.64,1.44,1.19,2.45,1.65,1.01.46,2.17.89,3.47,1.27s2.63.81,3.99,1.29c1.36.47,2.69,1.03,3.99,1.67,1.3.64,2.46,1.45,3.47,2.44,1.01.99,1.83,2.19,2.45,3.61.62,1.42.94,3.13.94,5.13,0,2.22-.39,4.3-1.17,6.24-.78,1.94-1.91,3.62-3.39,5.07-1.48,1.44-3.31,2.57-5.48,3.4s-4.64,1.24-7.4,1.24c-1.51,0-3.06-.15-4.62-.46-1.57-.31-3.09-.74-4.56-1.3s-2.85-1.23-4.14-2c-1.29-.77-2.42-1.63-3.37-2.57l3.34-5.21c.27-.37.62-.69,1.05-.94s.91-.38,1.42-.38c.67,0,1.34.21,2.02.63.68.42,1.45.88,2.3,1.39.86.51,1.84.97,2.96,1.39,1.11.42,2.43.63,3.94.63,2.05,0,3.64-.45,4.77-1.34,1.14-.89,1.7-2.3,1.7-4.24,0-1.12-.31-2.03-.93-2.74-.62-.7-1.44-1.29-2.45-1.75-1.01-.46-2.17-.87-3.46-1.22-1.29-.35-2.62-.74-3.97-1.17-1.36-.43-2.68-.96-3.97-1.58-1.29-.63-2.44-1.45-3.46-2.48-1.01-1.02-1.83-2.3-2.45-3.83-.62-1.53-.93-3.42-.93-5.66,0-1.8.37-3.56,1.1-5.28.73-1.72,1.81-3.24,3.24-4.59,1.42-1.34,3.17-2.41,5.24-3.22s4.44-1.2,7.11-1.2c1.49,0,2.94.12,4.36.35,1.41.23,2.75.57,4.02,1.02,1.27.45,2.45.99,3.56,1.62s2.09,1.34,2.96,2.13l-2.8,5.18Z" fill="#fff"/></svg>