<?xml version="1.0" encoding="UTF-8"?><svg id="Secondary_Dark" xmlns="http://www.w3.org/2000/svg" width="600" height="150" viewBox="0 0 600 150"><path d="M300.8,136.81H13.67v-61.05h287.13v61.05ZM14.67,135.81h285.13v-59.05H14.67v59.05Z" fill="#54595f"/><path d="M30.77,13.76c3.38,0,6.3.39,8.76,1.18,2.46.78,4.48,1.88,6.07,3.28,1.59,1.4,2.76,3.06,3.52,4.99.76,1.93,1.14,4.02,1.14,6.28,0,2.4-.4,4.59-1.19,6.59-.79,1.99-2,3.71-3.6,5.14-1.61,1.43-3.64,2.55-6.09,3.34-2.45.8-5.32,1.19-8.6,1.19h-6.46v16.77h-10.2V13.76h16.66ZM30.77,38.02c3.2,0,5.54-.76,7.02-2.29,1.48-1.52,2.23-3.61,2.23-6.25,0-1.21-.19-2.31-.56-3.31-.37-1-.94-1.85-1.7-2.55-.76-.71-1.72-1.25-2.87-1.63-1.16-.38-2.53-.57-4.11-.57h-6.46v16.6h6.46Z" fill="#54595f"/><path d="M24.81,63.02h-11.2V13.26h17.16c3.41,0,6.41.4,8.91,1.2,2.51.8,4.62,1.94,6.25,3.38,1.64,1.45,2.87,3.19,3.65,5.18.78,1.98,1.17,4.15,1.17,6.47,0,2.45-.41,4.73-1.23,6.77-.82,2.06-2.08,3.85-3.74,5.33-1.65,1.47-3.76,2.63-6.27,3.45-2.49.81-5.43,1.22-8.76,1.22h-5.96v16.77ZM14.6,62.02h9.2v-16.77h6.96c3.22,0,6.06-.39,8.45-1.17,2.37-.77,4.36-1.86,5.91-3.24,1.54-1.37,2.71-3.04,3.47-4.95.77-1.93,1.15-4.08,1.15-6.4,0-2.19-.37-4.24-1.1-6.1-.73-1.84-1.87-3.46-3.39-4.8-1.53-1.35-3.51-2.42-5.89-3.18-2.4-.76-5.29-1.15-8.6-1.15H14.6v47.76ZM30.77,38.52h-6.96v-17.6h6.96c1.63,0,3.07.2,4.27.6,1.22.4,2.25.99,3.06,1.74.81.76,1.43,1.68,1.83,2.74.39,1.05.59,2.22.59,3.49,0,2.77-.8,4.99-2.37,6.6-1.58,1.62-4.06,2.44-7.38,2.44ZM24.81,37.52h5.96c3.04,0,5.28-.72,6.66-2.13,1.38-1.42,2.09-3.41,2.09-5.9,0-1.14-.18-2.2-.53-3.13-.35-.92-.87-1.71-1.57-2.36-.7-.65-1.61-1.16-2.69-1.52-1.1-.36-2.43-.55-3.96-.55h-5.96v15.6Z" fill="#54595f"/><path d="M71.85,54.45c1.65,0,3.14-.27,4.45-.82,1.31-.55,2.43-1.33,3.33-2.34.91-1.01,1.6-2.23,2.07-3.66.48-1.43.71-3.05.71-4.84V13.76h10.2v29.04c0,2.96-.48,5.67-1.45,8.15-.96,2.48-2.34,4.61-4.13,6.4-1.79,1.79-3.97,3.19-6.53,4.2-2.56,1.01-5.45,1.51-8.67,1.51s-6.12-.5-8.69-1.51c-2.57-1.01-4.76-2.41-6.55-4.2-1.79-1.79-3.17-3.93-4.13-6.4-.96-2.48-1.45-5.19-1.45-8.15V13.76h10.2v29.04c0,1.79.24,3.41.71,4.84.48,1.43,1.17,2.65,2.07,3.66.91,1.01,2.02,1.79,3.33,2.34,1.31.55,2.81.82,4.49.82Z" fill="#54595f"/><path d="M71.85,63.56c-3.27,0-6.25-.52-8.87-1.55-2.63-1.03-4.89-2.48-6.72-4.31-1.83-1.83-3.26-4.04-4.24-6.57-.98-2.52-1.48-5.32-1.48-8.33V13.26h11.2v29.54c0,1.73.23,3.31.69,4.68.45,1.36,1.12,2.53,1.97,3.49.85.95,1.91,1.69,3.15,2.21,1.25.52,2.69.78,4.3.78s3.02-.26,4.26-.78c1.24-.52,2.3-1.26,3.15-2.21.86-.95,1.52-2.13,1.97-3.49.46-1.38.69-2.95.69-4.68V13.26h11.2v29.54c0,3.01-.5,5.81-1.48,8.33-.98,2.53-2.41,4.74-4.24,6.57-1.83,1.83-4.08,3.28-6.7,4.31-2.61,1.03-5.59,1.55-8.85,1.55ZM51.53,14.26v28.54c0,2.88.47,5.56,1.41,7.97.93,2.4,2.29,4.5,4.02,6.23,1.73,1.73,3.88,3.11,6.37,4.09,2.5.98,5.36,1.48,8.51,1.48s6-.5,8.49-1.48c2.49-.98,4.63-2.35,6.36-4.09,1.73-1.73,3.09-3.83,4.02-6.23.94-2.41,1.41-5.09,1.41-7.97V14.26h-9.2v28.54c0,1.84-.25,3.52-.74,5-.5,1.49-1.23,2.78-2.18,3.84-.95,1.06-2.13,1.89-3.51,2.46-1.37.57-2.93.86-4.65.86s-3.31-.29-4.68-.86c-1.38-.58-2.56-1.4-3.51-2.46-.95-1.05-1.68-2.35-2.18-3.84-.49-1.48-.74-3.16-.74-5V14.26h-9.2Z" fill="#54595f"/><path d="M133.12,62.52h-9.22c-1.72,0-2.97-.65-3.74-1.95l-9.39-14.96c-.39-.58-.81-1.01-1.28-1.28-.46-.27-1.15-.4-2.06-.4h-3.47v18.58h-10.2V13.76h15.51c3.45,0,6.39.35,8.84,1.06,2.45.71,4.45,1.69,6.02,2.94,1.56,1.26,2.71,2.75,3.43,4.49.73,1.74,1.09,3.65,1.09,5.73,0,1.61-.23,3.14-.7,4.59-.46,1.45-1.14,2.76-2.02,3.95-.88,1.19-1.97,2.24-3.26,3.16-1.29.92-2.77,1.66-4.42,2.22.66.36,1.27.79,1.84,1.29.57.5,1.08,1.1,1.53,1.8l11.49,17.54ZM109.22,36.84c1.65,0,3.08-.21,4.28-.62,1.2-.41,2.19-.99,2.96-1.71.77-.73,1.34-1.58,1.7-2.57.36-.99.54-2.06.54-3.23,0-2.31-.78-4.1-2.33-5.38-1.55-1.28-3.92-1.92-7.09-1.92h-5.3v15.43h5.24Z" fill="#54595f"/><path d="M134.05,63.02h-10.14c-1.9,0-3.31-.74-4.17-2.19l-9.38-14.94c-.33-.51-.71-.88-1.1-1.11-.39-.22-.99-.34-1.81-.34h-2.97v18.58h-11.2V13.26h16.01c3.48,0,6.5.36,8.98,1.08,2.5.72,4.58,1.74,6.19,3.03,1.62,1.3,2.83,2.88,3.58,4.68.75,1.79,1.13,3.78,1.13,5.92,0,1.66-.24,3.25-.72,4.74-.48,1.49-1.19,2.87-2.1,4.09-.91,1.22-2.05,2.32-3.38,3.27-1.07.76-2.26,1.4-3.57,1.92.36.25.7.52,1.03.81.6.53,1.14,1.17,1.62,1.9l12,18.32ZM103.48,43.43h3.97c1.01,0,1.76.15,2.31.47.53.31,1.01.79,1.44,1.43l9.39,14.97c.69,1.16,1.77,1.72,3.32,1.72h8.29l-10.99-16.77c-.43-.66-.91-1.23-1.44-1.7-.54-.48-1.12-.89-1.74-1.23l-1-.55,1.08-.37c1.6-.54,3.05-1.27,4.29-2.15,1.24-.88,2.3-1.91,3.15-3.05.85-1.14,1.5-2.42,1.95-3.8.45-1.39.67-2.88.67-4.43,0-2.01-.35-3.87-1.05-5.54-.69-1.65-1.8-3.09-3.29-4.29-1.51-1.21-3.47-2.17-5.84-2.85-2.39-.69-5.32-1.04-8.7-1.04h-15.01v47.76h9.2v-18.58ZM109.22,37.34h-5.74v-16.43h5.8c3.28,0,5.77.68,7.41,2.03,1.67,1.37,2.51,3.31,2.51,5.76,0,1.22-.19,2.36-.57,3.4-.39,1.05-1,1.98-1.83,2.76-.82.77-1.88,1.39-3.14,1.82-1.25.43-2.74.65-4.45.65ZM104.48,36.34h4.74c1.59,0,2.98-.2,4.12-.59,1.13-.39,2.06-.93,2.78-1.61.71-.67,1.24-1.47,1.57-2.38.34-.93.51-1.95.51-3.05,0-2.17-.7-3.8-2.15-4.99-1.45-1.2-3.73-1.8-6.77-1.8h-4.8v14.43Z" fill="#54595f"/><path d="M149.99,13.76c3.38,0,6.3.39,8.76,1.18,2.46.78,4.48,1.88,6.07,3.28,1.59,1.4,2.76,3.06,3.52,4.99.76,1.93,1.14,4.02,1.14,6.28,0,2.4-.4,4.59-1.19,6.59-.79,1.99-2,3.71-3.6,5.14-1.61,1.43-3.64,2.55-6.09,3.34-2.45.8-5.32,1.19-8.6,1.19h-6.46v16.77h-10.2V13.76h16.66ZM149.99,38.02c3.2,0,5.54-.76,7.02-2.29,1.48-1.52,2.23-3.61,2.23-6.25,0-1.21-.19-2.31-.56-3.31-.37-1-.94-1.85-1.7-2.55-.76-.71-1.72-1.25-2.87-1.63-1.16-.38-2.53-.57-4.11-.57h-6.46v16.6h6.46Z" fill="#54595f"/><path d="M144.03,63.02h-11.2V13.26h17.16c3.41,0,6.41.4,8.91,1.2,2.51.8,4.62,1.94,6.25,3.38,1.64,1.45,2.87,3.19,3.65,5.18.78,1.98,1.17,4.15,1.17,6.47,0,2.45-.41,4.73-1.23,6.77-.82,2.06-2.08,3.85-3.74,5.33-1.65,1.47-3.76,2.63-6.27,3.45-2.49.81-5.43,1.22-8.76,1.22h-5.96v16.77ZM133.83,62.02h9.2v-16.77h6.96c3.22,0,6.06-.39,8.45-1.17,2.37-.77,4.36-1.86,5.91-3.24,1.54-1.37,2.71-3.04,3.47-4.95.77-1.93,1.15-4.08,1.15-6.4,0-2.19-.37-4.24-1.1-6.1-.73-1.84-1.87-3.46-3.39-4.8-1.53-1.35-3.51-2.42-5.89-3.18-2.4-.76-5.29-1.15-8.6-1.15h-16.16v47.76ZM149.99,38.52h-6.96v-17.6h6.96c1.63,0,3.07.2,4.27.6,1.22.4,2.25.99,3.06,1.74.81.76,1.43,1.68,1.83,2.74.39,1.05.59,2.22.59,3.49,0,2.77-.8,4.99-2.37,6.6-1.58,1.62-4.06,2.44-7.38,2.44ZM144.03,37.52h5.96c3.04,0,5.28-.72,6.66-2.13,1.38-1.42,2.09-3.41,2.09-5.9,0-1.14-.18-2.2-.53-3.13-.35-.92-.87-1.71-1.57-2.36-.7-.65-1.61-1.16-2.69-1.52-1.1-.36-2.43-.55-3.96-.55h-5.96v15.6Z" fill="#54595f"/><path d="M219.98,38.12c0,3.56-.61,6.87-1.82,9.91-1.21,3.05-2.92,5.68-5.13,7.9-2.21,2.22-4.87,3.96-7.97,5.23-3.11,1.27-6.55,1.9-10.34,1.9s-7.23-.63-10.34-1.9c-3.11-1.27-5.77-3.01-7.99-5.23-2.22-2.22-3.94-4.85-5.15-7.9-1.21-3.05-1.82-6.35-1.82-9.91s.61-6.86,1.82-9.9c1.21-3.04,2.93-5.66,5.15-7.88,2.22-2.22,4.89-3.96,7.99-5.23,3.11-1.27,6.55-1.9,10.34-1.9s7.23.63,10.34,1.9c3.11,1.27,5.76,3.01,7.97,5.24,2.21,2.23,3.92,4.86,5.13,7.9,1.21,3.04,1.82,6.32,1.82,9.86ZM209.54,38.12c0-2.55-.34-4.85-1.02-6.87-.68-2.03-1.66-3.75-2.94-5.17-1.28-1.42-2.83-2.51-4.66-3.26-1.83-.75-3.89-1.13-6.21-1.13s-4.39.38-6.22,1.13c-1.84.75-3.4,1.84-4.68,3.26-1.28,1.42-2.26,3.15-2.94,5.17-.68,2.03-1.02,4.32-1.02,6.87s.34,4.88,1.02,6.91c.68,2.03,1.66,3.75,2.94,5.16,1.28,1.41,2.84,2.49,4.68,3.24,1.84.75,3.91,1.13,6.22,1.13s4.38-.38,6.21-1.13c1.82-.75,3.38-1.83,4.66-3.24,1.28-1.41,2.26-3.13,2.94-5.16.68-2.03,1.02-4.33,1.02-6.91Z" fill="#54595f"/><path d="M194.71,63.56c-3.83,0-7.38-.65-10.53-1.94-3.15-1.28-5.9-3.08-8.16-5.33-2.26-2.26-4.03-4.97-5.26-8.07-1.23-3.09-1.85-6.49-1.85-10.1s.62-7,1.86-10.08c1.23-3.08,3-5.79,5.26-8.05,2.26-2.26,5-4.05,8.16-5.34,3.15-1.28,6.69-1.94,10.53-1.94s7.37.65,10.53,1.94c3.15,1.29,5.89,3.09,8.14,5.35,2.25,2.27,4.01,4.98,5.24,8.06,1.23,3.08,1.86,6.46,1.86,10.05s-.62,7.01-1.85,10.1c-1.23,3.1-3,5.81-5.25,8.07-2.25,2.26-4.99,4.05-8.14,5.34-3.15,1.28-6.69,1.94-10.53,1.94ZM194.71,13.72c-3.7,0-7.12.63-10.15,1.86-3.03,1.23-5.66,2.96-7.83,5.12-2.16,2.16-3.86,4.75-5.04,7.71-1.18,2.96-1.78,6.23-1.78,9.71s.6,6.76,1.78,9.73c1.18,2.97,2.88,5.57,5.04,7.73,2.17,2.16,4.8,3.88,7.83,5.12,3.03,1.24,6.45,1.86,10.15,1.86s7.12-.63,10.15-1.86c3.03-1.23,5.66-2.95,7.81-5.12,2.15-2.16,3.84-4.76,5.02-7.73,1.18-2.97,1.78-6.25,1.78-9.73s-.6-6.71-1.78-9.68c-1.18-2.96-2.87-5.56-5.03-7.73-2.15-2.17-4.78-3.9-7.81-5.13-3.03-1.24-6.45-1.86-10.15-1.86ZM194.71,55.05c-2.37,0-4.53-.39-6.41-1.16-1.9-.78-3.53-1.91-4.86-3.37-1.32-1.46-2.35-3.25-3.05-5.34-.69-2.07-1.05-4.45-1.05-7.07s.35-4.96,1.05-7.03c.7-2.08,1.72-3.88,3.04-5.35,1.32-1.47,2.96-2.61,4.86-3.39,1.89-.77,4.05-1.16,6.41-1.16s4.52.39,6.4,1.16c1.89.78,3.52,1.92,4.84,3.39,1.32,1.47,2.35,3.27,3.04,5.35.69,2.07,1.05,4.44,1.05,7.03s-.35,5-1.05,7.07c-.7,2.08-1.72,3.88-3.05,5.34-1.33,1.46-2.95,2.59-4.84,3.37-1.88.77-4.03,1.16-6.4,1.16ZM194.71,22.19c-2.24,0-4.27.37-6.03,1.09-1.76.72-3.27,1.77-4.49,3.13-1.23,1.36-2.18,3.05-2.84,5-.66,1.97-.99,4.23-.99,6.71s.33,4.78.99,6.75c.65,1.95,1.61,3.63,2.84,4.98,1.22,1.35,2.74,2.4,4.49,3.12,1.77.72,3.8,1.09,6.03,1.09s4.26-.37,6.02-1.09c1.75-.72,3.25-1.77,4.48-3.12,1.23-1.35,2.18-3.03,2.84-4.98.66-1.97.99-4.24.99-6.75s-.33-4.75-.99-6.71c-.65-1.95-1.61-3.63-2.84-5-1.22-1.36-2.73-2.41-4.48-3.13-1.76-.72-3.78-1.09-6.02-1.09Z" fill="#54595f"/><path d="M247.86,23.1c-.32.52-.64.89-.97,1.13-.33.24-.75.35-1.28.35s-1.04-.17-1.62-.52c-.58-.35-1.25-.72-2.02-1.13-.77-.4-1.66-.78-2.65-1.13-1-.35-2.17-.52-3.5-.52-2.36,0-4.13.52-5.3,1.56-1.18,1.04-1.77,2.4-1.77,4.08,0,1.07.32,1.97.97,2.67.65.71,1.5,1.32,2.55,1.83,1.05.52,2.25.97,3.59,1.38,1.34.4,2.71.85,4.11,1.33,1.41.48,2.78,1.05,4.11,1.7,1.34.65,2.53,1.47,3.59,2.45s1.9,2.19,2.55,3.61c.65,1.42.97,3.15.97,5.19,0,2.22-.39,4.3-1.17,6.23-.78,1.94-1.91,3.63-3.38,5.08-1.47,1.44-3.29,2.58-5.46,3.41-2.17.83-4.62,1.24-7.36,1.24-1.56,0-3.12-.16-4.68-.47-1.55-.31-3.05-.75-4.49-1.31-1.44-.56-2.79-1.23-4.06-2.02-1.27-.78-2.38-1.66-3.33-2.62l2.99-4.77c.25-.36.58-.66.99-.89.41-.23.84-.35,1.29-.35.61,0,1.26.22,1.94.67.68.45,1.46.94,2.35,1.48.88.54,1.91,1.03,3.08,1.48,1.17.45,2.57.67,4.2.67,2.38,0,4.22-.54,5.53-1.61,1.3-1.08,1.96-2.68,1.96-4.81,0-1.23-.32-2.23-.97-2.99s-1.49-1.4-2.53-1.92c-1.04-.52-2.23-.96-3.57-1.33-1.34-.37-2.71-.78-4.11-1.23-1.41-.45-2.78-.99-4.11-1.61-1.34-.63-2.53-1.46-3.57-2.49-1.04-1.03-1.89-2.31-2.53-3.83-.65-1.52-.97-3.42-.97-5.68,0-1.81.36-3.57,1.09-5.28.73-1.7,1.79-3.21,3.2-4.54,1.41-1.32,3.13-2.39,5.19-3.19,2.05-.81,4.4-1.21,7.06-1.21,2.97,0,5.72.45,8.25,1.36,2.53.91,4.66,2.17,6.41,3.78l-2.52,4.74Z" fill="#54595f"/><path d="M233.81,63.56c-1.59,0-3.2-.16-4.77-.48-1.57-.32-3.11-.77-4.57-1.34-1.46-.57-2.85-1.26-4.15-2.06-1.3-.8-2.45-1.71-3.43-2.7l-.28-.28,3.2-5.11c.3-.44.69-.79,1.16-1.06,1.12-.64,2.42-.55,3.76.33.68.45,1.45.94,2.33,1.47.86.52,1.86,1,3,1.44,1.1.42,2.46.64,4.02.64,2.25,0,4-.5,5.21-1.5,1.19-.98,1.77-2.43,1.77-4.42,0-1.1-.29-2-.85-2.67-.6-.71-1.4-1.31-2.37-1.79-1.01-.5-2.18-.93-3.48-1.29-1.34-.37-2.73-.78-4.13-1.23-1.42-.45-2.83-1-4.18-1.64-1.38-.65-2.63-1.52-3.71-2.58-1.08-1.07-1.97-2.41-2.64-3.99-.67-1.58-1.01-3.55-1.01-5.87,0-1.87.38-3.72,1.13-5.47.75-1.76,1.86-3.34,3.31-4.71,1.45-1.36,3.24-2.47,5.35-3.29,2.1-.83,4.54-1.24,7.24-1.24,3.01,0,5.84.47,8.42,1.39,2.58.93,4.79,2.23,6.58,3.88l.28.26-2.71,5.11c-.36.58-.72.99-1.1,1.27-.8.58-2.09.66-3.44-.15-.57-.34-1.24-.71-2-1.11-.74-.39-1.61-.76-2.59-1.1-.94-.33-2.06-.49-3.34-.49-2.22,0-3.89.48-4.97,1.44-1.08.95-1.6,2.16-1.6,3.71,0,.95.27,1.72.84,2.33.6.66,1.41,1.24,2.4,1.72,1.02.5,2.21.95,3.51,1.35,1.34.4,2.73.85,4.13,1.33,1.42.49,2.82,1.07,4.17,1.72,1.38.67,2.63,1.52,3.71,2.54,1.1,1.03,1.99,2.3,2.66,3.77.67,1.48,1.01,3.3,1.01,5.4,0,2.27-.41,4.43-1.21,6.42-.8,1.99-1.98,3.76-3.5,5.24-1.52,1.49-3.41,2.67-5.63,3.52-2.21.85-4.75,1.28-7.54,1.28ZM217.89,56.56c.86.82,1.85,1.59,2.96,2.27,1.24.77,2.58,1.43,3.98,1.98,1.41.55,2.89.98,4.41,1.29,1.51.31,3.05.46,4.58.46,2.67,0,5.09-.41,7.18-1.21,2.09-.8,3.87-1.91,5.29-3.3,1.42-1.39,2.52-3.04,3.27-4.91.75-1.87,1.14-3.9,1.14-6.05,0-1.96-.31-3.63-.92-4.99-.62-1.36-1.44-2.52-2.44-3.45-1.01-.95-2.18-1.74-3.46-2.37-1.31-.64-2.68-1.2-4.06-1.67-1.39-.48-2.77-.92-4.1-1.32-1.36-.41-2.59-.88-3.66-1.41-1.11-.54-2.01-1.19-2.7-1.94-.73-.8-1.1-1.81-1.1-3.01,0-1.82.65-3.32,1.94-4.46,1.27-1.12,3.16-1.69,5.64-1.69,1.39,0,2.62.18,3.67.55,1.02.35,1.93.74,2.72,1.16.78.41,1.47.79,2.05,1.14,1,.6,1.87.53,2.34.19.27-.19.55-.52.83-.97l2.33-4.38c-1.64-1.44-3.64-2.59-5.95-3.42-2.46-.88-5.18-1.33-8.08-1.33-2.58,0-4.89.4-6.87,1.17-1.98.78-3.67,1.82-5.03,3.09-1.35,1.27-2.38,2.74-3.08,4.37-.7,1.63-1.05,3.34-1.05,5.08,0,2.19.31,4.03.93,5.48.62,1.46,1.43,2.69,2.42,3.67,1,.99,2.15,1.79,3.43,2.39,1.31.62,2.68,1.15,4.05,1.59,1.39.44,2.77.85,4.1,1.22,1.36.38,2.59.83,3.66,1.36,1.1.54,2.01,1.23,2.69,2.04.72.85,1.09,1.97,1.09,3.31,0,2.27-.72,4.02-2.14,5.19-1.39,1.15-3.36,1.73-5.84,1.73-1.69,0-3.16-.24-4.38-.71-1.19-.46-2.25-.97-3.16-1.52-.89-.54-1.68-1.04-2.36-1.49-1.02-.67-1.91-.76-2.71-.3-.34.2-.62.45-.83.74l-2.77,4.41Z" fill="#54595f"/><path d="M262.55,21.65v12.54h16.46v7.63h-16.46v12.8h21.15v7.9h-31.42V13.76h31.42v7.9h-21.15Z" fill="#54595f"/><path d="M284.2,63.02h-32.42V13.26h32.42v8.9h-21.15v11.54h16.46v8.63h-16.46v11.8h21.15v8.9ZM252.78,62.02h30.42v-6.9h-21.15v-13.8h16.46v-6.63h-16.46v-13.54h21.15v-6.9h-30.42v47.76Z" fill="#54595f"/><path d="M295.13,21.65v13.48h17.75v7.93h-17.75v19.46h-10.27V13.76h31.42v7.9h-21.15Z" fill="#54595f"/><path d="M295.63,63.02h-11.27V13.26h32.42v8.9h-21.15v12.48h17.75v8.93h-17.75v19.46ZM285.36,62.02h9.27v-19.46h17.75v-6.93h-17.75v-14.48h21.15v-6.9h-30.42v47.76Z" fill="#54595f"/><path d="M338.25,54.45c1.65,0,3.14-.27,4.45-.82,1.31-.55,2.43-1.33,3.33-2.34.91-1.01,1.6-2.23,2.07-3.66.48-1.43.71-3.05.71-4.84V13.76h10.2v29.04c0,2.96-.48,5.67-1.45,8.15-.96,2.48-2.34,4.61-4.13,6.4-1.79,1.79-3.97,3.19-6.53,4.2-2.56,1.01-5.45,1.51-8.67,1.51s-6.12-.5-8.69-1.51c-2.57-1.01-4.76-2.41-6.55-4.2-1.79-1.79-3.17-3.93-4.13-6.4-.96-2.48-1.45-5.19-1.45-8.15V13.76h10.2v29.04c0,1.79.24,3.41.71,4.84.48,1.43,1.17,2.65,2.07,3.66.91,1.01,2.02,1.79,3.33,2.34,1.31.55,2.81.82,4.49.82Z" fill="#54595f"/><path d="M338.25,63.56c-3.27,0-6.25-.52-8.87-1.55-2.63-1.03-4.89-2.48-6.72-4.31-1.83-1.83-3.26-4.04-4.24-6.57-.98-2.52-1.48-5.32-1.48-8.33V13.26h11.2v29.54c0,1.73.23,3.31.69,4.68.45,1.36,1.12,2.53,1.97,3.49.85.95,1.91,1.69,3.15,2.21,1.25.52,2.69.78,4.3.78s3.02-.26,4.26-.78c1.24-.52,2.3-1.26,3.15-2.21.86-.95,1.52-2.13,1.97-3.49.46-1.38.69-2.95.69-4.68V13.26h11.2v29.54c0,3.01-.5,5.81-1.48,8.33-.98,2.53-2.41,4.74-4.24,6.57-1.83,1.83-4.09,3.28-6.7,4.31-2.61,1.03-5.59,1.55-8.85,1.55ZM317.93,14.26v28.54c0,2.88.47,5.56,1.41,7.97.93,2.4,2.29,4.5,4.02,6.23,1.73,1.73,3.88,3.11,6.37,4.09,2.5.98,5.36,1.48,8.51,1.48s6-.5,8.49-1.48c2.49-.98,4.63-2.35,6.36-4.09,1.73-1.73,3.09-3.83,4.02-6.23.94-2.41,1.41-5.09,1.41-7.97V14.26h-9.2v28.54c0,1.84-.25,3.52-.74,5-.5,1.49-1.23,2.78-2.18,3.84-.95,1.06-2.13,1.89-3.51,2.46-1.37.57-2.93.86-4.65.86s-3.31-.29-4.68-.86c-1.38-.58-2.56-1.4-3.51-2.46-.95-1.05-1.68-2.35-2.18-3.84-.49-1.48-.74-3.16-.74-5V14.26h-9.2Z" fill="#54595f"/><path d="M389.32,54.32v8.2h-29.28V13.76h10.2v40.56h19.08Z" fill="#54595f"/><path d="M389.82,63.02h-30.28V13.26h11.2v40.56h19.08v9.2ZM360.54,62.02h28.28v-7.2h-19.08V14.26h-9.2v47.76Z" fill="#54595f"/><path d="M451.42,13.76v48.76h-9.01v-29.94c0-.63.02-1.3.05-2.02.03-.72.1-1.45.19-2.18l-14.11,26.45c-.77,1.46-1.96,2.18-3.57,2.18h-1.43c-.79,0-1.5-.18-2.11-.55-.61-.37-1.1-.91-1.46-1.63l-14.18-26.55c.07.78.12,1.54.17,2.27.05.73.07,1.41.07,2.03v29.94h-9.01V13.76h7.75c.43,0,.82.01,1.16.03.34.02.64.08.9.18.26.1.5.26.71.47.22.21.43.51.63.89l13.81,26.01c.43.78.83,1.59,1.21,2.42.37.83.73,1.68,1.07,2.55.34-.9.7-1.77,1.07-2.62.37-.85.78-1.67,1.21-2.45l13.7-25.91c.2-.38.42-.68.65-.89.23-.21.47-.37.73-.47.26-.1.56-.16.88-.18.33-.02.72-.03,1.17-.03h7.75Z" fill="#54595f"/><path d="M451.92,63.02h-10.01v-30.44c0-.57.01-1.19.04-1.83l-12.98,24.32c-.86,1.62-2.21,2.45-4.01,2.45h-1.43c-.88,0-1.68-.21-2.37-.63-.69-.42-1.25-1.03-1.65-1.83l-13.06-24.45c.04.71.06,1.37.06,1.98v30.44h-10.01V13.26h8.25c.44,0,.84.01,1.19.03.39.03.74.1,1.05.22.32.13.62.32.89.58.25.25.49.59.72,1.01l13.81,26.01c.43.79.85,1.62,1.22,2.45.21.46.41.93.61,1.41.2-.5.41-.99.62-1.47.38-.86.79-1.7,1.23-2.49l13.7-25.9c.23-.44.48-.77.75-1.02.27-.26.57-.45.89-.57.31-.12.65-.19,1.03-.22.34-.02.74-.03,1.21-.03h8.25v49.76ZM442.9,62.02h8.01V14.26h-7.25c-.44,0-.82.01-1.14.03-.28.02-.53.07-.74.15-.2.08-.39.2-.57.37-.19.17-.37.43-.55.76l-13.7,25.91c-.42.77-.82,1.58-1.19,2.42-.37.84-.73,1.71-1.06,2.6l-.46,1.22-.47-1.21c-.33-.86-.69-1.71-1.06-2.53-.37-.81-.77-1.61-1.19-2.39l-13.81-26.02c-.18-.33-.36-.59-.54-.77-.17-.17-.35-.28-.54-.36-.21-.08-.47-.13-.75-.15-.33-.02-.7-.03-1.12-.03h-7.25v47.76h8.01v-29.44c0-.62-.02-1.29-.07-2-.05-.72-.1-1.48-.17-2.26l-.21-2.43,15.33,28.7c.32.64.75,1.12,1.28,1.44.54.32,1.14.48,1.85.48h1.43c1.42,0,2.45-.63,3.13-1.92l15.38-28.82-.33,2.67c-.09.72-.15,1.44-.18,2.15-.03.71-.05,1.37-.05,1.99v29.44Z" fill="#54595f"/><path d="M462.74,21.65v12.54h16.46v7.63h-16.46v12.8h21.15v7.9h-31.42V13.76h31.42v7.9h-21.15Z" fill="#54595f"/><path d="M484.39,63.02h-32.42V13.26h32.42v8.9h-21.15v11.54h16.46v8.63h-16.46v11.8h21.15v8.9ZM452.97,62.02h30.42v-6.9h-21.15v-13.8h16.46v-6.63h-16.46v-13.54h21.15v-6.9h-30.42v47.76Z" fill="#54595f"/><path d="M529.42,38.12c0,3.56-.61,6.84-1.82,9.83-1.21,2.99-2.92,5.56-5.13,7.71-2.21,2.15-4.87,3.83-7.97,5.04-3.11,1.21-6.55,1.81-10.34,1.81h-18.98V13.76h18.98c3.79,0,7.23.6,10.34,1.81,3.11,1.21,5.76,2.9,7.97,5.06,2.21,2.16,3.92,4.73,5.13,7.71,1.21,2.98,1.82,6.24,1.82,9.78ZM518.95,38.12c0-2.55-.34-4.85-1.02-6.89-.68-2.04-1.66-3.76-2.92-5.18-1.27-1.41-2.82-2.5-4.64-3.26-1.83-.76-3.89-1.14-6.21-1.14h-8.71v32.97h8.71c2.31,0,4.38-.38,6.21-1.13,1.82-.75,3.37-1.84,4.64-3.26,1.27-1.42,2.24-3.15,2.92-5.19.68-2.04,1.02-4.35,1.02-6.92Z" fill="#54595f"/><path d="M504.16,63.02h-19.48V13.26h19.48c3.83,0,7.37.62,10.52,1.85,3.15,1.23,5.89,2.97,8.14,5.17,2.25,2.2,4.01,4.85,5.25,7.88,1.23,3.03,1.86,6.38,1.86,9.97s-.62,6.98-1.86,10.02c-1.23,3.04-3,5.69-5.25,7.88-2.25,2.19-4.99,3.92-8.14,5.15-3.15,1.23-6.69,1.85-10.52,1.85ZM485.68,62.02h18.48c3.71,0,7.12-.6,10.16-1.78,3.03-1.18,5.66-2.84,7.81-4.93,2.15-2.09,3.84-4.63,5.02-7.54,1.18-2.92,1.78-6.16,1.78-9.64s-.6-6.68-1.78-9.59c-1.18-2.9-2.87-5.44-5.02-7.54-2.15-2.1-4.78-3.77-7.81-4.95-3.03-1.18-6.45-1.78-10.16-1.78h-18.48v47.76ZM504.16,55.12h-9.21V21.15h9.21c2.37,0,4.52.4,6.4,1.18,1.89.79,3.51,1.93,4.82,3.39,1.31,1.46,2.33,3.26,3.03,5.35.69,2.08,1.05,4.45,1.05,7.05s-.35,5-1.05,7.08c-.7,2.09-1.72,3.9-3.03,5.37-1.31,1.47-2.94,2.61-4.82,3.39-1.88.77-4.03,1.16-6.4,1.16ZM495.95,54.12h8.21c2.24,0,4.26-.37,6.02-1.09,1.75-.72,3.25-1.77,4.46-3.13,1.22-1.36,2.17-3.05,2.82-5.02.66-1.98.99-4.25.99-6.76s-.33-4.75-.99-6.73c-.66-1.96-1.6-3.65-2.82-5-1.21-1.35-2.72-2.4-4.46-3.13-1.76-.73-3.78-1.1-6.01-1.1h-8.21v31.97Z" fill="#54595f"/><path d="M540.2,62.52h-10.27V13.76h10.27v48.76Z" fill="#54595f"/><path d="M540.7,63.02h-11.27V13.26h11.27v49.76ZM530.43,62.02h9.27V14.26h-9.27v47.76Z" fill="#54595f"/><path d="M589.17,62.52h-7.92c-.88,0-1.6-.21-2.16-.62-.56-.41-.97-.95-1.24-1.6l-3.33-9.31h-19.66l-3.33,9.31c-.23.56-.62,1.07-1.19,1.53-.57.46-1.28.69-2.14.69h-7.99l19.28-48.76h10.44l19.25,48.76ZM572.03,44l-5.34-14.92c-.32-.78-.65-1.7-1-2.76-.35-1.05-.69-2.2-1-3.43-.32,1.26-.65,2.41-1,3.48-.35,1.06-.69,1.99-1,2.77l-5.3,14.85h14.66Z" fill="#54595f"/><path d="M589.91,63.02h-8.66c-.99,0-1.82-.24-2.46-.72-.63-.47-1.1-1.07-1.4-1.8l-3.22-9h-18.95l-3.21,8.98c-.27.66-.72,1.24-1.35,1.75-.66.53-1.48.8-2.46.8h-8.73l19.68-49.76h11.12l19.64,49.76ZM554.51,50.49h20.36l3.45,9.64c.23.55.58,1,1.07,1.36.46.35,1.09.52,1.86.52h7.19l-18.85-47.76h-9.76l-18.89,47.76h7.26c.75,0,1.35-.19,1.83-.58.5-.4.85-.85,1.04-1.33l3.44-9.62ZM572.74,44.5h-16.08l5.54-15.52c.32-.79.65-1.71,1-2.76.35-1.05.68-2.21.99-3.44l.48-1.9.49,1.9c.31,1.22.65,2.36.99,3.39.35,1.04.68,1.96.99,2.73l5.59,15.61ZM558.08,43.5h13.24l-5.1-14.25c-.31-.77-.65-1.71-1.01-2.77-.18-.53-.35-1.1-.52-1.68-.17.6-.35,1.18-.53,1.73-.35,1.07-.7,2.02-1.01,2.8l-5.06,14.17Z" fill="#54595f"/><path d="M281.28,113.11c.64-1.92.97-4.14.97-6.59s-.33-4.63-.97-6.55c-.64-1.9-1.57-3.55-2.77-4.88-1.19-1.33-2.66-2.35-4.37-3.06-1.71-.7-3.69-1.06-5.87-1.06s-4.16.36-5.89,1.06c-1.72.7-3.19,1.73-4.38,3.06-1.2,1.33-2.13,2.97-2.77,4.88-.64,1.92-.97,4.12-.97,6.55s.33,4.67.97,6.59c.64,1.91,1.57,3.54,2.77,4.86,1.19,1.32,2.67,2.34,4.39,3.04,1.72.71,3.71,1.06,5.89,1.06s4.16-.36,5.87-1.06c1.71-.7,3.18-1.72,4.37-3.04,1.2-1.32,2.13-2.96,2.77-4.86Z" fill="#54595f"/><path d="M228.88,104.2c1.1-.38,2.01-.91,2.71-1.56.69-.65,1.21-1.43,1.53-2.32.33-.9.5-1.91.5-2.98,0-2.12-.68-3.71-2.09-4.87-1.42-1.17-3.64-1.76-6.61-1.76h-4.68v14.07h4.61c1.55,0,2.91-.19,4.02-.58Z" fill="#54595f"/><path d="M198.2,95.03c-.34-.9-.85-1.67-1.53-2.3-.69-.64-1.57-1.14-2.62-1.48-1.07-.35-2.37-.53-3.86-.53h-5.81v15.21h5.81c2.97,0,5.15-.7,6.5-2.08,1.35-1.38,2.03-3.32,2.03-5.76,0-1.12-.17-2.14-.52-3.06Z" fill="#54595f"/><path d="M14.17,76.27v60.05h286.13v-60.05H14.17ZM291.63,116.39c-1.2,3.03-2.93,5.68-5.13,7.88-2.2,2.2-4.87,3.96-7.95,5.21-3.08,1.25-6.54,1.89-10.29,1.89s-7.21-.64-10.29-1.89c-3.08-1.25-5.76-3.01-7.97-5.21s-3.94-4.86-5.14-7.88c-1.2-3.02-1.81-6.34-1.81-9.87,0-1.63.14-3.2.39-4.73-.46,1.25-1.07,2.41-1.85,3.46-.89,1.2-2,2.27-3.3,3.19-1.04.74-2.2,1.36-3.47,1.87.34.24.67.5.99.78.58.52,1.12,1.14,1.58,1.86l11.73,17.91h-9.93c-1.86,0-3.24-.72-4.08-2.15l-9.16-14.6c-.33-.49-.69-.86-1.07-1.08-.38-.22-.97-.33-1.76-.33h-2.89v18.15h-10.96v-28.73c-.19.89-.44,1.76-.76,2.58-.8,2.01-2.03,3.76-3.65,5.21-1.62,1.44-3.68,2.57-6.12,3.37-2.43.79-5.31,1.19-8.56,1.19h-5.81v16.38h-10.96v-48.63h16.77c3.33,0,6.26.39,8.7,1.17,2.46.78,4.51,1.89,6.11,3.3,1.6,1.41,2.8,3.12,3.57,5.07.3.77.53,1.57.71,2.4v-11.94h15.65c3.4,0,6.35.35,8.77,1.05,2.44.7,4.48,1.7,6.05,2.96,1.59,1.27,2.76,2.81,3.5,4.58.73,1.75,1.1,3.7,1.1,5.79,0,.64-.05,1.26-.12,1.88.19-.61.4-1.22.63-1.81,1.2-3.01,2.93-5.66,5.14-7.87,2.21-2.2,4.89-3.96,7.97-5.21,3.08-1.25,6.54-1.89,10.29-1.89s7.21.64,10.29,1.89c3.08,1.26,5.76,3.02,7.96,5.23,2.2,2.22,3.92,4.87,5.12,7.88,1.2,3.01,1.81,6.32,1.81,9.82s-.61,6.85-1.81,9.87Z" fill="#54595f"/><path d="M359.19,81.59v48.76h-9.01v-29.94c0-.63.02-1.3.05-2.02.03-.72.1-1.45.19-2.18l-14.11,26.45c-.77,1.46-1.96,2.18-3.57,2.18h-1.43c-.79,0-1.5-.18-2.11-.55-.61-.37-1.1-.91-1.46-1.63l-14.18-26.55c.07.78.12,1.54.17,2.27.05.73.07,1.41.07,2.03v29.94h-9.01v-48.76h7.75c.43,0,.82.01,1.16.03.34.02.64.08.9.18.26.1.5.26.71.47.22.21.43.51.63.89l13.81,26.01c.43.78.83,1.59,1.21,2.42.37.83.73,1.68,1.07,2.55.34-.9.7-1.77,1.07-2.62.37-.85.78-1.67,1.21-2.45l13.7-25.91c.2-.38.42-.68.65-.89.23-.21.47-.37.73-.47.26-.1.56-.16.88-.18.33-.02.72-.03,1.17-.03h7.75Z" fill="#54595f"/><path d="M359.69,130.85h-10.01v-30.44c0-.57.01-1.19.04-1.83l-12.98,24.32c-.86,1.62-2.21,2.45-4.01,2.45h-1.43c-.88,0-1.68-.21-2.37-.63-.69-.42-1.25-1.03-1.65-1.83l-13.06-24.45c.04.71.06,1.37.06,1.98v30.44h-10.01v-49.76h8.25c.44,0,.84.01,1.19.03.39.03.74.1,1.05.22.32.13.62.32.89.58.25.25.49.59.72,1.01l13.81,26.01c.43.79.85,1.62,1.22,2.45.21.46.41.93.61,1.41.2-.5.41-.99.62-1.47.38-.86.79-1.7,1.23-2.49l13.7-25.9c.23-.44.48-.77.75-1.02.27-.26.57-.45.89-.57.31-.12.65-.19,1.03-.22.34-.02.74-.03,1.21-.03h8.25v49.76ZM350.68,129.85h8.01v-47.76h-7.25c-.44,0-.82.01-1.14.03-.28.02-.53.07-.74.15-.2.08-.39.2-.57.37-.19.17-.37.43-.55.76l-13.7,25.91c-.42.77-.82,1.58-1.19,2.42-.37.84-.73,1.71-1.06,2.6l-.46,1.22-.47-1.21c-.33-.86-.69-1.71-1.06-2.53-.37-.81-.77-1.61-1.19-2.39l-13.81-26.02c-.18-.33-.36-.59-.54-.77-.17-.17-.35-.28-.54-.36-.21-.08-.47-.13-.75-.15-.33-.02-.7-.03-1.12-.03h-7.25v47.76h8.01v-29.44c0-.62-.02-1.29-.07-2-.05-.72-.1-1.48-.17-2.26l-.21-2.43,15.33,28.7c.32.64.75,1.12,1.28,1.44.54.32,1.14.48,1.85.48h1.43c1.42,0,2.45-.63,3.13-1.92l15.38-28.82-.33,2.67c-.09.72-.15,1.44-.18,2.15-.03.71-.05,1.37-.05,1.99v29.44Z" fill="#54595f"/><path d="M410.91,105.95c0,3.56-.61,6.87-1.82,9.91-1.21,3.05-2.92,5.68-5.13,7.9-2.21,2.22-4.87,3.96-7.97,5.23-3.11,1.27-6.55,1.9-10.34,1.9s-7.23-.63-10.34-1.9c-3.11-1.27-5.77-3.01-7.99-5.23-2.22-2.22-3.94-4.85-5.15-7.9-1.21-3.05-1.82-6.35-1.82-9.91s.61-6.86,1.82-9.9c1.21-3.04,2.93-5.66,5.15-7.88,2.22-2.22,4.89-3.96,7.99-5.23,3.11-1.27,6.55-1.9,10.34-1.9s7.23.63,10.34,1.9c3.11,1.27,5.76,3.01,7.97,5.24,2.21,2.23,3.92,4.86,5.13,7.9,1.21,3.04,1.82,6.32,1.82,9.86ZM400.47,105.95c0-2.55-.34-4.85-1.02-6.87-.68-2.03-1.66-3.75-2.94-5.18-1.28-1.42-2.83-2.51-4.66-3.26-1.83-.75-3.89-1.13-6.21-1.13s-4.39.38-6.22,1.13c-1.84.75-3.4,1.84-4.68,3.26-1.28,1.42-2.26,3.15-2.94,5.18-.68,2.03-1.02,4.32-1.02,6.87s.34,4.88,1.02,6.91c.68,2.03,1.66,3.75,2.94,5.16,1.28,1.41,2.84,2.49,4.68,3.24,1.84.75,3.91,1.13,6.22,1.13s4.38-.38,6.21-1.13c1.82-.75,3.38-1.83,4.66-3.24,1.28-1.41,2.26-3.13,2.94-5.16.68-2.03,1.02-4.33,1.02-6.91Z" fill="#54595f"/><path d="M385.65,131.39c-3.83,0-7.38-.65-10.53-1.94-3.15-1.28-5.9-3.08-8.16-5.33-2.26-2.26-4.03-4.97-5.26-8.07-1.23-3.09-1.85-6.49-1.85-10.1s.62-7,1.86-10.08c1.23-3.08,3-5.79,5.26-8.05,2.26-2.26,5-4.05,8.16-5.34,3.15-1.28,6.69-1.94,10.53-1.94s7.37.65,10.53,1.94c3.15,1.29,5.89,3.09,8.14,5.35,2.25,2.27,4.01,4.98,5.24,8.06,1.23,3.08,1.86,6.46,1.86,10.05s-.62,7.01-1.85,10.1c-1.23,3.1-3,5.81-5.25,8.07-2.25,2.26-4.99,4.05-8.14,5.34-3.15,1.28-6.69,1.94-10.53,1.94ZM385.65,81.55c-3.7,0-7.12.63-10.15,1.86-3.03,1.23-5.66,2.96-7.83,5.12-2.16,2.16-3.86,4.75-5.04,7.71-1.18,2.96-1.78,6.23-1.78,9.71s.6,6.76,1.78,9.73c1.18,2.97,2.88,5.57,5.04,7.73,2.17,2.16,4.8,3.88,7.83,5.12,3.03,1.24,6.45,1.86,10.15,1.86s7.12-.63,10.15-1.86c3.03-1.23,5.65-2.95,7.81-5.12,2.15-2.16,3.84-4.76,5.02-7.73,1.18-2.97,1.78-6.25,1.78-9.73s-.6-6.71-1.78-9.68c-1.18-2.96-2.87-5.56-5.03-7.73-2.15-2.17-4.78-3.9-7.81-5.13-3.03-1.24-6.45-1.86-10.15-1.86ZM385.65,122.89c-2.37,0-4.52-.39-6.41-1.16-1.9-.78-3.53-1.91-4.86-3.37-1.32-1.46-2.35-3.25-3.05-5.34-.69-2.07-1.05-4.45-1.05-7.07s.35-4.96,1.05-7.03c.7-2.08,1.72-3.88,3.04-5.35,1.32-1.47,2.96-2.61,4.86-3.39,1.89-.77,4.05-1.16,6.41-1.16s4.52.39,6.4,1.16c1.89.78,3.52,1.92,4.84,3.39,1.32,1.47,2.35,3.27,3.04,5.35.69,2.07,1.05,4.44,1.05,7.03s-.35,5-1.05,7.07c-.7,2.08-1.72,3.88-3.05,5.34-1.33,1.46-2.95,2.59-4.84,3.37-1.88.77-4.03,1.16-6.4,1.16ZM385.65,90.02c-2.24,0-4.27.37-6.03,1.09-1.76.72-3.27,1.77-4.49,3.13-1.23,1.36-2.18,3.05-2.84,5-.66,1.97-.99,4.23-.99,6.71s.33,4.78.99,6.75c.65,1.95,1.61,3.63,2.84,4.98,1.22,1.35,2.74,2.4,4.49,3.12,1.77.72,3.8,1.09,6.03,1.09s4.26-.37,6.02-1.09c1.75-.72,3.25-1.77,4.48-3.12,1.23-1.35,2.18-3.03,2.84-4.98.66-1.97.99-4.24.99-6.75s-.33-4.75-.99-6.71c-.65-1.95-1.61-3.63-2.84-5-1.22-1.36-2.73-2.41-4.48-3.13-1.76-.72-3.78-1.09-6.02-1.09Z" fill="#54595f"/><path d="M445.6,89.72h-14.42v40.63h-10.24v-40.63h-14.42v-8.13h39.07v8.13Z" fill="#54595f"/><path d="M431.68,130.85h-11.24v-40.63h-14.42v-9.13h40.07v9.13h-14.42v40.63ZM421.45,129.85h9.24v-40.63h14.42v-7.13h-38.07v7.13h14.42v40.63Z" fill="#54595f"/><path d="M457.2,130.35h-10.27v-48.76h10.27v48.76Z" fill="#54595f"/><path d="M457.7,130.85h-11.27v-49.76h11.27v49.76ZM447.43,129.85h9.27v-47.76h-9.27v47.76Z" fill="#54595f"/><path d="M508.95,105.95c0,3.56-.61,6.87-1.82,9.91-1.21,3.05-2.92,5.68-5.13,7.9-2.21,2.22-4.87,3.96-7.97,5.23-3.11,1.27-6.55,1.9-10.34,1.9s-7.23-.63-10.34-1.9c-3.11-1.27-5.77-3.01-7.99-5.23-2.22-2.22-3.94-4.85-5.15-7.9-1.21-3.05-1.82-6.35-1.82-9.91s.61-6.86,1.82-9.9c1.21-3.04,2.93-5.66,5.15-7.88,2.22-2.22,4.89-3.96,7.99-5.23,3.11-1.27,6.55-1.9,10.34-1.9s7.23.63,10.34,1.9c3.11,1.27,5.76,3.01,7.97,5.24,2.21,2.23,3.92,4.86,5.13,7.9,1.21,3.04,1.82,6.32,1.82,9.86ZM498.51,105.95c0-2.55-.34-4.85-1.02-6.87-.68-2.03-1.66-3.75-2.94-5.18-1.28-1.42-2.83-2.51-4.66-3.26-1.83-.75-3.89-1.13-6.21-1.13s-4.39.38-6.22,1.13c-1.84.75-3.4,1.84-4.68,3.26-1.28,1.42-2.26,3.15-2.94,5.18-.68,2.03-1.02,4.32-1.02,6.87s.34,4.88,1.02,6.91,1.66,3.75,2.94,5.16c1.28,1.41,2.84,2.49,4.68,3.24,1.84.75,3.91,1.13,6.22,1.13s4.38-.38,6.21-1.13c1.82-.75,3.38-1.83,4.66-3.24,1.28-1.41,2.26-3.13,2.94-5.16.68-2.03,1.02-4.33,1.02-6.91Z" fill="#54595f"/><path d="M483.69,131.39c-3.83,0-7.38-.65-10.53-1.94-3.15-1.28-5.9-3.08-8.16-5.33-2.26-2.26-4.03-4.97-5.26-8.07-1.23-3.09-1.85-6.49-1.85-10.1s.62-7,1.86-10.08c1.23-3.08,3-5.79,5.26-8.05,2.26-2.26,5-4.05,8.16-5.34,3.15-1.28,6.69-1.94,10.53-1.94s7.37.65,10.53,1.94c3.15,1.29,5.89,3.09,8.14,5.35,2.25,2.27,4.01,4.98,5.24,8.06,1.23,3.08,1.86,6.46,1.86,10.05s-.62,7.01-1.85,10.1c-1.23,3.1-3,5.81-5.25,8.07-2.25,2.26-4.99,4.05-8.14,5.34-3.15,1.28-6.69,1.94-10.53,1.94ZM483.69,81.55c-3.7,0-7.12.63-10.15,1.86-3.03,1.23-5.66,2.96-7.83,5.12-2.16,2.16-3.86,4.75-5.04,7.71-1.18,2.96-1.78,6.23-1.78,9.71s.6,6.76,1.78,9.73c1.18,2.97,2.88,5.57,5.04,7.73,2.17,2.16,4.8,3.88,7.83,5.12,3.03,1.24,6.45,1.86,10.15,1.86s7.12-.63,10.15-1.86c3.03-1.23,5.65-2.95,7.81-5.12,2.15-2.16,3.84-4.76,5.02-7.73,1.18-2.97,1.78-6.25,1.78-9.73s-.6-6.71-1.78-9.68c-1.18-2.96-2.87-5.56-5.03-7.73-2.15-2.17-4.78-3.9-7.81-5.13-3.03-1.24-6.45-1.86-10.15-1.86ZM483.69,122.89c-2.37,0-4.52-.39-6.41-1.16-1.9-.78-3.53-1.91-4.86-3.37-1.32-1.46-2.35-3.25-3.05-5.34-.69-2.07-1.05-4.45-1.05-7.07s.35-4.96,1.05-7.03c.7-2.08,1.72-3.88,3.04-5.35,1.32-1.47,2.96-2.61,4.86-3.39,1.89-.77,4.05-1.16,6.41-1.16s4.52.39,6.4,1.16c1.89.78,3.52,1.92,4.84,3.39,1.32,1.47,2.35,3.27,3.04,5.35.69,2.07,1.05,4.44,1.05,7.03s-.35,5-1.05,7.07c-.7,2.08-1.72,3.88-3.05,5.34-1.33,1.46-2.95,2.59-4.84,3.37-1.88.77-4.03,1.16-6.4,1.16ZM483.69,90.02c-2.24,0-4.27.37-6.03,1.09-1.76.72-3.27,1.77-4.49,3.13-1.23,1.36-2.18,3.05-2.84,5-.66,1.97-.99,4.23-.99,6.71s.33,4.78.99,6.75c.65,1.95,1.61,3.63,2.84,4.98,1.22,1.35,2.74,2.4,4.49,3.12,1.77.72,3.8,1.09,6.03,1.09s4.26-.37,6.02-1.09c1.75-.72,3.25-1.77,4.48-3.12,1.23-1.35,2.18-3.03,2.84-4.98.66-1.97.99-4.24.99-6.75s-.33-4.75-.99-6.71c-.65-1.95-1.61-3.63-2.84-5-1.22-1.36-2.73-2.41-4.48-3.13-1.76-.72-3.78-1.09-6.02-1.09Z" fill="#54595f"/><path d="M552.17,81.59v48.76h-5.27c-.79,0-1.46-.13-2.01-.39-.54-.26-1.08-.7-1.6-1.33l-24.59-30.92c.07.78.12,1.56.15,2.32.03.76.05,1.47.05,2.12v28.2h-9.01v-48.76h5.37c.43,0,.8.02,1.11.05s.58.11.83.24c.25.12.49.29.71.49.23.2.48.47.75.81l24.76,31.05c-.09-.85-.16-1.67-.2-2.47-.05-.79-.07-1.55-.07-2.27v-27.89h9.01Z" fill="#54595f"/><path d="M552.67,130.85h-5.77c-.87,0-1.61-.15-2.22-.44-.61-.29-1.2-.78-1.77-1.46l-23.59-29.66c.01.24.03.48.04.72.03.77.05,1.48.05,2.14v28.7h-10.01v-49.76h5.87c.45,0,.84.02,1.16.05.36.04.7.14,1,.28.29.14.57.33.83.56.25.22.52.51.8.87l23.72,29.75c-.02-.28-.04-.55-.05-.83-.05-.8-.07-1.57-.07-2.3v-28.39h10.01v49.76ZM518.07,96.11l25.62,32.22c.47.56.95.96,1.42,1.19.47.23,1.08.34,1.79.34h4.77v-47.76h-8.01v27.39c0,.71.02,1.45.07,2.24.04.79.11,1.6.2,2.45l.18,1.71-25.83-32.4c-.25-.31-.48-.56-.69-.75-.19-.17-.39-.31-.6-.41-.2-.1-.42-.16-.67-.19-.29-.03-.64-.05-1.05-.05h-4.87v47.76h8.01v-27.7c0-.64-.02-1.34-.05-2.09-.03-.75-.08-1.52-.15-2.3l-.14-1.65Z" fill="#54595f"/><path d="M582.98,90.93c-.32.52-.64.89-.97,1.13-.33.24-.75.35-1.28.35s-1.04-.17-1.62-.52c-.58-.35-1.25-.72-2.02-1.13-.77-.4-1.66-.78-2.65-1.13-1-.35-2.17-.52-3.5-.52-2.36,0-4.13.52-5.3,1.56-1.18,1.04-1.77,2.4-1.77,4.08,0,1.08.32,1.97.97,2.67.65.71,1.5,1.32,2.55,1.83,1.05.52,2.25.97,3.59,1.38,1.34.4,2.71.85,4.11,1.33,1.41.48,2.78,1.05,4.11,1.7,1.34.65,2.53,1.47,3.59,2.45s1.9,2.19,2.55,3.61c.65,1.42.97,3.15.97,5.19,0,2.22-.39,4.3-1.17,6.23-.78,1.94-1.91,3.63-3.38,5.07-1.47,1.44-3.29,2.58-5.46,3.41-2.17.83-4.62,1.24-7.36,1.24-1.56,0-3.12-.16-4.68-.47-1.55-.31-3.05-.75-4.49-1.31-1.44-.56-2.79-1.23-4.06-2.02-1.27-.78-2.38-1.66-3.33-2.62l2.99-4.77c.25-.36.58-.66.99-.89.41-.23.84-.35,1.29-.35.61,0,1.26.22,1.94.67.68.45,1.46.94,2.35,1.48.88.54,1.91,1.03,3.08,1.48,1.17.45,2.57.67,4.2.67,2.38,0,4.22-.54,5.53-1.61,1.3-1.08,1.96-2.68,1.96-4.81,0-1.23-.32-2.23-.97-2.99s-1.49-1.4-2.53-1.92c-1.04-.52-2.23-.96-3.57-1.33-1.34-.37-2.71-.78-4.11-1.23-1.41-.45-2.78-.99-4.11-1.61-1.34-.63-2.53-1.46-3.57-2.49-1.04-1.03-1.89-2.31-2.53-3.83-.65-1.52-.97-3.42-.97-5.68,0-1.81.36-3.57,1.09-5.28.73-1.7,1.79-3.21,3.2-4.54,1.41-1.32,3.13-2.39,5.19-3.19,2.05-.81,4.4-1.21,7.06-1.21,2.97,0,5.72.45,8.25,1.36,2.53.91,4.66,2.17,6.41,3.78l-2.52,4.74Z" fill="#54595f"/><path d="M568.94,131.39c-1.59,0-3.2-.16-4.77-.48-1.57-.32-3.11-.77-4.57-1.34-1.46-.57-2.85-1.26-4.15-2.06-1.3-.8-2.45-1.71-3.43-2.69l-.28-.28,3.2-5.11c.3-.44.69-.79,1.16-1.06,1.12-.64,2.42-.55,3.76.33.68.45,1.45.94,2.33,1.47.86.52,1.86,1,3,1.44,1.1.42,2.46.64,4.02.64,2.25,0,4-.5,5.21-1.5,1.19-.98,1.77-2.43,1.77-4.42,0-1.1-.29-2-.85-2.67-.6-.71-1.4-1.31-2.37-1.79-1.01-.5-2.18-.93-3.48-1.29-1.34-.37-2.73-.78-4.13-1.23-1.42-.45-2.83-1-4.18-1.64-1.38-.65-2.63-1.52-3.71-2.58-1.08-1.07-1.97-2.41-2.64-3.99-.67-1.58-1.01-3.55-1.01-5.87,0-1.87.38-3.72,1.13-5.47.75-1.76,1.86-3.34,3.31-4.71,1.45-1.36,3.24-2.47,5.35-3.29,2.1-.83,4.54-1.24,7.24-1.24,3.01,0,5.84.47,8.42,1.39,2.58.93,4.79,2.23,6.58,3.88l.28.26-2.71,5.11c-.36.58-.72.99-1.1,1.27-.8.58-2.09.66-3.44-.15-.57-.34-1.24-.71-2-1.11-.74-.39-1.61-.76-2.59-1.1-.94-.33-2.06-.49-3.34-.49-2.22,0-3.89.48-4.97,1.44-1.08.95-1.6,2.16-1.6,3.71,0,.95.27,1.72.84,2.33.6.66,1.41,1.24,2.4,1.72,1.02.5,2.21.95,3.51,1.35,1.34.4,2.73.85,4.13,1.33,1.42.49,2.82,1.07,4.17,1.72,1.38.67,2.63,1.52,3.71,2.54,1.1,1.03,1.99,2.3,2.66,3.77.67,1.48,1.01,3.3,1.01,5.4,0,2.27-.41,4.43-1.21,6.42-.8,1.99-1.98,3.76-3.5,5.24-1.52,1.49-3.41,2.67-5.63,3.52-2.21.85-4.75,1.28-7.54,1.28ZM553.01,124.4c.86.82,1.85,1.59,2.96,2.27,1.24.77,2.58,1.43,3.98,1.98,1.41.55,2.89.98,4.41,1.29,1.51.31,3.05.46,4.58.46,2.67,0,5.09-.41,7.18-1.21,2.09-.8,3.87-1.91,5.29-3.3,1.42-1.39,2.52-3.04,3.27-4.9.75-1.87,1.14-3.9,1.14-6.05,0-1.96-.31-3.64-.92-4.99-.62-1.36-1.44-2.52-2.44-3.45-1.01-.95-2.18-1.74-3.46-2.37-1.31-.64-2.68-1.2-4.06-1.67-1.39-.48-2.77-.92-4.1-1.32-1.36-.41-2.59-.88-3.66-1.41-1.1-.54-2.01-1.19-2.7-1.94-.73-.8-1.1-1.81-1.1-3.01,0-1.82.65-3.32,1.94-4.46,1.27-1.12,3.16-1.69,5.64-1.69,1.39,0,2.62.18,3.67.55,1.02.35,1.93.74,2.72,1.16.78.41,1.47.79,2.05,1.14,1,.6,1.86.53,2.34.19.27-.19.55-.52.83-.97l2.33-4.38c-1.64-1.44-3.64-2.59-5.95-3.42-2.46-.88-5.18-1.33-8.08-1.33-2.58,0-4.89.4-6.87,1.17-1.98.78-3.67,1.82-5.03,3.09-1.35,1.27-2.38,2.74-3.08,4.37-.7,1.63-1.05,3.34-1.05,5.08,0,2.18.31,4.03.93,5.48.62,1.46,1.43,2.69,2.42,3.67,1,.99,2.15,1.79,3.43,2.39,1.31.61,2.68,1.15,4.05,1.59,1.39.44,2.77.85,4.1,1.22,1.36.38,2.59.83,3.66,1.36,1.1.54,2.01,1.23,2.69,2.04.72.85,1.09,1.97,1.09,3.31,0,2.27-.72,4.02-2.14,5.19-1.39,1.15-3.36,1.73-5.84,1.73-1.69,0-3.16-.24-4.38-.71-1.19-.46-2.25-.97-3.16-1.52-.89-.54-1.68-1.04-2.36-1.49-1.02-.67-1.91-.76-2.71-.3-.34.2-.62.45-.83.74l-2.77,4.41Z" fill="#54595f"/></svg>