<?xml version="1.0" encoding="UTF-8"?><svg id="Secondary_White" xmlns="http://www.w3.org/2000/svg" width="578" height="125" viewBox="0 0 578 125"><path d="M18.16,1.31c3.38,0,6.3.39,8.76,1.18,2.46.78,4.48,1.88,6.07,3.28,1.59,1.4,2.76,3.06,3.52,4.99.76,1.93,1.14,4.02,1.14,6.28,0,2.4-.4,4.59-1.19,6.59-.79,1.99-1.99,3.71-3.6,5.14-1.61,1.43-3.64,2.55-6.09,3.34-2.45.8-5.32,1.19-8.6,1.19h-6.46v16.77H1.5V1.31h16.66ZM18.16,25.57c3.2,0,5.54-.76,7.02-2.28,1.48-1.52,2.23-3.61,2.23-6.25,0-1.21-.19-2.31-.56-3.31-.37-1-.94-1.85-1.7-2.55-.76-.71-1.72-1.25-2.87-1.63s-2.53-.57-4.11-.57h-6.46v16.6h6.46Z" fill="#fff"/><path d="M59.24,42c1.65,0,3.14-.27,4.45-.82,1.31-.55,2.43-1.33,3.33-2.34.91-1.01,1.6-2.23,2.07-3.66.48-1.43.71-3.05.71-4.84V1.31h10.2v29.03c0,2.96-.48,5.67-1.45,8.15-.96,2.48-2.34,4.61-4.13,6.4-1.79,1.79-3.97,3.19-6.53,4.2-2.56,1.01-5.45,1.51-8.67,1.51s-6.12-.5-8.69-1.51c-2.57-1.01-4.76-2.41-6.55-4.2-1.79-1.79-3.17-3.93-4.13-6.4-.96-2.48-1.45-5.19-1.45-8.15V1.31h10.2v29.03c0,1.79.24,3.41.71,4.84.48,1.43,1.17,2.65,2.07,3.66.91,1.01,2.02,1.79,3.33,2.34,1.31.55,2.81.82,4.49.82Z" fill="#fff"/><path d="M120.92,50.07h-9.21c-1.72,0-2.97-.65-3.74-1.95l-9.38-14.95c-.39-.58-.81-1.01-1.28-1.28-.46-.27-1.15-.4-2.06-.4h-3.47v18.58h-10.2V1.31h15.51c3.45,0,6.39.35,8.84,1.06,2.45.71,4.45,1.69,6.02,2.94,1.56,1.25,2.71,2.75,3.43,4.49.73,1.74,1.09,3.65,1.09,5.73,0,1.61-.23,3.14-.7,4.59-.46,1.44-1.14,2.76-2.02,3.95-.88,1.19-1.97,2.24-3.26,3.16s-2.77,1.66-4.42,2.22c.66.36,1.27.79,1.84,1.29.57.5,1.08,1.1,1.53,1.8l11.49,17.54ZM97.01,24.39c1.65,0,3.08-.21,4.28-.62,1.2-.41,2.19-.99,2.96-1.71.77-.73,1.34-1.58,1.7-2.57.36-.99.54-2.06.54-3.23,0-2.31-.78-4.1-2.33-5.38-1.55-1.28-3.92-1.92-7.09-1.92h-5.3v15.42h5.24Z" fill="#fff"/><path d="M137.78,1.31c3.38,0,6.3.39,8.76,1.18,2.46.78,4.48,1.88,6.07,3.28,1.59,1.4,2.76,3.06,3.52,4.99.76,1.93,1.14,4.02,1.14,6.28,0,2.4-.4,4.59-1.19,6.59-.79,1.99-1.99,3.71-3.6,5.14-1.61,1.43-3.64,2.55-6.09,3.34-2.45.8-5.32,1.19-8.6,1.19h-6.46v16.77h-10.2V1.31h16.66ZM137.78,25.57c3.2,0,5.54-.76,7.02-2.28,1.48-1.52,2.23-3.61,2.23-6.25,0-1.21-.19-2.31-.56-3.31-.37-1-.94-1.85-1.7-2.55-.76-.71-1.72-1.25-2.87-1.63-1.16-.38-2.53-.57-4.11-.57h-6.46v16.6h6.46Z" fill="#fff"/><path d="M207.76,25.67c0,3.56-.61,6.87-1.82,9.91-1.21,3.05-2.92,5.68-5.13,7.9-2.21,2.22-4.87,3.96-7.97,5.23-3.11,1.27-6.55,1.9-10.34,1.9s-7.23-.63-10.34-1.9c-3.11-1.27-5.77-3.01-7.99-5.23-2.22-2.22-3.94-4.85-5.15-7.9-1.21-3.05-1.82-6.35-1.82-9.91s.61-6.86,1.82-9.9c1.21-3.04,2.93-5.66,5.15-7.88,2.22-2.22,4.88-3.96,7.99-5.23,3.11-1.27,6.55-1.9,10.34-1.9s7.23.63,10.34,1.9c3.11,1.27,5.76,3.01,7.97,5.24,2.21,2.23,3.92,4.86,5.13,7.9,1.21,3.04,1.82,6.32,1.82,9.86ZM197.32,25.67c0-2.55-.34-4.84-1.02-6.87-.68-2.03-1.66-3.75-2.94-5.18-1.28-1.42-2.83-2.51-4.66-3.26-1.83-.75-3.89-1.13-6.21-1.13s-4.39.38-6.22,1.13c-1.84.75-3.39,1.84-4.68,3.26-1.28,1.42-2.26,3.15-2.94,5.18-.68,2.03-1.02,4.32-1.02,6.87s.34,4.88,1.02,6.91c.68,2.03,1.66,3.75,2.94,5.16,1.28,1.41,2.84,2.49,4.68,3.24,1.84.75,3.91,1.13,6.22,1.13s4.38-.37,6.21-1.13c1.82-.75,3.38-1.83,4.66-3.24,1.28-1.41,2.26-3.13,2.94-5.16.68-2.03,1.02-4.33,1.02-6.91Z" fill="#fff"/><path d="M235.64,10.65c-.32.52-.64.89-.97,1.13-.33.24-.75.35-1.28.35s-1.04-.17-1.62-.52c-.58-.35-1.25-.72-2.02-1.13-.77-.4-1.65-.78-2.65-1.13-1-.35-2.17-.52-3.5-.52-2.36,0-4.13.52-5.3,1.56-1.18,1.04-1.77,2.4-1.77,4.08,0,1.08.32,1.97.97,2.67.65.71,1.5,1.32,2.55,1.83,1.05.52,2.25.97,3.59,1.38,1.34.4,2.71.85,4.11,1.33,1.41.48,2.78,1.05,4.11,1.7,1.34.65,2.53,1.47,3.59,2.45,1.05.99,1.9,2.19,2.55,3.61.65,1.42.97,3.15.97,5.19,0,2.22-.39,4.3-1.17,6.23-.78,1.94-1.91,3.63-3.38,5.07-1.47,1.45-3.29,2.58-5.46,3.41-2.17.83-4.62,1.24-7.36,1.24-1.56,0-3.12-.16-4.68-.47-1.55-.31-3.05-.75-4.49-1.31-1.44-.56-2.79-1.23-4.06-2.02-1.27-.78-2.38-1.66-3.33-2.62l2.99-4.77c.25-.36.58-.66.99-.89.41-.24.84-.35,1.29-.35.61,0,1.26.22,1.94.67s1.46.94,2.35,1.48c.88.54,1.91,1.03,3.08,1.48,1.17.45,2.57.67,4.2.67,2.38,0,4.22-.54,5.53-1.61,1.3-1.08,1.96-2.68,1.96-4.81,0-1.23-.32-2.23-.97-2.99s-1.49-1.4-2.53-1.92c-1.04-.52-2.23-.96-3.57-1.33-1.34-.37-2.71-.78-4.11-1.23-1.41-.45-2.78-.99-4.11-1.61-1.34-.63-2.53-1.46-3.57-2.49-1.04-1.03-1.89-2.31-2.53-3.83-.65-1.52-.97-3.42-.97-5.68,0-1.81.36-3.57,1.09-5.28.73-1.7,1.79-3.21,3.2-4.54,1.41-1.32,3.13-2.39,5.19-3.19,2.05-.81,4.4-1.21,7.06-1.21,2.97,0,5.72.45,8.25,1.36,2.53.91,4.66,2.17,6.41,3.78l-2.52,4.74Z" fill="#fff"/><path d="M250.33,9.2v12.53h16.46v7.63h-16.46v12.8h21.15v7.9h-31.42V1.31h31.42v7.9h-21.15Z" fill="#fff"/><path d="M282.9,9.2v13.48h17.75v7.93h-17.75v19.46h-10.27V1.31h31.42v7.9h-21.15Z" fill="#fff"/><path d="M326.02,42c1.65,0,3.14-.27,4.45-.82,1.31-.55,2.43-1.33,3.33-2.34.91-1.01,1.6-2.23,2.07-3.66.48-1.43.71-3.05.71-4.84V1.31h10.2v29.03c0,2.96-.48,5.67-1.45,8.15-.96,2.48-2.34,4.61-4.13,6.4-1.79,1.79-3.97,3.19-6.53,4.2-2.56,1.01-5.45,1.51-8.67,1.51s-6.12-.5-8.69-1.51c-2.57-1.01-4.76-2.41-6.55-4.2-1.79-1.79-3.17-3.93-4.13-6.4-.96-2.48-1.45-5.19-1.45-8.15V1.31h10.2v29.03c0,1.79.24,3.41.71,4.84.48,1.43,1.17,2.65,2.07,3.66.91,1.01,2.02,1.79,3.33,2.34,1.31.55,2.81.82,4.49.82Z" fill="#fff"/><path d="M377.5,41.87v8.2h-29.28V1.31h10.2v40.56h19.08Z" fill="#fff"/><path d="M439.58,1.31v48.76h-9.01v-29.94c0-.63.02-1.3.05-2.02.03-.72.1-1.44.19-2.18l-14.11,26.45c-.77,1.46-1.96,2.18-3.57,2.18h-1.43c-.79,0-1.5-.18-2.11-.55s-1.1-.91-1.46-1.63l-14.18-26.55c.07.78.12,1.54.17,2.27.05.73.07,1.41.07,2.03v29.94h-9.01V1.31h7.75c.43,0,.82.01,1.16.03.34.02.64.08.9.19.26.1.5.26.71.47.22.21.43.51.63.89l13.81,26.01c.43.78.83,1.59,1.21,2.42.37.83.73,1.68,1.07,2.55.34-.9.7-1.77,1.07-2.62.37-.85.78-1.67,1.21-2.45l13.7-25.91c.2-.38.42-.68.65-.89.23-.21.47-.37.73-.47.26-.1.56-.16.88-.19.33-.02.72-.03,1.17-.03h7.75Z" fill="#fff"/><path d="M451.38,9.2v12.53h16.46v7.63h-16.46v12.8h21.15v7.9h-31.42V1.31h31.42v7.9h-21.15Z" fill="#fff"/><path d="M518.06,25.67c0,3.56-.61,6.84-1.82,9.83-1.21,2.99-2.92,5.56-5.13,7.71-2.21,2.15-4.87,3.83-7.97,5.04-3.11,1.21-6.55,1.81-10.34,1.81h-18.97V1.31h18.97c3.79,0,7.23.6,10.34,1.81,3.11,1.21,5.76,2.9,7.97,5.06,2.21,2.16,3.92,4.73,5.13,7.71,1.21,2.98,1.82,6.24,1.82,9.78ZM507.59,25.67c0-2.55-.34-4.85-1.02-6.89s-1.66-3.76-2.92-5.18c-1.27-1.41-2.82-2.5-4.64-3.26-1.83-.76-3.89-1.14-6.21-1.14h-8.7v32.97h8.7c2.31,0,4.38-.38,6.21-1.13,1.82-.75,3.37-1.84,4.64-3.26,1.27-1.42,2.24-3.15,2.92-5.19.68-2.04,1.02-4.35,1.02-6.92Z" fill="#fff"/><path d="M528.84,50.07h-10.27V1.31h10.27v48.76Z" fill="#fff"/><path d="M577.8,50.07h-7.92c-.88,0-1.6-.21-2.16-.62-.56-.41-.97-.95-1.24-1.6l-3.33-9.31h-19.65l-3.33,9.31c-.23.56-.62,1.07-1.19,1.53-.57.46-1.28.69-2.14.69h-7.99l19.28-48.76h10.44l19.25,48.76ZM560.66,31.55l-5.34-14.92c-.32-.78-.65-1.7-1-2.76-.35-1.05-.69-2.2-1-3.43-.32,1.25-.65,2.41-1,3.48-.35,1.06-.69,1.99-1,2.77l-5.3,14.85h14.66Z" fill="#fff"/><path d="M220.51,79.63c-1.52-1.25-3.82-1.87-6.92-1.87h-5.18v15.06h5.11c1.62,0,3.01-.2,4.18-.61,1.17-.4,2.14-.96,2.89-1.67.75-.71,1.31-1.55,1.66-2.51.35-.96.53-2.01.53-3.15,0-2.25-.76-4-2.27-5.25Z" fill="#fff"/><path d="M185.68,79.9c-.74-.69-1.68-1.22-2.81-1.59-1.13-.37-2.47-.56-4.02-.56h-6.31v16.21h6.31c3.12,0,5.41-.74,6.86-2.23,1.45-1.49,2.18-3.52,2.18-6.1,0-1.18-.18-2.26-.55-3.23s-.92-1.81-1.66-2.49Z" fill="#fff"/><path d="M.84,63.76v60.04h286.1v-60.04H.84ZM196.72,92.06c-.78,1.95-1.95,3.62-3.52,5.02-1.57,1.4-3.55,2.49-5.94,3.27-2.39.78-5.19,1.17-8.4,1.17h-6.31v16.38h-9.96v-47.62h16.27c3.3,0,6.15.38,8.55,1.15,2.4.77,4.38,1.83,5.93,3.2,1.55,1.37,2.7,2.99,3.44,4.87.74,1.88,1.11,3.93,1.11,6.14,0,2.34-.39,4.49-1.16,6.43ZM227.87,117.89c-1.68,0-2.9-.63-3.65-1.9l-9.17-14.6c-.38-.57-.79-.98-1.25-1.25-.45-.26-1.12-.39-2.01-.39h-3.39v18.15h-9.96v-47.62h15.14c3.37,0,6.24.34,8.63,1.03,2.39.69,4.35,1.65,5.88,2.87,1.53,1.23,2.65,2.69,3.35,4.38.71,1.7,1.06,3.56,1.06,5.6,0,1.58-.23,3.07-.68,4.48-.45,1.41-1.11,2.7-1.98,3.86-.86,1.16-1.93,2.19-3.19,3.09-1.26.9-2.7,1.62-4.32,2.17.64.35,1.24.77,1.79,1.26.55.49,1.05,1.08,1.49,1.76l11.22,17.13h-9ZM279.83,103.75c-1.18,2.98-2.86,5.55-5.01,7.71-2.16,2.17-4.75,3.87-7.79,5.1-3.03,1.24-6.4,1.85-10.1,1.85s-7.06-.62-10.1-1.85c-3.03-1.24-5.63-2.94-7.8-5.1-2.17-2.17-3.85-4.74-5.03-7.71-1.18-2.98-1.78-6.2-1.78-9.68s.59-6.7,1.78-9.67c1.18-2.96,2.86-5.53,5.03-7.7,2.17-2.17,4.77-3.87,7.8-5.1,3.03-1.24,6.4-1.85,10.1-1.85s7.06.62,10.1,1.85c3.03,1.24,5.63,2.94,7.79,5.12,2.16,2.18,3.83,4.75,5.01,7.71,1.18,2.96,1.78,6.18,1.78,9.63s-.59,6.71-1.78,9.68Z" fill="#fff"/><path d="M267.54,82.3c-1.25-1.39-2.77-2.45-4.55-3.18-1.78-.73-3.8-1.1-6.06-1.1s-4.28.37-6.08,1.1c-1.79.73-3.32,1.79-4.57,3.18-1.25,1.39-2.21,3.07-2.87,5.05-.66,1.98-1,4.22-1,6.71s.33,4.76,1,6.74c.66,1.98,1.62,3.66,2.87,5.04,1.25,1.38,2.77,2.43,4.57,3.17,1.79.73,3.82,1.1,6.08,1.1s4.28-.37,6.06-1.1c1.78-.73,3.3-1.79,4.55-3.17,1.25-1.38,2.21-3.06,2.87-5.04.66-1.98,1-4.23,1-6.74s-.33-4.73-1-6.71c-.66-1.98-1.62-3.66-2.87-5.05Z" fill="#fff"/><path d="M347.85,69.13v48.76h-9.01v-29.94c0-.63.02-1.3.05-2.02.03-.72.1-1.44.19-2.18l-14.11,26.45c-.77,1.46-1.96,2.18-3.57,2.18h-1.43c-.79,0-1.5-.18-2.11-.55s-1.1-.91-1.46-1.63l-14.18-26.55c.07.78.12,1.54.17,2.27.05.73.07,1.41.07,2.03v29.94h-9.01v-48.76h7.75c.43,0,.82.01,1.16.03.34.02.64.08.9.19.26.1.5.26.71.47.22.21.43.51.63.89l13.81,26.01c.43.78.83,1.59,1.21,2.42.37.83.73,1.68,1.07,2.55.34-.9.7-1.77,1.07-2.62.37-.85.78-1.67,1.21-2.45l13.7-25.91c.2-.38.42-.68.65-.89.23-.21.47-.37.73-.47.26-.1.56-.16.88-.19.33-.02.72-.03,1.17-.03h7.75Z" fill="#fff"/><path d="M399.56,93.5c0,3.56-.61,6.87-1.82,9.91-1.21,3.05-2.92,5.68-5.13,7.9-2.21,2.22-4.87,3.96-7.97,5.23-3.11,1.27-6.55,1.9-10.34,1.9s-7.23-.63-10.34-1.9c-3.11-1.27-5.77-3.01-7.99-5.23-2.22-2.22-3.94-4.85-5.15-7.9-1.21-3.05-1.82-6.35-1.82-9.91s.61-6.86,1.82-9.9c1.21-3.04,2.93-5.66,5.15-7.88,2.22-2.22,4.88-3.96,7.99-5.23,3.11-1.27,6.55-1.9,10.34-1.9s7.23.63,10.34,1.9c3.11,1.27,5.76,3.01,7.97,5.24,2.21,2.23,3.92,4.86,5.13,7.9,1.21,3.04,1.82,6.32,1.82,9.86ZM389.12,93.5c0-2.55-.34-4.84-1.02-6.87-.68-2.03-1.66-3.75-2.94-5.18-1.28-1.42-2.83-2.51-4.66-3.26-1.82-.75-3.89-1.13-6.21-1.13s-4.39.38-6.22,1.13c-1.84.75-3.39,1.84-4.68,3.26-1.28,1.42-2.26,3.15-2.94,5.18-.68,2.03-1.02,4.32-1.02,6.87s.34,4.88,1.02,6.91c.68,2.03,1.66,3.75,2.94,5.16,1.28,1.41,2.84,2.49,4.68,3.24,1.84.75,3.91,1.13,6.22,1.13s4.38-.37,6.21-1.13c1.82-.75,3.38-1.83,4.66-3.24,1.28-1.41,2.26-3.13,2.94-5.16.68-2.03,1.02-4.33,1.02-6.91Z" fill="#fff"/><path d="M434.25,77.27h-14.42v40.63h-10.23v-40.63h-14.42v-8.13h39.07v8.13Z" fill="#fff"/><path d="M445.84,117.89h-10.27v-48.76h10.27v48.76Z" fill="#fff"/><path d="M497.59,93.5c0,3.56-.61,6.87-1.82,9.91-1.21,3.05-2.92,5.68-5.13,7.9-2.21,2.22-4.87,3.96-7.97,5.23-3.11,1.27-6.55,1.9-10.34,1.9s-7.23-.63-10.34-1.9c-3.11-1.27-5.77-3.01-7.99-5.23-2.22-2.22-3.94-4.85-5.15-7.9-1.21-3.05-1.82-6.35-1.82-9.91s.61-6.86,1.82-9.9c1.21-3.04,2.93-5.66,5.15-7.88,2.22-2.22,4.88-3.96,7.99-5.23,3.11-1.27,6.55-1.9,10.34-1.9s7.23.63,10.34,1.9c3.11,1.27,5.76,3.01,7.97,5.24,2.21,2.23,3.92,4.86,5.13,7.9,1.21,3.04,1.82,6.32,1.82,9.86ZM487.15,93.5c0-2.55-.34-4.84-1.02-6.87-.68-2.03-1.66-3.75-2.94-5.18-1.28-1.42-2.83-2.51-4.66-3.26-1.83-.75-3.89-1.13-6.21-1.13s-4.39.38-6.22,1.13c-1.84.75-3.4,1.84-4.68,3.26-1.28,1.42-2.26,3.15-2.94,5.18-.68,2.03-1.02,4.32-1.02,6.87s.34,4.88,1.02,6.91c.68,2.03,1.66,3.75,2.94,5.16,1.28,1.41,2.84,2.49,4.68,3.24,1.84.75,3.91,1.13,6.22,1.13s4.38-.37,6.21-1.13c1.82-.75,3.38-1.83,4.66-3.24,1.28-1.41,2.26-3.13,2.94-5.16.68-2.03,1.02-4.33,1.02-6.91Z" fill="#fff"/><path d="M540.81,69.13v48.76h-5.27c-.79,0-1.46-.13-2.01-.39-.54-.26-1.08-.7-1.6-1.33l-24.58-30.92c.07.78.12,1.56.15,2.32.03.76.05,1.47.05,2.12v28.19h-9.01v-48.76h5.37c.43,0,.8.02,1.11.05s.58.11.83.24c.25.12.49.29.71.49.23.2.48.47.75.81l24.75,31.05c-.09-.85-.16-1.67-.2-2.47-.05-.8-.07-1.55-.07-2.27v-27.89h9.01Z" fill="#fff"/><path d="M571.61,78.48c-.32.52-.64.89-.97,1.13-.33.24-.75.35-1.28.35s-1.04-.17-1.62-.52c-.58-.35-1.25-.72-2.02-1.13-.77-.4-1.65-.78-2.65-1.13-1-.35-2.17-.52-3.5-.52-2.36,0-4.13.52-5.3,1.56-1.18,1.04-1.77,2.4-1.77,4.08,0,1.08.32,1.97.97,2.67.65.71,1.5,1.32,2.55,1.83,1.05.52,2.25.97,3.59,1.38,1.34.4,2.71.85,4.11,1.33,1.41.48,2.78,1.05,4.11,1.7,1.34.65,2.53,1.47,3.59,2.45,1.05.99,1.9,2.19,2.55,3.61.65,1.42.97,3.15.97,5.19,0,2.22-.39,4.3-1.17,6.23-.78,1.94-1.91,3.63-3.38,5.07-1.47,1.45-3.29,2.58-5.46,3.41-2.17.83-4.62,1.24-7.36,1.24-1.56,0-3.12-.16-4.68-.47-1.55-.31-3.05-.75-4.49-1.31-1.44-.56-2.79-1.23-4.06-2.02-1.27-.78-2.38-1.66-3.33-2.62l2.99-4.77c.25-.36.58-.66.99-.89s.84-.35,1.29-.35c.61,0,1.26.22,1.94.67s1.46.94,2.35,1.48,1.91,1.03,3.08,1.48c1.17.45,2.57.67,4.2.67,2.38,0,4.22-.54,5.53-1.61,1.3-1.08,1.96-2.68,1.96-4.81,0-1.23-.32-2.23-.97-2.99-.65-.76-1.49-1.4-2.53-1.92-1.04-.52-2.23-.96-3.57-1.33-1.34-.37-2.71-.78-4.11-1.23-1.41-.45-2.78-.99-4.11-1.61-1.34-.63-2.53-1.46-3.57-2.49-1.04-1.03-1.89-2.31-2.53-3.83-.65-1.52-.97-3.42-.97-5.68,0-1.81.36-3.57,1.09-5.28.73-1.7,1.79-3.21,3.2-4.54,1.41-1.32,3.13-2.39,5.19-3.19,2.05-.81,4.4-1.21,7.06-1.21,2.97,0,5.72.45,8.25,1.36,2.53.91,4.66,2.17,6.41,3.78l-2.52,4.74Z" fill="#fff"/></svg>