<?xml version="1.0" encoding="UTF-8"?><svg xmlns="http://www.w3.org/2000/svg" xmlns:xlink="http://www.w3.org/1999/xlink" viewBox="0 0 5101 3301"><defs><style>.cls-1,.cls-2,.cls-3,.cls-4{fill:none;}.cls-5,.cls-2,.cls-6{stroke-width:4px;}.cls-5,.cls-2,.cls-6,.cls-7,.cls-8,.cls-3,.cls-9,.cls-4{stroke:#fff;stroke-miterlimit:10;}.cls-5,.cls-8{fill:#fff;}.cls-6,.cls-9{fill:#26245d;}.cls-7{fill:url(#Tile_Pattern_Dk_BG_v2);}.cls-10{opacity:.21;}.cls-3{stroke-linecap:round;}.cls-3,.cls-4{stroke-width:2px;}</style><pattern id="Tile_Pattern_Dk_BG_v2" x="0" y="0" width="721.78" height="728.57" patternTransform="translate(1978.94 4196.21)" patternUnits="userSpaceOnUse" viewBox="0 0 721.78 728.57"><rect class="cls-1" width="721.78" height="728.57"/><g id="Tile" class="cls-10"><g id="Pie_Chart"><path class="cls-2" d="M187.24,541.74l23.41.07c-.04,13.87-10.59,25.26-23.41,25.26s-23.41-11.44-23.41-25.34,10.36-25.14,23.08-25.33l.33,25.33Z"/><path class="cls-5" d="M193.07,535.51l-.2-25.34c.07,0,.13,0,.2,0,12.84,0,23.41,11.44,23.41,25.34,0,.03,0,.05,0,.08l-23.41-.08Z"/></g><g id="Value_Graph"><g id="Chart"><g id="Up_chart"><polyline class="cls-2" points="519.48 537.6 540.64 526.05 544.32 533.67 559.1 521.26"/><polygon class="cls-6" points="558.99 521.31 556.88 522 558.29 523.07 558.99 521.31"/></g></g><g id="Bar_Graph"><polygon class="cls-8" points="520.92 556.74 520.81 546.19 527.24 546.13 527.36 556.68 520.92 556.74"/><polygon class="cls-8" points="544.83 556.67 544.72 541.79 551.15 541.76 551.27 556.64 544.83 556.67"/><polygon class="cls-8" points="532.86 556.66 532.74 535.61 539.17 535.59 539.29 556.64 532.86 556.66"/><polygon class="cls-8" points="556.84 556.72 556.72 529.44 563.15 529.43 563.27 556.71 556.84 556.72"/></g></g><path id="Knight" class="cls-4" d="M556.12,206.96c-.08-.01-.15-.03-.22-.05-1.52-.32-.88-.3.5-1,1.68-.86,1.73-2.29.63-3.38-.95-.94-3.44-1.6-6.19-2.05-.14-.02-.13-.19,0-.24,0,0,0,0,0,0,.31-.31.51-.8.93-1.52.58-.99,3.91-.74,4.12-.53.56.58.44-5.65.44-5.72,0-.65-.29-8.72-.29-8.95.01-.63-.04-1.69-.44-2.44-.34-.63.45-2.94.3-3.72s-1-3.07-.66-3.03c.41.06.38.3.38-.13,0-.15-1.38-2.58-1.27-2.45.04.05.13.02.13-.05,0-.18-.06-.47-.25-.9-.25-.56-.39-.63-1.19-1.42-.61-.61-2.02-2.03-2.02-2.03.08-.03.11-.12.06-.18-.27-.4-4.36-3.25-4.66-3.46-.78-.54-1.48-.81-1.87-.94-.64-.22-1.08-.36-1.68-.3-.28.03-1.98-.4-1.98-.4.02-.1-.75.05-1.38.09-.76.04-1.47-.12-1.47-.12-.02-.07-.09-.1-.15-.08-.21.06-.65.18-.96.16-.6-.04-1.32-.05-1.93-.11-.09,0-.16.08-.13.16.08.23.19.59.05.57-1.2-.14-3.29-1.79-3.83-2.23-.06-.05-.15-.02-.16.06-.06.31-.36.54.05,1.46.36.81.43,1.52.1,1.64-.88.32-.35.47-1.14,1.26s-2.79-.74-3.57-1.41c-.17-.14-.3-.08-.3.14,0,2.05,1.12,2.79,1.83,3.06.18.07.28.25.23.44-.34,1.25-2.09,1.29-1.83,1.5,0,0,2.14.87,2.04.86-.19-.03-1.57,1.76-.94,2.39,1.2,1.2-1.2,4.78-1.29,6.17-.15,2.26-2.25,5.04-2.44,5.28-.01.02-.02.04-.02.07,0,.1.08.38.89.85.38.22-.46.36.55,1.37,1.01,1.01,1.25,1.54,1.75,2.05.51.51,1.05-.08,1.51.38s2.36-.69,3.02-1.19c.24-.18.86.03,1.1-.49.54-1.14.02-1.11.08-1.51,0-.02.01-.04.03-.06.22-.27,1.86-2.71,1.89-2.71,1.29.21,2.15-1.42,2.47-1.42.47,0,.54.02,1.08-.33.4-.25.94.63.57,1.79-.4,1.26-3.16,2.84-4.74,4.35,0,0,0,0,0,0-.05.05-1.12,1.18-2.18,3.14-3.98,7.33-1.12,9.84.18,10.57.02.01.04.02.06.02.37,0,.73,0,1.09,0-3.43.46-6.92,1.2-8.08,2.35-1.1,1.1-1.04,2.53.64,3.38,1.38.7,2.02.68.5,1-.07.02-.15.03-.22.05-3.91.78-3.32,3.12-3.16,3.59.02.05.06.08.12.08h18.07c.07,0,.19,0,.26,0l18.07-.06c.05,0,.1-.03.12-.08.16-.47.74-2.81-3.18-3.58Z"/><g id="Chart-2"><g id="Up_chart-2"><polyline class="cls-2" points="163.83 199.39 191.95 180.51 196.83 192.97 216.48 172.68"/><polygon class="cls-2" points="216.33 172.76 213.53 173.88 215.41 175.64 216.33 172.76"/></g><path id="Graph_axis" class="cls-3" d="M159,164.83v42.42h62.3"/></g></g></pattern></defs><g id="Layer_1"><rect class="cls-9" x=".5" y=".5" width="5100" height="3300"/></g><g id="Layer_2"><rect class="cls-7" x=".5" y=".5" width="5100" height="3300"/></g></svg>