<?xml version="1.0" encoding="UTF-8"?><svg id="MG" xmlns="http://www.w3.org/2000/svg" viewBox="0 0 612 792"><defs><style>.cls-1{fill:#1b1464;}.cls-2{fill:#fff;}.cls-2,.cls-3{stroke:#fff;stroke-miterlimit:10;stroke-width:.5px;}.cls-3{fill:none;}.cls-4{opacity:.1;}</style></defs><rect class="cls-1" x=".5" y=".39" width="615.13" height="791.88"/><path class="cls-1" d="M615.13.89v790.88H1V.89h614.13M616.13-.11H0v792.88h616.13V-.11h0Z"/><g id="Light_on_Blue" class="cls-4"><circle class="cls-3" cx="89.1" cy="298.27" r="23.9"/><circle class="cls-2" cx="125.64" cy="604.02" r="23.9"/><line class="cls-3" x1="494.02" y1="702.55" x2="105.87" y2="315.3"/><line class="cls-3" x1="338.97" y1="51.02" x2="105.56" y2="280.94"/><circle class="cls-3" cx="512.66" cy="721.16" r="26.34"/><circle class="cls-3" cx="351.6" cy="39.38" r="17.19" transform="translate(75.14 260.15) rotate(-45)"/><line class="cls-3" x1="612.3" y1="111.35" x2="111.35" y2="289.56"/><line class="cls-3" x1="612.3" y1="201.04" x2="112.68" y2="294.67"/><line class="cls-3" x1="148.51" y1="610.98" x2="487.7" y2="714.32"/><line class="cls-3" x1="399.47" y1="792" x2="490.34" y2="735.13"/><line class="cls-3" x1="275.79" y1="792.77" x2="487.7" y2="729.56"/></g></svg>