<?xml version="1.0" encoding="UTF-8"?>
<svg id="UI_Elements" xmlns="http://www.w3.org/2000/svg" width="1536" height="512" viewBox="0 0 1536 512">
  <g id="Markers">
    <rect x="511.74" y="256.98" width="256.37" height="255.92" fill="none"/>
    <path id="Dot_Mark" d="M635.36,285h0c53.27,0,96.46,43.19,96.46,96.46h0c0,53.27-43.19,96.46-96.46,96.46h0c-53.27,0-96.46-43.19-96.46-96.46h0c0-53.27,43.19-96.46,96.46-96.46Z" fill="#dcbe5d"/>
    <rect x="254.46" y="256.98" width="256.37" height="255.92" fill="none"/>
    <path id="Check_Mark" d="M441.95,280.14c-7.47,14.86-18.09,25.97-27.4,39.18-8.93,12.73-16.88,25.97-24.53,39.32-11.13,20.02-21.14,40.13-30.11,61.01-12.48-15.87-25.64-30.65-41.97-44.01l-16.92,27.34c4.25,1.75,9.18,5.44,13.65,9.35,19.62,17.79,37.31,41.05,53.62,61.99,0,0,7.78-23.6,7.78-23.6,13.91-41.16,32.59-82.13,57.65-117.82,8.32-11.42,17.12-23.86,30.56-29.63l-22.33-23.13Z" fill="#1b1464"/>
    <g id="Diamond_Mark">
      <rect x="-.32" y="256.98" width="256.37" height="255.92" fill="none"/>
      <path d="M189.12,387.57l-57.13,89.61c-1.92,3.02-6.33,3.02-8.25,0l-57.13-89.61c-1.02-1.6-1.02-3.66,0-5.26l57.13-89.61c1.92-3.02,6.33-3.02,8.25,0l57.13,89.61c1.02,1.6,1.02,3.66,0,5.26Z" fill="#1b1464"/>
    </g>
    <g id="Menu_Close">
      <rect x="1279.62" y=".21" width="256.37" height="255.92" fill="none"/>
      <path id="Menu_Close-2" d="M1500.89,207.99l-79.6-79.22,79.6-79.22c3.73-3.73,3.73-9.76,0-13.49-3.73-3.73-9.76-3.73-13.49,0l-79.6,79.22-79.6-79.31c-3.73-3.73-9.76-3.73-13.49,0-3.73,3.73-3.73,9.85,0,13.59l79.5,79.22-79.6,79.22c-3.73,3.73-3.73,9.76,0,13.49,1.91,1.91,4.31,2.77,6.79,2.77s4.88-.96,6.79-2.77l79.7-79.31,79.6,79.31c1.91,1.82,4.31,2.77,6.79,2.77s4.88-.96,6.79-2.77c3.73-3.73,3.73-9.85,0-13.59l-.19.1Z" fill="#1b1464"/>
    </g>
    <g id="Menu_Open">
      <rect x="1023.63" y=".44" width="256.37" height="255.92" fill="none"/>
      <g id="Active_Menu_Icon">
        <path d="M1068.91,101.26l169.55.47h0c5.16,0,9.39-4.22,9.39-9.39s-4.22-9.39-9.39-9.39l-169.55-.47h0c-5.16,0-9.39,4.22-9.39,9.39s4.22,9.39,9.39,9.39Z" fill="#1b1464"/>
        <path d="M1068.91,139.18l169.46.47h0c5.16,0,9.39-4.22,9.39-9.39s-4.22-9.39-9.39-9.39l-169.55-.47h0c-5.16,0-9.39,4.22-9.39,9.39s4.22,9.39,9.39,9.39h.09Z" fill="#1b1464"/>
        <path d="M1238.55,158.81l-169.55-.47h0c-5.16,0-9.39,4.22-9.39,9.39s4.22,9.39,9.39,9.39l169.55.47h0c5.16,0,9.39-4.22,9.39-9.39s-4.22-9.39-9.39-9.39Z" fill="#1b1464"/>
      </g>
    </g>
    <g id="Pause">
      <rect x="767.69" y=".75" width="256.37" height="255.92" fill="none"/>
      <path d="M860.81,217.84c-15.42,0-27.93-12.51-27.93-27.93V55.84c0-15.42,12.51-27.93,27.93-27.93s27.93,12.51,27.93,27.93v134.07c0,15.42-12.51,27.93-27.93,27.93Z" fill="#6c757d"/>
      <path d="M936.41,217.84c-15.42,0-27.93-12.51-27.93-27.93V55.84c0-15.42,12.51-27.93,27.93-27.93s27.93,12.51,27.93,27.93v134.07c0,15.42-12.51,27.93-27.93,27.93Z" fill="#6c757d"/>
    </g>
    <g id="Play">
      <rect x="513.25" y=".75" width="256.37" height="255.92" fill="none"/>
      <g id="Play_Button-2">
        <path d="M594.61,217.84c-4.75,0-9.55-1.2-13.85-3.63-8.8-4.98-14.23-14.3-14.23-24.45V54.99c0-10.11,5.43-19.47,14.23-24.45,8.8-4.98,19.62-4.83,28.26.37l112.31,67.39c8.46,5.09,13.63,14.23,13.63,24.07s-5.17,19.02-13.63,24.07l-112.31,67.39c-4.45,2.66-9.43,4.01-14.45,4.01h.04ZM622.69,104.59v35.6l29.65-17.78-29.65-17.78v-.04Z" fill="#6c757d"/>
      </g>
    </g>
    <g id="Arrow">
      <rect x="256.46" y="2.07" width="256.37" height="255.92" fill="none"/>
      <path d="M463.57,109.36l-59.43-66.54c-.66-.81-1.37-1.59-2.18-2.31-2.45-2.18-5.29-3.63-8.27-4.39-.05-.01-.09-.03-.14-.04-.45-.11-.9-.19-1.35-.27-.2-.04-.4-.08-.6-.11-.3-.04-.6-.07-.91-.1-.36-.04-.71-.08-1.07-.09-.15,0-.29,0-.44,0-4.86-.12-9.77,1.52-13.69,5.01-.81.72-1.52,1.5-2.18,2.31l-59.44,66.54c-7.3,8.17-6.58,20.7,1.59,28,3.79,3.37,8.51,5.04,13.21,5.04,5.45,0,10.87-2.24,14.79-6.62l25.52-28.57v97.54c0,10.95,8.88,19.83,19.83,19.83v-.02c10.95,0,19.83-8.88,19.83-19.83v-97.32l25.34,28.37c3.91,4.38,9.34,6.62,14.79,6.62,4.7,0,9.42-1.67,13.21-5.04,8.17-7.3,8.88-19.83,1.59-28Z" fill="#1b1464"/>
    </g>
    <g id="Search">
      <rect x="-.32" y=".75" width="256.37" height="255.92" fill="none"/>
      <path d="M95.53,79.01c-.78-.14-1.51.34-1.66,1.08-.15.73.36,1.45,1.12,1.59,14.03,2.58,25.15,13.36,27.68,26.85.12.65.72,1.12,1.39,1.12.08,0,.17,0,.25-.02.77-.13,1.28-.84,1.14-1.58-2.74-14.58-14.77-26.25-29.94-29.03Z" fill="#1b1464"/>
      <path d="M221.75,182.83c-11.19-7.89-23.8-13.43-36.37-19.03-10.69-4.89-20.99-10.52-31.09-16.43-1.6-.94-6.05-3.53-7.57-4.42-.74-.51-2.01-.88-2.28-1.86-.88-2.54-2.72-4.01-4.78-4.56,3.16-6.73,4.96-14.18,4.96-22.03,0-29.73-25.21-53.93-56.21-53.93s-56.21,24.19-56.21,53.93,25.21,53.93,56.21,53.93c17.78,0,33.63-7.98,43.94-20.39,1.62,1.58,4,2.4,6.45,1.98.65-.11,1.09.1,1.51.34.62.36,3.23,1.86,3.8,2.2,8.41,4.82,16.9,9.86,25,15.13,13.05,8.54,24.87,18.87,38.8,26.12,2.86,1.11,5.23,3.9,8.6,2.8,2.13-.73,4.11-2.28,5.81-3.72.57-.55.68-1.97.85-2.71.49-2.26.84-6.12-1.41-7.34ZM88.41,160.28c-26.31,0-47.72-20.54-47.72-45.78s21.41-45.78,47.72-45.78,47.72,20.54,47.72,45.78-21.41,45.78-47.72,45.78Z" fill="#1b1464"/>
    </g>
  </g>
</svg>