<svg width="38" height="20" viewBox="0 0 38 20" fill="none" xmlns="http://www.w3.org/2000/svg">
<g clip-path="url(#clip0_4780_1342)">
<path d="M2.06855 4.5874L35.9311 4.6811C36.9623 4.6811 37.8061 3.8374 37.8061 2.8061C37.8061 1.7749 36.9623 0.931102 35.9311 0.931102L2.06855 0.837402C1.0373 0.837402 0.193555 1.6811 0.193555 2.7124C0.193555 3.7436 1.0373 4.5874 2.06855 4.5874Z" fill="white"/>
<path d="M2.06855 12.1624L35.9123 12.2561C36.9436 12.2561 37.7873 11.4124 37.7873 10.3811C37.7873 9.3499 36.9436 8.5061 35.9123 8.5061L2.0498 8.4124C1.01855 8.4124 0.174805 9.2561 0.174805 10.2874C0.174805 11.3186 1.01855 12.1624 2.0498 12.1624H2.06855Z" fill="white"/>
<path d="M35.9499 16.0811L2.0873 15.9874C1.05605 15.9874 0.212305 16.8311 0.212305 17.8624C0.212305 18.8936 1.05605 19.7374 2.0873 19.7374L35.9499 19.8311C36.9811 19.8311 37.8249 18.9874 37.8249 17.9561C37.8249 16.9249 36.9811 16.0811 35.9499 16.0811Z" fill="white"/>
</g>
<defs>
<clipPath id="clip0_4780_1342">
<rect width="37.65" height="18.9937" fill="white" transform="translate(0.174805 0.837402)"/>
</clipPath>
</defs>
</svg>
