<svg width="90" height="90" viewBox="0 0 90 90" fill="none" xmlns="http://www.w3.org/2000/svg">
<path d="M83.3906 34.823C82.3992 34.823 81.5977 35.6246 81.5977 36.616V59.6539C81.5977 60.3816 81.0071 60.9723 80.2793 60.9723H26.434C25.4426 60.9723 24.641 61.7738 24.641 62.7652C24.641 63.7566 25.4426 64.5582 26.434 64.5582H36.3692L33.634 71.041L22.3207 71.0621C21.2625 71.0621 20.4047 72.0254 20.4082 73.2031V73.3789C20.4082 73.9168 20.5981 74.423 20.9391 74.8027C21.2801 75.1824 21.7336 75.3934 22.2153 75.3934L83.3555 75.2703H83.3801L83.3731 70.9391L61.2106 70.9813L58.5 64.5547H80.2688C82.9723 64.5547 85.1731 62.3539 85.1731 59.6504V36.6125C85.1731 35.6211 84.3715 34.8195 83.3801 34.8195L83.3906 34.823Z" fill="#1B1464"/>
<path d="M69.5672 17.4277C69.5672 16.3695 68.7094 15.5152 67.6547 15.5152H16.6219C13.609 15.5152 11.1621 17.7687 11.1621 20.5391V44.607C11.1621 45.6652 12.02 46.5195 13.0782 46.5195C14.1364 46.5195 14.9907 45.6617 14.9907 44.607V20.5391C14.9907 19.8922 15.7395 19.3438 16.6219 19.3438H67.6512C68.7094 19.3438 69.5637 18.4859 69.5637 17.4313L69.5672 17.4277Z" fill="#1B1464"/>
<path d="M56.4891 50.0773C56.4821 49.9789 56.4504 49.884 56.4293 49.7996L53.0332 44.4066C53.093 43.4223 53.1211 42.4027 53.1211 41.3621C53.0016 34.0672 49.4684 25.8301 48.2906 24.2832C48.1606 24.1215 47.9707 24.1215 47.8407 24.2832C46.6489 25.8371 43.0032 33.8809 43.0032 41.3621C43.0032 42.3992 43.0348 43.4117 43.091 44.3926L39.709 49.768C39.6563 49.8805 39.6246 49.9754 39.6176 50.0738L39.1922 56.1875C39.1782 56.3773 39.4032 56.4934 39.5789 56.3703L44.3461 52.3731H51.7817C51.7887 52.352 51.7922 52.3273 51.7992 52.3063L51.7887 52.3731L56.5559 56.3703C56.7035 56.4934 56.925 56.3809 56.9145 56.1875L56.4926 50.0738L56.4891 50.0773Z" fill="#1B1464"/>
<path d="M87.0574 25.4082L78.7114 15.7859C78.5883 15.6242 78.4512 15.4695 78.2895 15.3324C77.8782 14.9773 77.3965 14.7594 76.8938 14.675C76.8832 14.675 76.8727 14.6715 76.8586 14.668C76.7883 14.6574 76.718 14.6504 76.6477 14.6434C76.6196 14.6434 76.5879 14.6398 76.5598 14.6363C76.5071 14.6363 76.4543 14.6328 76.4016 14.6328C76.3524 14.6328 76.3032 14.6328 76.2574 14.6328C76.2258 14.6328 76.1907 14.6363 76.159 14.6398C76.0922 14.6469 76.0254 14.6539 75.9586 14.6645C75.9446 14.6645 75.9305 14.668 75.9164 14.6715C75.4172 14.7559 74.9356 14.9703 74.5278 15.3254C74.3696 15.4625 74.2289 15.6172 74.1059 15.7789L65.7598 25.4012C64.7227 26.5965 64.8528 28.4035 66.0481 29.4371C66.5895 29.9082 67.2574 30.1367 67.9219 30.1367C68.7235 30.1367 69.518 29.8027 70.084 29.1488L73.5574 25.1445V39.2352C73.5574 40.8172 74.8371 42.0969 76.4192 42.0969C78.0012 42.0969 79.2809 40.8172 79.2809 39.2352V25.1762L82.7297 29.1523C83.2957 29.8062 84.0938 30.1402 84.8918 30.1402C85.5563 30.1402 86.2242 29.9082 86.7657 29.4406C87.961 28.4035 88.0875 26.5965 87.0539 25.4047L87.0574 25.4082Z" fill="#D4AF37"/>
<path d="M23.7903 58.4305C23.2137 58.3426 22.6758 58.7363 22.5879 59.3129C22.0817 62.5719 19.6946 65.2121 16.5059 66.0418C12.6035 67.0578 8.61331 65.0926 6.95745 61.5664L7.72034 62.0902C7.90315 62.2168 8.11058 62.2766 8.31448 62.2766C8.65198 62.2766 8.97893 62.1148 9.18636 61.8195C9.51683 61.3379 9.39378 60.684 8.91214 60.3535L5.92737 58.3039C5.92737 58.3039 5.91331 58.2969 5.90628 58.2898L5.86761 58.2617C5.86761 58.2617 5.84651 58.2512 5.83948 58.2441C5.80784 58.223 5.77972 58.202 5.74456 58.1844C5.7305 58.1773 5.71292 58.1738 5.69886 58.1668C5.67776 58.1562 5.66019 58.1527 5.63909 58.1457C5.59339 58.1281 5.54768 58.1141 5.50198 58.1035C5.48089 58.1 5.45979 58.0965 5.43518 58.093C5.38948 58.0859 5.34378 58.0789 5.29808 58.0789C5.27347 58.0789 5.24886 58.0789 5.22425 58.0789C5.18206 58.0789 5.13987 58.0824 5.1012 58.0895C5.06956 58.093 5.04144 58.1035 5.01331 58.1105C4.97815 58.1211 4.94651 58.1281 4.91136 58.1387C4.8762 58.1527 4.84456 58.1668 4.8094 58.1844C4.78479 58.1984 4.75667 58.209 4.73206 58.223C4.6969 58.2441 4.66175 58.2688 4.62659 58.2969C4.6055 58.3109 4.58792 58.325 4.57034 58.3426C4.53518 58.3742 4.50354 58.4094 4.47542 58.4445C4.46136 58.4621 4.44729 58.4762 4.43323 58.4938C4.42268 58.5078 4.41214 58.5184 4.40159 58.5289C4.3805 58.5605 4.36292 58.5957 4.34534 58.6309C4.34183 58.6414 4.33128 58.6484 4.32776 58.659L4.30667 58.7012C4.30667 58.7012 4.29964 58.7152 4.29612 58.7258L2.68948 61.9707C2.42933 62.491 2.64378 63.1238 3.16761 63.384C3.31878 63.4578 3.47698 63.493 3.63519 63.493C4.0219 63.493 4.39808 63.2785 4.58089 62.9059L4.92894 62.1992C6.58128 65.9891 10.35 68.4148 14.4246 68.4148C15.286 68.4148 16.1649 68.3059 17.0367 68.0773C21.041 67.0332 24.0364 63.718 24.6692 59.6293C24.7571 59.0527 24.3633 58.5148 23.7903 58.427V58.4305Z" fill="#1B1464"/>
<path d="M25.2528 52.7211C24.7325 52.4609 24.0996 52.6754 23.8395 53.1992L23.4949 53.8988C22.6266 51.902 21.1571 50.2355 19.2446 49.1141C16.8574 47.7148 14.066 47.3246 11.3871 48.0242C7.38284 49.0684 4.38753 52.3836 3.75472 56.4723C3.66683 57.0488 4.06058 57.5867 4.63362 57.6746C4.68987 57.6816 4.74261 57.6887 4.79534 57.6887C5.30511 57.6887 5.75511 57.316 5.83597 56.7957C6.34222 53.5367 8.72933 50.8965 11.918 50.0668C14.052 49.5113 16.2739 49.8207 18.1758 50.9352C19.6313 51.7895 20.7633 53.041 21.4664 54.5387L20.7071 54.0184C20.2254 53.6879 19.5715 53.8109 19.241 54.2926C18.9106 54.7742 19.0336 55.4281 19.5153 55.7586L22.5 57.8082C22.5 57.8082 22.5141 57.8188 22.5211 57.8223L22.5598 57.8504C22.5598 57.8504 22.5914 57.868 22.609 57.8785C22.6336 57.8926 22.6582 57.9137 22.6864 57.9277C22.6934 57.9313 22.7004 57.9312 22.711 57.9348C22.7672 57.9629 22.827 57.9805 22.8867 57.9981C22.9114 58.0051 22.936 58.0086 22.9606 58.0156C23.0168 58.0262 23.0731 58.0332 23.1293 58.0332C23.1399 58.0332 23.1469 58.0332 23.1574 58.0332C23.2348 58.0332 23.3121 58.0227 23.3895 58.0051C23.4 58.0051 23.4106 58.0016 23.4211 57.9981C23.4879 57.9805 23.5547 57.9559 23.618 57.9242C23.6356 57.9172 23.6532 57.9066 23.6672 57.8996C23.727 57.868 23.7832 57.8293 23.836 57.7836C23.85 57.7695 23.8641 57.7555 23.8817 57.7414C23.9274 57.6992 23.9696 57.65 24.0082 57.5973C24.0153 57.5867 24.0223 57.5832 24.0293 57.5727C24.0469 57.548 24.0574 57.5234 24.0715 57.4988C24.0821 57.4813 24.0926 57.4637 24.1032 57.4461L24.1242 57.4039C24.1242 57.4039 24.1313 57.3898 24.1348 57.3793L25.7414 54.1344C26.0016 53.6141 25.7871 52.9813 25.2633 52.7211H25.2528Z" fill="#1B1464"/>
</svg>
