<svg width="171" height="130" viewBox="0 0 171 130" fill="none" xmlns="http://www.w3.org/2000/svg">
<path d="M7.74105 20.2536C9.28723 20.2536 10.6147 20.4478 11.7235 20.8307C12.8322 21.2137 13.7477 21.7423 14.4649 22.4166C15.182 23.0908 15.711 23.8838 16.0518 24.8008C16.3925 25.7178 16.5654 26.7049 16.5654 27.7675C16.5654 28.9164 16.3874 29.9683 16.0365 30.923C15.6856 31.8832 15.1464 32.7031 14.4242 33.3827C13.702 34.0678 12.7865 34.6018 11.6777 34.9848C10.5689 35.3677 9.25671 35.5619 7.74105 35.5619H5.09119V43.2485H0V20.2536H7.74105ZM7.74105 31.538C9.06853 31.538 10.0196 31.2089 10.6045 30.5454C11.1843 29.882 11.4793 28.9542 11.4793 27.7675C11.4793 27.2389 11.4031 26.7642 11.2556 26.3327C11.103 25.9012 10.8741 25.529 10.5689 25.2215C10.2638 24.9086 9.87722 24.6713 9.4093 24.5041C8.94138 24.3369 8.38699 24.2506 7.74614 24.2506H5.09628V31.5433H7.74614L7.74105 31.538Z" fill="#1B1464"/>
<path d="M26.1426 39.0357C26.8241 39.0357 27.4345 38.917 27.9736 38.6797C28.5127 38.4424 28.9654 38.1025 29.3367 37.6602C29.7079 37.2179 29.9928 36.6785 30.186 36.042C30.3793 35.4055 30.481 34.6827 30.481 33.8736V20.2536H35.5722V33.8736C35.5722 35.2814 35.3535 36.576 34.9161 37.7573C34.4787 38.9386 33.8531 39.9527 33.0393 40.805C32.2256 41.6572 31.2389 42.3207 30.0741 42.7954C28.9094 43.27 27.5972 43.5074 26.1426 43.5074C24.688 43.5074 23.3605 43.27 22.1958 42.7954C21.031 42.3207 20.0443 41.6572 19.2306 40.805C18.4168 39.9527 17.7963 38.9386 17.364 37.7573C16.9316 36.5814 16.718 35.2868 16.718 33.8736V20.2536H21.8092V33.8574C21.8092 34.6665 21.9059 35.3893 22.1042 36.0258C22.3026 36.6623 22.5823 37.2017 22.9536 37.6494C23.3249 38.0971 23.7775 38.437 24.3167 38.6743C24.8558 38.9116 25.461 39.0303 26.1477 39.0303L26.1426 39.0357Z" fill="#1B1464"/>
<path d="M54.2433 43.2485H49.6353C48.7808 43.2485 48.1705 42.914 47.7992 42.2398L44.1525 35.5619C43.9795 35.276 43.7914 35.0711 43.5828 34.9362C43.3743 34.8068 43.0691 34.7366 42.6775 34.7366H41.3806V43.2431H36.2894V20.2536H43.4252C45.012 20.2536 46.3649 20.4262 47.4839 20.766C48.6028 21.1058 49.5183 21.5859 50.2253 22.1954C50.9323 22.805 51.446 23.5278 51.7664 24.3585C52.0868 25.1891 52.2496 26.0953 52.2496 27.0717C52.2496 27.8214 52.1529 28.5227 51.9647 29.1861C51.7715 29.8496 51.4917 30.4645 51.1204 31.0255C50.7492 31.5865 50.2914 32.0935 49.7421 32.5305C49.1928 32.9728 48.5672 33.3342 47.8501 33.6201C48.1807 33.7981 48.4909 34.0246 48.7859 34.2889C49.0758 34.5586 49.3403 34.8769 49.5692 35.2437L54.2382 43.2431L54.2433 43.2485ZM43.4303 31.0633C44.122 31.0633 44.7119 30.9716 45.2002 30.7882C45.6885 30.6048 46.0852 30.3513 46.3955 30.0222C46.7057 29.6986 46.9346 29.3156 47.0719 28.8787C47.2143 28.4418 47.2804 27.9725 47.2804 27.4654C47.2804 26.4567 46.9651 25.6638 46.3395 25.0974C45.7139 24.5311 44.7425 24.2452 43.4252 24.2452H41.3755V31.0633H43.4303Z" fill="#1B1464"/>
<path d="M61.6639 20.2536C63.2101 20.2536 64.5376 20.4478 65.6464 20.8307C66.7551 21.2137 67.6706 21.7423 68.3878 22.4166C69.1049 23.0908 69.6339 23.8838 69.9746 24.8008C70.3154 25.7178 70.4883 26.7049 70.4883 27.7675C70.4883 28.9164 70.3103 29.9683 69.9594 30.923C69.6084 31.8832 69.0693 32.7031 68.3471 33.3827C67.6249 34.0678 66.7094 34.6018 65.6006 34.9848C64.4918 35.3677 63.1796 35.5619 61.6639 35.5619H59.0141V43.2485H53.9229V20.2536H61.6639ZM61.6639 31.538C62.9914 31.538 63.9425 31.2089 64.5274 30.5454C65.1072 29.882 65.4022 28.9542 65.4022 27.7675C65.4022 27.2389 65.3259 26.7642 65.1784 26.3327C65.0259 25.9012 64.797 25.529 64.4918 25.2215C64.1866 24.9086 63.8001 24.6713 63.3322 24.5041C62.8643 24.3369 62.3099 24.2506 61.669 24.2506H59.0192V31.5433H61.669L61.6639 31.538Z" fill="#1B1464"/>
<path d="M93.1368 31.7429C93.1368 33.4042 92.8621 34.9523 92.3179 36.3818C91.7686 37.8112 91.0006 39.0572 90.0088 40.1145C89.017 41.1717 87.8167 42.0024 86.418 42.6011C85.0194 43.1999 83.463 43.5019 81.7592 43.5019C80.0553 43.5019 78.4939 43.1999 77.0901 42.6011C75.6863 42.0024 74.4809 41.1717 73.4841 40.1145C72.4872 39.0572 71.7141 37.8112 71.1648 36.3818C70.6155 34.9523 70.3459 33.4042 70.3459 31.7429C70.3459 30.0815 70.6206 28.5334 71.1648 27.104C71.7141 25.6746 72.4872 24.4339 73.4841 23.3767C74.4809 22.3248 75.6863 21.4995 77.0901 20.9008C78.4939 20.3021 80.0502 20 81.7592 20C83.4681 20 85.0194 20.3021 86.418 20.9062C87.8167 21.5103 89.017 22.341 90.0088 23.3929C91.0006 24.4447 91.7737 25.6853 92.3179 27.1202C92.8672 28.5496 93.1368 30.0923 93.1368 31.7429ZM87.9286 31.7429C87.9286 30.6047 87.7862 29.5853 87.5065 28.6737C87.2267 27.7621 86.8198 26.9907 86.296 26.3596C85.767 25.7285 85.1262 25.243 84.3633 24.9086C83.6003 24.5742 82.7306 24.4016 81.7592 24.4016C80.7877 24.4016 79.8977 24.5688 79.1296 24.9086C78.3616 25.243 77.7157 25.7285 77.1868 26.3596C76.6578 26.9907 76.256 27.7621 75.9763 28.6737C75.6965 29.5853 75.5541 30.6047 75.5541 31.7429C75.5541 32.881 75.6965 33.9167 75.9763 34.8283C76.256 35.7399 76.6629 36.5112 77.1868 37.1423C77.7157 37.7734 78.3616 38.2535 79.1296 38.5879C79.8977 38.917 80.7725 39.0842 81.7592 39.0842C82.7459 39.0842 83.6003 38.917 84.3633 38.5879C85.1262 38.2589 85.7721 37.7734 86.296 37.1423C86.8249 36.5112 87.2267 35.7399 87.5065 34.8283C87.7862 33.9167 87.9286 32.8918 87.9286 31.7429Z" fill="#1B1464"/>
<path d="M106.086 24.9248C105.933 25.1783 105.776 25.3671 105.613 25.4912C105.45 25.6152 105.232 25.68 104.972 25.68C104.743 25.68 104.494 25.6044 104.224 25.4534C103.96 25.3024 103.655 25.1298 103.319 24.941C102.983 24.7522 102.597 24.5796 102.165 24.4285C101.732 24.2775 101.239 24.202 100.69 24.202C99.7334 24.202 99.0265 24.4178 98.5585 24.8439C98.0906 25.27 97.8567 25.8472 97.8567 26.57C97.8567 27.0339 97.9991 27.4169 98.2788 27.7243C98.5585 28.0318 98.9298 28.2907 99.3876 28.5118C99.8453 28.733 100.364 28.938 100.954 29.1214C101.539 29.3048 102.139 29.5098 102.755 29.7363C103.365 29.9629 103.965 30.2272 104.555 30.5346C105.14 30.8421 105.664 31.2305 106.122 31.7051C106.579 32.1798 106.946 32.757 107.23 33.4312C107.51 34.1109 107.653 34.9254 107.653 35.8855C107.653 36.9482 107.474 37.9407 107.124 38.8685C106.773 39.7962 106.264 40.5999 105.593 41.2904C104.926 41.9808 104.102 42.5202 103.121 42.914C102.144 43.3078 101.03 43.5073 99.7843 43.5073C99.1028 43.5073 98.406 43.4318 97.699 43.2862C96.992 43.1405 96.3054 42.9302 95.6442 42.6605C94.983 42.3908 94.3574 42.0725 93.7776 41.7057C93.1927 41.3389 92.6892 40.929 92.2569 40.4759L93.7624 37.9838C93.8844 37.8058 94.0421 37.6548 94.2354 37.5361C94.4286 37.4174 94.6422 37.3527 94.8762 37.3527C95.1763 37.3527 95.4815 37.4552 95.7866 37.6548C96.0918 37.8544 96.4376 38.0755 96.8242 38.3183C97.2107 38.561 97.6532 38.7821 98.1568 38.9817C98.6603 39.1813 99.2503 39.2838 99.9318 39.2838C100.857 39.2838 101.575 39.068 102.083 38.6419C102.592 38.2158 102.851 37.5415 102.851 36.6137C102.851 36.0743 102.709 35.6428 102.429 35.303C102.149 34.9685 101.778 34.6881 101.32 34.4669C100.863 34.2457 100.344 34.0516 99.764 33.8843C99.1841 33.7171 98.584 33.5283 97.9736 33.3234C97.3633 33.1184 96.7632 32.8649 96.1833 32.5682C95.5984 32.2661 95.0797 31.8723 94.627 31.3869C94.1692 30.896 93.803 30.2865 93.5182 29.5583C93.2385 28.8247 93.0961 27.9239 93.0961 26.8505C93.0961 25.9874 93.2639 25.146 93.5945 24.3261C93.9251 23.5062 94.4134 22.7726 95.0542 22.1307C95.6951 21.4888 96.4834 20.9763 97.4193 20.5934C98.3551 20.2104 99.4232 20.0162 100.629 20.0162C101.3 20.0162 101.956 20.0701 102.592 20.1834C103.228 20.2967 103.833 20.4585 104.408 20.6743C104.977 20.89 105.516 21.149 106.01 21.4456C106.508 21.7477 106.951 22.0875 107.342 22.4651L106.076 24.941L106.086 24.9248Z" fill="#1B1464"/>
<path d="M113.359 24.3585V29.7255H120.256V33.6686H113.359V39.1436H122.367V43.2485H108.243V20.2536H122.367V24.3585H113.359Z" fill="#1B1464"/>
<path d="M128.088 24.3585V30.184H135.585V34.3051H128.088V43.2539H122.967V20.2536H137.091V24.3585H128.083H128.088Z" fill="#1B1464"/>
<path d="M147.197 39.0357C147.879 39.0357 148.489 38.917 149.028 38.6797C149.567 38.4424 150.02 38.1025 150.391 37.6602C150.762 37.2179 151.047 36.6785 151.24 36.042C151.434 35.4055 151.535 34.6827 151.535 33.8736V20.2536H156.627V33.8736C156.627 35.2814 156.408 36.576 155.971 37.7573C155.533 38.9386 154.908 39.9527 154.094 40.805C153.28 41.6572 152.293 42.3207 151.129 42.7954C149.964 43.27 148.652 43.5074 147.197 43.5074C145.742 43.5074 144.415 43.27 143.25 42.7954C142.085 42.3207 141.099 41.6572 140.285 40.805C139.471 39.9527 138.851 38.9386 138.418 37.7573C137.986 36.5814 137.772 35.2868 137.772 33.8736V20.2536H142.864V33.8574C142.864 34.6665 142.96 35.3893 143.159 36.0258C143.357 36.6623 143.637 37.2017 144.008 37.6494C144.379 38.0971 144.832 38.437 145.371 38.6743C145.91 38.9116 146.515 39.0303 147.202 39.0303L147.197 39.0357Z" fill="#1B1464"/>
<path d="M170.568 38.9872V43.2485H157.344V20.2536H162.435V38.9872H170.568Z" fill="#1B1464"/>
<path d="M28.0906 50.5412V76.4758H23.0299V61.5613C23.0299 61.216 23.0401 60.8438 23.0553 60.4393C23.0706 60.0347 23.1011 59.6248 23.1469 59.2094L16.5756 72.5436C16.3722 72.9589 16.0975 73.2718 15.7517 73.4875C15.4058 73.7033 15.0142 73.8058 14.5717 73.8058H13.7884C13.3459 73.8058 12.9543 73.6979 12.6084 73.4875C12.2626 73.2718 11.9879 72.9589 11.7845 72.5436L5.21325 59.1771C5.24885 59.6032 5.27428 60.024 5.29971 60.4339C5.32006 60.8438 5.33531 61.2214 5.33531 61.5667V76.4812H0.274639V50.5466H4.65378C4.90299 50.5466 5.1217 50.552 5.30988 50.5628C5.49807 50.5736 5.66591 50.6113 5.81341 50.6706C5.96091 50.73 6.09314 50.8217 6.21012 50.9457C6.32711 51.0698 6.44409 51.2478 6.55598 51.469L12.9238 64.6251C13.1527 65.0782 13.3663 65.5475 13.5799 66.0329C13.7884 66.5184 13.9919 67.0201 14.1851 67.5271C14.3784 67.0039 14.5768 66.4968 14.7904 65.9952C14.9989 65.4989 15.2227 65.0242 15.4618 64.5711L21.8143 51.469C21.9262 51.2424 22.0432 51.0698 22.1602 50.9457C22.2771 50.8217 22.4145 50.73 22.5569 50.6706C22.7044 50.6113 22.8722 50.5736 23.0604 50.5628C23.2486 50.552 23.4673 50.5466 23.7165 50.5466H28.0956L28.0906 50.5412Z" fill="#1B1464"/>
<path d="M34.5804 55.1693V61.2214H42.3571V65.6715H34.5804V71.8477H44.7374V76.4758H28.8077V50.5412H44.7374V55.1693H34.5804Z" fill="#1B1464"/>
<path d="M67.8995 63.4977C67.8995 65.3749 67.5893 67.101 66.9738 68.6868C66.3584 70.2727 65.4887 71.6428 64.3647 72.7971C63.2457 73.9568 61.8928 74.8576 60.3161 75.5049C58.7394 76.1522 56.9847 76.4758 55.0622 76.4758H45.4494V50.5412H55.0622C56.9847 50.5412 58.7394 50.8702 60.3161 51.5175C61.8979 52.1702 63.2457 53.071 64.3647 54.2253C65.4836 55.3743 66.3533 56.7444 66.9738 58.3302C67.5893 59.9161 67.8995 61.6368 67.8995 63.5031V63.4977ZM62.0251 63.4977C62.0251 62.2139 61.8674 61.0596 61.5521 60.0239C61.2367 58.9937 60.779 58.1145 60.1839 57.397C59.5888 56.6796 58.8615 56.1294 58.0019 55.7411C57.1424 55.3581 56.1608 55.1639 55.0622 55.1639H51.2222V71.8423H55.0622C56.1608 71.8423 57.1373 71.6482 58.0019 71.2652C58.8615 70.8822 59.5888 70.3266 60.1839 69.6092C60.779 68.8918 61.2316 68.018 61.5521 66.9823C61.8674 65.952 62.0251 64.7869 62.0251 63.4923V63.4977Z" fill="#1B1464"/>
<path d="M74.1503 76.4758H68.3776V50.5412H74.1503V76.4758Z" fill="#1B1464"/>
<path d="M98.9604 76.4758H94.51C94.0116 76.4758 93.6098 76.3518 93.3046 76.109C92.9995 75.8663 92.7655 75.5535 92.6078 75.1759L91.1481 70.6556H81.7388L80.2791 75.1759C80.1519 75.5103 79.9333 75.807 79.6077 76.0767C79.2873 76.3464 78.8855 76.4758 78.4125 76.4758H73.9265L83.5037 50.5412H89.3781L98.9553 76.4758H98.9604ZM89.841 66.5616L87.5471 59.4576C87.3793 59.0045 87.1962 58.4759 87.0029 57.8663C86.8097 57.2568 86.6164 56.5933 86.4231 55.8813C86.2553 56.6041 86.0722 57.2784 85.8789 57.8933C85.6856 58.5082 85.5076 59.0422 85.3347 59.4953L83.0612 66.5616H89.841Z" fill="#1B1464"/>
<path d="M103.599 47.9952V79.6044H171V47.9952H103.599ZM124.976 62.9422C124.589 63.994 123.999 64.8948 123.206 65.6446C122.412 66.3944 121.405 66.9823 120.19 67.403C118.974 67.8238 117.53 68.0341 115.867 68.0341H112.957V76.4705H107.368V51.2262H115.867C117.565 51.2262 119.02 51.4366 120.241 51.8574C121.456 52.2781 122.463 52.8606 123.252 53.5996C124.04 54.3386 124.62 55.2125 124.996 56.2158C125.373 57.2191 125.561 58.3087 125.561 59.4738C125.561 60.7306 125.367 61.8903 124.981 62.9368L124.976 62.9422ZM140.499 76.4759C139.563 76.4759 138.891 76.1091 138.484 75.3647L134.482 68.0341C134.294 67.7213 134.085 67.4947 133.851 67.3491C133.617 67.2035 133.292 67.1333 132.859 67.1333H131.44V76.4705H125.851V51.2262H133.688C135.428 51.2262 136.913 51.415 138.144 51.7872C139.375 52.1648 140.377 52.688 141.155 53.3569C141.933 54.0258 142.497 54.8187 142.848 55.7303C143.199 56.6419 143.377 57.6344 143.377 58.7078C143.377 59.5277 143.271 60.3045 143.062 61.0273C142.853 61.7555 142.543 62.4297 142.136 63.0446C141.729 63.665 141.226 64.2151 140.626 64.7006C140.026 65.1861 139.334 65.5852 138.551 65.8981C138.912 66.0923 139.258 66.3404 139.573 66.6371C139.888 66.9338 140.178 67.279 140.432 67.6835L145.559 76.4651H140.499V76.4759ZM167.516 68.9403C166.916 70.51 166.072 71.8747 164.978 73.0398C163.89 74.1996 162.572 75.1112 161.036 75.7692C159.5 76.4273 157.791 76.7564 155.92 76.7564C154.048 76.7564 152.339 76.4273 150.793 75.7692C149.252 75.1112 147.929 74.1996 146.836 73.0398C145.737 71.8801 144.893 70.5154 144.293 68.9403C143.693 67.3707 143.393 65.6716 143.393 63.8484C143.393 62.0252 143.693 60.326 144.293 58.7564C144.893 57.1867 145.742 55.822 146.836 54.6677C147.929 53.5133 149.252 52.6071 150.793 51.949C152.334 51.291 154.043 50.9619 155.92 50.9619C157.796 50.9619 159.5 51.2964 161.036 51.9598C162.572 52.6233 163.89 53.5349 164.978 54.6892C166.072 55.8436 166.916 57.2083 167.516 58.7779C168.116 60.3476 168.416 62.0413 168.416 63.8537C168.416 65.6662 168.116 67.3761 167.516 68.9457V68.9403Z" fill="#1B1464"/>
<path d="M136.887 56.5502C136.201 55.9245 135.133 55.617 133.688 55.617H131.44V63.104H133.688C134.451 63.104 135.097 63.0015 135.631 62.8019C136.165 62.6023 136.603 62.3218 136.943 61.9604C137.284 61.6044 137.533 61.1837 137.686 60.7036C137.839 60.2235 137.92 59.7057 137.92 59.1501C137.92 58.039 137.574 57.1759 136.887 56.5502Z" fill="#1B1464"/>
<path d="M160.904 57.9365C160.324 57.2407 159.617 56.712 158.778 56.3399C157.939 55.9731 156.988 55.7843 155.92 55.7843C154.852 55.7843 153.88 55.9677 153.036 56.3399C152.192 56.712 151.48 57.2407 150.905 57.9365C150.33 58.6323 149.882 59.4738 149.572 60.4771C149.262 61.475 149.109 62.597 149.109 63.8484C149.109 65.0998 149.262 66.238 149.572 67.2359C149.882 68.2338 150.325 69.0806 150.905 69.7765C151.485 70.4723 152.197 70.9955 153.036 71.3623C153.88 71.7237 154.841 71.9071 155.92 71.9071C156.998 71.9071 157.944 71.7237 158.778 71.3623C159.617 71.0009 160.324 70.4723 160.904 69.7765C161.484 69.086 161.926 68.2392 162.237 67.2359C162.547 66.238 162.699 65.1052 162.699 63.8484C162.699 62.5916 162.547 61.475 162.237 60.4771C161.926 59.4792 161.484 58.6323 160.904 57.9365Z" fill="#1B1464"/>
<path d="M118.969 56.6796C118.633 56.3398 118.206 56.0755 117.698 55.8921C117.184 55.7087 116.574 55.617 115.872 55.617H112.962V63.6218H115.872C117.326 63.6218 118.374 63.2604 119.015 62.5322C119.656 61.804 119.971 60.7899 119.971 59.4846C119.971 58.9074 119.89 58.3842 119.722 57.9095C119.554 57.4348 119.305 57.0303 118.969 56.6904V56.6796Z" fill="#1B1464"/>
<path d="M28.0906 83.7687V109.703H23.0299V94.7887C23.0299 94.4435 23.0401 94.0713 23.0553 93.6668C23.0706 93.2622 23.1011 92.8523 23.1469 92.4369L16.5756 105.771C16.3722 106.186 16.0975 106.499 15.7517 106.715C15.4058 106.931 15.0142 107.033 14.5717 107.033H13.7884C13.3459 107.033 12.9543 106.925 12.6084 106.715C12.2626 106.499 11.9879 106.186 11.7845 105.771L5.21325 92.4046C5.24885 92.8307 5.27428 93.2514 5.29971 93.6614C5.32006 94.0713 5.33531 94.4489 5.33531 94.7941V109.709H0.274639V83.7741H4.65378C4.90299 83.7741 5.1217 83.7795 5.30988 83.7902C5.49807 83.801 5.66591 83.8388 5.81341 83.8981C5.96091 83.9575 6.09314 84.0492 6.21012 84.1732C6.32711 84.2973 6.44409 84.4753 6.55598 84.6964L12.9238 97.8526C13.1527 98.3057 13.3663 98.775 13.5799 99.2604C13.7884 99.7459 13.9919 100.248 14.1851 100.755C14.3784 100.231 14.5768 99.7243 14.7904 99.2227C14.9989 98.7264 15.2227 98.2517 15.4618 97.7986L21.8143 84.6964C21.9262 84.4699 22.0432 84.2973 22.1602 84.1732C22.2771 84.0492 22.4145 83.9575 22.5569 83.8981C22.7044 83.8388 22.8722 83.801 23.0604 83.7902C23.2486 83.7795 23.4673 83.7741 23.7165 83.7741H28.0956L28.0906 83.7687Z" fill="#1B1464"/>
<path d="M58.6631 96.7252C58.6631 98.6023 58.3529 100.345 57.7375 101.957C57.1221 103.57 56.2523 104.973 55.1283 106.165C54.0094 107.357 52.6564 108.29 51.0798 108.97C49.5031 109.649 47.7484 109.984 45.8258 109.984C43.9033 109.984 42.1486 109.644 40.5617 108.97C38.9748 108.295 37.6219 107.357 36.4928 106.165C35.3637 104.973 34.494 103.57 33.8785 101.957C33.2631 100.345 32.9529 98.5969 32.9529 96.7252C32.9529 94.8535 33.2631 93.1058 33.8785 91.493C34.494 89.8801 35.3688 88.4777 36.4928 87.291C37.6168 86.1043 38.9748 85.1711 40.5617 84.4968C42.1486 83.8226 43.9033 83.4828 45.8258 83.4828C47.7484 83.4828 49.5031 83.8226 51.0798 84.5076C52.6564 85.1927 54.0094 86.1259 55.1283 87.3125C56.2472 88.4992 57.117 89.9017 57.7375 91.5145C58.3529 93.1274 58.6631 94.8696 58.6631 96.7306V96.7252ZM52.7836 96.7252C52.7836 95.4414 52.6259 94.2871 52.3055 93.2622C51.9902 92.2373 51.5324 91.3689 50.9373 90.6569C50.3423 89.9449 49.615 89.4001 48.7554 89.0171C47.8959 88.6395 46.9142 88.4453 45.8156 88.4453C44.717 88.4453 43.7202 88.6341 42.8504 89.0171C41.9858 89.3947 41.2534 89.9449 40.6583 90.6569C40.0632 91.3689 39.6106 92.2373 39.2902 93.2622C38.9748 94.2871 38.8172 95.4414 38.8172 96.7252C38.8172 98.009 38.9748 99.1795 39.2902 100.204C39.6055 101.229 40.0632 102.098 40.6583 102.81C41.2534 103.522 41.9807 104.067 42.8504 104.439C43.7202 104.811 44.7018 105 45.8156 105C46.9295 105 47.8908 104.811 48.7554 104.439C49.615 104.067 50.3423 103.522 50.9373 102.81C51.5324 102.098 51.9851 101.229 52.3055 100.204C52.6208 99.1795 52.7836 98.0198 52.7836 96.7252Z" fill="#1B1464"/>
<path d="M80.7216 88.537H73.7587V109.703H68.0165V88.537H61.0536V83.7687H80.7216V88.537Z" fill="#1B1464"/>
<path d="M90.8938 109.703H85.1211V83.7687H90.8938V109.703Z" fill="#1B1464"/>
<path d="M121.466 96.7252C121.466 98.6023 121.156 100.345 120.541 101.957C119.925 103.57 119.056 104.973 117.932 106.165C116.813 107.357 115.46 108.29 113.883 108.97C112.306 109.649 110.552 109.984 108.629 109.984C106.706 109.984 104.952 109.644 103.365 108.97C101.778 108.295 100.425 107.357 99.296 106.165C98.1669 104.973 97.2972 103.57 96.6818 101.957C96.0664 100.345 95.7561 98.5969 95.7561 96.7252C95.7561 94.8535 96.0664 93.1058 96.6818 91.493C97.2972 89.8801 98.172 88.4777 99.296 87.291C100.42 86.1043 101.778 85.1711 103.365 84.4968C104.952 83.8226 106.706 83.4828 108.629 83.4828C110.552 83.4828 112.306 83.8226 113.883 84.5076C115.46 85.1927 116.813 86.1259 117.932 87.3125C119.05 88.4992 119.92 89.9017 120.541 91.5145C121.156 93.1274 121.466 94.8696 121.466 96.7306V96.7252ZM115.587 96.7252C115.587 95.4414 115.429 94.2871 115.109 93.2622C114.793 92.2373 114.336 91.3689 113.741 90.6569C113.146 89.9449 112.418 89.4001 111.559 89.0171C110.699 88.6395 109.717 88.4453 108.619 88.4453C107.52 88.4453 106.523 88.6341 105.654 89.0171C104.789 89.3947 104.057 89.9449 103.462 90.6569C102.866 91.3689 102.414 92.2373 102.093 93.2622C101.778 94.2871 101.62 95.4414 101.62 96.7252C101.62 98.009 101.778 99.1795 102.093 100.204C102.409 101.229 102.866 102.098 103.462 102.81C104.057 103.522 104.784 104.067 105.654 104.439C106.523 104.811 107.505 105 108.619 105C109.733 105 110.694 104.811 111.559 104.439C112.418 104.067 113.146 103.522 113.741 102.81C114.336 102.098 114.788 101.229 115.109 100.204C115.424 99.1795 115.587 98.0198 115.587 96.7252Z" fill="#1B1464"/>
<path d="M147.94 83.7687V109.703H144.949C144.506 109.703 144.135 109.628 143.835 109.482C143.535 109.337 143.24 109.078 142.945 108.705L131.277 93.2353C131.323 93.6991 131.354 94.1468 131.369 94.5784C131.384 95.0099 131.394 95.4198 131.394 95.7974V109.698H126.334V83.7633H129.355C129.604 83.7633 129.813 83.7741 129.986 83.801C130.153 83.8226 130.306 83.8712 130.443 83.9359C130.581 84.0006 130.708 84.0923 130.835 84.211C130.957 84.3297 131.099 84.4915 131.257 84.691L143.026 100.269C142.97 99.7729 142.93 99.2874 142.909 98.8181C142.889 98.3488 142.874 97.9065 142.874 97.4912V83.7687H147.94Z" fill="#1B1464"/>
<path d="M167.897 89.0387C167.73 89.3246 167.552 89.5349 167.363 89.6806C167.175 89.8208 166.936 89.8963 166.641 89.8963C166.382 89.8963 166.102 89.81 165.802 89.6374C165.502 89.4648 165.161 89.2706 164.785 89.0602C164.403 88.8445 163.971 88.6557 163.488 88.4831C163 88.3105 162.445 88.2242 161.825 88.2242C160.751 88.2242 159.948 88.4669 159.424 88.947C158.9 89.427 158.636 90.0797 158.636 90.8942C158.636 91.4175 158.793 91.849 159.114 92.1942C159.429 92.5394 159.846 92.8361 160.36 93.0842C160.874 93.3324 161.464 93.5643 162.125 93.7693C162.786 93.9742 163.462 94.2062 164.154 94.4651C164.846 94.7186 165.522 95.0207 166.183 95.3659C166.845 95.7111 167.435 96.1481 167.948 96.6821C168.462 97.2161 168.879 97.8634 169.194 98.6293C169.51 99.3953 169.673 100.318 169.673 101.396C169.673 102.594 169.474 103.716 169.077 104.762C168.681 105.809 168.106 106.715 167.353 107.497C166.6 108.274 165.67 108.883 164.566 109.331C163.462 109.779 162.206 110 160.802 110C160.034 110 159.246 109.919 158.453 109.752C157.654 109.585 156.881 109.353 156.133 109.051C155.386 108.749 154.684 108.387 154.028 107.972C153.372 107.556 152.797 107.093 152.314 106.586L154.012 103.775C154.15 103.576 154.328 103.403 154.546 103.268C154.765 103.133 155.009 103.063 155.269 103.063C155.609 103.063 155.95 103.177 156.296 103.403C156.642 103.63 157.034 103.878 157.466 104.153C157.903 104.428 158.402 104.676 158.971 104.903C159.536 105.129 160.207 105.242 160.975 105.242C162.018 105.242 162.827 105 163.401 104.52C163.981 104.04 164.266 103.279 164.266 102.233C164.266 101.628 164.108 101.138 163.793 100.755C163.478 100.377 163.061 100.059 162.547 99.8106C162.033 99.5625 161.443 99.3413 160.787 99.1525C160.131 98.9638 159.455 98.7534 158.768 98.5214C158.076 98.2895 157.405 98.0036 156.749 97.6692C156.093 97.3294 155.508 96.887 154.989 96.3315C154.475 95.7812 154.058 95.0908 153.743 94.2655C153.427 93.4402 153.27 92.4208 153.27 91.2125C153.27 90.2416 153.458 89.2922 153.829 88.3644C154.201 87.4366 154.75 86.6167 155.477 85.8885C156.199 85.1657 157.089 84.5886 158.142 84.1516C159.195 83.7147 160.401 83.5044 161.759 83.5044C162.516 83.5044 163.254 83.5691 163.976 83.6932C164.693 83.8172 165.375 84.0006 166.021 84.2433C166.667 84.4861 167.267 84.7774 167.831 85.1172C168.396 85.457 168.894 85.84 169.337 86.2661L167.913 89.0602L167.897 89.0387Z" fill="#1B1464"/>
</svg>
