<?xml version="1.0" encoding="UTF-8"?><svg id="Email_Blue" xmlns="http://www.w3.org/2000/svg" width="255.32" height="192.45" viewBox="0 0 255.32 192.45"><path d="M57.87,135.98c-.47,1.96-.71,3.59-.72,4.87-.02,1.28.16,2.29.52,3.02.37.73.89,1.24,1.57,1.52.68.28,1.47.42,2.37.42,1.3,0,2.53-.43,3.69-1.3,1.16-.87,2.18-2.07,3.05-3.62.87-1.55,1.55-3.38,2.05-5.49.5-2.11.75-4.42.75-6.91,0-4.23-.65-7.96-1.95-11.21-1.3-3.25-3.12-5.95-5.47-8.11-2.35-2.16-5.17-3.8-8.46-4.92-3.3-1.11-6.92-1.67-10.88-1.67-2.9,0-5.65.37-8.26,1.1-2.61.73-5.03,1.77-7.26,3.12-2.23,1.35-4.24,2.97-6.04,4.87-1.8,1.9-3.33,4.01-4.59,6.34-1.27,2.33-2.24,4.83-2.92,7.51-.68,2.68-1.02,5.48-1.02,8.41,0,5.39.83,10.13,2.5,14.23,1.66,4.09,3.95,7.51,6.86,10.23,2.91,2.73,6.35,4.78,10.31,6.17,3.96,1.38,8.25,2.07,12.88,2.07,2.6,0,5-.14,7.21-.42,2.21-.28,4.24-.66,6.09-1.12,1.85-.47,3.5-1,4.97-1.6,1.46-.6,2.75-1.21,3.84-1.85.96-.53,1.81-.69,2.52-.47.72.22,1.24.76,1.57,1.62l1.9,4.84c-3.43,2.26-7.46,4.11-12.11,5.54-4.64,1.43-9.98,2.15-16,2.15s-11.78-.96-16.97-2.87c-5.19-1.91-9.68-4.66-13.45-8.24-3.78-3.58-6.73-7.92-8.86-13.03-2.13-5.11-3.2-10.86-3.2-17.25,0-3.53.47-6.97,1.4-10.33.93-3.36,2.25-6.52,3.94-9.49,1.7-2.96,3.75-5.68,6.17-8.16,2.41-2.48,5.1-4.61,8.06-6.39,2.96-1.78,6.17-3.17,9.61-4.17,3.44-1,7.06-1.5,10.86-1.5,3.16,0,6.27.36,9.31,1.07,3.05.72,5.92,1.76,8.64,3.15,2.71,1.38,5.21,3.08,7.49,5.09,2.28,2.01,4.24,4.3,5.89,6.86,1.65,2.56,2.93,5.38,3.84,8.46.92,3.08,1.37,6.4,1.37,9.96s-.53,6.9-1.6,10.01c-1.07,3.11-2.55,5.83-4.44,8.16-1.9,2.33-4.15,4.16-6.76,5.49-2.61,1.33-5.47,2-8.56,2-2.2,0-4.19-.5-5.99-1.5-1.8-1-3.1-2.65-3.89-4.94-1.96,2.3-4.04,3.94-6.22,4.92-2.18.98-4.54,1.47-7.06,1.47-2.13,0-3.99-.37-5.57-1.1-1.58-.73-2.9-1.76-3.97-3.07-1.07-1.31-1.86-2.87-2.4-4.67-.53-1.8-.8-3.74-.8-5.84,0-1.9.24-3.82.72-5.77.48-1.95,1.21-3.83,2.17-5.64.96-1.81,2.18-3.52,3.64-5.12,1.46-1.6,3.18-2.99,5.14-4.17,1.96-1.18,4.19-2.11,6.66-2.8,2.48-.68,5.23-1.02,8.26-1.02,1.36,0,2.61.05,3.74.15,1.13.1,2.2.25,3.2.45s1.94.45,2.82.75c.88.3,1.77.63,2.67,1l-4.84,18.72ZM50.88,123.55c-.47-.07-.94-.12-1.42-.15-.48-.03-.97-.05-1.47-.05-1.9,0-3.68.42-5.34,1.27-1.66.85-3.12,2-4.37,3.44-1.25,1.45-2.23,3.12-2.95,5.02-.72,1.9-1.07,3.89-1.07,5.99s.42,3.64,1.25,4.72c.83,1.08,2.05,1.62,3.64,1.62.8,0,1.6-.12,2.4-.37.8-.25,1.56-.68,2.3-1.3.73-.62,1.39-1.43,1.97-2.45.58-1.01,1.07-2.3,1.47-3.87l3.59-13.88Z" fill="#1b1464"/><path d="M46.84,175.38c-6.1,0-11.82-.97-16.99-2.87-5.18-1.91-9.71-4.68-13.47-8.25-3.77-3.57-6.75-7.96-8.88-13.05-2.12-5.09-3.2-10.9-3.2-17.27,0-3.52.47-7,1.4-10.35.93-3.35,2.26-6.54,3.95-9.5,1.69-2.95,3.77-5.7,6.17-8.17,2.41-2.47,5.12-4.63,8.07-6.4,2.95-1.78,6.19-3.18,9.62-4.17,3.43-1,7.09-1.5,10.87-1.5,3.15,0,6.29.36,9.32,1.07,3.03.71,5.94,1.77,8.65,3.15,2.7,1.38,5.23,3.09,7.5,5.1,2.27,2.01,4.26,4.32,5.9,6.88,1.64,2.55,2.94,5.41,3.85,8.48.91,3.07,1.38,6.43,1.38,9.98s-.54,6.92-1.6,10.03c-1.06,3.11-2.56,5.86-4.45,8.18-1.89,2.33-4.18,4.18-6.78,5.51-2.61,1.33-5.5,2-8.59,2-2.2,0-4.22-.51-6.02-1.51-1.78-.99-3.08-2.63-3.89-4.88-1.94,2.25-4.02,3.89-6.17,4.86-2.18.98-4.56,1.48-7.09,1.48-2.13,0-4.01-.37-5.59-1.1-1.58-.73-2.92-1.77-3.99-3.09-1.07-1.31-1.88-2.89-2.41-4.69-.53-1.79-.8-3.76-.8-5.86,0-1.89.24-3.84.73-5.78.48-1.94,1.21-3.84,2.18-5.65.96-1.81,2.19-3.54,3.65-5.13,1.46-1.59,3.2-3,5.15-4.18,1.96-1.18,4.21-2.12,6.68-2.8,2.47-.68,5.26-1.03,8.28-1.03,1.36,0,2.62.05,3.75.15,1.13.1,2.21.25,3.2.45,1,.2,1.95.45,2.83.75.88.3,1.78.63,2.67,1l.05.02v.05s-4.86,18.72-4.86,18.72c-.46,1.95-.71,3.58-.72,4.85-.02,1.27.16,2.27.52,2.99.36.72.88,1.22,1.54,1.5.67.28,1.46.42,2.35.42,1.28,0,2.51-.43,3.66-1.29,1.15-.86,2.17-2.07,3.03-3.6.86-1.54,1.55-3.38,2.04-5.48.5-2.1.75-4.42.75-6.9,0-4.2-.65-7.96-1.94-11.19-1.29-3.22-3.12-5.94-5.45-8.09-2.33-2.15-5.17-3.8-8.44-4.91-3.27-1.11-6.93-1.67-10.87-1.67-2.88,0-5.65.37-8.25,1.1-2.6.73-5.04,1.78-7.25,3.11-2.21,1.34-4.24,2.97-6.03,4.86-1.79,1.88-3.33,4.01-4.58,6.33-1.26,2.31-2.24,4.84-2.92,7.5-.68,2.66-1.02,5.49-1.02,8.4,0,5.36.84,10.14,2.49,14.21,1.65,4.07,3.96,7.5,6.85,10.21,2.89,2.71,6.35,4.78,10.29,6.15,3.94,1.37,8.26,2.07,12.86,2.07,2.58,0,5-.14,7.21-.42,2.2-.28,4.25-.66,6.08-1.12,1.84-.46,3.51-1,4.96-1.6,1.46-.6,2.75-1.22,3.84-1.84.98-.54,1.84-.7,2.57-.48.73.22,1.27.78,1.61,1.66l1.91,4.89-.04.03c-3.42,2.26-7.5,4.12-12.12,5.55-4.63,1.43-10.02,2.15-16.02,2.15ZM44.39,93.95c-3.77,0-7.42.5-10.84,1.5-3.42.99-6.65,2.39-9.6,4.16-2.94,1.77-5.65,3.92-8.05,6.38-2.4,2.46-4.47,5.21-6.16,8.15-1.69,2.95-3.01,6.13-3.94,9.47-.93,3.34-1.4,6.81-1.4,10.32,0,6.35,1.07,12.15,3.19,17.23,2.12,5.08,5.09,9.46,8.85,13.01,3.75,3.56,8.27,6.32,13.43,8.23,5.16,1.9,10.87,2.87,16.95,2.87s11.37-.72,15.98-2.14c4.6-1.42,8.65-3.27,12.05-5.51l-1.88-4.8c-.32-.84-.84-1.38-1.54-1.59-.7-.21-1.53-.05-2.48.47-1.09.63-2.39,1.25-3.85,1.85-1.46.6-3.13,1.13-4.98,1.6-1.84.46-3.89.84-6.1,1.12-2.21.28-4.64.42-7.22.42-4.61,0-8.95-.7-12.9-2.08-3.95-1.38-7.42-3.46-10.33-6.18-2.9-2.72-5.22-6.17-6.88-10.25-1.66-4.08-2.5-8.87-2.5-14.25,0-2.92.34-5.76,1.03-8.43.68-2.67,1.66-5.2,2.93-7.53,1.26-2.32,2.81-4.46,4.6-6.35,1.79-1.89,3.83-3.53,6.05-4.88,2.22-1.34,4.67-2.4,7.28-3.13,2.61-.73,5.39-1.1,8.28-1.1,3.95,0,7.62.56,10.9,1.68,3.29,1.11,6.14,2.77,8.48,4.93,2.34,2.16,4.19,4.9,5.48,8.13,1.29,3.24,1.95,7.01,1.95,11.23,0,2.49-.25,4.82-.75,6.93-.5,2.11-1.19,3.96-2.05,5.51-.87,1.55-1.9,2.77-3.06,3.64-1.17.87-2.42,1.31-3.73,1.31-.9,0-1.71-.14-2.39-.43-.69-.29-1.23-.81-1.6-1.55-.37-.74-.55-1.76-.53-3.05.02-1.28.26-2.92.73-4.88h0s4.83-18.67,4.83-18.67c-.88-.36-1.76-.69-2.62-.98-.88-.3-1.82-.55-2.81-.75-.99-.2-2.06-.35-3.19-.45-1.12-.1-2.38-.15-3.74-.15-3.01,0-5.78.34-8.25,1.02-2.46.68-4.7,1.62-6.65,2.79-1.95,1.17-3.68,2.57-5.13,4.16-1.45,1.59-2.68,3.3-3.64,5.11-.96,1.8-1.69,3.7-2.17,5.63-.48,1.93-.72,3.87-.72,5.75,0,2.08.27,4.04.8,5.82.53,1.78,1.33,3.35,2.39,4.65,1.05,1.3,2.38,2.33,3.95,3.05,1.56.73,3.43,1.09,5.54,1.09,2.51,0,4.88-.49,7.04-1.47,2.16-.97,4.25-2.62,6.2-4.9l.07-.08.03.09c.79,2.27,2.09,3.92,3.87,4.91,1.78.99,3.79,1.49,5.96,1.49,3.07,0,5.94-.67,8.54-1.99,2.59-1.32,4.86-3.16,6.75-5.48,1.88-2.31,3.37-5.05,4.43-8.14,1.06-3.09,1.59-6.45,1.59-9.99s-.46-6.88-1.37-9.94c-.91-3.06-2.2-5.9-3.84-8.45-1.64-2.54-3.61-4.85-5.88-6.85-2.27-2-4.78-3.71-7.48-5.08-2.7-1.37-5.6-2.43-8.62-3.14-3.03-.71-6.16-1.07-9.3-1.07ZM39.15,145.47c-1.61,0-2.85-.55-3.69-1.65-.84-1.09-1.26-2.69-1.26-4.75s.36-4.12,1.08-6.01c.71-1.89,1.71-3.59,2.96-5.03,1.25-1.45,2.72-2.61,4.39-3.46,1.66-.85,3.47-1.28,5.37-1.28.49,0,.99.02,1.48.05.48.03.96.08,1.43.15h.06s-.02.07-.02.07l-3.59,13.88c-.4,1.56-.9,2.87-1.48,3.88-.58,1.02-1.25,1.84-1.98,2.46-.73.62-1.51,1.06-2.32,1.31-.8.25-1.61.38-2.41.38ZM47.98,123.41c-1.88,0-3.67.43-5.32,1.27-1.65.84-3.11,2-4.35,3.43-1.24,1.44-2.23,3.12-2.94,5-.71,1.88-1.07,3.89-1.07,5.97s.42,3.62,1.24,4.68c.82,1.06,2.03,1.6,3.6,1.6.79,0,1.59-.13,2.38-.37.79-.25,1.55-.68,2.28-1.29.72-.61,1.38-1.43,1.96-2.43.58-1.01,1.07-2.3,1.47-3.85l3.58-13.82c-.44-.06-.9-.11-1.35-.14-.49-.03-.98-.05-1.47-.05Z" fill="#1b1464"/><path d="M224.08,168.8s-.01,0-.02,0l-141.52-.49c-3.18-.01-5.74-2.59-5.73-5.77.01-3.18,2.59-5.74,5.77-5.73l135.75.47v-63.96c0-3.18,2.57-5.75,5.75-5.75s5.75,2.57,5.75,5.75v69.73c0,1.53-.61,2.99-1.69,4.07-1.08,1.07-2.54,1.68-4.06,1.68Z" fill="#1b1464"/><path d="M136.64,129.67c-.82,0-1.64-.19-2.4-.57l-83.33-42.03c-1.79-.91-2.93-2.74-2.93-4.75v-24.89c0-1.41.56-2.77,1.56-3.77,1-1,2.37-1.55,3.77-1.56l136.39.22c2.94,0,5.32,2.39,5.32,5.33,0,2.94-2.37,5.3-5.33,5.32l-131.06-.21v16.28l78.12,39.41,72.77-33.12c2.68-1.22,5.83-.04,7.05,2.64s.04,5.83-2.64,7.05l-75.09,34.17c-.7.32-1.45.48-2.21.48Z" fill="#1b1464"/><path d="M250.46,63.07h-20.76v22.13h-12.24v-22.13h-20.65v-10.98h20.65v-22.07h12.24v22.07h20.76v10.98Z" fill="#d4af37"/></svg>