<?xml version="1.0" encoding="UTF-8"?><svg id="Spare_Parts" xmlns="http://www.w3.org/2000/svg" width="254.29" height="253.86" viewBox="0 0 254.29 253.86"><rect x="161.39" y="163.25" width="72.03" height="72.03" fill="#a0aec0"/><rect x="161.39" y="90.91" width="72.03" height="72.03" fill="#a0aec0"/><path d="M46.5,37.45l-9.96,15.62c-.34.53-1.1.53-1.44,0l-9.96-15.62c-.18-.28-.18-.64,0-.92l9.96-15.62c.34-.53,1.1-.53,1.44,0l9.96,15.62c.18.28.18.64,0,.92Z" fill="#d4af37"/><path d="M82.36,37.45l-9.96,15.62c-.34.53-1.1.53-1.44,0l-9.96-15.62c-.18-.28-.18-.64,0-.92l9.96-15.62c.34-.53,1.1-.53,1.44,0l9.96,15.62c.18.28.18.64,0,.92Z" fill="#1b1464"/><path d="M39,69.75l-9.96,15.62c-.34.53-1.1.53-1.44,0l-9.96-15.62c-.18-.28-.18-.64,0-.92l9.96-15.62c.34-.53,1.1-.53,1.44,0l9.96,15.62c.18.28.18.64,0,.92Z" fill="#39cccc"/><path d="M75.64,69.75l-9.96,15.62c-.34.53-1.1.53-1.44,0l-9.96-15.62c-.18-.28-.18-.64,0-.92l9.96-15.62c.34-.53,1.1-.53,1.44,0l9.96,15.62c.18.28.18.64,0,.92Z" fill="#6c757d"/><line x1="26.77" y1="109.11" x2="80.81" y2="109.11" fill="none" stroke="#1b1464" stroke-linecap="round" stroke-miterlimit="10" stroke-width="12"/><line x1="26.77" y1="126.93" x2="80.81" y2="126.93" fill="none" stroke="#1b1464" stroke-linecap="round" stroke-miterlimit="10" stroke-width="12"/><line x1="26.77" y1="145.03" x2="80.81" y2="145.03" fill="none" stroke="#1b1464" stroke-linecap="round" stroke-miterlimit="10" stroke-width="12"/><line x1="98.69" y1="108.83" x2="152.73" y2="108.83" fill="none" stroke="#54595f" stroke-linecap="round" stroke-miterlimit="10" stroke-width="12"/><line x1="98.69" y1="126.65" x2="152.73" y2="126.65" fill="none" stroke="#54595f" stroke-linecap="round" stroke-miterlimit="10" stroke-width="12"/><line x1="98.69" y1="144.75" x2="152.73" y2="144.75" fill="none" stroke="#54595f" stroke-linecap="round" stroke-miterlimit="10" stroke-width="12"/><line x1="170.39" y1="108.97" x2="224.43" y2="108.97" fill="none" stroke="#fff" stroke-linecap="round" stroke-miterlimit="10" stroke-width="12"/><line x1="170.39" y1="126.79" x2="224.43" y2="126.79" fill="none" stroke="#fff" stroke-linecap="round" stroke-miterlimit="10" stroke-width="12"/><line x1="170.39" y1="144.89" x2="224.43" y2="144.89" fill="none" stroke="#fff" stroke-linecap="round" stroke-miterlimit="10" stroke-width="12"/><g id="Search_Icon_White"><circle id="Circle_spare" cx="182.89" cy="186.74" r="18.37" fill="none" stroke="#fff" stroke-miterlimit="10" stroke-width="3"/><path id="Circle_spare-2" d="M185.31,174.16c5.18.99,9.25,5.1,10.19,10.3" fill="none" stroke="#fff" stroke-linecap="round" stroke-miterlimit="10"/><path d="M202.7,196.54c.1.36.55.5.81.69,3.25,1.99,6.57,4,9.92,5.8,5.56,2.93,11.53,5.12,16.6,8.89.59.28.69,1.36.61,2.02-.03.31-.12.71-.17,1.03-.05.15-.1.55-.24.65-.6.53-1.3,1.1-2.05,1.37-.52.19-.9.13-1.19-.05-4.41-2.16-8.28-5.17-12.16-8.16-4.17-3.15-8.66-5.88-13.14-8.57-.24-.12-.65-.49-.98-.4-1.39.25-2.72-.68-2.97-2.07-.5-3.14,3.97-4.22,4.97-1.22h0Z" fill="#fff"/></g><g id="Search_Icon_Blue"><circle id="Circle_spare-3" cx="39.27" cy="186.74" r="18.37" fill="none" stroke="#1b1464" stroke-miterlimit="10" stroke-width="3"/><path id="Circle_spare-4" d="M41.69,174.16c5.18.99,9.25,5.1,10.19,10.3" fill="none" stroke="#1b1464" stroke-linecap="round" stroke-miterlimit="10"/><path d="M59.08,196.54c.1.36.55.5.81.69,0,0,.89.54.89.54,2.95,1.82,5.98,3.62,9.03,5.26,3.69,1.98,7.61,3.57,11.29,5.56,1.84,1,3.6,2.13,5.31,3.34.8.45.67,1.87.5,2.71-.06.27-.1.8-.3,1-.6.53-1.3,1.1-2.05,1.37-1.19.41-2.03-.62-3.04-1.03-4.93-2.67-9.1-6.48-13.72-9.62-2.86-1.94-5.86-3.8-8.84-5.58-.2-.12-1.12-.68-1.34-.81-.15-.09-.31-.17-.53-.13-1.39.25-2.72-.68-2.97-2.07-.5-3.14,3.97-4.22,4.97-1.22h0Z" fill="#1b1464"/></g><g id="Search_Icon_Gray"><circle id="Circle_spare-5" cx="110.97" cy="186.73" r="18.37" fill="none" stroke="#54595f" stroke-miterlimit="10" stroke-width="3"/><path id="Circle_spare-6" d="M113.39,174.14c5.18.99,9.25,5.1,10.19,10.3" fill="none" stroke="#54595f" stroke-linecap="round" stroke-miterlimit="10"/><path d="M130.78,196.53c.1.36.55.5.81.69,3.25,1.99,6.57,4,9.92,5.8,5.56,2.93,11.53,5.12,16.6,8.9.59.28.69,1.36.61,2.02-.03.31-.12.71-.17,1.03-.05.15-.1.55-.24.65-.6.53-1.3,1.1-2.05,1.37-.52.19-.9.13-1.19-.05-4.41-2.16-8.28-5.17-12.16-8.16-4.17-3.15-8.66-5.89-13.14-8.57-.24-.12-.65-.49-.98-.4-1.39.25-2.72-.68-2.97-2.07-.5-3.14,3.97-4.22,4.97-1.22h0Z" fill="#54595f"/></g><path d="M106.33,38.63c5.63,4.61,9.75,9.88,14,15.63,0,0-5.83.9-5.83.9,2.78-7.24,6.02-14.02,9.77-20.76,1.9-3.32,3.88-6.62,6.1-9.78,2.32-3.29,4.96-6.05,6.82-9.75,0,0,5.56,5.76,5.56,5.76-3.34,1.44-5.53,4.53-7.6,7.37-6.24,8.88-10.88,19.08-14.35,29.32,0,0-1.94,5.87-1.94,5.87-4.06-5.21-8.46-11-13.34-15.43-1.11-.97-2.34-1.89-3.4-2.33l4.21-6.8h0Z" fill="#d4af37"/><path d="M124.2,65.7c5.63,4.61,9.75,9.88,14,15.63,0,0-5.83.9-5.83.9,2.78-7.24,6.02-14.02,9.77-20.76,1.9-3.32,3.88-6.62,6.1-9.78,2.32-3.29,4.96-6.05,6.82-9.75,0,0,5.56,5.76,5.56,5.76-3.34,1.44-5.53,4.53-7.6,7.37-6.23,8.88-10.88,19.08-14.34,29.32,0,0-1.94,5.87-1.94,5.87-4.06-5.21-8.46-11-13.34-15.43-1.11-.97-2.34-1.89-3.4-2.33l4.21-6.8h0Z" fill="#39cccc"/><path d="M171.73,37.63c5.63,4.61,9.75,9.88,14,15.63,0,0-5.83.9-5.83.9,2.78-7.24,6.02-14.02,9.77-20.76,1.9-3.32,3.88-6.62,6.1-9.78,2.32-3.29,4.96-6.05,6.82-9.75,0,0,5.56,5.76,5.56,5.76-3.34,1.44-5.53,4.53-7.6,7.37-6.24,8.88-10.88,19.08-14.35,29.32,0,0-1.94,5.87-1.94,5.87-4.06-5.21-8.46-11-13.34-15.43-1.11-.97-2.34-1.89-3.4-2.33l4.21-6.8h0Z" fill="#36448f"/><path d="M197.23,63.87c5.63,4.61,9.75,9.88,14,15.63,0,0-5.83.9-5.83.9,2.78-7.24,6.02-14.02,9.77-20.76,1.9-3.32,3.88-6.62,6.1-9.78,2.32-3.29,4.96-6.05,6.82-9.75,0,0,5.56,5.76,5.56,5.76-3.34,1.44-5.53,4.53-7.6,7.37-6.24,8.88-10.88,19.08-14.35,29.32,0,0-1.94,5.87-1.94,5.87-4.06-5.21-8.46-11-13.34-15.43-1.11-.97-2.34-1.89-3.4-2.33l4.21-6.8h0Z" fill="#6c757d"/></svg>