<?xml version="1.0" encoding="UTF-8"?><svg id="Persona_Blue" xmlns="http://www.w3.org/2000/svg" width="12432.38" height="12432.38" viewBox="0 0 256 256"><g id="Persona"><path d="M244.59,78.29c-3.31,0-6,2.69-6,6v94.41c0,3.86-2.21,6.75-4.19,6.75h-7.47v-26.29c0-12.74-10.36-23.1-23.1-23.1-12.06,0-21.99,9.29-23,21.1h-.09v28.29h-5.1v-26.09c0-12.74-10.36-23.1-23.1-23.1-2.3,0-4.52.34-6.62.97-4.77-5.37-11.72-8.75-19.45-8.75-9.4,0-17.65,5.01-22.23,12.5-3.03-2.37-8.1-4.72-14.01-4.72-.09,0-.18,0-.28,0-.09,0-.18,0-.28,0-12.06,0-21.99,9.29-23,21.1h-.09v28.09h-8.6c-3.31,0-6,2.69-6,6s2.69,6,6,6h41.7l-10.55,19.45-70.6.13h-.07l-.38,14.98v.07s226.5-.42,226.5-.42h.07l-.03-15.06-72.24.13-10.46-19.3h72.46c8.93,0,16.19-8.41,16.19-18.75v-94.41c0-3.31-2.69-6-6-6ZM184.73,159.16c0-10.53,8.57-19.1,19.1-19.1s19.1,8.57,19.1,19.1v26.29h-38.19v-26.29ZM70.66,185.45l.09-14.3c0-.29-.06-.56-.17-.8v-10.98c0-4.52,1.59-8.68,4.23-11.96.39-.09.75-.29,1.03-.6,3.85-4.26,8.6-6.45,14.11-6.52,4.7.07,8.98,1.84,12.28,4.73-1,2.53-1.61,5.24-1.77,8.08h-.04v32.37h-29.76ZM152.51,185.45v-30.93c0-5.08-1.47-9.82-3.99-13.82,1.3-.28,2.64-.43,4.02-.43,10.53,0,19.1,8.57,19.1,19.1v26.09h-19.13Z" fill="#1b1464"/><path d="M24.16,133.29V55.8c0-2.18,2.34-4.02,5.11-4.02h159.79c3.31,0,6-2.69,6-6s-2.69-6-6-6H29.27c-9.43,0-17.11,7.18-17.11,16.02v77.5c0,3.31,2.69,6,6,6s6-2.69,6-6Z" fill="#1b1464"/><path d="M147.51,94.8c-2.81-8.95-11.18-15.46-21.05-15.46-11.77,0-21.41,9.27-22.02,20.88-3.59-3.75-8.62-6.1-14.21-6.1-.09,0-.18.01-.28.01-.09,0-.18-.01-.28-.01-10.85,0-19.68,8.83-19.68,19.68s8.83,19.68,19.68,19.68c.09,0,.18-.01.28-.01.09,0,.18.01.28.01,10.17,0,18.56-7.75,19.57-17.65,4.05,4.67,10.01,7.63,16.66,7.63,2.88,0,5.63-.56,8.15-1.57,3.09,6.83,9.95,11.6,17.92,11.6,10.85,0,19.68-8.83,19.68-19.68s-8.83-19.68-19.68-19.68c-1.74,0-3.42.25-5.03.68ZM74.55,113.8c0-8.55,6.89-15.52,15.4-15.66,8.52.15,15.4,7.11,15.4,15.66s-6.89,15.52-15.4,15.66c-8.52-.15-15.4-7.11-15.4-15.66ZM168.22,113.8c0,8.65-7.03,15.68-15.68,15.68-6.42,0-11.94-3.88-14.36-9.41,6.21-3.91,10.34-10.82,10.34-18.68,0-.91-.06-1.81-.17-2.69,1.34-.37,2.74-.59,4.19-.59,8.65,0,15.68,7.03,15.68,15.68Z" fill="#1b1464"/><path d="M184.15,113.6c0,10.85,8.83,19.68,19.68,19.68s19.68-8.83,19.68-19.68-8.83-19.68-19.68-19.68-19.68,8.83-19.68,19.68ZM203.83,97.92c8.65,0,15.68,7.03,15.68,15.68s-7.03,15.68-15.68,15.68-15.68-7.03-15.68-15.68,7.03-15.68,15.68-15.68Z" fill="#1b1464"/><path d="M59.38,138.96c-7.41,0-12.19,1.49-15.86,4.97-3.67-3.47-8.42-4.97-15.77-4.97s-14.43,9-14.43,17.51c0,13.86,15.06,27.13,29.98,34.15l.21-.45h0l.21.45c14.97-7.03,30.08-20.32,30.08-34.15,0-8.51-7.42-17.51-14.43-17.51Z" fill="#d4af37"/><path d="M253.39,45.91c-.04-.28-.06-.57-.06-.85v-.22q0-.97-.07-2.15l-.11-1.97c-.21-3.77-3.74-5.7-6.97-6.24l-.78-.13c-1.65-.28-3.71-.63-6.06-.87-1.78-.18-3.34-1.06-4.42-2.49-1.07-1.42-1.48-3.16-1.16-4.91.43-2.34.59-4.25.48-5.67-.53-6.93-1.04-8.08-1.46-9.02-.47-1.05-1.51-2.3-3.84-2.3-1.84,0-2.85.32-4.4,2.32-1.1,1.42-4.3,8.28-5.12,10.16-3.45,7.95-7.87,13.59-21.2,20.58l-.2.11c-.21.19-2.07,1.87-2.07,3.86v22.29c0,2.05,1.07,4.45,4.1,4.45.46,0,.96-.02,1.5-.03,2.71-.08,6.09-.19,7.79,1.51,2.53,2.53,6.07,2.87,9.2,2.87,1.05,0,3.44.14,6.22.3,5.46.32,10.41.59,13.86.59,2.26,0,3.88-.11,4.59-.4,2.39-.98,4.91-2.83,5.13-3.05.17-.19,1.79-2.93,2.27-5.1.38-1.74.48-2.38,1.03-5.94.54-3.52,1.09-6,1.1-6.03l.18-.86c.45-2.08.64-2.94.64-5.98,0-2.88-.02-3.67-.17-4.82Z" fill="#d4af37"/></g></svg>