<?xml version="1.0" encoding="UTF-8"?><svg id="Dana_Gray" xmlns="http://www.w3.org/2000/svg" width="256" height="256" viewBox="0 0 256 256"><g id="Dana"><polygon points="129.54 113.77 138.4 136.4 170.4 103.35 173.42 106.17 178.67 89.89 162.8 96.25 165.73 98.99 140.72 124.81 132.58 104.03 80.27 139.14 83.83 144.45 129.54 113.77" fill="#6c757d"/><path d="M182.2,153.43h-106.51v-71.87c0-1.13-.92-2.04-2.04-2.04s-2.04.92-2.04,2.04v75.95h110.6c1.13,0,2.04-.91,2.04-2.04s-.92-2.04-2.04-2.04Z" fill="#6c757d"/><path d="M213.94,174.66c7.7,0,13.97-6.31,13.97-14.06v-67.08c0-2.76-2.24-5-5-5s-5,2.24-5,5v67.08c0,2.24-1.78,4.06-3.97,4.06H58.69c-2.76,0-5,2.24-5,5s2.24,5,5,5h42.69l-8.58,17.37-23.46.05c-2.68,0-4.85,2.6-4.84,5.78v.48c0,1.45.48,2.82,1.34,3.85.86,1.03,2.01,1.59,3.24,1.59h0l154.75-.33h.06l-.02-11.7-61.88.13-8.51-17.23h60.46Z" fill="#6c757d"/><path d="M138.59,47.16c0-2.76-2.24-5-5-5H39.45c-6.37,0-11.54,6.01-11.54,13.4v65.03c0,2.76,2.24,5,5,5s5-2.24,5-5V55.56c0-2.2,1.16-3.4,1.54-3.4h94.14c2.76,0,5-2.24,5-5Z" fill="#6c757d"/><path d="M60.42,192.54c0-11.67-9.46-21.13-21.13-21.13s-21.13,9.46-21.13,21.13l1.53,32.08h39.27l1.46-32.08Z" fill="#6c757d" stroke="#6c757d" stroke-miterlimit="10" stroke-width="3.1"/><path d="M39.29,164.62c9.78,0,17.71-7.93,17.71-17.71s-7.93-17.71-17.71-17.71-17.71,7.93-17.71,17.71,7.93,17.71,17.71,17.71Z" fill="#6c757d" stroke="#6c757d" stroke-miterlimit="10" stroke-width="3.1"/><polygon points="169.43 67.04 157.62 67.04 157.62 59.81 166.81 59.81 166.81 55.49 157.62 55.49 157.62 48.41 169.43 48.41 169.43 43.94 151.88 43.94 151.88 71.51 169.43 71.51 169.43 67.04" fill="#d4af37"/><path d="M176.04,71.51c.34,0,.62-.1.85-.29.22-.2.41-.41.58-.66l5.66-9.36c.08-.11.14-.24.2-.37.06-.13.12-.27.18-.41l5.96,10.14c.14.25.33.47.56.66.23.19.54.28.92.28h5.7l-8.98-14.44,8.76-13.13h-5.45c-.27,0-.49.06-.67.18-.18.12-.35.31-.5.56l-5.32,8.7c-.1.16-.19.33-.27.48-.08.16-.15.31-.21.47l-5.93-9.74c-.14-.23-.3-.39-.48-.49s-.46-.15-.84-.15h-5.7l8.68,13.37-9.02,14.19h5.32Z" fill="#d4af37"/><rect x="199.5" y="43.94" width="5.74" height="27.56" fill="#d4af37"/><polygon points="216.75 71.51 222.47 71.51 222.47 48.54 230.52 48.54 230.52 43.94 208.7 43.94 208.7 48.54 216.75 48.54 216.75 71.51" fill="#d4af37"/><path d="M237.84,28.66h-94.36c-1.47,0-2.66,1.19-2.66,2.66v52.13c0,1.47,1.19,2.66,2.66,2.66h94.36c1.47,0,2.66-1.19,2.66-2.66V31.32c0-1.47-1.19-2.66-2.66-2.66ZM235.18,80.79h-89.05v-46.81h89.05v46.81Z" fill="#d4af37"/></g></svg>