<?xml version="1.0" encoding="UTF-8"?><svg id="Email_White" xmlns="http://www.w3.org/2000/svg" width="256" height="256" viewBox="0 0 256 256"><path d="M58.57,167.58c-.46,1.95-.7,3.57-.72,4.84-.02,1.28.16,2.28.52,3,.36.73.89,1.23,1.56,1.51.68.28,1.47.42,2.36.42,1.29,0,2.52-.43,3.68-1.29,1.16-.86,2.17-2.06,3.03-3.6.86-1.54,1.54-3.36,2.04-5.46.5-2.1.75-4.4.75-6.88,0-4.2-.65-7.92-1.94-11.15-1.29-3.23-3.1-5.92-5.44-8.07-2.33-2.15-5.14-3.78-8.42-4.89-3.28-1.11-6.89-1.66-10.83-1.66-2.88,0-5.62.36-8.22,1.09-2.6.73-5.01,1.76-7.23,3.1-2.22,1.34-4.22,2.96-6.01,4.84-1.79,1.89-3.31,3.99-4.57,6.31-1.26,2.32-2.23,4.81-2.91,7.48-.68,2.67-1.02,5.46-1.02,8.37,0,5.36.83,10.08,2.48,14.16,1.66,4.07,3.93,7.47,6.83,10.18,2.9,2.72,6.32,4.76,10.26,6.13,3.94,1.37,8.21,2.06,12.81,2.06,2.58,0,4.97-.14,7.18-.42,2.2-.28,4.22-.65,6.06-1.12,1.84-.46,3.48-.99,4.94-1.59,1.46-.6,2.73-1.21,3.82-1.84.96-.53,1.8-.69,2.51-.47.71.22,1.23.75,1.56,1.61l1.89,4.82c-3.41,2.25-7.43,4.09-12.04,5.51-4.62,1.42-9.93,2.14-15.92,2.14s-11.72-.95-16.89-2.86c-5.17-1.9-9.63-4.64-13.39-8.2-3.76-3.56-6.7-7.88-8.82-12.96-2.12-5.08-3.18-10.8-3.18-17.16,0-3.51.46-6.94,1.39-10.28.93-3.34,2.24-6.49,3.92-9.44,1.69-2.95,3.73-5.65,6.13-8.12,2.4-2.47,5.07-4.59,8.02-6.36,2.95-1.77,6.13-3.15,9.56-4.15,3.43-.99,7.03-1.49,10.8-1.49,3.15,0,6.23.36,9.26,1.07,3.03.71,5.89,1.76,8.59,3.13,2.7,1.37,5.18,3.06,7.45,5.07,2.27,2,4.22,4.28,5.86,6.83,1.64,2.55,2.91,5.36,3.82,8.42.91,3.06,1.37,6.37,1.37,9.91s-.53,6.86-1.59,9.96c-1.06,3.1-2.53,5.8-4.42,8.12-1.89,2.32-4.13,4.14-6.73,5.46-2.6,1.32-5.44,1.99-8.52,1.99-2.19,0-4.17-.5-5.96-1.49-1.79-.99-3.08-2.63-3.87-4.92-1.95,2.28-4.02,3.92-6.18,4.89-2.17.98-4.51,1.47-7.03,1.47-2.12,0-3.97-.36-5.54-1.09-1.57-.73-2.89-1.75-3.95-3.05-1.06-1.31-1.85-2.86-2.38-4.64-.53-1.79-.79-3.73-.79-5.81,0-1.89.24-3.8.72-5.74.48-1.94,1.2-3.81,2.16-5.61.96-1.8,2.17-3.5,3.63-5.09,1.46-1.59,3.16-2.97,5.12-4.15,1.95-1.18,4.16-2.1,6.63-2.78,2.47-.68,5.21-1.02,8.22-1.02,1.36,0,2.6.05,3.73.15,1.13.1,2.19.25,3.18.45.99.2,1.93.45,2.81.75.88.3,1.76.63,2.66.99l-4.82,18.63ZM51.62,155.21c-.46-.07-.94-.12-1.42-.15-.48-.03-.97-.05-1.47-.05-1.89,0-3.66.42-5.31,1.27-1.66.84-3.1,1.99-4.35,3.43s-2.22,3.1-2.93,4.99c-.71,1.89-1.07,3.87-1.07,5.96s.41,3.62,1.24,4.69c.83,1.08,2.04,1.61,3.63,1.61.79,0,1.59-.12,2.38-.37s1.56-.68,2.28-1.29c.73-.61,1.38-1.42,1.96-2.43.58-1.01,1.07-2.29,1.47-3.85l3.58-13.81Z" fill="#fff" stroke="#fff" stroke-miterlimit="10" stroke-width=".11"/><path d="M223.92,200.23s-.01,0-.02,0l-140.79-.48c-3.16-.01-5.71-2.58-5.7-5.74.01-3.16,2.63-5.69,5.74-5.7l135.05.46v-63.64c0-3.16,2.56-5.72,5.72-5.72s5.72,2.56,5.72,5.72v69.38c0,1.52-.61,2.98-1.68,4.05-1.07,1.07-2.52,1.67-4.04,1.67Z" fill="#fff"/><path d="M136.93,161.3c-.82,0-1.64-.19-2.39-.57l-82.9-41.82c-1.79-.9-2.91-2.73-2.91-4.73v-24.76c0-1.41.56-2.75,1.55-3.75,1-.99,2.33-1.55,3.75-1.55l135.69.22c2.93,0,5.29,2.38,5.29,5.31,0,2.93-2.38,5.3-5.31,5.29l-130.38-.21v16.2l77.72,39.2,72.39-32.95c2.66-1.21,5.8-.04,7.02,2.63,1.21,2.66.04,5.8-2.63,7.02l-74.7,34c-.7.32-1.45.48-2.19.48Z" fill="#fff"/><path d="M250.17,95.05h-20.65v22.01h-12.17v-22.01h-20.54v-10.92h20.54v-21.96h12.17v21.96h20.65v10.92Z" fill="#d4af37"/></svg>