<?xml version="1.0" encoding="UTF-8"?><svg id="Webinar_Icon_White" xmlns="http://www.w3.org/2000/svg" width="256" height="256" viewBox="0 0 256 256"><g id="Webinar_Icon_White-2"><path d="M102.06,130.85c0,8.52,6.91,15.43,15.43,15.43s15.43-6.91,15.43-15.43-6.91-15.43-15.43-15.43-15.43,6.91-15.43,15.43Z" fill="#fff"/><path d="M219.62,112.9c-2.85,0-5.17,2.31-5.17,5.17v66.41c0,2.09-1.7,3.8-3.8,3.8h-75.55l.8-17.66c0-10.17-8.24-18.41-18.41-18.41s-18.41,8.24-18.41,18.41l.84,17.66h-44.47c-2.85,0-5.17,2.31-5.17,5.17s2.31,5.17,5.17,5.17h33.63l-8.71,18.7-26.29.06c-2.87,0-5.19,2.77-5.19,6.17v.51c0,1.55.51,3.01,1.44,4.1.93,1.1,2.16,1.7,3.46,1.7h0l165.74-.35h.06s-.02-12.48-.02-12.48l-64.5.14-8.63-18.54h64.2c7.79,0,14.13-6.34,14.13-14.13v-66.41c0-2.85-2.31-5.17-5.17-5.17Z" fill="#fff"/><path d="M160.07,62.76c0-2.85-2.31-5.17-5.17-5.17H25.9c-7.79,0-14.13,6.34-14.13,14.13v69.37c0,2.85,2.31,5.17,5.17,5.17s5.17-2.31,5.17-5.17v-69.37c0-2.09,1.7-3.8,3.8-3.8h129c2.85,0,5.17-2.31,5.17-5.17Z" fill="#fff"/><g id="Play_Button-2"><path d="M207.27,111.63c-24.79,0-44.97-20.17-44.97-44.97s20.17-44.97,44.97-44.97,44.97,20.17,44.97,44.97-20.17,44.97-44.97,44.97ZM207.27,30.74c-19.81,0-35.92,16.11-35.92,35.92s16.11,35.92,35.92,35.92,35.92-16.11,35.92-35.92-16.11-35.92-35.92-35.92Z" fill="#d4af37"/><path d="M200.34,83.2c-.78,0-1.56-.2-2.26-.61-1.4-.81-2.26-2.3-2.26-3.92v-24.02c0-1.62.86-3.11,2.26-3.92,1.4-.81,3.12-.81,4.52,0l20.8,12.01c1.4.81,2.26,2.3,2.26,3.92s-.86,3.11-2.26,3.92l-20.8,12.01c-.7.4-1.48.61-2.26.61ZM204.86,62.49v8.36l7.24-4.18-7.24-4.18Z" fill="#d4af37"/></g><path d="M48.67,188.15v-14.38h-3.26v-9.41c0-10.05-8.17-18.22-18.22-18.22-9.17,0-16.76,6.81-18.02,15.64h-.21v11.99h-3.26v14.38c0,10.06,6.96,18.51,16.32,20.83v15.9h-13.74v5.17h37.81v-5.17h-13.74v-15.9c9.36-2.32,16.32-10.77,16.32-20.83ZM27.18,151.31c5.76,0,10.66,3.76,12.38,8.95h-8.48c-1.43,0-2.58,1.16-2.58,2.58s1.16,2.58,2.58,2.58h9.15v3.54h-9.15c-1.43,0-2.58,1.16-2.58,2.58s1.16,2.58,2.58,2.58h9.15v3.54h-9.15c-1.43,0-2.58,1.16-2.58,2.58s1.16,2.58,2.58,2.58h9.15v5.31H14.13v-23.79c0-7.2,5.86-13.06,13.06-13.06Z" fill="#fff"/></g></svg>