<?xml version="1.0" encoding="UTF-8"?><svg id="Engage_Blue" xmlns="http://www.w3.org/2000/svg" width="256" height="256" viewBox="0 0 256 256"><g id="Engage"><path d="M240.1,96.31c-2.76,0-5,2.24-5,5v70.78c0,2.51-2.38,4.56-5.3,4.56H51.55c-2.76,0-5,2.24-5,5s2.24,5,5,5h50.57l-10.44,20.44-28.03.06c-3.05,0-5.54,2.96-5.53,6.58v.54c0,1.65.55,3.21,1.53,4.37.99,1.17,2.3,1.81,3.69,1.81h0l176.66-.37h.07s-.02-13.3-.02-13.3l-68.76.15-10.35-20.27h68.84c8.43,0,15.3-6.53,15.3-14.56v-70.78c0-2.76-2.24-5-5-5Z" fill="#1b1464"/><path d="M191.76,42.36c0-2.76-2.24-5-5-5H34.64c-8.59,0-15.57,6.66-15.57,14.85v76.25c0,2.76,2.24,5,5,5s5-2.24,5-5V52.21c0-2.68,2.5-4.85,5.57-4.85h152.12c2.76,0,5-2.24,5-5Z" fill="#1b1464"/><path d="M131.54,71.5c-22.45,0-40.72,18.26-40.72,40.72s18.26,40.72,40.72,40.72,40.72-18.26,40.72-40.72-18.26-40.72-40.72-40.72ZM131.54,144.93c-18.04,0-32.72-14.68-32.72-32.72s14.68-32.72,32.72-32.72,32.72,14.68,32.72,32.72-14.68,32.72-32.72,32.72Z" fill="#1b1464"/><path d="M146.13,108.75l-18.88-10.9c-1.24-.71-2.76-.71-4,0-1.24.71-2,2.04-2,3.46v21.81c0,1.43.76,2.75,2,3.46.62.36,1.31.54,2,.54s1.38-.18,2-.54l18.88-10.9c1.24-.71,2-2.04,2-3.46s-.76-2.75-2-3.46ZM129.24,116.19v-7.95l6.88,3.97-6.88,3.97Z" fill="#1b1464"/><path d="M53.17,207.14c0-12.96-10.5-23.46-23.46-23.46s-23.46,10.5-23.46,23.46l1.7,35.63h43.61l1.62-35.63Z" fill="#1b1464" stroke="#1b1464" stroke-miterlimit="10" stroke-width="3.44"/><path d="M29.71,176.14c10.86,0,19.66-8.8,19.66-19.66s-8.8-19.66-19.66-19.66-19.66,8.8-19.66,19.66,8.8,19.66,19.66,19.66Z" fill="#1b1464" stroke="#1b1464" stroke-miterlimit="10" stroke-width="3.44"/><path id="Thumbs_up" d="M248.79,70.07c.69-3.27.96-4,.96-8,0-3.48-.02-4.36-.19-5.65-.05-.36-.07-.73-.07-1.09,0-1.91.01-1.03-.22-5.12s-4.22-6.27-7.79-6.86c-2.06-.34-4.85-.86-8.1-1.19-4.7-.48-8-4.85-7.15-9.49.43-2.36.71-4.73.57-6.59-.63-8.22-1.23-9.5-1.69-10.53-.57-1.29-1.74-2.38-4.02-2.38-1.91,0-2.98.23-4.76,2.52-1.25,1.6-5,9.63-6.01,11.95-4.07,9.38-9.26,16.25-25.56,24.79,0,0-.02,0-.03.01-.17.15-2.26,2.02-2.26,4.14v26.5c0,2.07.97,4.69,4.28,4.69s8.83-.69,11.45,1.93c2.62,2.62,6.23,3.24,10.51,3.24s26.03,1.88,29.1.63c2.78-1.14,5.71-3.31,5.86-3.45,0,0,0,0,.01-.01.12-.14,2.02-3.29,2.57-5.8.45-2.04.57-2.79,1.22-7.02.66-4.25,1.32-7.21,1.32-7.21Z" fill="#d4af37"/></g></svg>