<?xml version="1.0" encoding="UTF-8"?><svg id="Schedule_Blue" xmlns="http://www.w3.org/2000/svg" width="256" height="256" viewBox="0 0 256 256"><g id="Schedule"><g id="Calendar"><path d="M199.02,230.53h-121.51c-2.81,0-5.1-2.28-5.1-5.1s2.28-5.1,5.1-5.1h116.41v-94.61c0-2.81,2.28-5.1,5.1-5.1s5.1,2.28,5.1,5.1v99.71c0,2.81-2.28,5.1-5.1,5.1Z" fill="#1b1464"/><path d="M128.3,80.94c-1.5-4.5-2.54-9.2-3.03-14.07-.03-.2-.04-.42-.05-.62-.2-2.03-.29-4.1-.29-6.18,0-4.37.43-8.65,1.25-12.79H31v68.99c0,2.81,2.28,5.1,5.1,5.1s5.1-2.28,5.1-5.1v-35.32h87.1Z" fill="#1b1464"/><g id="Day_boxes"><path d="M171.24,116.69v2.56h-19.64v-13.98c5.7,4.98,12.35,8.88,19.64,11.42Z" fill="#1b1464" stroke="#1b1464" stroke-linecap="round" stroke-miterlimit="6" stroke-width="1.22"/><path d="M59.39,178.57h19.78v-22.8h-11.17c-1.94,6.77-6.36,12.49-12.23,16.08-.2.14-.42.25-.62.38v4.06l4.26,2.27Z" fill="#1b1464"/><path d="M59.39,178.57h19.78v-22.79h-11.17c-1.94,6.77-6.36,12.49-12.23,16.08-.2.14-.42.25-.62.38v4.06l4.26,2.27h0Z" fill="none" stroke="#1b1464" stroke-miterlimit="10"/><path d="M79.27,126.71v22.45h-9.37v-1.1c0-3.7-.7-7.22-1.97-10.47-1.64-4.2-4.24-7.93-7.53-10.88h18.87Z" fill="#1b1464"/><path d="M79.27,126.71v22.45h-9.37v-1.1c.02-8.18-3.52-15.99-9.51-21.35,0,0,18.87,0,18.87,0h0Z" fill="none" stroke="#1b1464" stroke-miterlimit="10"/><path d="M79.27,185.36v22.78h-6.04v-5.7c0-.41-.01-.8-.04-1.21-.15-3.31-.92-6.49-2.19-9.43-1.02-2.31-2.34-4.47-3.92-6.45h12.19Z" fill="#1b1464"/><path d="M79.27,185.36v22.78h-6.04c-.01-.95.04-6.08-.04-6.91-.26-5.88-2.48-11.34-6.12-15.88,0,0,12.19,0,12.19,0h0Z" fill="none" stroke="#1b1464" stroke-miterlimit="10"/></g></g><path d="M67.88,205.87c0-14.79-11.99-26.78-26.78-26.78s-26.78,11.99-26.78,26.78l1.94,40.66h49.77l1.85-40.66Z" fill="#1b1464" stroke="#1b1464" stroke-miterlimit="10" stroke-width="3.93"/><path d="M41.1,170.49c12.39,0,22.44-10.05,22.44-22.44s-10.05-22.44-22.44-22.44-22.44,10.05-22.44,22.44,10.05,22.44,22.44,22.44Z" fill="#1b1464" stroke="#1b1464" stroke-miterlimit="10" stroke-width="3.93"/><path d="M190.91,3.72c-31.12,0-56.44,25.32-56.44,56.44s25.32,56.44,56.44,56.44,56.44-25.32,56.44-56.44S222.03,3.72,190.91,3.72ZM190.91,105.25c-24.86,0-45.09-20.23-45.09-45.09s20.23-45.09,45.09-45.09,45.09,20.23,45.09,45.09-20.23,45.09-45.09,45.09Z" fill="#d4af37"/><path d="M212.61,37.6l-16.02,11.5v-26.84c0-3.13-2.54-5.68-5.68-5.68s-5.68,2.54-5.68,5.68v37.9s0,.07,0,.11c0,.05,0,.09,0,.14.01.33.05.65.12.96,0,.03.02.07.03.1.08.33.19.66.32.96.01.03.03.05.04.08.15.32.32.63.52.91,0,.01.01.03.02.04.02.03.05.06.08.09.09.12.19.24.29.35.05.06.1.11.15.17.1.1.2.2.31.29.05.05.1.1.15.14.15.13.31.25.48.36.05.03.11.06.16.1.12.08.25.15.38.22.06.03.13.06.19.09.13.06.26.12.39.17.06.02.13.05.19.07.14.05.28.09.42.13.06.02.12.03.18.05.15.03.31.06.47.08.05,0,.1.02.16.02.2.02.4.03.6.03.01,0,.02,0,.03,0,0,0,.02,0,.03,0,.25,0,.49-.02.73-.06.07,0,.13-.02.2-.03.25-.04.5-.1.74-.17.01,0,.03-.01.04-.02.24-.08.48-.18.71-.29.05-.02.09-.04.14-.07.24-.12.46-.26.68-.41.01-.01.03-.02.04-.03l25.01-17.95c2.55-1.83,3.13-5.37,1.3-7.92-1.83-2.55-5.37-3.13-7.92-1.3Z" fill="#d4af37"/></g><g id="Day_Boxes_Blue"><rect x="89.39" y="97.96" width="21.3" height="22.33" fill="#1b1464"/><rect x="89.68" y="126.92" width="21.3" height="22.33" fill="#1b1464"/><rect x="120.89" y="126.92" width="21.3" height="22.33" fill="#1b1464"/><rect x="152.81" y="127.09" width="21.3" height="22.33" fill="#1b1464"/><rect x="89.68" y="185.53" width="21.3" height="22.33" fill="#1b1464"/><rect x="89.39" y="156.22" width="21.3" height="22.33" fill="#1b1464"/><rect x="120.81" y="156.01" width="21.3" height="22.33" fill="#1b1464"/><rect x="152.81" y="156.22" width="21.3" height="22.33" fill="#1b1464"/><rect x="120.81" y="97.74" width="21.3" height="22.33" fill="#1b1464"/></g></svg>