<?xml version="1.0" encoding="UTF-8"?><svg id="Webinar_Icon_Gray" xmlns="http://www.w3.org/2000/svg" width="256" height="256" viewBox="0 0 256 256"><g id="Webinar"><path d="M102.03,130.85c0,8.53,6.92,15.45,15.45,15.45s15.45-6.92,15.45-15.45-6.92-15.45-15.45-15.45-15.45,6.92-15.45,15.45Z" fill="#6c757d"/><path d="M219.75,112.88c-2.86,0-5.17,2.32-5.17,5.17v66.5c0,2.1-1.71,3.8-3.8,3.8h-75.66l.8-17.69c0-10.18-8.25-18.44-18.44-18.44s-18.44,8.25-18.44,18.44l.84,17.69h-44.54c-2.86,0-5.17,2.32-5.17,5.17s2.32,5.17,5.17,5.17h33.67l-8.74,18.71-26.3.13c-2.84,0-5.14,2.74-5.13,6.11v.51c0,3.18,2.18,5.75,4.86,5.75l165.97-.35-.02-12.37-64.47.14-8.7-18.63h64.28c7.8,0,14.15-6.35,14.15-14.15v-66.5c0-2.86-2.32-5.17-5.17-5.17Z" fill="#6c757d"/><path d="M160.11,62.67c0-2.86-2.32-5.17-5.17-5.17H25.76c-7.8,0-14.15,6.35-14.15,14.15v69.47c0,2.86,2.32,5.17,5.17,5.17s5.17-2.32,5.17-5.17v-69.47c0-2.1,1.71-3.8,3.8-3.8h129.18c2.86,0,5.17-2.32,5.17-5.17Z" fill="#6c757d"/><g id="Play_Button-2"><path d="M207.39,111.61c-24.83,0-45.03-20.2-45.03-45.03s20.2-45.03,45.03-45.03,45.03,20.2,45.03,45.03-20.2,45.03-45.03,45.03ZM207.39,30.61c-19.84,0-35.97,16.14-35.97,35.97s16.14,35.97,35.97,35.97,35.97-16.14,35.97-35.97-16.14-35.97-35.97-35.97Z" fill="#d4af37"/><path d="M200.44,83.14c-.78,0-1.56-.2-2.26-.61-1.4-.81-2.26-2.3-2.26-3.92v-24.05c0-1.62.86-3.11,2.26-3.92,1.4-.81,3.13-.81,4.53,0l20.83,12.03c1.4.81,2.26,2.3,2.26,3.92s-.86,3.11-2.26,3.92l-20.83,12.03c-.7.4-1.48.61-2.26.61ZM204.97,62.4v8.37l7.25-4.18-7.25-4.18Z" fill="#d4af37"/></g><path d="M48.56,188.24v-14.4h-3.27v-9.42c0-10.06-8.19-18.25-18.25-18.25-9.18,0-16.78,6.82-18.04,15.66h-.21v12.01h-3.27v14.4c0,10.08,6.97,18.54,16.34,20.86v15.92h-13.75v5.17h37.86v-5.17h-13.76v-15.92c9.37-2.33,16.34-10.78,16.34-20.86ZM13.97,188.24v-23.82c0-7.21,5.86-13.07,13.07-13.07,5.77,0,10.67,3.76,12.4,8.96h-8.49c-1.43,0-2.59,1.16-2.59,2.59s1.16,2.59,2.59,2.59h9.16v3.55h-9.16c-1.43,0-2.59,1.16-2.59,2.59s1.16,2.59,2.59,2.59h9.16v3.55h-9.16c-1.43,0-2.59,1.16-2.59,2.59s1.16,2.59,2.59,2.59h9.16v5.31H13.97Z" fill="#6c757d"/></g></svg>