<?xml version="1.0" encoding="UTF-8"?><svg id="Webinar_Icon_Dark" xmlns="http://www.w3.org/2000/svg" width="256" height="256" viewBox="0 0 256 256"><path d="M102.09,130.85c0,8.51,6.9,15.41,15.41,15.41s15.41-6.9,15.41-15.41-6.9-15.41-15.41-15.41-15.41,6.9-15.41,15.41Z" fill="#54595f"/><path d="M219.52,112.92c-2.85,0-5.16,2.31-5.16,5.16v66.33c0,2.09-1.7,3.79-3.79,3.79h-75.47l.8-17.64c0-10.16-8.23-18.39-18.39-18.39s-18.39,8.23-18.39,18.39l.84,17.64h-44.42c-2.85,0-5.16,2.31-5.16,5.16s2.31,5.16,5.16,5.16h33.59l-8.72,18.66-26.24.13c-2.83,0-5.12,2.74-5.12,6.1v.51c0,3.17,2.17,5.74,4.84,5.73l165.56-.35-.02-12.34-64.31.14-8.68-18.58h64.12c7.78,0,14.12-6.33,14.12-14.12v-66.33c0-2.85-2.31-5.16-5.16-5.16Z" fill="#54595f"/><path d="M160.03,62.83c0-2.85-2.31-5.16-5.16-5.16H26.01c-7.78,0-14.12,6.33-14.12,14.12v69.3c0,2.85,2.31,5.16,5.16,5.16s5.16-2.31,5.16-5.16v-69.3c0-2.09,1.7-3.79,3.79-3.79h128.86c2.85,0,5.16-2.31,5.16-5.16Z" fill="#54595f"/><g id="Play_Button-2"><path d="M207.19,111.65c-24.77,0-44.92-20.15-44.92-44.92s20.15-44.92,44.92-44.92,44.92,20.15,44.92,44.92-20.15,44.92-44.92,44.92ZM207.19,30.85c-19.79,0-35.88,16.1-35.88,35.88s16.1,35.88,35.88,35.88,35.88-16.1,35.88-35.88-16.1-35.88-35.88-35.88Z" fill="#d4af37"/><path d="M200.26,83.25c-.78,0-1.56-.2-2.26-.61-1.4-.81-2.26-2.3-2.26-3.91v-23.99c0-1.61.86-3.1,2.26-3.91,1.4-.81,3.12-.81,4.52,0l20.78,12c1.4.81,2.26,2.3,2.26,3.91s-.86,3.1-2.26,3.91l-20.78,12c-.7.4-1.48.61-2.26.61ZM204.78,62.56v8.35l7.23-4.17-7.23-4.17Z" fill="#d4af37"/></g><path d="M45.5,173.73v-9.4c0-10.04-8.17-18.2-18.2-18.2-9.16,0-16.74,6.81-18,15.62h-.2v11.98h-3.26v14.36c0,10.05,6.96,18.49,16.3,20.81v15.88h-13.72v5.16h37.76v-5.16h-13.72v-15.88c9.35-2.32,16.3-10.76,16.3-20.81v-14.36h-3.26ZM27.3,151.28c5.76,0,10.65,3.76,12.37,8.94h-8.47c-1.43,0-2.58,1.16-2.58,2.58s1.16,2.58,2.58,2.58h9.14v3.54h-9.14c-1.43,0-2.58,1.16-2.58,2.58s1.16,2.58,2.58,2.58h9.14v3.54h-9.14c-1.43,0-2.58,1.16-2.58,2.58s1.16,2.58,2.58,2.58h9.14v5.3H14.26v-23.76c0-7.19,5.85-13.04,13.04-13.04Z" fill="#54595f"/></svg>