<?xml version="1.0" encoding="UTF-8"?><svg id="Inbound_Gray" xmlns="http://www.w3.org/2000/svg" width="256" height="256" viewBox="0 0 256 256"><g id="Inbound"><path d="M97.07,135.53c.4,0,.73.14,1,.43l2.83,3.02c-1.4,1.78-3.13,3.13-5.2,4.05-2.07.92-4.54,1.38-7.4,1.38-2.59,0-4.91-.44-6.98-1.32-2.06-.88-3.82-2.11-5.26-3.68-1.45-1.57-2.56-3.44-3.33-5.6-.78-2.16-1.17-4.52-1.17-7.07,0-1.71.19-3.35.56-4.89.37-1.55.92-2.97,1.63-4.28.71-1.3,1.58-2.48,2.58-3.53,1.01-1.05,2.15-1.94,3.42-2.68,1.27-.74,2.66-1.3,4.16-1.69,1.5-.39,3.1-.58,4.8-.58,1.27,0,2.47.11,3.61.33,1.14.22,2.2.53,3.18.93.98.4,1.89.88,2.73,1.44.83.56,1.58,1.18,2.25,1.85l-2.41,3.29c-.14.21-.33.39-.55.55-.22.16-.52.24-.91.24s-.77-.13-1.16-.4c-.39-.27-.87-.57-1.43-.91-.56-.33-1.27-.63-2.12-.91-.85-.27-1.93-.4-3.23-.4-1.45,0-2.77.26-3.98.79-1.21.52-2.24,1.28-3.11,2.27-.87.99-1.54,2.21-2.01,3.66-.48,1.45-.71,3.09-.71,4.93s.26,3.51.77,4.97c.52,1.45,1.22,2.68,2.12,3.68.9,1,1.94,1.76,3.14,2.27,1.2.52,2.48.77,3.85.77.81,0,1.54-.04,2.2-.12.66-.08,1.27-.21,1.83-.4.56-.19,1.1-.44,1.6-.74.5-.3,1-.68,1.51-1.14.17-.14.36-.26.55-.36.19-.1.4-.14.62-.14Z" fill="#6c757d"/><path d="M132.49,144.03h-6.45c-1.21,0-2.08-.46-2.62-1.38l-6.57-10.6c-.27-.41-.57-.71-.89-.91-.33-.19-.81-.29-1.44-.29h-2.43v13.17h-7.15v-34.56h10.86c2.41,0,4.48.25,6.19.75,1.71.5,3.12,1.2,4.22,2.08,1.1.89,1.9,1.95,2.41,3.18.51,1.23.76,2.58.76,4.06,0,1.14-.16,2.23-.49,3.25-.33,1.02-.8,1.96-1.42,2.8-.62.84-1.38,1.59-2.29,2.24-.91.65-1.94,1.18-3.1,1.57.46.25.89.56,1.29.92.4.36.75.78,1.07,1.27l8.05,12.43ZM115.74,125.83c1.16,0,2.16-.15,3-.44.84-.29,1.53-.7,2.07-1.21.54-.52.94-1.12,1.19-1.82.25-.7.38-1.46.38-2.29,0-1.64-.54-2.91-1.63-3.81-1.09-.91-2.74-1.36-4.97-1.36h-3.72v10.93h3.67Z" fill="#6c757d"/><path d="M173.98,109.47v34.56h-6.31v-21.22c0-.44.01-.92.04-1.43.02-.51.07-1.02.13-1.55l-9.88,18.75c-.54,1.03-1.37,1.55-2.5,1.55h-1c-.56,0-1.05-.13-1.48-.39-.43-.26-.77-.65-1.02-1.16l-9.93-18.82c.05.56.09,1.09.12,1.61.03.52.05,1,.05,1.44v21.22h-6.31v-34.56h5.43c.3,0,.57,0,.81.02.24.02.45.06.63.13.18.07.35.18.5.33.15.15.3.36.44.63l9.67,18.44c.3.56.58,1.13.85,1.71.26.59.51,1.19.75,1.81.24-.63.49-1.25.75-1.86.26-.6.54-1.18.85-1.74l9.6-18.36c.14-.27.29-.48.45-.63.16-.15.33-.26.51-.33.18-.07.39-.11.62-.13.23-.02.5-.02.82-.02h5.43Z" fill="#6c757d"/><path d="M218.15,75.45c-.4,1.68-.61,3.08-.62,4.17-.01,1.1.14,1.96.45,2.59.31.63.76,1.06,1.35,1.31.58.24,1.26.36,2.03.36,1.11,0,2.17-.37,3.17-1.11,1-.74,1.87-1.78,2.61-3.1.74-1.33,1.33-2.9,1.76-4.71.43-1.81.64-3.79.64-5.93,0-3.62-.56-6.83-1.67-9.61-1.11-2.78-2.68-5.1-4.69-6.96-2.01-1.85-4.43-3.26-7.26-4.22-2.83-.96-5.94-1.43-9.33-1.43-2.48,0-4.84.31-7.08.94-2.24.63-4.32,1.52-6.23,2.68-1.91,1.16-3.64,2.55-5.18,4.17-1.54,1.63-2.85,3.44-3.94,5.44-1.08,2-1.92,4.15-2.5,6.44-.59,2.3-.88,4.7-.88,7.21,0,4.62.71,8.69,2.14,12.2,1.43,3.51,3.39,6.44,5.89,8.78,2.5,2.34,5.44,4.1,8.84,5.29,3.4,1.18,7.08,1.78,11.04,1.78,2.23,0,4.29-.12,6.19-.36,1.9-.24,3.64-.56,5.22-.96,1.58-.4,3-.86,4.26-1.37,1.26-.51,2.35-1.04,3.3-1.58.83-.46,1.55-.59,2.16-.41.61.19,1.06.65,1.35,1.39l1.63,4.15c-2.94,1.94-6.4,3.52-10.38,4.75-3.98,1.23-8.55,1.84-13.72,1.84s-10.1-.82-14.55-2.46c-4.45-1.64-8.3-4-11.54-7.06-3.24-3.07-5.77-6.79-7.6-11.17-1.83-4.38-2.74-9.31-2.74-14.79,0-3.02.4-5.98,1.2-8.86.8-2.88,1.93-5.59,3.38-8.13,1.46-2.54,3.22-4.87,5.29-7,2.07-2.13,4.37-3.95,6.91-5.48,2.54-1.53,5.29-2.72,8.24-3.57,2.95-.86,6.06-1.28,9.31-1.28,2.71,0,5.37.31,7.98.92,2.61.61,5.08,1.51,7.41,2.7,2.33,1.18,4.47,2.64,6.42,4.37,1.95,1.73,3.64,3.69,5.05,5.89,1.41,2.2,2.51,4.62,3.3,7.26.78,2.64,1.18,5.49,1.18,8.54s-.46,5.91-1.37,8.58c-.91,2.67-2.18,5-3.81,7-1.63,2-3.56,3.57-5.8,4.71-2.24,1.14-4.69,1.71-7.34,1.71-1.88,0-3.6-.43-5.14-1.28-1.54-.86-2.65-2.27-3.34-4.24-1.68,1.97-3.46,3.38-5.33,4.22-1.87.84-3.89,1.26-6.06,1.26-1.83,0-3.42-.31-4.77-.94-1.36-.63-2.49-1.51-3.4-2.63-.91-1.13-1.6-2.46-2.05-4-.46-1.54-.68-3.21-.68-5.01,0-1.63.21-3.27.62-4.94.41-1.67,1.03-3.28,1.86-4.84.83-1.56,1.87-3.02,3.12-4.39,1.26-1.37,2.72-2.56,4.41-3.57,1.68-1.01,3.59-1.81,5.71-2.4,2.13-.58,4.49-.88,7.08-.88,1.17,0,2.24.04,3.21.13.97.09,1.88.21,2.74.39.86.17,1.66.39,2.42.64.76.26,1.52.54,2.29.86l-4.15,16.05ZM212.16,64.79c-.4-.06-.81-.1-1.22-.13-.41-.03-.83-.04-1.26-.04-1.63,0-3.15.36-4.58,1.09-1.43.73-2.68,1.71-3.75,2.95-1.07,1.24-1.91,2.68-2.53,4.3-.61,1.63-.92,3.34-.92,5.14s.36,3.12,1.07,4.05c.71.93,1.76,1.39,3.12,1.39.68,0,1.37-.11,2.05-.32.68-.21,1.34-.58,1.97-1.11.63-.53,1.19-1.23,1.69-2.1.5-.87.92-1.98,1.26-3.32l3.08-11.9Z" fill="#d4af37"/><path d="M223.2,193.83c3.04-2.73,4.71-6.4,4.7-10.33l-.22-68.91c0-2.76-2.24-5.01-5.02-4.98-2.76,0-4.99,2.25-4.98,5.02l.22,68.91c0,1.4-.86,2.39-1.38,2.85-1.05.94-2.49,1.47-4.05,1.47l-180.68.59c-2.76,0-4.99,2.25-4.98,5.02,0,2.76,2.25,4.98,5,4.98h.02l56.8-.18-8.16,19.75H14.99v12.99h208.75v-12.99h-66.67l-8.36-19.94,63.79-.21c4.02-.01,7.81-1.44,10.69-4.03Z" fill="#6c757d"/><path d="M15.73,174.85c2.76,0,4.99-2.25,4.98-5.02l-.32-97.33c-.01-4.47,2.49-7.59,4.75-7.59l140.6-.46c2.76,0,4.99-2.25,4.98-5.02,0-2.76-2.3-4.99-5.02-4.98l-140.6.46c-8.15.03-14.75,7.93-14.72,17.63l.31,97.33c0,2.76,2.25,4.98,5,4.98h.02Z" fill="#6c757d"/><path d="M68.2,147.29c-.03-1.13-.37-2.18-.94-3.07-.01-.02-.02-.04-.04-.06-.08-.12-.16-.24-.25-.35-.04-.05-.08-.11-.13-.16-.06-.08-.13-.15-.19-.22-.08-.09-.16-.17-.24-.25-.04-.03-.07-.07-.11-.1-.12-.11-.24-.22-.37-.32,0,0,0,0,0,0-.83-.67-1.85-1.12-2.99-1.25-.45-.05-.89-.05-1.31,0l-30.56.69c-3.29.07-5.89,2.8-5.82,6.09.07,3.24,2.72,5.82,5.95,5.82.05,0,.09,0,.14,0l15.12-.34-26.79,24.32c-2.43,2.21-2.62,5.98-.41,8.41,1.18,1.29,2.79,1.95,4.41,1.95,1.43,0,2.86-.51,4-1.55l26.74-24.27-1.79,14.93c-.39,3.27,1.94,6.23,5.21,6.62.24.03.48.04.71.04,2.97,0,5.54-2.22,5.91-5.25l3.63-30.34c.09-.42.13-.86.12-1.31Z" fill="#6c757d"/></g></svg>