<?xml version="1.0" encoding="UTF-8"?><svg id="Webinar_Icon_Blue" xmlns="http://www.w3.org/2000/svg" width="256" height="256" viewBox="0 0 256 256"><path d="M101.87,130.87c0,8.58,6.96,15.54,15.54,15.54s15.54-6.96,15.54-15.54-6.96-15.54-15.54-15.54-15.54,6.96-15.54,15.54Z" fill="#1b1464"/><path d="M220.3,112.79c-2.88,0-5.21,2.33-5.21,5.21v66.9c0,2.11-1.72,3.83-3.83,3.83h-76.11l.81-17.79c0-10.24-8.3-18.55-18.55-18.55s-18.55,8.3-18.55,18.55l.85,17.79h-44.8c-2.87,0-5.21,2.33-5.21,5.21s2.33,5.21,5.21,5.21h33.88l-8.79,18.82-26.46.13c-2.86,0-5.17,2.76-5.16,6.15v.51c0,3.2,2.19,5.79,4.88,5.78l166.97-.35-.02-12.44-64.85.14-8.75-18.74h64.67c7.85,0,14.24-6.39,14.24-14.24v-66.9c0-2.87-2.33-5.21-5.21-5.21Z" fill="#1b1464"/><path d="M160.3,62.28c0-2.87-2.33-5.21-5.21-5.21H25.15c-7.85,0-14.24,6.39-14.24,14.24v69.89c0,2.88,2.33,5.21,5.21,5.21s5.21-2.33,5.21-5.21v-69.89c0-2.11,1.72-3.83,3.83-3.83h129.95c2.88,0,5.21-2.33,5.21-5.21Z" fill="#1b1464"/><g id="Play_Button-2"><path d="M207.86,111.51c-24.98,0-45.3-20.32-45.3-45.3s20.32-45.3,45.3-45.3,45.3,20.32,45.3,45.3-20.32,45.3-45.3,45.3ZM207.86,30.03c-19.95,0-36.19,16.23-36.19,36.19s16.23,36.19,36.19,36.19,36.19-16.23,36.19-36.19-16.23-36.19-36.19-36.19Z" fill="#d4af37"/><path d="M200.87,82.87c-.79,0-1.57-.2-2.28-.61-1.41-.81-2.28-2.32-2.28-3.94v-24.2c0-1.63.87-3.13,2.28-3.94,1.41-.81,3.15-.81,4.55,0l20.96,12.1c1.41.81,2.28,2.32,2.28,3.94s-.87,3.13-2.28,3.94l-20.96,12.1c-.7.41-1.49.61-2.28.61ZM205.43,62v8.42l7.29-4.21-7.29-4.21Z" fill="#d4af37"/></g><path d="M44.8,174.11v-9.48c0-10.12-8.23-18.36-18.36-18.36-9.24,0-16.88,6.86-18.15,15.75h-.21v12.08h-3.29v14.48c0,10.14,7.01,18.67,16.44,21.01v16H7.4v5.21h38.09v-5.21h-13.84v-16c9.43-2.34,16.44-10.87,16.44-21.01v-14.48h-3.29ZM26.44,151.48c5.81,0,10.74,3.79,12.48,9.02h-8.54c-1.44,0-2.6,1.17-2.6,2.6s1.17,2.6,2.6,2.6h9.22v3.57h-9.22c-1.44,0-2.6,1.17-2.6,2.6s1.17,2.6,2.6,2.6h9.22v3.57h-9.22c-1.44,0-2.6,1.17-2.6,2.6s1.17,2.6,2.6,2.6h9.22v5.34H13.29v-23.96c0-7.25,5.9-13.15,13.15-13.15Z" fill="#1b1464"/></svg>