<?xml version="1.0" encoding="UTF-8"?><svg id="Momentum_Dark" xmlns="http://www.w3.org/2000/svg" width="256" height="256" viewBox="0 0 256 256"><g id="momentum"><path d="M226.69,108.39c-2.76,0-5,2.24-5,5v65.16c0,2.06-2.3,3.8-5.02,3.8H43.14c-2.76,0-5,2.24-5,5s2.24,5,5,5h45.57l-10.04,20.37-66.13.12v13.16h0v.15l211.57-.37h.08l-.02-13.32-66.64.12-9.97-20.23h69.12c8.28,0,15.02-6.19,15.02-13.8v-65.16c0-2.76-2.24-5-5-5Z" fill="#54595f"/><path d="M15.66,147.51V59.44c0-3.46,2.16-6.38,4.71-6.38h139.74c2.76,0,5-2.24,5-5s-2.24-5-5-5H20.37c-8.11,0-14.71,7.35-14.71,16.38v88.07c0,2.76,2.24,5,5,5s5-2.24,5-5Z" fill="#54595f"/><polygon points="114.14 119.78 122.46 141.03 152.52 109.99 155.36 112.64 160.28 97.35 145.37 103.33 148.13 105.9 124.64 130.15 117 110.63 67.87 143.61 71.21 148.59 114.14 119.78" fill="#54595f"/><path d="M163.6,157.03H63.57v-67.5c0-1.06-.86-1.92-1.92-1.92s-1.92.86-1.92,1.92v71.34h103.87c1.06,0,1.92-.86,1.92-1.92s-.86-1.92-1.92-1.92Z" fill="#54595f"/><path d="M54.08,168.5l-20.18-23.26c-.26-.35-.56-.68-.9-.98-.86-.75-1.88-1.2-2.94-1.38-.02,0-.04,0-.06,0-.15-.02-.3-.04-.45-.05-.06,0-.13-.01-.19-.01-.11,0-.21,0-.32,0-.11,0-.22,0-.32,0-.06,0-.12,0-.18.01-.15.01-.3.03-.46.05-.02,0-.03,0-.05,0-1.05.18-2.07.63-2.94,1.38-.34.3-.64.63-.9.98l-20.18,23.26c-2.17,2.5-1.9,6.29.6,8.46,1.14.98,2.54,1.47,3.93,1.47,1.68,0,3.35-.7,4.54-2.07l9.99-11.51v36.46c0,3.31,2.69,6,6,6s6-2.69,6-6v-36.39l9.93,11.44c1.19,1.37,2.86,2.07,4.54,2.07,1.39,0,2.79-.48,3.93-1.47,2.5-2.17,2.77-5.96.6-8.46Z" fill="#54595f"/><g id="Momentum"><path d="M245.13,68.61c-2.36-.36-4.58,1.25-4.94,3.62-2.01,13-11.54,23.53-24.26,26.85-15.44,4.02-31.22-3.65-37.93-17.49l2.72,1.87c.75.51,1.6.76,2.45.76,1.38,0,2.73-.66,3.57-1.88,1.35-1.97.85-4.67-1.12-6.02l-11.94-8.19s-.05-.04-.08-.06l-.16-.11s-.08-.04-.12-.07c-.13-.08-.25-.18-.4-.25-.06-.03-.12-.04-.18-.07-.08-.04-.17-.06-.25-.1-.18-.07-.36-.13-.55-.17-.09-.02-.19-.03-.29-.05-.18-.03-.36-.05-.54-.06-.11,0-.22,0-.32.01-.16,0-.33.02-.49.04-.13.02-.26.06-.39.09-.13.03-.26.07-.39.11-.15.05-.29.12-.44.2-.1.05-.2.09-.3.15-.15.09-.3.2-.44.31-.08.06-.16.11-.23.18-.14.13-.27.27-.4.42-.06.07-.12.13-.17.2-.04.05-.09.09-.13.15-.09.13-.15.28-.23.41-.02.04-.05.07-.07.11l-.08.17s-.03.06-.05.1l-6.42,12.98c-1.06,2.14-.18,4.74,1.96,5.8.62.31,1.27.45,1.92.45,1.59,0,3.13-.88,3.88-2.41l1.29-2.6c6.69,15.08,21.75,24.72,38.02,24.72,3.46,0,6.98-.44,10.48-1.35,16.07-4.19,28.09-17.49,30.64-33.9.37-2.36-1.25-4.58-3.62-4.94Z" fill="#d4af37"/><path d="M252.98,51.57c1.06-2.14.18-4.74-1.96-5.8-2.14-1.06-4.74-.18-5.8,1.96l-1.29,2.6c-8.11-18.28-28.53-28.58-48.5-23.37-16.07,4.19-28.09,17.49-30.64,33.9-.37,2.36,1.25,4.58,3.62,4.94.23.03.45.05.67.05,2.1,0,3.94-1.53,4.27-3.67,2.01-13,11.54-23.53,24.26-26.85,15.44-4.02,31.22,3.65,37.93,17.49l-2.72-1.87c-1.97-1.35-4.67-.85-6.02,1.12-1.35,1.97-.85,4.67,1.12,6.02l11.94,8.19s.06.04.09.06l.16.11c.06.04.13.07.19.11.11.07.21.14.32.2.22.11.44.19.67.26,0,0,0,0,0,0,.41.12.83.19,1.24.19.12,0,.24-.01.36-.02.06,0,.12,0,.19-.01.08-.01.16-.03.25-.04.11-.02.21-.04.32-.07.06-.02.12-.04.19-.06.12-.04.25-.08.37-.13.05-.02.09-.04.14-.06.14-.06.27-.13.4-.21.03-.02.06-.03.09-.05.15-.09.29-.19.43-.31,0,0,.02-.01.03-.02.31-.25.6-.55.84-.9.07-.1.11-.2.16-.3.04-.08.09-.15.13-.23l.08-.17s.03-.06.05-.09l6.42-12.98Z" fill="#d4af37"/></g></g></svg>