<?xml version="1.0" encoding="UTF-8"?><svg id="Inbound_Blue" xmlns="http://www.w3.org/2000/svg" width="256" height="256" viewBox="0 0 256 256"><path d="M223.83,110.16c-2.76,0-5,2.24-5,5v69.44c0,2.37-2.53,4.38-5.52,4.38H31.26c-2.76,0-5,2.24-5,5s2.24,5,5,5h58.42l-8.09,19.61H13.78v13.09h210.35v-13.09h-67.81l-8.09-19.61h65.09c8.56,0,15.52-6.45,15.52-14.38v-69.44c0-2.76-2.24-5-5-5Z" fill="#1b1464"/><path d="M20.12,170.15v-98.07c0-4.52,2.55-7.67,4.85-7.67h141.68c2.76,0,5-2.24,5-5s-2.24-5-5-5H24.96c-8.19,0-14.85,7.93-14.85,17.67v98.07c0,2.76,2.24,5,5,5s5-2.24,5-5Z" fill="#1b1464"/><path d="M68.09,147.54c-.03-1.14-.38-2.2-.95-3.09-.01-.02-.02-.04-.04-.06-.08-.12-.17-.24-.26-.36-.04-.05-.08-.1-.12-.16-.07-.08-.13-.16-.2-.23-.07-.08-.15-.16-.23-.24-.04-.04-.08-.08-.12-.12-.11-.11-.23-.21-.35-.31-.01,0-.02-.02-.03-.03-.84-.66-1.86-1.11-3-1.25-.45-.05-.89-.05-1.33,0l-30.79.7c-3.31.08-5.94,2.82-5.86,6.13.07,3.27,2.75,5.86,6,5.86.05,0,.09,0,.14,0l15.24-.35-26.99,24.51c-2.45,2.23-2.64,6.02-.41,8.48,1.18,1.3,2.81,1.97,4.44,1.97,1.44,0,2.88-.51,4.03-1.56l26.94-24.46-1.8,15.04c-.39,3.29,1.95,6.28,5.24,6.67.24.03.48.04.72.04,3,0,5.58-2.24,5.95-5.29l3.66-30.58c.09-.43.13-.87.12-1.32Z" fill="#1b1464"/><path d="M97.17,135.68c.4,0,.74.14,1.01.43l2.86,3.05c-1.41,1.79-3.16,3.15-5.24,4.08-2.09.93-4.57,1.39-7.45,1.39-2.61,0-4.95-.44-7.03-1.33-2.08-.89-3.85-2.12-5.3-3.71-1.46-1.58-2.58-3.46-3.36-5.64-.78-2.18-1.18-4.55-1.18-7.13,0-1.73.19-3.37.56-4.93.38-1.56.92-3,1.64-4.31.72-1.31,1.59-2.5,2.6-3.55,1.02-1.06,2.16-1.96,3.44-2.7,1.28-.74,2.68-1.31,4.19-1.7,1.51-.39,3.12-.59,4.84-.59,1.28,0,2.49.11,3.64.34,1.14.22,2.21.54,3.2.94.99.4,1.91.88,2.75,1.45.84.57,1.6,1.19,2.27,1.86l-2.42,3.31c-.14.21-.33.39-.55.55-.22.16-.53.24-.91.24s-.77-.14-1.16-.41c-.39-.27-.87-.58-1.44-.91-.57-.34-1.28-.64-2.14-.91-.86-.27-1.94-.41-3.25-.41-1.46,0-2.79.26-4.01.79-1.22.53-2.26,1.29-3.13,2.29-.87,1-1.55,2.23-2.03,3.68-.48,1.46-.72,3.11-.72,4.97s.26,3.54.78,5c.52,1.46,1.23,2.7,2.14,3.71.9,1.01,1.96,1.77,3.17,2.29,1.21.52,2.5.78,3.88.78.82,0,1.56-.04,2.22-.12.66-.08,1.28-.22,1.85-.41.57-.19,1.1-.44,1.61-.74.5-.3,1.01-.69,1.52-1.15.18-.14.36-.26.55-.36.19-.1.4-.14.62-.14Z" fill="#1b1464"/><path d="M132.86,144.25h-6.5c-1.22,0-2.1-.46-2.64-1.39l-6.62-10.68c-.27-.42-.57-.72-.9-.91-.33-.19-.81-.29-1.45-.29h-2.45v13.27h-7.2v-34.82h10.94c2.43,0,4.51.25,6.24.76,1.73.5,3.14,1.2,4.25,2.1,1.1.9,1.91,1.96,2.42,3.2.51,1.24.77,2.6.77,4.09,0,1.15-.16,2.24-.49,3.28-.33,1.03-.8,1.97-1.43,2.82-.62.85-1.39,1.6-2.3,2.26-.91.66-1.95,1.18-3.12,1.58.46.26.9.56,1.3.92.4.36.76.79,1.08,1.28l8.11,12.53ZM115.99,125.92c1.17,0,2.18-.15,3.02-.44.85-.3,1.54-.7,2.09-1.22.54-.52.94-1.13,1.2-1.84.26-.7.38-1.47.38-2.3,0-1.65-.55-2.93-1.64-3.84-1.1-.91-2.76-1.37-5-1.37h-3.74v11.02h3.7Z" fill="#1b1464"/><path d="M174.67,109.43v34.82h-6.36v-21.38c0-.45.01-.93.04-1.44.02-.51.07-1.03.13-1.56l-9.96,18.89c-.54,1.04-1.38,1.56-2.52,1.56h-1.01c-.56,0-1.06-.13-1.49-.4-.43-.26-.78-.65-1.03-1.16l-10.01-18.96c.05.56.09,1.1.12,1.62.03.52.05,1,.05,1.45v21.38h-6.36v-34.82h5.47c.3,0,.58,0,.82.02.24.02.45.06.64.13.18.07.35.18.5.34.15.15.3.36.44.64l9.74,18.58c.3.56.59,1.14.85,1.73.26.59.52,1.2.76,1.82.24-.64.49-1.26.76-1.87.26-.61.55-1.19.85-1.75l9.67-18.5c.14-.27.3-.48.46-.64.16-.15.33-.26.52-.34.18-.07.39-.12.62-.13.23-.02.51-.02.83-.02h5.47Z" fill="#1b1464"/><path d="M219.19,75.15c-.4,1.7-.61,3.1-.62,4.21-.01,1.11.14,1.98.45,2.61.32.63.77,1.07,1.36,1.32.59.24,1.27.37,2.05.37,1.12,0,2.18-.37,3.19-1.12,1.01-.75,1.88-1.79,2.63-3.13.75-1.34,1.34-2.92,1.77-4.74.43-1.83.65-3.82.65-5.97,0-3.65-.56-6.88-1.68-9.68-1.12-2.8-2.7-5.14-4.72-7.01-2.03-1.87-4.46-3.28-7.31-4.25-2.85-.96-5.98-1.44-9.4-1.44-2.5,0-4.88.32-7.14.95-2.26.63-4.35,1.53-6.28,2.7-1.93,1.16-3.67,2.57-5.22,4.21s-2.88,3.47-3.97,5.48c-1.09,2.01-1.93,4.18-2.52,6.49-.59,2.31-.88,4.74-.88,7.27,0,4.66.72,8.76,2.16,12.29,1.44,3.54,3.41,6.48,5.93,8.84,2.52,2.36,5.49,4.13,8.91,5.33s7.13,1.79,11.13,1.79c2.24,0,4.32-.12,6.23-.37,1.91-.24,3.67-.57,5.26-.97,1.6-.4,3.03-.86,4.29-1.38,1.26-.52,2.37-1.05,3.32-1.6.83-.46,1.56-.6,2.18-.41s1.07.65,1.36,1.4l1.64,4.18c-2.96,1.96-6.45,3.55-10.46,4.79s-8.62,1.85-13.82,1.85-10.18-.83-14.67-2.48c-4.49-1.65-8.36-4.03-11.62-7.12s-5.82-6.84-7.66-11.26c-1.84-4.41-2.76-9.38-2.76-14.9,0-3.05.4-6.02,1.21-8.93.8-2.9,1.94-5.64,3.41-8.2,1.47-2.56,3.24-4.91,5.33-7.05,2.08-2.14,4.41-3.98,6.97-5.52,2.56-1.54,5.33-2.74,8.3-3.6,2.98-.86,6.1-1.29,9.38-1.29,2.73,0,5.41.31,8.04.93,2.63.62,5.12,1.52,7.46,2.72,2.34,1.19,4.5,2.66,6.47,4.4,1.97,1.74,3.67,3.72,5.09,5.93,1.42,2.21,2.53,4.65,3.32,7.31.79,2.66,1.19,5.53,1.19,8.6s-.46,5.96-1.38,8.65c-.92,2.69-2.2,5.04-3.84,7.05-1.64,2.01-3.59,3.59-5.84,4.74-2.26,1.15-4.72,1.73-7.4,1.73-1.9,0-3.62-.43-5.18-1.29-1.55-.86-2.67-2.29-3.36-4.27-1.7,1.98-3.49,3.4-5.37,4.25-1.88.85-3.92,1.27-6.1,1.27-1.84,0-3.44-.32-4.81-.95-1.37-.63-2.51-1.52-3.43-2.65-.92-1.14-1.61-2.48-2.07-4.03s-.69-3.23-.69-5.05c0-1.64.21-3.3.63-4.98.42-1.68,1.04-3.31,1.88-4.87.83-1.57,1.88-3.04,3.15-4.42,1.27-1.38,2.75-2.58,4.44-3.6,1.7-1.02,3.62-1.83,5.76-2.42,2.14-.59,4.52-.88,7.14-.88,1.18,0,2.26.04,3.23.13.98.09,1.9.22,2.76.39.86.17,1.67.39,2.44.65.76.26,1.53.55,2.31.86l-4.18,16.17ZM213.15,64.41c-.4-.06-.81-.1-1.23-.13-.42-.03-.84-.04-1.27-.04-1.64,0-3.18.37-4.62,1.1-1.44.73-2.7,1.73-3.77,2.98-1.08,1.25-1.93,2.7-2.54,4.33-.62,1.64-.93,3.36-.93,5.18s.36,3.14,1.08,4.08c.72.93,1.77,1.4,3.15,1.4.69,0,1.38-.11,2.07-.32.69-.22,1.35-.59,1.98-1.12.63-.53,1.2-1.24,1.7-2.11.5-.88.93-1.99,1.27-3.34l3.11-11.99Z" fill="#d4af37"/></svg>