<?xml version="1.0" encoding="UTF-8"?><svg id="Attract_Dark" xmlns="http://www.w3.org/2000/svg" width="12457.75" height="10759.92" viewBox="0 0 256.52 221.56"><g id="Attract"><path d="M181.8,64.66c-8.93-8.23-20.53-12.95-31.83-12.95-24.69,0-41.25,9.13-41.95,9.52l2.31,12.08c.14-.07,19.41-7.48,39.63-7.48,13.38,0,28.38,12.67,28.38,26.92s-14.99,26.92-28.38,26.92c-20.22,0-39.5-7.41-39.63-7.48l-2.31,12.08c.69.39,17.25,9.52,41.95,9.52,11.29,0,22.9-4.72,31.83-12.95,8.76-8.07,13.79-18.31,13.79-28.08s-5.03-20-13.79-28.08Z" fill="#54595f"/><polygon points="78.89 56.33 60.98 55.3 81.77 64.72 82.69 60.98 100.78 61.28 79.63 52.73 78.89 56.33" fill="#39cccc"/><polygon points="78.08 78.98 60.84 83.94 83.57 85.94 83.2 82.12 100.38 76.4 77.58 75.34 78.08 78.98" fill="#39cccc"/><polygon points="78.36 102.26 60.45 101.22 81.23 110.64 82.15 106.91 100.25 107.21 79.09 98.65 78.36 102.26" fill="#39cccc"/><polygon points="77.14 123.35 77.64 126.99 60.4 131.95 83.13 133.95 82.76 130.12 99.93 124.41 77.14 123.35" fill="#39cccc"/><path d="M215.18,165.52c7.84,0,14.22-7.65,14.22-17.04V57.65c0-2.64-2.14-4.78-4.78-4.78s-4.78,2.14-4.78,4.78v90.83c0,4.41-2.46,7.48-4.67,7.48H51.67c-2.64,0-4.78,2.14-4.78,4.78s2.14,4.78,4.78,4.78h44.38l-7.87,19.43-27.98.06c-2.91,0-5.27,2.81-5.26,6.26v.51c0,1.57.52,3.05,1.46,4.16s2.19,1.72,3.52,1.72c0,0,0,0,0,0l168.18-.35h.07l-.02-12.66-66.74.14-7.81-19.28h61.59Z" fill="#54595f"/><path d="M201.3,28.27c0-2.68-2.17-4.86-4.86-4.86H32.72c-8.95,0-16.23,6.1-16.23,13.61v67.71c0,2.68,2.17,4.86,4.86,4.86s4.86-2.17,4.86-4.86V37.02c0-1.84,2.79-3.9,6.52-3.9h163.72c2.68,0,4.86-2.17,4.86-4.86Z" fill="#54595f"/><path d="M50.97,180.47c0-12.63-10.24-22.87-22.87-22.87s-22.87,10.24-22.87,22.87l1.65,34.73h42.51l1.58-34.73Z" fill="#54595f" stroke="#54595f" stroke-miterlimit="10" stroke-width="3.36"/><path d="M28.1,150.25c10.59,0,19.17-8.58,19.17-19.17s-8.58-19.17-19.17-19.17-19.17,8.58-19.17,19.17,8.58,19.17,19.17,19.17Z" fill="#54595f" stroke="#54595f" stroke-miterlimit="10" stroke-width="3.36"/><path d="M247.22,33.22h-17.42v18.57h-10.27v-18.57h-17.33v-9.22h17.33V5.49h10.27v18.52h17.42v9.22Z" fill="#d4af37"/></g></svg>