<?xml version="1.0" encoding="UTF-8"?><svg id="Charles_Blue" xmlns="http://www.w3.org/2000/svg" width="256" height="256" viewBox="0 0 256 256"><g id="Charles"><path d="M230.3,187.15c8.36,0,15.17-7.98,15.17-17.8v-94.77c0-2.76-2.24-5-5-5s-5,2.24-5,5v94.77c0,4.15-2.41,7.8-5.17,7.8H54.31c-2.76,0-5,2.24-5,5s2.24,5,5,5h50.91l-9.24,19.84-26.05.06c-2.97,0-5.38,2.89-5.38,6.42v.53c0,1.61.53,3.13,1.49,4.27.96,1.14,2.24,1.77,3.59,1.77h0l171.84-.36h.07l-.02-12.99-68.71.15-9.16-19.68h66.63Z" fill="#1b1464"/><path d="M182.91,46.12c0-2.76-2.24-5-5-5H39.13c-8.08,0-14.65,6.43-14.65,14.33v72.21c0,2.76,2.24,5,5,5s5-2.24,5-5V55.45c0-2.39,2.08-4.33,4.65-4.33h138.79c2.76,0,5-2.24,5-5Z" fill="#1b1464"/><path d="M58.11,206.29c0-12.96-10.5-23.46-23.46-23.46s-23.46,10.5-23.46,23.46l1.7,35.63h43.61l1.62-35.63Z" fill="#1b1464" stroke="#1b1464" stroke-miterlimit="10" stroke-width="3.44"/><circle cx="34.65" cy="155.62" r="19.66" fill="#1b1464" stroke="#1b1464" stroke-miterlimit="10" stroke-width="3.44"/><g id="Bar_Graph"><rect x="78.5" y="135.59" width="17" height="30.74" transform="translate(-1.53 .89) rotate(-.58)" fill="#1b1464" stroke="#1b1464" stroke-miterlimit="10"/><rect x="110.03" y="114.25" width="17" height="51.86" transform="translate(-.84 .71) rotate(-.34)" fill="#1b1464" stroke="#1b1464" stroke-miterlimit="10"/><rect x="141.67" y="92.75" width="17" height="73.36" transform="translate(-.55 .64) rotate(-.24)" fill="#1b1464" stroke="#1b1464" stroke-miterlimit="10"/><rect x="173.38" y="71.27" width="17" height="95.07" transform="translate(-.39 .6) rotate(-.19)" fill="#1b1464" stroke="#1b1464" stroke-miterlimit="10"/></g><path d="M246.97,44.02c.02-17.71-13.81-32.13-30.81-32.15h-.03c-16.99,0-30.83,14.39-30.85,32.08,0,8.82,3.4,17.1,9.59,23.31,7.02,7.03,6.55,12.24,6.52,12.52-.16,1.16.65,2.24,1.82,2.41,1.17.17,2.27-.64,2.44-1.81.04-.3.99-7.42-7.74-16.16-5.38-5.39-8.34-12.59-8.34-20.27.02-15.33,11.92-27.79,26.55-27.79h.03c14.64.02,26.53,12.51,26.52,27.84,0,9.78-5.18,16.99-9.52,21.32-6.87,6.86-6.45,13.48-6.19,15.24l-24.72,4.14c-.92.15-1.55,1.03-1.39,1.95.14.83.86,1.42,1.67,1.42.09,0,.19,0,.28-.02l26.1-4.37c.73-.12,1.26-.69,1.38-1.38.73-.47,1.14-1.36.94-2.26-.05-.23-1.11-5.62,4.95-11.67,4.91-4.9,10.77-13.11,10.78-24.36Z" fill="#d4af37"/><path d="M203.01,94.35c.09,0,.18,0,.27-.02l25.64-4.18c.92-.15,1.55-1.02,1.4-1.95s-1.02-1.55-1.95-1.4l-25.64,4.18c-.92.15-1.55,1.02-1.4,1.95.14.83.86,1.42,1.67,1.42Z" fill="#d4af37"/><path d="M228.54,93.28l-25.7,3.82c-.93.14-1.57,1-1.43,1.93.12.84.85,1.45,1.68,1.45.08,0,.17,0,.25-.02l25.7-3.82c.93-.14,1.57-1,1.43-1.93s-1-1.56-1.93-1.43Z" fill="#d4af37"/><path d="M222.2,101.74c-2.06,2.06-4.56,3.15-7.03,3.14-2.04-.03-3.86-.83-5.28-2.33-.64-.68-1.72-.71-2.4-.06-.68.64-.71,1.72-.06,2.4,2.03,2.14,4.77,3.34,7.7,3.38.05,0,.1,0,.15,0,3.35,0,6.65-1.46,9.32-4.14.66-.66.66-1.74,0-2.4-.66-.66-1.74-.66-2.4,0Z" fill="#d4af37"/><path d="M206.42,23.44c-.48-.81-1.52-1.07-2.32-.59-7.33,4.37-10.81,10.54-11.27,20.02-.05.94.68,1.73,1.61,1.77.03,0,.06,0,.08,0,.9,0,1.65-.71,1.69-1.61.4-8.33,3.28-13.49,9.61-17.27.8-.48,1.07-1.52.59-2.32Z" fill="#d4af37"/></g></svg>