<?xml version="1.0" encoding="UTF-8"?><svg id="Acceleration_Blue" xmlns="http://www.w3.org/2000/svg" width="256" height="256" viewBox="0 0 256 256"><g id="Accelerate"><path d="M237.2,99.05c-2.82,0-5.1,2.28-5.1,5.1v65.53c0,2.07-1.68,3.75-3.75,3.75H75.19c-2.82,0-5.1,2.28-5.1,5.1s2.28,5.1,5.1,5.1h28.26l-7.78,18.44-32.18.06c-3.01,0-5.45,2.74-5.44,6.09v.5c0,1.53.54,2.97,1.51,4.05.97,1.08,2.26,1.68,3.63,1.68h0l173.91-.35h.07s-.02-12.32-.02-12.32l-63.04.12-7.71-18.28h61.92c7.69,0,13.95-6.26,13.95-13.95v-65.53c0-2.82-2.28-5.1-5.1-5.1Z" fill="#1b1464"/><path d="M197.88,49.57c0-3.01-2.44-5.44-5.44-5.44H47.28c-8.57,0-15.53,6.41-15.53,14.29v68.46c0,3.01,2.44,5.44,5.45,5.44s5.44-2.44,5.44-5.44V58.42c0-1.84,2.13-3.4,4.64-3.4h145.15c3.01,0,5.44-2.44,5.44-5.44Z" fill="#1b1464"/><path d="M247.63,72.27l-23.74-27.37c-.35-.46-.74-.9-1.2-1.29-1.17-1.01-2.54-1.63-3.97-1.87-.03,0-.06-.01-.1-.02-.2-.03-.4-.05-.6-.07-.08,0-.17-.01-.25-.02-.15,0-.3-.01-.45-.01-.14,0-.28,0-.41,0-.09,0-.19.01-.28.02-.19.02-.38.04-.57.07-.04,0-.08.01-.12.02-1.42.24-2.79.85-3.95,1.86-.45.39-.85.83-1.2,1.29l-23.74,27.37c-2.95,3.4-2.58,8.54.82,11.48,1.54,1.34,3.44,1.99,5.33,1.99,2.28,0,4.54-.95,6.15-2.81l9.88-11.39v40.08c0,4.5,3.64,8.14,8.14,8.14s8.14-3.64,8.14-8.14v-39.99l9.81,11.31c1.61,1.86,3.88,2.81,6.15,2.81,1.89,0,3.79-.66,5.33-1.99,3.4-2.95,3.76-8.09.82-11.48Z" fill="#d4af37"/><g id="Momentum"><path d="M67.67,166.2c-1.64-.25-3.17.87-3.42,2.51-1.44,9.27-8.23,16.78-17.3,19.14-11.1,2.89-22.45-2.7-27.16-12.73l2.17,1.49c.52.36,1.11.53,1.69.53.96,0,1.89-.46,2.48-1.3.94-1.37.59-3.23-.78-4.17l-8.49-5.83s-.04-.02-.06-.04l-.11-.08s-.06-.03-.08-.05c-.09-.06-.17-.12-.27-.17-.04-.02-.09-.03-.13-.05-.06-.03-.11-.04-.17-.06-.13-.05-.26-.09-.39-.12-.06-.01-.12-.02-.19-.03-.13-.02-.26-.04-.39-.04-.07,0-.14,0-.21,0-.12,0-.24.01-.35.03-.09.01-.17.04-.25.06-.1.03-.19.05-.29.08-.1.04-.19.08-.29.13-.07.04-.15.07-.22.11-.1.06-.2.13-.3.21-.06.04-.11.08-.16.13-.1.09-.19.19-.27.29-.04.05-.08.09-.12.14-.03.04-.06.07-.09.1-.06.09-.11.19-.16.29-.01.03-.04.05-.05.08l-.06.12s-.02.04-.03.07l-4.57,9.23c-.74,1.48-.13,3.28,1.36,4.02.43.21.88.31,1.33.31,1.1,0,2.17-.61,2.69-1.67l.99-2.01c4.7,10.78,15.42,17.68,27.01,17.68,2.45,0,4.95-.31,7.43-.96,11.39-2.97,19.91-12.4,21.71-24.03.25-1.64-.87-3.17-2.5-3.42Z" fill="#1b1464"/><path d="M71.83,149.96c-1.48-.74-3.28-.13-4.02,1.36l-.98,1.99c-2.47-5.68-6.65-10.42-12.09-13.61-6.79-3.98-14.73-5.09-22.35-3.1-11.39,2.97-19.91,12.4-21.71,24.03-.25,1.64.87,3.17,2.5,3.42.16.02.31.04.46.04,1.45,0,2.73-1.06,2.96-2.54,1.44-9.27,8.23-16.78,17.3-19.14,6.07-1.58,12.39-.7,17.8,2.47,4.14,2.43,7.36,5.99,9.36,10.25l-2.16-1.48c-1.37-.94-3.23-.59-4.17.78-.94,1.37-.59,3.23.78,4.17l8.49,5.83s.04.03.06.04l.11.08s.09.05.14.08c.07.04.14.1.22.14.02.01.04.01.07.02.16.08.33.13.5.18.07.02.14.03.21.05.16.03.32.05.48.05.03,0,.05,0,.08,0,.22,0,.44-.03.66-.08.03,0,.06-.01.09-.02.19-.05.38-.12.56-.21.05-.02.1-.05.14-.07.17-.09.33-.2.48-.33.04-.04.08-.08.13-.12.13-.12.25-.26.36-.41.02-.03.04-.04.06-.07.05-.07.08-.14.12-.21.03-.05.06-.1.09-.15l.06-.12s.02-.04.03-.07l4.57-9.23c.74-1.48.13-3.28-1.36-4.02Z" fill="#1b1464"/></g></g><path d="M164.67,142.17h0c-.04-.64-.19-1.15-.3-1.54l-.16-.59-9.3-14.78c.13-2.52.19-5.07.19-7.67-.35-21.13-10.49-45.6-14.56-50.94l-.08-.1c-.94-1.16-2.3-1.82-3.74-1.82s-2.8.66-3.74,1.82l-.07.09c-4.02,5.25-14.59,28.88-14.59,51.01,0,2.53.06,5.07.19,7.57l-8.94,14.21-.25.45c-.23.5-.55,1.28-.62,2.27l-1.21,17.39c-.12,1.79.77,3.44,2.33,4.33.73.41,1.52.62,2.32.62.95,0,1.9-.29,2.73-.87l12.73-10.65h18.25l12.44,10.43c1.42,1.19,3.41,1.42,5.06.58,1.65-.84,2.64-2.58,2.51-4.44l-1.2-17.39ZM157.25,152.1s.06-.03.09-.04v.13s-.09-.08-.09-.08Z" fill="#1b1464"/></svg>