<?xml version="1.0" encoding="UTF-8"?><svg id="Efficiency_White" xmlns="http://www.w3.org/2000/svg" width="256" height="256" viewBox="0 0 256 256"><g id="Efficiency"><path d="M238.09,108.8c-2.69,0-4.87,2.18-4.87,4.87v68.94c0,2.45-2,4.44-4.45,4.44H67.37c-2.69,0-4.87,2.18-4.87,4.87s2.18,4.87,4.87,4.87h36.36l-10.02,21.12-64.05.12h-.07l-.06,12.86v.07s205.57-.36,205.57-.36h.07l-.02-12.97-64.23.12-9.95-20.97h67.79c7.83,0,14.19-6.36,14.19-14.18v-68.94c0-2.69-2.18-4.87-4.87-4.87Z" fill="#fff"/><path d="M32.58,152.79v-85.5c0-3.38,2.55-6.14,5.68-6.14h152.37c2.71,0,4.91-2.2,4.91-4.91s-2.2-4.91-4.91-4.91H38.26c-8.55,0-15.5,7.16-15.5,15.96v85.5c0,2.71,2.2,4.91,4.91,4.91s4.91-2.2,4.91-4.91Z" fill="#fff"/><path d="M32.44,158.97c-15.82,0-28.68,12.87-28.68,28.68s12.87,28.68,28.68,28.68,28.68-12.87,28.68-28.68-12.87-28.68-28.68-28.68ZM32.44,210.57c-12.64,0-22.92-10.28-22.92-22.92s10.28-22.92,22.92-22.92,22.92,10.28,22.92,22.92-10.28,22.92-22.92,22.92Z" fill="#fff"/><path d="M43.47,176.19l-8.14,5.85v-13.64c0-1.59-1.29-2.88-2.88-2.88s-2.88,1.29-2.88,2.88v19.26s0,.03,0,.04c0,.12.02.23.04.35,0,.07.01.15.03.22.02.09.06.18.08.27.03.09.05.18.09.27.03.07.07.13.11.2.05.1.11.21.17.3,0,.01.01.02.02.03.02.03.06.06.08.09.1.13.21.25.33.35.06.05.12.1.18.14.11.08.22.16.35.23.06.04.13.07.19.1.14.06.28.11.43.16.05.02.11.04.16.05.2.05.41.07.63.07,0,0,0,0,0,0s0,0,0,0c.17,0,.35-.02.52-.05.05,0,.11-.02.16-.04.12-.03.23-.06.34-.11.06-.02.11-.04.17-.07.11-.05.21-.11.31-.17.05-.03.1-.05.14-.09.01,0,.03-.01.04-.02l12.71-9.12c1.29-.93,1.59-2.73.66-4.02s-2.73-1.59-4.02-.66Z" fill="#fff"/><g id="Hourglass"><path d="M160.99,99.44c-.36-1.01-1.32-1.69-2.39-1.69h-53.61c-1.07,0-2.03.68-2.39,1.69-.36,1.01-.04,2.14.8,2.82l26.17,21.13c-.18.39-.28.82-.28,1.27v19.76c0,.23.03.44.07.66l-20.84,26.97c-.61.79-.72,1.85-.28,2.74.44.89,1.35,1.46,2.34,1.46h43.55c.99,0,1.9-.57,2.34-1.46.44-.89.33-1.96-.28-2.74l-20.84-26.97c.05-.21.07-.43.07-.66v-19.76c0-.71-.25-1.35-.65-1.87l25.42-20.53c.84-.68,1.16-1.8.8-2.82Z" fill="#d4af37"/><path d="M163.85,172.77l.27-12.34c0-12.71-3.68-15.43-9.69-18.81-.72-.41-1.5-.84-2.31-1.33-7.27-4.4-10.96-7.75-10.96-13.85s3.69-9.45,10.96-13.85c.81-.49,1.58-.93,2.31-1.33,6.01-3.38,9.69-6.1,9.69-18.88l-.3-13.91c1.66-.52,2.86-2.05,2.86-3.88,0-2.26-1.83-4.09-4.09-4.09h-60.47c-2.26,0-4.09,1.83-4.09,4.09,0,1.83,1.21,3.36,2.86,3.88l-.3,13.98c0,12.71,3.68,15.43,9.69,18.81.73.41,1.5.84,2.31,1.33,7.27,4.4,10.96,7.75,10.96,13.85s-3.69,9.45-10.96,13.85c-.81.49-1.58.93-2.31,1.33-6.01,3.38-9.69,6.1-9.69,18.88l.27,12.27c-1.75.47-3.04,2.04-3.04,3.94,0,2.26,1.83,4.09,4.09,4.09h60.89c2.26,0,4.09-1.83,4.09-4.09,0-1.89-1.29-3.47-3.04-3.94ZM113.38,147.14c.78-.44,1.61-.91,2.48-1.44,7.09-4.29,14.01-9.32,14.01-19.27s-6.92-14.97-14.01-19.27c-.88-.53-1.7-1-2.48-1.44-4.7-2.65-6.46-3.64-6.46-13.22l.3-13.84h50.27l.3,13.77c0,9.65-1.76,10.64-6.46,13.29-.78.44-1.61.91-2.48,1.44-7.09,4.29-14.01,9.32-14.01,19.27s6.92,14.97,14.01,19.27c.88.53,1.7,1,2.48,1.44,4.7,2.65,6.46,3.64,6.46,13.22l-.27,12.26h-50.34l-.27-12.19c0-9.65,1.76-10.64,6.46-13.29Z" fill="#fff"/></g><path d="M226.76,68.24c1.56.46,3.12.95,4.68,1.49,1.56.54,3.05,1.14,4.48,1.83,1.43.68,2.76,1.48,3.99,2.39,1.23.91,2.31,1.97,3.24,3.19.93,1.22,1.65,2.62,2.17,4.21.52,1.59.78,3.41.78,5.46,0,3.02-.51,5.87-1.53,8.55-1.02,2.68-2.52,5.05-4.51,7.11-1.98,2.06-4.4,3.74-7.26,5.04-2.86,1.3-6.14,2.08-9.84,2.34l-.58,6.62c-.07.84-.42,1.61-1.07,2.29-.65.68-1.49,1.02-2.53,1.02h-4.92l.93-10.28c-1.85-.26-3.68-.66-5.48-1.19-1.8-.54-3.53-1.19-5.19-1.95-1.66-.76-3.21-1.62-4.68-2.58-1.46-.96-2.78-2-3.94-3.14l4.14-6.09c.36-.52.84-.95,1.46-1.29.62-.34,1.25-.51,1.9-.51.75,0,1.53.23,2.34.68.81.46,1.71,1,2.7,1.63.99.63,2.11,1.27,3.36,1.92,1.25.65,2.7,1.15,4.36,1.51l1.85-20.21c-1.56-.42-3.11-.9-4.65-1.44-1.54-.54-3.03-1.16-4.46-1.88-1.43-.71-2.75-1.55-3.97-2.51-1.22-.96-2.28-2.1-3.19-3.43-.91-1.33-1.62-2.87-2.14-4.6-.52-1.74-.78-3.74-.78-6.01,0-2.53.5-4.99,1.51-7.38,1.01-2.39,2.48-4.52,4.41-6.4,1.93-1.88,4.31-3.43,7.13-4.65,2.82-1.22,6.07-1.92,9.74-2.12l.54-5.8c.06-.84.43-1.6,1.1-2.26.67-.67,1.5-1,2.51-1h4.97l-.88,9.55c3.51.62,6.51,1.62,9.01,3.02,2.5,1.4,4.64,2.97,6.43,4.72l-3.31,4.87c-.45.75-.94,1.29-1.46,1.63-.52.34-1.14.51-1.85.51-.49,0-1.06-.14-1.73-.41-.67-.28-1.4-.62-2.22-1.02-.81-.41-1.71-.82-2.7-1.24-.99-.42-2.04-.78-3.14-1.07l-1.7,18.9ZM220.24,49.05c-1.66.23-3.07.59-4.24,1.1-1.17.5-2.12,1.11-2.85,1.83-.73.71-1.27,1.5-1.61,2.36-.34.86-.51,1.78-.51,2.75,0,1.1.19,2.09.56,2.95.37.86.9,1.63,1.58,2.31.68.68,1.49,1.29,2.44,1.83.94.54,1.98,1.02,3.12,1.44l1.51-16.56ZM223.99,98.72c3.12-.45,5.45-1.52,7.01-3.19,1.56-1.67,2.34-3.9,2.34-6.7,0-1.1-.19-2.07-.58-2.9s-.93-1.57-1.61-2.22c-.68-.65-1.49-1.23-2.44-1.73-.94-.5-1.96-.95-3.07-1.34l-1.66,18.07Z" fill="#d4af37"/></g></svg>