<?xml version="1.0" encoding="UTF-8"?><svg id="ROI_Blue" xmlns="http://www.w3.org/2000/svg" width="256" height="256" viewBox="0 0 256 256"><g id="ROI"><path d="M237.35,106.44c-2.76,0-5,2.24-5,5v68.94c0,2.38-1.82,4.31-4.05,4.31H71.6c-2.76,0-5,2.24-5,5s2.24,5,5,5h31.33l-10.08,21.46-20.44.04c-2.78,0-5.04,2.78-5.04,6.19v.51c0,1.55.5,3.01,1.4,4.11.9,1.1,2.1,1.7,3.37,1.7h0l160.97-.35h.06s-.02-12.51-.02-12.51l-62.86.14-10-21.29h68c7.75,0,14.05-6.42,14.05-14.31v-68.94c0-2.76-2.24-5-5-5Z" fill="#1b1464"/><path d="M194.92,54.02c0-2.78-2.25-5.03-5.03-5.03H37.52c-8.61,0-15.62,7.28-15.62,16.23v86.64c0,2.78,2.25,5.03,5.03,5.03s5.03-2.25,5.03-5.03v-86.64c0-3.4,2.49-6.16,5.56-6.16h152.37c2.78,0,5.03-2.25,5.03-5.03Z" fill="#1b1464"/><path id="Calculator" d="M56.23,158.58H15.74c-4.53,0-8.21,3.55-8.21,7.92v59.59c0,4.38,3.67,7.92,8.21,7.92h40.49c4.53,0,8.21-3.55,8.21-7.92v-59.59c0-4.38-3.67-7.92-8.21-7.92ZM20.76,227.39c-3.17,0-5.74-2.48-5.74-5.55s2.57-5.55,5.74-5.55,5.74,2.48,5.74,5.55-2.57,5.55-5.74,5.55ZM20.76,212.55c-3.17,0-5.74-2.48-5.74-5.55s2.57-5.55,5.74-5.55,5.74,2.48,5.74,5.55-2.57,5.55-5.74,5.55ZM20.76,197.7c-3.17,0-5.74-2.48-5.74-5.55s2.57-5.55,5.74-5.55,5.74,2.48,5.74,5.55-2.57,5.55-5.74,5.55ZM36.04,227.39c-3.17,0-5.74-2.48-5.74-5.55s2.57-5.55,5.74-5.55,5.74,2.48,5.74,5.55-2.57,5.55-5.74,5.55ZM36.04,212.55c-3.17,0-5.74-2.48-5.74-5.55s2.57-5.55,5.74-5.55,5.74,2.48,5.74,5.55-2.57,5.55-5.74,5.55ZM36.04,197.7c-3.17,0-5.74-2.48-5.74-5.55s2.57-5.55,5.74-5.55,5.74,2.48,5.74,5.55-2.57,5.55-5.74,5.55ZM51.31,227.91c-3.17,0-5.74-2.48-5.74-5.55s2.57-5.55,5.74-5.55,5.74,2.48,5.74,5.55-2.57,5.55-5.74,5.55ZM51.31,213.06c-3.17,0-5.74-2.48-5.74-5.55s2.57-5.55,5.74-5.55,5.74,2.48,5.74,5.55-2.57,5.55-5.74,5.55ZM51.31,198.22c-3.17,0-5.74-2.48-5.74-5.55s2.57-5.55,5.74-5.55,5.74,2.48,5.74,5.55-2.57,5.55-5.74,5.55ZM57.05,177.78c0,2.8-2.35,5.08-5.25,5.08h-31.24c-2.9,0-5.26-2.27-5.26-5.08v-8.54c0-2.8,2.35-5.08,5.26-5.08h31.24c2.9,0,5.25,2.27,5.25,5.08v8.54Z" fill="#1b1464" stroke="#1b1464" stroke-miterlimit="10"/><path d="M131.81,83.31l-3.91.06c-24.29.34-44.05,20.39-44.05,44.68s20.04,44.68,44.68,44.68,44.61-19.99,44.68-44.55v-3.91s-40.83-.12-40.83-.12l-.58-40.84ZM128.53,164.91c-20.33,0-36.87-16.54-36.87-36.87,0-18.72,14.23-34.39,32.44-36.6l.57,40.5,40.5.12c-2.01,18.44-17.7,32.85-36.65,32.85Z" fill="#1b1464"/><path d="M138.7,73.33l-4.29.03.42,48.55,48.55.15v-4.04c.01-24.64-20.03-44.68-44.67-44.68Z" fill="#1b1464"/><path d="M225.87,65.38c1.56.46,3.12.95,4.68,1.49s3.05,1.14,4.48,1.83c1.43.68,2.76,1.48,3.99,2.39,1.23.91,2.31,1.97,3.24,3.19.93,1.22,1.65,2.62,2.17,4.21.52,1.59.78,3.41.78,5.46,0,3.02-.51,5.87-1.53,8.55-1.02,2.68-2.52,5.05-4.5,7.11-1.98,2.06-4.4,3.74-7.26,5.04-2.86,1.3-6.14,2.08-9.84,2.34l-.58,6.62c-.07.84-.42,1.61-1.07,2.29-.65.68-1.49,1.02-2.53,1.02h-4.92l.93-10.28c-1.85-.26-3.68-.66-5.48-1.19-1.8-.54-3.53-1.19-5.19-1.95-1.66-.76-3.21-1.62-4.68-2.58-1.46-.96-2.78-2-3.94-3.14l4.14-6.09c.36-.52.84-.95,1.46-1.29.62-.34,1.25-.51,1.9-.51.75,0,1.53.23,2.34.68.81.46,1.71,1,2.7,1.63.99.63,2.11,1.27,3.36,1.92,1.25.65,2.7,1.15,4.36,1.51l1.85-20.21c-1.56-.42-3.11-.9-4.65-1.44-1.54-.54-3.03-1.16-4.46-1.88-1.43-.71-2.75-1.55-3.97-2.51-1.22-.96-2.28-2.1-3.19-3.43-.91-1.33-1.62-2.87-2.14-4.6-.52-1.74-.78-3.74-.78-6.01,0-2.53.5-4.99,1.51-7.38,1.01-2.39,2.48-4.52,4.41-6.4,1.93-1.88,4.31-3.43,7.13-4.65,2.82-1.22,6.07-1.92,9.74-2.12l.54-5.8c.06-.84.43-1.6,1.1-2.26.67-.67,1.5-1,2.51-1h4.97l-.88,9.55c3.51.62,6.51,1.62,9.01,3.02,2.5,1.4,4.64,2.97,6.43,4.72l-3.31,4.87c-.46.75-.94,1.29-1.46,1.63-.52.34-1.14.51-1.85.51-.49,0-1.06-.14-1.73-.41-.67-.28-1.4-.62-2.22-1.02-.81-.41-1.71-.82-2.7-1.24-.99-.42-2.04-.78-3.14-1.07l-1.7,18.9ZM219.35,46.19c-1.66.23-3.07.59-4.24,1.1-1.17.5-2.12,1.11-2.85,1.83-.73.71-1.27,1.5-1.61,2.36-.34.86-.51,1.78-.51,2.75,0,1.1.19,2.09.56,2.95.37.86.9,1.63,1.58,2.31.68.68,1.49,1.29,2.44,1.83.94.54,1.98,1.02,3.12,1.44l1.51-16.56ZM223.1,95.87c3.12-.45,5.45-1.52,7.01-3.19,1.56-1.67,2.34-3.9,2.34-6.7,0-1.1-.19-2.07-.58-2.9s-.93-1.57-1.61-2.22c-.68-.65-1.49-1.23-2.44-1.73-.94-.5-1.96-.95-3.07-1.34l-1.66,18.07Z" fill="#d4af37"/></g></svg>