<?xml version="1.0" encoding="UTF-8"?><svg id="Persona_White" xmlns="http://www.w3.org/2000/svg" width="12432.38" height="12432.38" viewBox="0 0 256 256"><g id="Persona"><path d="M182.55,111.96c0,10.85,8.83,19.67,19.67,19.67s19.67-8.83,19.67-19.67-8.83-19.67-19.67-19.67-19.67,8.83-19.67,19.67ZM202.22,96.29c8.64,0,15.67,7.03,15.67,15.67s-7.03,15.67-15.67,15.67-15.67-7.03-15.67-15.67,7.03-15.67,15.67-15.67Z" fill="#fff"/><path d="M124.88,120.37c2.69,0,5.25-.53,7.61-1.47,2.76,7.53,9.98,12.93,18.46,12.93,10.85,0,19.67-8.83,19.67-19.67s-8.83-19.67-19.67-19.67c-2.24,0-4.39.4-6.4,1.09-2.63-8.36-10.44-14.43-19.66-14.43-11.38,0-20.61,9.23-20.61,20.61,0,.17.02.34.03.51-3.6-4.72-9.26-7.78-15.64-7.78-.09,0-.18.01-.28.01-.09,0-.18-.01-.28-.01-10.85,0-19.67,8.83-19.67,19.67s8.83,19.67,19.67,19.67c.09,0,.18-.01.28-.01.09,0,.18.01.28.01,10.85,0,19.67-8.83,19.67-19.67,0-.06,0-.11,0-.17,3.75,5.07,9.76,8.37,16.56,8.37ZM150.95,96.49c8.64,0,15.67,7.03,15.67,15.67s-7.03,15.67-15.67,15.67c-6.93,0-12.82-4.53-14.88-10.78,5.67-3.67,9.42-10.04,9.42-17.29,0-.75-.05-1.49-.12-2.23,1.74-.67,3.61-1.05,5.58-1.05ZM72.99,112.16c0-8.55,6.88-15.51,15.4-15.66,8.51.15,15.4,7.11,15.4,15.66s-6.88,15.51-15.4,15.66c-8.51-.15-15.4-7.11-15.4-15.66Z" fill="#fff"/><path d="M242.97,76.66c-3.31,0-6,2.69-6,6v94.37c0,3.86-2.21,6.74-4.19,6.74h-7.47v-26.28c0-12.73-10.36-23.09-23.09-23.09-12.06,0-21.98,9.29-23,21.09h-.09v28.28h-5.09v-26.08c0-12.73-10.36-23.09-23.09-23.09-2.85,0-5.58.52-8.1,1.47-4.49-4.8-10.88-7.81-17.97-7.81-9.01,0-16.89,4.85-21.17,12.08-.11-.19-.24-.37-.42-.52-2.92-2.53-8.3-5.23-14.63-5.23-.09,0-.18,0-.28,0-.09,0-.18,0-.28,0-12.06,0-21.98,9.29-23,21.09h-.09v28.08h-8.6c-3.31,0-6,2.69-6,6s2.69,6,6,6h41.68l-10.54,19.44-70.57.13h-.07l-.38,14.98v.07s226.42-.42,226.42-.42h.07l-.03-15.05-72.21.13-10.46-19.29h72.44c8.93,0,16.19-8.41,16.19-18.74v-94.37c0-3.31-2.69-6-6-6ZM183.13,157.5c0-10.53,8.56-19.09,19.09-19.09s19.09,8.56,19.09,19.09v26.28h-38.18v-26.28ZM150.95,138.61c10.53,0,19.09,8.56,19.09,19.09v26.08h-21.54l.98-30.91c0-4.96-1.48-9.58-4-13.44,1.74-.52,3.57-.81,5.48-.81ZM100.56,183.78h-.22M73.25,145.75c.39-.09.75-.29,1.03-.6,3.85-4.26,8.59-6.45,14.1-6.52,5.25.07,9.99,2.27,13.4,5.78-.97,2.64-1.49,5.49-1.49,8.46v30.91h-31.19l.09-14.3c0-.29-.06-.56-.17-.8v-10.98c0-4.52,1.59-8.68,4.23-11.95Z" fill="#fff"/><path d="M22.62,131.65V54.18c0-2.18,2.34-4.01,5.1-4.01h159.74c3.31,0,6-2.69,6-6s-2.69-6-6-6H27.72c-9.43,0-17.1,7.18-17.1,16.01v77.47c0,3.31,2.69,6,6,6s6-2.69,6-6Z" fill="#fff"/><path id="Thumbs_Up" d="M250.63,55.84c.58-2.75.81-3.36.81-6.73,0-2.93-.02-3.66-.16-4.75-.04-.3-.06-.61-.06-.92,0-1.6.01-.86-.18-4.31-.2-3.53-3.55-5.27-6.55-5.77-1.73-.29-4.08-.72-6.81-1-3.95-.4-6.73-4.08-6.01-7.98.36-1.98.6-3.98.48-5.54-.53-6.92-1.04-7.99-1.42-8.86-.48-1.09-1.47-2-3.38-2-1.6,0-2.51.19-4.01,2.12-1.05,1.35-4.21,8.1-5.06,10.05-3.43,7.89-7.79,13.67-21.49,20.85,0,0-.02,0-.02,0-.14.12-1.9,1.7-1.9,3.48v22.28c0,1.74.81,3.95,3.6,3.95s7.43-.58,9.63,1.62c2.21,2.21,5.24,2.72,8.84,2.72s21.89,1.58,24.47.53c2.34-.96,4.8-2.78,4.93-2.9,0,0,0,0,0-.01.1-.12,1.7-2.77,2.16-4.88.38-1.71.48-2.35,1.03-5.9s1.11-6.06,1.11-6.06Z" fill="#d4af37" stroke="#d4af37" stroke-miterlimit="10"/><g id="heart"><path d="M42.25,143.17c-3.74-3.74-8.48-5.1-15.61-5.1s-13.79,9.05-13.79,16.85c0,13.9,15.42,26.8,29.41,33.36" fill="#d4af37" stroke="#d4af37" stroke-miterlimit="10"/><path d="M42.25,143.17c3.74-3.74,8.58-5.1,15.71-5.1s13.79,9.05,13.79,16.85c0,13.9-15.52,26.8-29.5,33.36" fill="#d4af37" stroke="#d4af37" stroke-miterlimit="10"/></g></g></svg>