<?xml version="1.0" encoding="UTF-8"?><svg id="News_Dark" xmlns="http://www.w3.org/2000/svg" width="256" height="256" viewBox="0 0 256 256"><g id="News"><path d="M238.8,125.53c-2.76,0-5,2.24-5,5v36.44c-.61.37-1.95.85-3.85.85H76.8c-2.76,0-5,2.24-5,5s2.24,5,5,5h33.36l-7.6,18.53-37.45.07c-3.01,0-5.45,2.74-5.44,6.09v.5c0,1.53.54,2.97,1.51,4.05.97,1.08,2.26,1.68,3.63,1.68h0l173.91-.34h.07s-.02-12.32-.02-12.32l-64.81.13-7.54-18.39h63.53c7.89,0,13.85-4.31,13.85-10.03v-37.26c0-2.76-2.24-5-5-5Z" fill="#54595f"/><path d="M227.17,43.87c0-2.76-2.24-5-5-5H50.71c-9.49,0-16.92,6.08-16.92,13.85v68.46c0,2.76,2.24,5,5,5s5-2.24,5-5V52.72c0-1.78,3.02-3.85,6.92-3.85h171.46c2.76,0,5-2.24,5-5Z" fill="#54595f"/><path d="M41.36,130.27h-.03c-7.63,0-14.81,3.1-20.2,8.72-5.38,5.61-8.35,13.06-8.36,20.99,0,8.17,3.15,15.83,8.88,21.58,6.5,6.51,6.07,11.34,6.04,11.59-.15,1.08.6,2.07,1.68,2.23,1.09.16,2.1-.59,2.26-1.68.04-.28.91-6.87-7.16-14.96-4.98-4.99-7.72-11.66-7.72-18.76,0-6.9,2.58-13.37,7.25-18.23,4.64-4.83,10.79-7.49,17.33-7.49h.02c13.55.01,24.57,11.58,24.55,25.78,0,9.05-4.8,15.73-8.81,19.74-6.36,6.35-5.97,12.48-5.73,14.11l-22.89,3.83c-.85.14-1.43.95-1.29,1.81.13.77.79,1.31,1.55,1.31.09,0,.17,0,.26-.02l24.17-4.05c.67-.11,1.17-.64,1.28-1.27.68-.44,1.05-1.26.88-2.09-.04-.21-1.03-5.2,4.59-10.8,4.55-4.54,9.97-12.14,9.98-22.55.02-16.4-12.78-29.75-28.53-29.76Z" fill="#54595f"/><path d="M29.2,206.64c.08,0,.17,0,.25-.02l23.74-3.87c.86-.14,1.44-.95,1.3-1.8-.14-.86-.95-1.44-1.8-1.3l-23.74,3.87c-.86.14-1.44.95-1.3,1.8.13.77.79,1.32,1.55,1.32Z" fill="#54595f"/><path d="M52.83,205.64l-23.79,3.54c-.86.13-1.45.93-1.32,1.78.12.78.79,1.34,1.55,1.34.08,0,.15,0,.23-.02l23.79-3.54c.86-.13,1.45-.93,1.32-1.78-.13-.86-.93-1.45-1.78-1.32Z" fill="#54595f"/><path d="M46.97,213.48c-1.91,1.91-4.23,2.95-6.51,2.91-1.89-.02-3.58-.77-4.89-2.15-.6-.63-1.59-.65-2.22-.06-.63.6-.65,1.59-.06,2.22,1.88,1.98,4.42,3.1,7.13,3.13.05,0,.09,0,.14,0,3.1,0,6.16-1.36,8.63-3.83.61-.61.61-1.61,0-2.22s-1.61-.61-2.22,0Z" fill="#54595f"/><path d="M32.36,140.99c-.44-.75-1.41-.99-2.15-.55-6.79,4.04-10.01,9.76-10.43,18.53-.04.87.63,1.6,1.49,1.64.03,0,.05,0,.08,0,.83,0,1.53-.65,1.57-1.49.37-7.71,3.03-12.49,8.9-15.99.75-.44.99-1.41.55-2.15Z" fill="#54595f"/><path d="M65.44,136.33c.49,0,.98-.19,1.34-.58l11.21-11.82c.7-.74.67-1.91-.07-2.62-.74-.7-1.91-.67-2.62.07l-11.21,11.82c-.7.74-.67,1.91.07,2.62.36.34.82.51,1.27.51Z" fill="#54595f"/><path d="M52.35,128.38c.21.08.43.12.65.12.75,0,1.46-.46,1.73-1.2l5.71-15.26c.36-.96-.13-2.02-1.09-2.38-.96-.36-2.02.13-2.38,1.09l-5.71,15.26c-.36.96.13,2.02,1.09,2.38Z" fill="#54595f"/><path d="M23.8,129.27c.34.59.97.93,1.61.93.31,0,.63-.08.92-.25.89-.51,1.19-1.64.68-2.53l-8.14-14.11c-.51-.89-1.64-1.19-2.53-.68-.89.51-1.19,1.64-.68,2.53l8.14,14.11Z" fill="#54595f"/><path d="M89.62,137.98c-.4-.94-1.48-1.39-2.43-.99l-15.01,6.33c-.94.4-1.38,1.48-.99,2.43.3.71.98,1.13,1.71,1.13.24,0,.48-.05.72-.15l15.01-6.33c.94-.4,1.38-1.48.99-2.43Z" fill="#54595f"/><path d="M92.2,156.3l-16.28.54c-1.02.03-1.82.89-1.79,1.91.03,1,.85,1.79,1.85,1.79.02,0,.04,0,.06,0l16.28-.54c1.02-.03,1.82-.89,1.79-1.91-.03-1.02-.88-1.84-1.91-1.79Z" fill="#54595f"/><path d="M15.03,138.63c.52,0,1.04-.22,1.4-.64.67-.77.58-1.94-.19-2.61l-12.32-10.65c-.77-.67-1.94-.58-2.61.19-.67.77-.58,1.94.19,2.61l12.32,10.65c.35.3.78.45,1.21.45Z" fill="#54595f"/><path d="M173.49,99.07c-.75-1.14-2.29-1.46-3.44-.7-1.14.75-1.46,2.29-.7,3.44,2.27,3.43,2.25,7.86-.04,11.28-.76,1.14-.46,2.68.68,3.44.42.28.9.42,1.38.42.8,0,1.58-.39,2.06-1.1,3.4-5.08,3.43-11.67.05-16.77Z" fill="#54595f"/><path d="M179.71,92.57c-.85-1.08-2.41-1.26-3.48-.41-1.08.85-1.26,2.41-.41,3.48,5.49,6.96,5.47,16.68-.04,23.62-.85,1.07-.67,2.63.4,3.48.46.36,1,.54,1.54.54.73,0,1.45-.32,1.94-.94,6.96-8.75,6.98-21,.06-29.78Z" fill="#54595f"/><path d="M185.99,86.16c-.88-1.05-2.45-1.18-3.49-.29-1.05.88-1.18,2.45-.29,3.49,4.27,5.05,6.61,11.48,6.6,18.1-.01,6.61-2.37,13.03-6.65,18.07-.89,1.04-.76,2.61.29,3.5.47.4,1.04.59,1.6.59.7,0,1.4-.3,1.89-.88,5.04-5.93,7.82-13.49,7.83-21.27.01-7.79-2.75-15.35-7.78-21.31Z" fill="#54595f"/><path d="M163.05,101.62v-17.44c0-1.99-1.61-3.61-3.61-3.61s-3.61,1.61-3.61,3.61v1.47l-.67.31c-.14.06-13.66,6.31-21.7,9.71-3.68,1.55-7.57,2.75-11.26,3.68-2.28-2.64-5.65-4.33-9.41-4.33-6.86,0-12.44,5.58-12.44,12.44,0,5.64,3.77,10.4,8.92,11.92.17,1.8.54,4.23,1.34,6.88,1.13,3.77,5.35,14.29,10.08,14.29.1,0,.2,0,.29-.01,3.16-.29,6.01-2.73,7.44-4.16.57-.58.61-1.48.09-2.09-.37-.44-.84-.9-1.38-1.45-1.44-1.43-3.41-3.39-5.21-6.5-1.47-2.55-2.34-5.87-2.83-8.18,1.17-.69,2.22-1.57,3.11-2.59,3.69.93,7.59,2.13,11.26,3.68,8.05,3.39,21.57,9.64,21.7,9.71l.67.31v1.27c0,1.99,1.61,3.61,3.61,3.61,1.32,0,2.46-.72,3.09-1.77h0s0,0,0,0c.32-.54.51-1.16.51-1.83v-17.25c2.56-.71,4.45-3.05,4.45-5.83s-1.89-5.12-4.45-5.83Z" fill="#54595f"/><path d="M228.95,113.53c0-1.23.23-2.4.7-3.5.47-1.1,1.11-2.05,1.93-2.86.82-.8,1.78-1.44,2.88-1.9,1.1-.47,2.3-.7,3.61-.7s2.45.23,3.56.7c1.1.47,2.06,1.1,2.88,1.9.82.8,1.47,1.76,1.96,2.86.48,1.1.73,2.27.73,3.5s-.24,2.45-.73,3.53c-.49,1.08-1.14,2.03-1.96,2.83-.82.8-1.78,1.43-2.88,1.88-1.1.45-2.29.67-3.56.67s-2.51-.22-3.61-.67c-1.1-.45-2.06-1.07-2.88-1.88-.82-.8-1.47-1.74-1.93-2.83-.47-1.08-.7-2.26-.7-3.53ZM245.47,40.39v32.03c0,3.4-.18,6.76-.53,10.08-.36,3.32-.85,6.78-1.48,10.36h-10.42c-.64-3.58-1.13-7.04-1.48-10.36-.36-3.32-.53-6.68-.53-10.08v-32.03h14.45Z" fill="#d4af37"/></g></svg>