<?xml version="1.0" encoding="UTF-8"?><svg id="Contact_Gray" xmlns="http://www.w3.org/2000/svg" width="256" height="256" viewBox="0 0 256 256"><g id="Contact"><path d="M249.18,33.93c0-.83-.33-1.63-.92-2.22s-1.39-.89-2.22-.92l-100.56.18c-1.73,0-3.13,1.41-3.13,3.13v14.65c0,1.18.67,2.27,1.72,2.8l49.04,24.74c.44.22.93.34,1.41.34.44,0,.87-.09,1.28-.27l42.71-19.16c1.58-.71,2.29-2.56,1.58-4.14s-2.56-2.28-4.14-1.58l-41.35,18.55-45.99-23.2v-9.59l94.29-.17v24.02s0,0,0,.01,0,0,0,.01v32.03l-94.29.02v-35.01c0-1.73-1.4-3.13-3.13-3.13s-3.13,1.4-3.13,3.13v38.14c0,.83.33,1.63.92,2.22.59.59,1.39.92,2.22.92l100.56-.02c1.73,0,3.13-1.4,3.13-3.13v-35.17s0,0,0-.01,0,0,0-.01v-27.16Z" fill="#d4af37"/><g id="Contact_phone"><g id="Smartphone"><path d="M67.18,93.7H15.77c-3.21,0-5.81,2.6-5.81,5.81v116.75c0,3.21,2.6,5.81,5.81,5.81h51.41c3.21,0,5.81-2.6,5.81-5.81v-116.75c0-3.21-2.6-5.81-5.81-5.81ZM34.7,97.94c.34-.34.81-.55,1.34-.55h17.1c1.05,0,1.89.85,1.89,1.89,0,.52-.21.99-.55,1.34-.34.34-.81.56-1.34.56h-17.1c-1.04,0-1.89-.85-1.89-1.89,0-.52.21-.99.55-1.34ZM28.51,97.94c.34-.34.81-.55,1.34-.55s.99.21,1.34.55c.34.34.56.81.56,1.34s-.21.99-.56,1.34c-.34.34-.81.56-1.34.56-1.04,0-1.89-.85-1.89-1.89,0-.52.21-.99.56-1.34ZM41.48,218.34c-2.04,0-3.69-1.65-3.69-3.69s1.65-3.69,3.69-3.69,3.69,1.65,3.69,3.69-1.65,3.69-3.69,3.69ZM71.07,207.38H11.88v-102.01h59.19v102.01Z" fill="#6c757d"/></g><path d="M46.04,152.54c-.17.71-.26,1.29-.26,1.76,0,.46.06.83.19,1.09.13.26.32.45.57.55.25.1.53.15.86.15.47,0,.91-.16,1.33-.47.42-.31.79-.75,1.1-1.3.31-.56.56-1.22.74-1.98.18-.76.27-1.59.27-2.49,0-1.52-.23-2.87-.7-4.04-.47-1.17-1.13-2.15-1.97-2.93-.85-.78-1.86-1.37-3.05-1.77s-2.5-.6-3.92-.6c-1.04,0-2.04.13-2.98.4-.94.26-1.82.64-2.62,1.12-.8.49-1.53,1.07-2.18,1.76s-1.2,1.45-1.66,2.29c-.46.84-.81,1.74-1.05,2.71-.25.97-.37,1.98-.37,3.03,0,1.94.3,3.65.9,5.13.6,1.48,1.42,2.71,2.48,3.69,1.05.98,2.29,1.73,3.72,2.22,1.43.5,2.98.75,4.64.75.94,0,1.8-.05,2.6-.15.8-.1,1.53-.24,2.2-.41.67-.17,1.26-.36,1.79-.58.53-.22.99-.44,1.39-.67.35-.19.65-.25.91-.17.26.08.45.27.57.59l.68,1.75c-1.24.82-2.69,1.48-4.37,2-1.67.52-3.6.77-5.77.77s-4.25-.35-6.12-1.04c-1.87-.69-3.49-1.68-4.85-2.97-1.36-1.29-2.43-2.86-3.2-4.7-.77-1.84-1.15-3.92-1.15-6.22,0-1.27.17-2.51.5-3.73.34-1.21.81-2.35,1.42-3.42.61-1.07,1.35-2.05,2.22-2.94.87-.89,1.84-1.66,2.91-2.3,1.07-.64,2.22-1.14,3.47-1.5,1.24-.36,2.55-.54,3.92-.54,1.14,0,2.26.13,3.36.39,1.1.26,2.14.64,3.11,1.13.98.5,1.88,1.11,2.7,1.84.82.73,1.53,1.55,2.12,2.48.59.92,1.06,1.94,1.39,3.05.33,1.11.5,2.31.5,3.59s-.19,2.49-.58,3.61c-.38,1.12-.92,2.1-1.6,2.94-.68.84-1.5,1.5-2.44,1.98-.94.48-1.97.72-3.09.72-.79,0-1.51-.18-2.16-.54s-1.12-.95-1.4-1.78c-.71.83-1.46,1.42-2.24,1.77-.79.35-1.64.53-2.55.53-.77,0-1.44-.13-2.01-.4-.57-.26-1.05-.63-1.43-1.11-.38-.47-.67-1.03-.86-1.68-.19-.65-.29-1.35-.29-2.11,0-.68.09-1.38.26-2.08.17-.7.43-1.38.78-2.03.35-.65.79-1.27,1.31-1.85.53-.58,1.15-1.08,1.85-1.5.71-.43,1.51-.76,2.4-1.01.89-.25,1.89-.37,2.98-.37.49,0,.94.02,1.35.05.41.04.79.09,1.15.16.36.07.7.16,1.02.27.32.11.64.23.96.36l-1.75,6.75ZM43.52,148.05c-.17-.02-.34-.04-.51-.05-.17-.01-.35-.02-.53-.02-.68,0-1.33.15-1.93.46-.6.31-1.13.72-1.58,1.24-.45.52-.8,1.13-1.06,1.81-.26.68-.39,1.4-.39,2.16s.15,1.31.45,1.7c.3.39.74.59,1.31.59.29,0,.58-.05.86-.14.29-.09.56-.25.83-.47.26-.22.5-.52.71-.88.21-.37.39-.83.53-1.4l1.3-5Z" fill="#6c757d"/></g><path d="M227.32,102.62c-2.54,0-4.6,2.06-4.6,4.6v59.08c0,1.86-1.52,3.38-3.38,3.38H81.27c-2.54,0-4.6,2.06-4.6,4.6s2.06,4.6,4.6,4.6h29.98l-7.26,16.63-23.94.05c-2.55,0-4.62,2.47-4.62,5.49v.45c0,1.38.46,2.68,1.28,3.65.82.97,1.92,1.51,3.08,1.51h0l147.45-.31h.06l-.02-11.1-57.93.12-7.2-16.49h57.18c6.93,0,12.57-5.64,12.57-12.57v-59.08c0-2.54-2.06-4.6-4.6-4.6Z" fill="#6c757d"/><path d="M138.94,58.01c0-2.54-2.06-4.6-4.6-4.6H54.98c-6.93,0-12.57,5.64-12.57,12.57v20.3c0,2.54,2.06,4.6,4.6,4.6s4.6-2.06,4.6-4.6v-20.3c0-1.86,1.52-3.38,3.38-3.38h79.36c2.54,0,4.6-2.06,4.6-4.6Z" fill="#6c757d"/><path d="M129.75,108.89c-.67-.28-1.38-.42-2.14-.42s-1.5.14-2.16.42-1.23.66-1.72,1.14c-.49.48-.88,1.05-1.16,1.71-.28.66-.42,1.36-.42,2.09s.14,1.46.42,2.11c.28.65.66,1.21,1.16,1.69.49.48,1.07.85,1.72,1.12.66.27,1.38.4,2.16.4s1.47-.13,2.14-.4c.67-.27,1.25-.64,1.74-1.12.49-.48.88-1.04,1.16-1.69.28-.65.42-1.35.42-2.11s-.14-1.43-.42-2.09c-.28-.66-.66-1.23-1.16-1.71-.49-.48-1.07-.86-1.74-1.14Z" fill="#6c757d"/><path d="M138.51,111.73c-.28.66-.42,1.36-.42,2.09s.14,1.46.42,2.11.66,1.21,1.16,1.69c.49.48,1.07.85,1.73,1.12.66.27,1.38.4,2.16.4s1.47-.13,2.14-.4c.67-.27,1.25-.64,1.74-1.12.49-.48.88-1.04,1.16-1.69.28-.65.42-1.35.42-2.11s-.14-1.43-.42-2.09c-.28-.66-.66-1.23-1.16-1.71-.49-.48-1.07-.86-1.74-1.14s-1.38-.42-2.14-.42-1.5.14-2.16.42c-.66.28-1.23.66-1.73,1.14-.49.48-.88,1.05-1.16,1.71Z" fill="#6c757d"/><path d="M155.61,117.63c.49.48,1.07.85,1.73,1.12.66.27,1.38.4,2.16.4s1.47-.13,2.14-.4c.67-.27,1.25-.64,1.74-1.12.49-.48.88-1.04,1.16-1.69.28-.65.42-1.35.42-2.11s-.14-1.43-.42-2.09c-.28-.66-.66-1.23-1.16-1.71-.49-.48-1.07-.86-1.74-1.14-.67-.28-1.38-.42-2.14-.42s-1.5.14-2.16.42c-.66.28-1.23.66-1.73,1.14-.49.48-.88,1.05-1.16,1.71-.28.66-.42,1.36-.42,2.09s.14,1.46.42,2.11c.28.65.66,1.21,1.16,1.69Z" fill="#6c757d"/><path d="M176.57,101.79c-2.06,0-3.72,1.67-3.72,3.72v18.52c0,4.39-3.57,7.96-7.96,7.96h-43.98c-4.39,0-7.96-3.57-7.96-7.96v-20.8c0-4.39,3.57-7.96,7.96-7.96h15.43c2.06,0,3.72-1.67,3.72-3.72s-1.67-3.72-3.72-3.72h-15.43c-8.49,0-15.4,6.91-15.4,15.4v20.8c0,4.69,2.12,8.9,5.44,11.72l-8.17,16.71,24.67-13.03h37.45c8.49,0,15.4-6.91,15.4-15.4v-18.52c0-2.06-1.67-3.72-3.72-3.72Z" fill="#6c757d"/></g></svg>