<?xml version="1.0" encoding="UTF-8"?><svg id="Bill_Dark" xmlns="http://www.w3.org/2000/svg" width="256" height="256" viewBox="0 0 256 256"><g id="Bill_parts"><path d="M223.66,178.08c8.1,0,14.68-6.63,14.68-14.78v-73.12c0-2.71-2.2-4.91-4.91-4.91s-4.91,2.2-4.91,4.91v73.12c0,2.74-2.18,4.96-4.87,4.96H54.43c-2.71,0-4.91,2.2-4.91,4.91s2.2,4.91,4.91,4.91h46.25l-9.22,19.48-25.42.05c-2.92,0-5.29,2.83-5.28,6.31v.52c0,1.58.52,3.07,1.47,4.19.94,1.12,2.19,1.74,3.53,1.74h0l168.69-.36h.07l-.02-12.75-67.3.14-9.15-19.32h65.61Z" fill="#54595f"/><path d="M185.95,39.64c0-2.71-2.2-4.91-4.91-4.91H36.38c-8.25,0-14.96,6.31-14.96,14.07v70.89c0,2.71,2.2,4.91,4.91,4.91s4.91-2.2,4.91-4.91V48.8c0-2.35,2.31-4.25,5.15-4.25h144.66c2.71,0,4.91-2.2,4.91-4.91Z" fill="#54595f"/><path d="M54.43,196.87c0-12.72-10.31-23.03-23.03-23.03s-23.03,10.31-23.03,23.03l1.67,34.97h42.81l1.59-34.97Z" fill="#54595f" stroke="#54595f" stroke-miterlimit="10" stroke-width="3.38"/><circle cx="31.4" cy="147.13" r="19.3" fill="#54595f" stroke="#54595f" stroke-miterlimit="10" stroke-width="3.38"/><path d="M65.87,119.64c.96,0,1.73-.77,1.73-1.73v-23.31h64.06v23.29c0,.95.77,1.73,1.73,1.73s1.73-.77,1.73-1.73v-23.29h64.06v23.36c0,.95.77,1.73,1.73,1.73s1.73-.77,1.73-1.73v-24.61c0-.08-.01-.16-.02-.24.01-.08.02-.16.02-.24,0-.95-.77-1.73-1.73-1.73h-86.03v-12.99c0-.08-.01-.15-.02-.23h24.3c3.93,0,7.13-3.2,7.13-7.13v-.8c0-3.93-3.2-7.13-7.13-7.13h-50.09c-3.93,0-7.13,3.2-7.13,7.13v.8c0,3.93,3.2,7.13,7.13,7.13h22.37c-.01.08-.02.15-.02.23v12.99h-45.54c-.95,0-1.73.77-1.73,1.73,0,.07.01.14.02.21,0,.07-.02.14-.02.22v24.61c0,.95.77,1.73,1.73,1.73Z" fill="#54595f"/><path d="M65.87,121.28c-3.61,0-6.55,2.94-6.55,6.55s2.94,6.55,6.55,6.55,6.55-2.94,6.55-6.55-2.94-6.55-6.55-6.55Z" fill="#54595f"/><path d="M133.39,121.28c-3.61,0-6.55,2.94-6.55,6.55s2.94,6.55,6.55,6.55,6.55-2.94,6.55-6.55-2.94-6.55-6.55-6.55Z" fill="#54595f"/><circle cx="200.9" cy="127.83" r="6.55" fill="#54595f"/><path d="M249.95,53.04c0-16.55-12.75-30.18-28.94-31.59v-.13h-5.54s0,.13,0,.13c-16.2,1.41-28.96,15.04-28.96,31.59,0,17.49,14.23,31.72,31.72,31.72,10.31,0,19.98-5.08,25.88-13.41l.11.07,1.26-2.16c.04-.07.09-.15.14-.22l1.4-2.4-.13-.07c1.99-4.22,3.04-8.84,3.04-13.52ZM239.32,68.56c-4.89,6.63-12.74,10.66-21.07,10.66-14.43,0-26.17-11.74-26.17-26.17,0-13.49,10.27-24.64,23.4-26.03v27.62s9.9,5.78,9.9,5.78l13.95,8.15Z" fill="#d4af37"/></g></svg>