<?xml version="1.0" encoding="UTF-8"?><svg id="Value_Blue" xmlns="http://www.w3.org/2000/svg" width="256" height="256" viewBox="0 0 256 256"><g id="Value"><path d="M235.8,109.14c-2.64,0-4.78,2.14-4.78,4.78v67.73c0,2.4-1.96,4.36-4.38,4.36H68.08c-2.64,0-4.78,2.14-4.78,4.78s2.14,4.78,4.78,4.78h34.93l-8.4,20.74-63.57.12h-.07l-.06,12.71,201.95-.36h.07l-.02-12.67v-.07s-63.74.12-63.74.12l-8.34-20.6h65.81c7.69,0,13.94-6.25,13.94-13.93v-67.73c0-2.64-2.14-4.78-4.78-4.78Z" fill="#1b1464"/><path d="M33.91,152.36v-83.99c0-3.32,2.5-6.03,5.58-6.03h149.68c2.67,0,4.83-2.16,4.83-4.83s-2.16-4.83-4.83-4.83H39.48c-8.4,0-15.23,7.04-15.23,15.68v83.99c0,2.67,2.16,4.83,4.83,4.83s4.83-2.16,4.83-4.83Z" fill="#1b1464"/><path d="M35.83,159.04l-2.37.03c-14.72.21-26.69,12.35-26.69,27.07s12.15,27.07,27.07,27.07,27.03-12.11,27.07-27v-2.37s-24.74-.07-24.74-.07l-.35-24.74ZM33.84,208.48c-12.32,0-22.34-10.02-22.34-22.34,0-11.35,8.62-20.84,19.66-22.18l.35,24.54,24.54.07c-1.22,11.17-10.72,19.9-22.21,19.9Z" fill="#1b1464"/><path d="M40,152.99l-2.6.03.25,29.4,27.05.08,2.38-.07v-2.38c0-14.93-12.15-27.07-27.07-27.07Z" fill="#1b1464"/><polygon points="180.65 71.54 163.01 77.29 166.5 79.93 138.72 103.25 129.64 84.41 72.52 115.58 75.57 121.17 126.81 93.21 136.54 113.39 171.7 83.88 174.82 86.25 180.65 71.54" fill="#1b1464"/><g id="Bar_Graph"><polygon points="77.75 167.38 77.45 140.36 93.92 140.21 94.22 167.23 77.75 167.38" fill="#1b1464" stroke="#1b1464" stroke-miterlimit="10"/><polygon points="138.96 167.19 138.65 129.1 155.12 129.02 155.43 167.12 138.96 167.19" fill="#1b1464" stroke="#1b1464" stroke-miterlimit="10"/><polygon points="108.29 167.18 107.99 113.29 124.46 113.23 124.77 167.13 108.29 167.18" fill="#1b1464" stroke="#1b1464" stroke-miterlimit="10"/><polygon points="169.68 167.34 169.38 97.5 185.85 97.46 186.16 167.3 169.68 167.34" fill="#1b1464" stroke="#1b1464" stroke-miterlimit="10"/></g><path d="M224.66,69.29c1.53.45,3.06.93,4.59,1.46,1.53.53,3,1.12,4.4,1.79,1.4.67,2.71,1.45,3.92,2.34,1.21.89,2.27,1.94,3.18,3.13.91,1.2,1.62,2.58,2.13,4.14.51,1.56.77,3.35.77,5.36,0,2.97-.5,5.77-1.51,8.4-1,2.63-2.48,4.96-4.43,6.99-1.95,2.03-4.32,3.68-7.13,4.95-2.81,1.28-6.03,2.04-9.66,2.3l-.57,6.51c-.06.83-.41,1.58-1.05,2.25-.64.67-1.47,1-2.49,1h-4.83l.91-10.1c-1.82-.26-3.61-.65-5.38-1.17s-3.47-1.16-5.1-1.91c-1.63-.75-3.16-1.59-4.59-2.54-1.44-.94-2.73-1.97-3.88-3.09l4.07-5.98c.35-.51.83-.93,1.44-1.27.61-.33,1.23-.5,1.87-.5.73,0,1.5.22,2.3.67.8.45,1.68.98,2.66,1.6.97.62,2.07,1.25,3.3,1.89,1.23.64,2.66,1.13,4.28,1.48l1.82-19.85c-1.53-.41-3.05-.89-4.57-1.41-1.52-.53-2.97-1.14-4.38-1.84-1.4-.7-2.7-1.52-3.9-2.46-1.2-.94-2.24-2.06-3.13-3.37-.89-1.31-1.6-2.81-2.11-4.52-.51-1.71-.77-3.68-.77-5.91,0-2.49.49-4.9,1.48-7.25.99-2.34,2.43-4.44,4.33-6.29,1.9-1.85,4.23-3.37,7.01-4.57,2.77-1.2,5.96-1.89,9.57-2.08l.53-5.69c.06-.83.42-1.57,1.08-2.22.65-.65,1.47-.98,2.46-.98h4.88l-.86,9.38c3.44.61,6.39,1.6,8.85,2.97,2.46,1.37,4.56,2.92,6.32,4.64l-3.25,4.78c-.45.73-.93,1.27-1.44,1.6-.51.33-1.12.5-1.82.5-.48,0-1.05-.14-1.7-.41-.65-.27-1.38-.61-2.18-1-.8-.4-1.68-.81-2.66-1.22-.97-.41-2-.77-3.09-1.05l-1.67,18.56ZM218.25,50.44c-1.63.22-3.01.58-4.16,1.08-1.15.5-2.08,1.09-2.8,1.79-.72.7-1.24,1.48-1.58,2.32-.33.85-.5,1.75-.5,2.7,0,1.08.18,2.05.55,2.89.37.85.89,1.6,1.55,2.27s1.47,1.27,2.39,1.79c.92.53,1.95,1,3.06,1.41l1.48-16.27ZM221.94,99.24c3.06-.45,5.36-1.49,6.89-3.13,1.53-1.64,2.3-3.83,2.3-6.58,0-1.08-.19-2.03-.57-2.85-.38-.81-.91-1.54-1.58-2.18-.67-.64-1.47-1.2-2.39-1.7-.93-.49-1.93-.93-3.01-1.32l-1.63,17.75Z" fill="#d4af37"/></g></svg>