<?xml version="1.0" encoding="UTF-8"?><svg id="Strategy_White" xmlns="http://www.w3.org/2000/svg" width="12432.38" height="12432.38" viewBox="0 0 256 256"><g id="Strategy"><path d="M243.73,101.65c-2.69,0-4.87,2.18-4.87,4.87v68.94c0,2.45-2,4.44-4.45,4.44H73c-2.69,0-4.87,2.18-4.87,4.87s2.18,4.87,4.87,4.87h35.54l-8.72,21.11-64.53.12h-.07l-.06,12.86v.07s205.57-.36,205.57-.36h.07l-.02-12.97-64.7.12-8.66-20.97h66.97c7.83,0,14.19-6.36,14.19-14.18v-68.94c0-2.69-2.18-4.87-4.87-4.87Z" fill="#fff"/><path d="M38.22,145.65V60.15c0-3.38,2.55-6.14,5.68-6.14h152.37c2.71,0,4.91-2.2,4.91-4.91s-2.2-4.91-4.91-4.91H43.89c-8.55,0-15.5,7.16-15.5,15.96v85.5c0,2.71,2.2,4.91,4.91,4.91s4.91-2.2,4.91-4.91Z" fill="#fff"/><path d="M38.07,151.83c-15.82,0-28.68,12.87-28.68,28.68s12.87,28.68,28.68,28.68,28.68-12.87,28.68-28.68-12.87-28.68-28.68-28.68ZM38.07,203.43c-12.64,0-22.92-10.28-22.92-22.92s10.28-22.92,22.92-22.92,22.92,10.28,22.92,22.92-10.28,22.92-22.92,22.92Z" fill="#fff"/><path d="M49.1,169.04l-8.14,5.85v-13.64c0-1.59-1.29-2.88-2.88-2.88s-2.88,1.29-2.88,2.88v19.26s0,.03,0,.04c0,.12.02.23.04.35.01.07.01.15.03.22.02.09.06.18.08.27.03.09.05.18.09.27.03.07.07.13.11.2.05.1.11.21.17.3,0,.01.01.02.02.03.02.03.06.06.08.09.1.13.21.25.33.35.06.05.12.1.17.14.11.08.23.16.35.23.06.04.13.07.19.1.14.06.28.11.43.16.05.02.11.04.16.05.2.05.41.07.63.07,0,0,0,0,0,0,0,0,0,0,0,0,.17,0,.35-.02.52-.05.05,0,.11-.02.16-.04.12-.03.23-.06.34-.11.06-.02.11-.04.17-.07.11-.05.21-.11.31-.17.05-.03.1-.05.14-.09.01,0,.03-.01.04-.02l12.71-9.12c1.29-.93,1.59-2.73.66-4.02-.93-1.29-2.73-1.59-4.03-.66Z" fill="#fff"/><path d="M181.28,166.2c-1.11-1.9-3.41-3.21-6.84-3.88l-.48-.1c-.21-.04-.59-.12-.94-.21.11-.05.22-.1.32-.15.49-.22,1.11-.5,1.83-.86,2.34-1.2,3.03-2.73,3.2-3.8.23-1.47-.38-3.02-1.72-4.34-1.82-1.8-6.25-3.31-13.18-4.49.39-.47.72-1.07,1.11-1.79.22-.4.46-.84.75-1.34,1.03-1.75,7.48-1.36,8.1-1.06.22.23.51.3.77.19.41-.17,1.26-.52,1.06-12.93,0-.82-.21-6.87-.39-12.21-.12-3.57-.24-6.94-.23-7.15.03-1.61-.12-3.87-1.01-5.53-.32-.6.04-2.55.32-4.12.28-1.52.54-2.95.38-3.79-.11-.59-.4-1.53-.7-2.54-.29-.99-.75-2.51-.87-3.27.01,0,.02.01.03.02.11.06.37.19.64.02.28-.17.28-.44.28-.79v-.19c0-.23-.09-.49-1.89-3.81-.24-.44-.49-.91-.67-1.25.07-.11.11-.25.1-.39-.03-.59-.23-1.3-.6-2.12-.48-1.08-.83-1.42-1.85-2.42-.23-.23-.5-.49-.82-.81l-4.07-4.08c.06-.22.02-.44-.11-.63-.64-.96-9.23-6.94-10.21-7.62-1.3-.9-2.7-1.61-4.18-2.11-1.35-.46-2.42-.81-3.85-.67-.33.03-2.29-.4-3.97-.81-.25-.18-.65-.14-1.69-.01-.5.06-1.07.12-1.59.15-1.21.07-2.38-.12-2.83-.21-.06-.06-.12-.11-.2-.15-.18-.1-.4-.12-.6-.06-.78.24-1.47.35-1.89.33-.54-.04-1.12-.06-1.71-.09-.83-.03-1.69-.07-2.45-.15-.27-.02-.52.08-.69.29-.17.21-.21.49-.12.74.07.19.12.34.15.47-1.99-.51-5.12-2.66-7.52-4.62-.2-.16-.47-.21-.71-.12-.24.09-.42.29-.47.55-.02.12-.07.23-.11.35-.22.58-.52,1.37.26,3.11.62,1.38.73,2.41.58,2.78-.02.05-.04.08-.06.08-1.22.44-1.42.82-1.67,1.41-.14.34-.31.75-.98,1.43-1.16,1.16-4.4-.83-7.04-3.07-.47-.4-.86-.28-1.01-.21-.15.07-.49.29-.49.91,0,4.79,2.7,6.5,4.3,7.1.14.05.21.2.18.33-.41,1.54-2.03,2.11-3,2.45-.6.21-.96.34-1.03.74-.02.1-.03.37.25.59q.06.05.9.39c.69.28,2.03.83,2.86,1.18-.71.79-1.36,2.04-1.37,2.06-.94,1.89-.55,2.87-.07,3.35,1.45,1.45-.14,5.27-1.42,8.34-.78,1.87-1.45,3.48-1.53,4.62-.32,4.8-4.97,10.9-5.17,11.16-.1.13-.15.28-.16.44-.02.66.66,1.39,2.11,2.26-.24.68-.25,1.52,1.16,2.92,1.26,1.26,1.96,2.18,2.53,2.93.42.55.79,1.03,1.27,1.51.73.73,1.54.65,2.12.6.54-.05.84-.07,1.14.23,1.61,1.61,7.16-2.49,7.22-2.53.07-.06.35-.08.55-.11.61-.06,1.53-.16,2-1.15.82-1.75.62-2.44.31-3.05-.07-.14-.1-.21-.11-.29.3-.38,1.08-1.52,2.21-3.17.61-.9,1.35-1.98,1.67-2.41,2.03.16,3.56-1.46,4.49-2.44.27-.28.6-.63.64-.67h.14c.98,0,1.28-.03,2.48-.8.02-.01.05-.03.14.04.38.29.87,1.54.33,3.25-.5,1.59-3.17,3.63-5.74,5.61-1.54,1.18-3.12,2.4-4.4,3.62-.1.1-2.45,2.58-4.81,6.91-8.09,14.9-3.33,20.94-.13,23.12-7.64,1.23-12.48,2.82-14.4,4.74-1.33,1.33-1.94,2.88-1.7,4.35.17,1.07.86,2.6,3.21,3.79.71.36,1.34.64,1.83.86.11.05.22.1.32.14-.35.09-.73.17-.94.21l-.48.1c-3.43.68-5.73,1.99-6.83,3.9-1.14,1.97-.6,3.97-.41,4.54.11.31.4.52.74.52h39.13c.1,0,.19-.02.28-.05.09.03.19.08.28.05l39.13-.13c.33,0,.63-.21.74-.53.19-.57.72-2.57-.42-4.54Z" fill="#fff"/><path d="M232.4,61.09c1.56.46,3.12.95,4.68,1.49,1.56.54,3.05,1.14,4.48,1.83,1.43.68,2.76,1.48,3.99,2.39,1.23.91,2.31,1.97,3.24,3.19.93,1.22,1.65,2.62,2.17,4.21.52,1.59.78,3.41.78,5.46,0,3.02-.51,5.87-1.53,8.55-1.02,2.68-2.52,5.05-4.5,7.11-1.98,2.06-4.4,3.74-7.26,5.04-2.86,1.3-6.14,2.08-9.84,2.34l-.58,6.62c-.07.84-.42,1.61-1.07,2.29-.65.68-1.49,1.02-2.53,1.02h-4.92l.93-10.28c-1.85-.26-3.68-.66-5.48-1.19-1.8-.54-3.53-1.19-5.19-1.95-1.66-.76-3.21-1.62-4.68-2.58-1.46-.96-2.78-2-3.94-3.14l4.14-6.09c.36-.52.84-.95,1.46-1.29.62-.34,1.25-.51,1.9-.51.75,0,1.53.23,2.34.68.81.46,1.71,1,2.7,1.63.99.63,2.11,1.27,3.36,1.92,1.25.65,2.7,1.15,4.36,1.51l1.85-20.21c-1.56-.42-3.11-.9-4.65-1.44-1.54-.54-3.03-1.16-4.46-1.88-1.43-.71-2.75-1.55-3.97-2.51-1.22-.96-2.28-2.1-3.19-3.43-.91-1.33-1.62-2.87-2.14-4.6-.52-1.74-.78-3.74-.78-6.01,0-2.53.5-4.99,1.51-7.38,1.01-2.39,2.48-4.52,4.41-6.4,1.93-1.88,4.31-3.43,7.13-4.65,2.82-1.22,6.07-1.92,9.74-2.12l.54-5.8c.06-.84.43-1.6,1.1-2.26.67-.67,1.5-1,2.51-1h4.97l-.88,9.55c3.51.62,6.51,1.62,9.01,3.02,2.5,1.4,4.64,2.97,6.43,4.72l-3.31,4.87c-.46.75-.94,1.29-1.46,1.63-.52.34-1.14.51-1.85.51-.49,0-1.06-.14-1.73-.41-.67-.28-1.4-.62-2.22-1.02-.81-.41-1.71-.82-2.7-1.24-.99-.42-2.04-.78-3.14-1.07l-1.7,18.9ZM225.87,41.9c-1.66.23-3.07.59-4.24,1.1-1.17.5-2.12,1.11-2.85,1.83-.73.71-1.27,1.5-1.61,2.36-.34.86-.51,1.78-.51,2.75,0,1.1.19,2.09.56,2.95.37.86.9,1.63,1.58,2.31.68.68,1.49,1.29,2.44,1.83.94.54,1.98,1.02,3.12,1.44l1.51-16.56ZM229.62,91.58c3.12-.45,5.45-1.52,7.01-3.19,1.56-1.67,2.34-3.9,2.34-6.7,0-1.1-.19-2.07-.58-2.9-.39-.83-.93-1.57-1.61-2.22-.68-.65-1.49-1.23-2.44-1.73-.94-.5-1.96-.95-3.07-1.34l-1.66,18.07Z" fill="#d4af37"/></g></svg>