<?xml version="1.0" encoding="UTF-8"?><svg id="Delight_Blue" xmlns="http://www.w3.org/2000/svg" width="256" height="256" viewBox="0 0 256 256"><g id="delight"><path d="M222.05,83.84c-2.77,0-5.02,2.25-5.02,5.02v66.17c0,2.16-1.56,3.91-3.48,3.91H66.38c-2.77,0-5.02,2.25-5.02,5.02s2.25,5.02,5.02,5.02h35.7l-8.59,17.06-20.18.04c-2.58,0-4.67,2.57-4.66,5.71v.47c0,1.43.46,2.78,1.29,3.79.83,1.01,1.94,1.57,3.11,1.57h0l148.93-.32h.06l-.02-11.54-59.94.13-8.52-16.91h59.98c7.46,0,13.52-6.26,13.52-13.96v-66.17c0-2.77-2.25-5.02-5.02-5.02Z" fill="#1b1464"/><path d="M178.45,43.06c0-2.57-2.08-4.65-4.65-4.65H43.59c-7.56,0-13.7,5.32-13.7,11.86v55.78c0,2.57,2.08,4.65,4.65,4.65s4.65-2.08,4.65-4.65v-55.78c0-1.18,1.92-2.55,4.4-2.55h130.21c2.57,0,4.65-2.08,4.65-4.65Z" fill="#1b1464"/><path d="M64.65,183.17c0-12.84-10.41-23.24-23.24-23.24s-23.24,10.41-23.24,23.24l1.68,35.29h43.2l1.6-35.29Z" fill="#1b1464" stroke="#1b1464" stroke-miterlimit="10" stroke-width="3.41"/><path d="M41.41,152.45c10.76,0,19.48-8.72,19.48-19.48s-8.72-19.48-19.48-19.48-19.48,8.72-19.48,19.48,8.72,19.48,19.48,19.48Z" fill="#1b1464" stroke="#1b1464" stroke-miterlimit="10" stroke-width="3.41"/><g id="Fireworks"><path d="M155.33,101.7c-19.12-5.16-30.11,4.2-33.21,7.42,1.58-3.84,5.34-11.93,10.96-17.55.49-.49.49-1.28,0-1.77-.49-.49-1.28-.49-1.77,0-5.23,5.23-8.85,12.25-10.78,16.63-1.67-6.3-6.69-17.56-21.58-21.47-.67-.18-1.35.22-1.53.89s.22,1.35.89,1.53c15.62,4.1,19.38,16.63,20.26,21.57-3.16-3.03-9.32-7.83-18.67-10.31-.67-.18-1.35.22-1.53.89-.18.67.22,1.35.89,1.53,7.97,2.12,13.54,6.1,16.71,8.92-7.88-1.76-24.46-3.54-37.71,8.09-.52.46-.57,1.25-.12,1.77.25.28.59.43.94.43.29,0,.59-.1.83-.31,12.49-10.97,28.24-9.19,35.59-7.52-4.56,1.59-11.96,4.98-18.73,11.75-.49.49-.49,1.28,0,1.77.49.49,1.28.49,1.77,0,6.42-6.42,13.58-9.67,17.88-11.17-4.72,6.02-13.68,19.92-12.78,37.72.03.67.59,1.19,1.25,1.19.02,0,.04,0,.06,0,.69-.03,1.22-.62,1.19-1.31-.89-17.7,8.77-31.7,12.96-36.89l.11,1.83.73-2.12c.05,0,.1.02.15.02.1,0,.19-.02.28-.03,1.81,3.21,4.89,10.33,4.52,21.22-.02.69.52,1.27,1.21,1.29.69.02,1.27-.52,1.29-1.21.36-10.56-2.32-17.76-4.31-21.59l.62.23-.17-.22c5.92,2.47,17.12,9.19,20.6,25.48.13.59.64.99,1.22.99.09,0,.17,0,.26-.03.68-.14,1.11-.81.96-1.49-3.55-16.62-14.98-24.01-21.51-26.95,4.91-.61,12.62-1.11,18.14.7.13.04.26.06.39.06.53,0,1.02-.33,1.19-.86.22-.66-.14-1.36-.8-1.58-6.22-2.05-14.66-1.43-19.75-.76,3.07-3.14,12.91-11.1,30.43-6.37.67.18,1.35-.21,1.53-.88s-.21-1.35-.88-1.53Z" fill="#1b1464"/><path d="M93.84,98.87c.18,0,.33-.15.33-.33s-.15-.33-.33-.33-.33.15-.33.33.15.33.33.33Z" fill="#1b1464"/><path d="M93.84,99.81c.7,0,1.27-.57,1.27-1.27s-.57-1.27-1.27-1.27-1.27.57-1.27,1.27.57,1.27,1.27,1.27ZM93.84,97.93c.34,0,.61.27.61.61s-.27.61-.61.61-.61-.27-.61-.61.27-.61.61-.61Z" fill="#1b1464"/><circle cx="88.04" cy="96.99" r=".29" fill="#1b1464"/><path d="M88.04,98.23c.68,0,1.23-.55,1.23-1.23s-.55-1.23-1.23-1.23-1.23.55-1.23,1.23.55,1.23,1.23,1.23ZM88.04,96.35c.36,0,.65.29.65.65s-.29.65-.65.65-.65-.29-.65-.65.29-.65.65-.65Z" fill="#1b1464"/><path d="M125.65,141.72c-.18,0-.33.15-.33.33s.15.33.33.33.33-.15.33-.33-.15-.33-.33-.33Z" fill="#1b1464"/><path d="M125.65,140.78c-.7,0-1.27.57-1.27,1.27s.57,1.27,1.27,1.27,1.27-.57,1.27-1.27-.57-1.27-1.27-1.27ZM125.65,142.66c-.34,0-.61-.27-.61-.61s.27-.61.61-.61.61.27.61.61-.27.61-.61.61Z" fill="#1b1464"/><path d="M125.16,147.51c-.18,0-.33.15-.33.33s.15.33.33.33.33-.15.33-.33-.15-.33-.33-.33Z" fill="#1b1464"/><path d="M125.16,146.58c-.7,0-1.27.57-1.27,1.27s.57,1.27,1.27,1.27,1.27-.57,1.27-1.27-.57-1.27-1.27-1.27ZM125.16,148.45c-.34,0-.61-.27-.61-.61s.27-.61.61-.61.61.27.61.61-.27.61-.61.61Z" fill="#1b1464"/><path d="M149.03,113.8c-.18,0-.33.15-.33.33s.15.33.33.33.33-.15.33-.33-.15-.33-.33-.33Z" fill="#1b1464"/><path d="M149.03,112.86c-.7,0-1.27.57-1.27,1.27s.57,1.27,1.27,1.27,1.27-.57,1.27-1.27-.57-1.27-1.27-1.27ZM149.03,114.74c-.34,0-.61-.27-.61-.61s.27-.61.61-.61.61.27.61.61-.27.61-.61.61Z" fill="#1b1464"/><path d="M154.07,116.21c-.18,0-.33.15-.33.33s.15.33.33.33.33-.15.33-.33-.15-.33-.33-.33Z" fill="#1b1464"/><path d="M154.07,115.27c-.7,0-1.27.57-1.27,1.27s.57,1.27,1.27,1.27,1.27-.57,1.27-1.27-.57-1.27-1.27-1.27ZM154.07,117.15c-.34,0-.61-.27-.61-.61s.27-.61.61-.61.61.27.61.61-.27.61-.61.61Z" fill="#1b1464"/><path d="M153.98,92.53c0-.18-.15-.33-.33-.33s-.33.15-.33.33.15.33.33.33.33-.15.33-.33Z" fill="#1b1464"/><path d="M154.92,92.53c0-.7-.57-1.27-1.27-1.27s-1.27.57-1.27,1.27.57,1.27,1.27,1.27,1.27-.57,1.27-1.27ZM153.05,92.53c0-.34.27-.61.61-.61s.61.27.61.61-.27.61-.61.61-.61-.27-.61-.61Z" fill="#1b1464"/><path d="M170.83,61.43c.18,0,.33-.15.33-.33s-.15-.33-.33-.33-.33.15-.33.33.15.33.33.33Z" fill="#1b1464"/><path d="M170.83,62.37c.7,0,1.27-.57,1.27-1.27s-.57-1.27-1.27-1.27-1.27.57-1.27,1.27.57,1.27,1.27,1.27ZM170.83,60.49c.34,0,.61.27.61.61s-.27.61-.61.61-.61-.27-.61-.61.27-.61.61-.61Z" fill="#1b1464"/><path d="M128.28,68.48c.18,0,.33-.15.33-.33s-.15-.33-.33-.33-.33.15-.33.33.15.33.33.33Z" fill="#1b1464"/><path d="M128.28,69.57c.79,0,1.43-.64,1.43-1.43s-.64-1.42-1.43-1.42-1.42.64-1.42,1.42.64,1.43,1.42,1.43ZM128.28,67.38c.42,0,.77.34.77.77s-.34.77-.77.77-.77-.34-.77-.77.34-.77.77-.77Z" fill="#1b1464"/><path d="M175.97,71.83c-6.14-4.92-15.42-3.96-20.58-2.9,2.2-1.98,5.66-4.43,9.77-4.95.6-.08,1.02-.62.95-1.22-.08-.6-.62-1.02-1.22-.95-4.4.56-8.06,2.97-10.51,5.07,1.61-4.64,4.55-11.85,8.42-15.71.43-.43.43-1.12,0-1.55-.43-.43-1.12-.43-1.55,0-4.98,4.98-8.39,14.61-9.72,18.9-2.83-3.5-9.95-10.75-19.89-10.21-.6.03-1.07.55-1.03,1.15s.55,1.06,1.15,1.03c7.9-.44,14,4.86,17.08,8.27-4.04-1.03-10.23-2.35-14.41-2.05-.6.04-1.06.57-1.01,1.17s.57,1.06,1.17,1.01c3.34-.24,8.24.68,12.04,1.58-5.99,1.01-15.56,3.51-20.52,9.53-.38.47-.32,1.16.15,1.54.47.38,1.16.32,1.54-.15,5.39-6.56,17.41-8.61,22.2-9.19-2.64,3.48-8.89,12.79-8.25,22.13.04.58.52,1.02,1.09,1.02.03,0,.05,0,.08,0,.6-.04,1.06-.56,1.02-1.17-.56-8.19,4.92-16.71,7.52-20.25.82,4.25,1.87,10.71,1.46,13.28-.09.6.31,1.16.91,1.25.06,0,.12.01.17.01.53,0,1-.38,1.08-.92.5-3.14-.75-10.35-1.52-14.26,4.73,3.38,15.57,12.54,15.21,25.19-.02.6.46,1.11,1.06,1.13.01,0,.02,0,.03,0,.59,0,1.08-.47,1.09-1.06.21-7.23-2.93-14.47-9.08-20.94-2.74-2.89-5.48-5-7.28-6.27,4.41-1.03,14.11-2.55,20,2.17.47.38,1.16.3,1.54-.17.38-.47.3-1.16-.17-1.54Z" fill="#1b1464"/><g id="Sparkles"><path d="M80.85,83.28l-.89-1.93c-.65-1.41-1.79-3.63-2.28-4.15-.36-.38-2.11-1.31-3.51-1.95l-1.88-.85,1.76-1.08c1.3-.79,3.58-2.28,4.19-2.89.42-.42,1.46-2.2,2.06-3.33l1.02-1.9.94,1.94c.55,1.15,1.59,3.16,2.03,3.7.42.52,2.08,1.84,3.03,2.55l1.16.86-1.15.88c-.96.74-2.64,2.09-3.06,2.58-.58.67-1.9,2.91-2.36,3.71l-1.06,1.84ZM76.87,74.14c.94.49,1.94,1.08,2.4,1.56.52.55,1.23,1.8,1.79,2.9.53-.86,1.15-1.81,1.56-2.29.42-.49,1.45-1.35,2.27-2-.83-.65-1.85-1.51-2.29-2.05-.37-.46-.91-1.41-1.37-2.28-.48.8-1.03,1.64-1.43,2.04-.56.56-1.85,1.45-2.92,2.15Z" fill="#1b1464"/><path d="M86.15,147.82l-.79-1.71c-.57-1.25-1.58-3.21-2.02-3.67-.32-.34-1.86-1.16-3.11-1.72l-1.66-.76,1.56-.95c1.15-.7,3.17-2.01,3.71-2.55.38-.37,1.29-1.95,1.83-2.94l.9-1.68.83,1.72c.49,1.01,1.41,2.8,1.8,3.28.37.46,1.84,1.63,2.68,2.25l1.02.77-1.01.78c-.85.65-2.33,1.85-2.71,2.28-.51.59-1.68,2.57-2.09,3.29l-.93,1.63ZM82.63,139.73c.83.43,1.72.95,2.12,1.38.46.49,1.09,1.59,1.58,2.56.47-.76,1.01-1.61,1.38-2.03.37-.43,1.28-1.19,2.01-1.77-.73-.58-1.64-1.34-2.03-1.82-.33-.4-.8-1.24-1.21-2.02-.42.71-.91,1.45-1.27,1.81-.5.5-1.63,1.28-2.58,1.9Z" fill="#d4af37"/><path d="M104,70.33c-.1,0-.21-.02-.31-.05-.51-.17-.78-.72-.6-1.23.19-.55,1.87-5.43,2.79-6.75.61-.87,2.15-2.04,3.3-2.84-1.12-.65-2.54-1.56-3.1-2.21-.61-.71-1.5-2.47-2.14-3.84-.76,1.37-1.8,3.15-2.45,3.82-.62.64-2.06,1.49-3.24,2.13,1.06.53,2.29,1.15,2.72,1.43.75.49,1.76,2.28,2.29,3.31.25.47.06,1.06-.41,1.31-.47.25-1.06.06-1.31-.41-.61-1.17-1.38-2.38-1.65-2.59-.49-.32-2.8-1.46-4.22-2.14l-1.8-.86,1.79-.88c1.38-.67,3.8-1.99,4.43-2.64.65-.67,2.22-3.48,3.06-5.1l.94-1.81.81,1.87c.69,1.61,2.03,4.43,2.65,5.15.47.55,2.59,1.82,3.94,2.55l1.45.78-1.39.89c-1.28.82-3.51,2.41-4.08,3.22-.58.82-1.86,4.27-2.54,6.26-.14.4-.51.66-.92.66Z" fill="#39cccc"/><path d="M168.45,148.39l-.81-1.87c-.69-1.61-2.03-4.43-2.65-5.15-.47-.55-2.59-1.82-3.94-2.55l-1.45-.78,1.39-.89c1.28-.82,3.51-2.41,4.08-3.22.58-.82,1.86-4.27,2.54-6.26.17-.51.72-.78,1.23-.6.51.17.78.72.6,1.23-.19.55-1.87,5.43-2.79,6.75-.61.87-2.15,2.04-3.3,2.84,1.12.65,2.54,1.56,3.1,2.21.61.71,1.5,2.47,2.14,3.84.76-1.37,1.8-3.15,2.45-3.82.62-.64,2.06-1.49,3.24-2.13-1.06-.53-2.29-1.15-2.72-1.43-.75-.49-1.76-2.28-2.29-3.31-.25-.47-.06-1.06.41-1.31.47-.25,1.06-.06,1.31.41.61,1.17,1.38,2.38,1.65,2.59.49.32,2.8,1.46,4.22,2.14l1.8.86-1.79.88c-1.38.67-3.8,1.99-4.43,2.64-.65.67-2.22,3.48-3.06,5.1l-.94,1.81Z" fill="#1b1464"/></g></g><g id="heart"><path d="M208.06,42.63c-3.77-3.77-8.56-5.15-15.75-5.15s-13.92,9.14-13.92,17c0,14.03,15.57,27.04,29.68,33.67" fill="#d4af37"/><path d="M208.06,42.63c3.77-3.77,8.66-5.15,15.85-5.15,6.94,0,13.92,9.14,13.92,17,0,14.03-15.66,27.04-29.77,33.67" fill="#d4af37"/></g></g></svg>