<?xml version="1.0" encoding="UTF-8"?><svg id="Download_Gray" xmlns="http://www.w3.org/2000/svg" width="256" height="256" viewBox="0 0 256 256"><g id="Downlaod"><path d="M243.34,92.42c-2.82,0-5.1,2.28-5.1,5.1v65.53c0,2.07-1.68,3.75-3.75,3.75H81.33c-2.82,0-5.1,2.28-5.1,5.1s2.28,5.1,5.1,5.1h33.19l-8.59,18.43-36.29.07c-3.01,0-5.45,2.74-5.44,6.09v.5c0,1.53.54,2.97,1.51,4.05.97,1.08,2.26,1.68,3.63,1.68h0l173.91-.35h.07l-.02-12.32-63.65.13-8.52-18.28h63.35c7.69,0,13.95-6.26,13.95-13.95v-65.53c0-2.82-2.28-5.1-5.1-5.1Z" fill="#6c757d"/><path d="M204.02,42.93c0-3.01-2.44-5.44-5.45-5.44H53.42c-8.56,0-15.53,6.41-15.53,14.29v68.46c0,3.01,2.44,5.45,5.44,5.45s5.44-2.44,5.44-5.45V51.78c0-1.84,2.13-3.4,4.64-3.4h145.15c3.01,0,5.45-2.44,5.45-5.45Z" fill="#6c757d"/><path d="M45.9,129.34c-15.73-.03-28.57,13.31-28.59,29.7,0,8.17,3.15,15.83,8.88,21.58,6.49,6.51,6.07,11.33,6.04,11.59-.15,1.08.6,2.07,1.68,2.23,1.09.16,2.1-.59,2.26-1.68.04-.28.91-6.87-7.16-14.96-4.98-4.99-7.72-11.66-7.72-18.76.01-14.2,11.05-25.72,24.61-25.73,13.55.01,24.57,11.58,24.55,25.78,0,9.05-4.8,15.73-8.81,19.74-6.36,6.35-5.97,12.48-5.73,14.11l-22.89,3.83c-.85.14-1.43.95-1.29,1.81.13.77.79,1.31,1.55,1.31.09,0,.17,0,.26-.02l24.17-4.05c.67-.11,1.17-.64,1.28-1.27.68-.44,1.05-1.26.87-2.09-.04-.21-1.03-5.2,4.59-10.8,4.55-4.54,9.97-12.14,9.98-22.55.02-16.4-12.78-29.75-28.53-29.76Z" fill="#6c757d"/><path d="M33.73,205.71c.08,0,.17,0,.25-.02l23.74-3.87c.86-.14,1.44-.95,1.3-1.8-.14-.86-.95-1.44-1.8-1.3l-23.74,3.87c-.86.14-1.44.95-1.3,1.8.13.77.79,1.32,1.55,1.32Z" fill="#6c757d"/><path d="M57.37,204.71l-23.79,3.54c-.86.13-1.45.93-1.32,1.78.12.78.79,1.34,1.55,1.34.08,0,.15,0,.23-.02l23.79-3.54c.86-.13,1.45-.93,1.32-1.78s-.93-1.45-1.78-1.32Z" fill="#6c757d"/><path d="M51.5,212.55c-1.91,1.91-4.22,2.94-6.51,2.91-1.89-.02-3.58-.77-4.89-2.15-.6-.63-1.59-.65-2.22-.06-.63.6-.65,1.59-.06,2.22,1.88,1.98,4.42,3.1,7.13,3.13.05,0,.09,0,.14,0,3.1,0,6.16-1.36,8.63-3.83.61-.61.61-1.61,0-2.22-.61-.61-1.61-.61-2.22,0Z" fill="#6c757d"/><path d="M36.89,140.05c-.44-.75-1.41-.99-2.15-.55-6.79,4.04-10.01,9.76-10.43,18.53-.04.87.63,1.6,1.49,1.64.03,0,.05,0,.08,0,.83,0,1.53-.65,1.57-1.49.37-7.71,3.03-12.49,8.9-15.99.74-.44.99-1.41.55-2.15Z" fill="#6c757d"/><path d="M69.98,135.4c.49,0,.98-.19,1.34-.58l11.21-11.82c.7-.74.67-1.91-.07-2.62s-1.91-.67-2.62.07l-11.21,11.82c-.7.74-.67,1.91.07,2.62.36.34.82.51,1.27.51Z" fill="#6c757d"/><path d="M56.89,127.45c.21.08.43.12.65.12.75,0,1.46-.46,1.73-1.2l5.71-15.26c.36-.96-.13-2.02-1.09-2.38-.96-.36-2.02.13-2.38,1.09l-5.71,15.26c-.36.96.13,2.02,1.09,2.38Z" fill="#6c757d"/><path d="M28.33,128.34c.34.59.97.93,1.6.93.31,0,.63-.08.92-.25.89-.51,1.19-1.64.68-2.53l-8.14-14.11c-.51-.89-1.64-1.19-2.53-.68-.89.51-1.19,1.64-.68,2.53l8.14,14.11Z" fill="#6c757d"/><path d="M94.15,137.05c-.4-.94-1.48-1.38-2.43-.99l-15.01,6.33c-.94.4-1.38,1.48-.99,2.43.3.71.98,1.13,1.71,1.13.24,0,.48-.05.72-.15l15.01-6.33c.94-.4,1.38-1.48.99-2.43Z" fill="#6c757d"/><path d="M96.74,155.37l-16.28.54c-1.02.03-1.82.89-1.79,1.91.03,1,.86,1.79,1.85,1.79.02,0,.04,0,.06,0l16.28-.54c1.02-.03,1.82-.89,1.79-1.91-.03-1.02-.89-1.82-1.91-1.79Z" fill="#6c757d"/><path d="M19.56,137.69c.52,0,1.04-.22,1.4-.64.67-.77.58-1.94-.19-2.61l-12.32-10.65c-.77-.67-1.94-.58-2.61.19-.67.77-.58,1.94.19,2.61l12.32,10.65c.35.3.78.45,1.21.45Z" fill="#6c757d"/><path d="M181.97,130.91c2.63-5.58,4.03-11.68,4.03-17.88,0-21.88-16.85-39.88-38.25-41.74v-.17h-7.33s0,.17,0,.17c-21.4,1.86-38.25,19.87-38.25,41.74,0,23.11,18.8,41.91,41.91,41.91,13.61,0,26.39-6.71,34.19-17.7l.16.09,1.85-3.17s.02-.05.04-.07l1.81-3.1-.15-.09ZM144.08,147.61c-19.07,0-34.58-15.51-34.58-34.58,0-17.83,13.56-32.55,30.91-34.39v36.49l14.79,8.63,16.73,9.77c-6.47,8.76-16.83,14.08-27.84,14.08Z" fill="#6c757d"/><path d="M245.96,66.84c-3.4-2.95-8.54-2.58-11.48.82l-9.88,11.4v-40.08c0-4.5-3.64-8.14-8.14-8.14s-8.14,3.64-8.14,8.14v39.99l-9.81-11.31c-2.95-3.4-8.09-3.76-11.48-.82-3.4,2.95-3.76,8.09-.82,11.48l23.74,27.37c.35.46.74.9,1.2,1.3,1.54,1.34,3.44,1.99,5.33,1.99,0,0,.01,0,.02,0,0,0,.01,0,.02,0,1.89,0,3.79-.65,5.33-1.99.46-.4.85-.83,1.2-1.3l23.74-27.37c2.95-3.4,2.58-8.54-.82-11.48Z" fill="#d4af37"/></g></svg>