<?xml version="1.0" encoding="UTF-8"?><svg id="Email_Dark" xmlns="http://www.w3.org/2000/svg" width="256" height="256" viewBox="0 0 256 256"><path d="M58.33,167.69c-.47,1.96-.71,3.58-.72,4.86-.02,1.28.16,2.28.52,3.01.37.73.89,1.24,1.57,1.52.68.28,1.47.42,2.37.42,1.3,0,2.52-.43,3.69-1.3,1.16-.86,2.17-2.07,3.04-3.61.86-1.54,1.54-3.37,2.04-5.48.5-2.11.75-4.41.75-6.9,0-4.22-.65-7.95-1.94-11.18-1.3-3.24-3.11-5.94-5.45-8.09-2.34-2.16-5.16-3.79-8.44-4.91-3.29-1.11-6.91-1.67-10.86-1.67-2.89,0-5.64.37-8.24,1.1-2.61.73-5.02,1.77-7.25,3.11-2.23,1.34-4.23,2.96-6.03,4.86-1.79,1.89-3.32,4-4.58,6.33-1.26,2.32-2.23,4.82-2.91,7.5-.68,2.67-1.02,5.47-1.02,8.39,0,5.38.83,10.11,2.49,14.2,1.66,4.08,3.94,7.49,6.85,10.21,2.91,2.72,6.33,4.77,10.29,6.15,3.95,1.38,8.24,2.07,12.85,2.07,2.59,0,4.99-.14,7.2-.42,2.21-.28,4.23-.66,6.08-1.12,1.84-.47,3.49-1,4.96-1.59,1.46-.6,2.74-1.21,3.84-1.84.96-.53,1.8-.69,2.52-.47.71.22,1.24.76,1.57,1.62l1.89,4.83c-3.42,2.26-7.45,4.1-12.08,5.53-4.63,1.43-9.96,2.14-15.97,2.14s-11.76-.95-16.94-2.86c-5.18-1.91-9.66-4.65-13.42-8.22-3.77-3.57-6.72-7.9-8.84-13-2.13-5.1-3.19-10.83-3.19-17.21,0-3.52.46-6.96,1.39-10.31.93-3.35,2.24-6.51,3.94-9.46,1.69-2.96,3.74-5.67,6.15-8.14,2.41-2.47,5.09-4.6,8.04-6.38,2.96-1.78,6.15-3.16,9.59-4.16,3.44-1,7.05-1.49,10.83-1.49,3.15,0,6.25.36,9.29,1.07,3.04.71,5.91,1.76,8.62,3.14,2.71,1.38,5.2,3.07,7.47,5.08,2.27,2.01,4.23,4.29,5.88,6.85,1.64,2.56,2.92,5.37,3.84,8.44.91,3.07,1.37,6.38,1.37,9.94s-.53,6.88-1.59,9.99c-1.06,3.11-2.54,5.82-4.43,8.14-1.89,2.32-4.14,4.15-6.75,5.48-2.61,1.33-5.45,1.99-8.54,1.99-2.19,0-4.18-.5-5.98-1.49-1.79-1-3.09-2.64-3.89-4.93-1.96,2.29-4.03,3.93-6.2,4.91-2.18.98-4.53,1.47-7.05,1.47-2.13,0-3.98-.36-5.55-1.1-1.58-.73-2.9-1.75-3.96-3.06-1.06-1.31-1.86-2.86-2.39-4.66-.53-1.79-.8-3.74-.8-5.83,0-1.89.24-3.81.72-5.75.48-1.94,1.2-3.82,2.17-5.63.96-1.81,2.17-3.51,3.64-5.11,1.46-1.59,3.17-2.98,5.13-4.16,1.96-1.18,4.18-2.11,6.65-2.79,2.47-.68,5.22-1.02,8.24-1.02,1.36,0,2.61.05,3.74.15,1.13.1,2.19.25,3.19.45,1,.2,1.93.45,2.81.75.88.3,1.77.63,2.67,1l-4.83,18.68ZM51.36,155.29c-.47-.07-.94-.12-1.42-.15-.48-.03-.97-.05-1.47-.05-1.89,0-3.67.42-5.33,1.27-1.66.85-3.11,1.99-4.36,3.44-1.25,1.44-2.23,3.11-2.94,5.01-.71,1.89-1.07,3.89-1.07,5.98s.41,3.63,1.25,4.71c.83,1.08,2.04,1.62,3.64,1.62.8,0,1.59-.12,2.39-.37s1.56-.68,2.29-1.3c.73-.61,1.39-1.43,1.97-2.44.58-1.01,1.07-2.3,1.47-3.86l3.59-13.85Z" fill="#54595f" stroke="#54595f" stroke-miterlimit="10" stroke-width=".12"/><path d="M224.18,200.44s-.01,0-.02,0l-141.21-.49c-3.17-.01-5.73-2.59-5.72-5.76.01-3.17,2.55-5.72,5.76-5.72l135.45.47v-63.82c0-3.17,2.57-5.74,5.74-5.74s5.74,2.57,5.74,5.74v69.58c0,1.53-.61,2.99-1.69,4.06-1.08,1.07-2.53,1.67-4.05,1.67Z" fill="#54595f"/><path d="M136.93,161.4c-.82,0-1.64-.19-2.39-.57l-83.14-41.94c-1.79-.9-2.92-2.74-2.92-4.74v-24.84c0-1.41.56-2.76,1.56-3.76,1-1,2.36-1.56,3.76-1.55l136.09.22c2.93,0,5.31,2.39,5.3,5.32,0,2.93-2.43,5.32-5.32,5.3l-130.77-.21v16.25l77.95,39.32,72.6-33.04c2.67-1.22,5.82-.04,7.04,2.63,1.22,2.67.04,5.82-2.63,7.04l-74.92,34.1c-.7.32-1.45.48-2.2.48Z" fill="#54595f"/><path d="M250.5,94.95h-20.71v22.08h-12.21v-22.08h-20.61v-10.96h20.61v-22.02h12.21v22.02h20.71v10.96Z" fill="#d4af37"/></svg>