<?xml version="1.0" encoding="UTF-8"?><svg id="Expertise_White" xmlns="http://www.w3.org/2000/svg" width="256" height="256" viewBox="0 0 256 256"><g id="Expertise"><path d="M233.21,93.14c-2.74,0-4.96,2.22-4.96,4.96v68.94c0,2.4-1.81,4.35-4.04,4.35H68.5c-2.74,0-4.96,2.22-4.96,4.96s2.22,4.96,4.96,4.96h29.86l-9.41,21.03-64.17.12h-.07l-.06,12.86v.07s205.57-.36,205.57-.36h.07l-.02-12.97-64.34.12-9.35-20.88h67.64c7.69,0,13.96-6.4,13.96-14.27v-68.94c0-2.74-2.22-4.96-4.96-4.96Z" fill="#fff"/><path d="M27.72,134.71V51.44c0-3.21,2.54-5.83,5.66-5.83h152.37c2.73,0,4.93-2.21,4.93-4.93s-2.21-4.93-4.93-4.93H33.38c-8.56,0-15.52,7.04-15.52,15.7v83.27c0,2.73,2.21,4.93,4.93,4.93s4.93-2.21,4.93-4.93Z" fill="#fff"/><g id="Play_Button-2"><path d="M31.44,200.88c-16.48,0-29.89-13.41-29.89-29.89s13.41-29.89,29.89-29.89,29.89,13.41,29.89,29.89-13.41,29.89-29.89,29.89ZM31.44,147.11c-13.17,0-23.88,10.71-23.88,23.88s10.71,23.88,23.88,23.88,23.88-10.71,23.88-23.88-10.71-23.88-23.88-23.88Z" fill="#fff"/><path d="M26.83,181.98c-.52,0-1.04-.13-1.5-.4-.93-.54-1.5-1.53-1.5-2.6v-15.97c0-1.07.57-2.07,1.5-2.6.93-.54,2.08-.54,3.01,0l13.83,7.98c.93.54,1.5,1.53,1.5,2.6s-.57,2.07-1.5,2.6l-13.83,7.98c-.46.27-.98.4-1.5.4ZM29.83,168.21v5.56l4.81-2.78-4.81-2.78Z" fill="#fff"/></g><path d="M128.94,90.22h-.02c-9.79,0-17.75,8.28-17.77,18.48,0,5.08,1.96,9.85,5.52,13.42,4.04,4.05,3.77,7.05,3.76,7.21-.09.67.38,1.29,1.05,1.39.68.1,1.31-.37,1.41-1.04.03-.17.57-4.27-4.46-9.31-3.1-3.11-4.8-7.25-4.8-11.67,0-8.83,6.87-16,15.29-16h.02c4.07,0,7.9,1.67,10.79,4.68,2.9,3.03,4.49,7.06,4.49,11.35,0,5.63-2.99,9.78-5.48,12.28-3.96,3.95-3.71,7.76-3.56,8.78l-14.24,2.39c-.53.09-.89.59-.8,1.12.08.48.49.82.96.82.05,0,.11,0,.16-.01l15.03-2.52c.42-.07.72-.4.79-.8.42-.27.66-.78.55-1.3-.03-.13-.64-3.24,2.85-6.72,2.83-2.82,6.2-7.55,6.21-14.03,0-4.93-1.83-9.57-5.17-13.06-3.35-3.51-7.82-5.44-12.57-5.45Z" fill="#fff"/><path d="M121.38,137.72c.05,0,.11,0,.16-.01l14.77-2.41c.53-.09.89-.59.81-1.12-.09-.53-.59-.89-1.12-.81l-14.77,2.41c-.53.09-.89.59-.81,1.12.08.48.49.82.96.82Z" fill="#fff"/><path d="M136.08,137.11l-14.8,2.2c-.53.08-.9.58-.82,1.11.07.48.49.83.96.83.05,0,.1,0,.15-.01l14.8-2.2c.53-.08.9-.58.82-1.11-.08-.53-.58-.91-1.11-.82Z" fill="#fff"/><path d="M132.43,141.98c-1.19,1.19-2.62,1.84-4.05,1.81-1.17-.02-2.23-.48-3.04-1.34-.37-.39-.99-.41-1.38-.04-.39.37-.41.99-.04,1.38,1.17,1.23,2.75,1.93,4.43,1.95.03,0,.06,0,.09,0,1.93,0,3.83-.84,5.37-2.38.38-.38.38-1,0-1.38-.38-.38-1-.38-1.38,0Z" fill="#fff"/><path d="M123.34,96.89c-.28-.46-.88-.62-1.34-.34-4.22,2.51-6.22,6.07-6.49,11.53-.03.54.39,1,.93,1.02.02,0,.03,0,.05,0,.52,0,.95-.41.97-.93.23-4.8,1.89-7.77,5.54-9.94.46-.28.62-.88.34-1.34Z" fill="#fff"/><path d="M106.32,107.55l-10.13-.02h0c-.64,0-1.15.51-1.15,1.15,0,.64.51,1.15,1.15,1.15l10.13.02h0c.64,0,1.15-.51,1.15-1.15,0-.64-.51-1.15-1.15-1.15Z" fill="#fff"/><path d="M108.38,99.08l-9.45-3.64c-.59-.23-1.26.07-1.49.66-.23.59.07,1.26.66,1.49l9.45,3.64c.14.05.28.08.41.08.46,0,.9-.28,1.07-.74.23-.59-.07-1.26-.66-1.49Z" fill="#fff"/><path d="M111.59,94.27c.22.22.52.33.81.33s.59-.11.82-.34c.45-.45.44-1.18,0-1.63l-7.2-7.13c-.45-.45-1.18-.45-1.63,0-.45.45-.44,1.18,0,1.63l7.2,7.13Z" fill="#fff"/><path d="M118.92,88.78c.18.45.61.71,1.07.71.15,0,.29-.03.44-.09.59-.24.87-.91.63-1.5l-3.84-9.38c-.24-.59-.91-.87-1.5-.63-.59.24-.87.91-.63,1.5l3.84,9.38Z" fill="#fff"/><path d="M128.98,87.69c.64,0,1.15-.52,1.15-1.15v-12.81c0-.64-.52-1.15-1.15-1.15s-1.15.52-1.15,1.15v12.81c0,.64.52,1.15,1.15,1.15Z" fill="#fff"/><path d="M159.81,106.95h0l-10.13.02c-.64,0-1.15.52-1.15,1.15,0,.64.52,1.15,1.15,1.15h0l10.13-.02c.64,0,1.15-.52,1.15-1.15,0-.64-.52-1.15-1.15-1.15Z" fill="#fff"/><path d="M158.56,95.51c-.23-.59-.9-.89-1.49-.66l-9.45,3.64c-.59.23-.89.9-.66,1.49.18.46.61.74,1.08.74.14,0,.28-.02.41-.08l9.45-3.64c.59-.23.89-.9.66-1.49Z" fill="#fff"/><path d="M143.6,94.02c.29,0,.59-.11.81-.33l7.2-7.13c.45-.45.46-1.18,0-1.63-.45-.45-1.18-.46-1.63,0l-7.2,7.13c-.45.45-.46,1.18,0,1.63.23.23.52.34.82.34Z" fill="#fff"/><path d="M135.58,88.83c.14.06.29.09.44.09.45,0,.88-.27,1.07-.71l3.84-9.38c.24-.59-.04-1.26-.63-1.5-.59-.24-1.26.04-1.5.63l-3.84,9.38c-.24.59.04,1.26.63,1.5Z" fill="#fff"/><path d="M221.88,52.67c1.56.46,3.12.95,4.68,1.49,1.56.54,3.05,1.14,4.48,1.83,1.43.68,2.76,1.48,3.99,2.39,1.23.91,2.31,1.97,3.24,3.19s1.65,2.62,2.17,4.21c.52,1.59.78,3.41.78,5.46,0,3.02-.51,5.87-1.53,8.55-1.02,2.68-2.52,5.05-4.5,7.11-1.98,2.06-4.4,3.74-7.26,5.04-2.86,1.3-6.14,2.08-9.84,2.34l-.58,6.62c-.07.84-.42,1.61-1.07,2.29-.65.68-1.49,1.02-2.53,1.02h-4.92l.93-10.28c-1.85-.26-3.68-.66-5.48-1.19-1.8-.54-3.53-1.19-5.19-1.95s-3.21-1.62-4.68-2.58-2.78-2-3.94-3.14l4.14-6.09c.36-.52.84-.95,1.46-1.29.62-.34,1.25-.51,1.9-.51.75,0,1.53.23,2.34.68.81.46,1.71,1,2.7,1.63.99.63,2.11,1.27,3.36,1.92,1.25.65,2.7,1.15,4.36,1.51l1.85-20.21c-1.56-.42-3.11-.9-4.65-1.44-1.54-.54-3.03-1.16-4.46-1.88-1.43-.71-2.75-1.55-3.97-2.51-1.22-.96-2.28-2.1-3.19-3.43-.91-1.33-1.62-2.87-2.14-4.6-.52-1.74-.78-3.74-.78-6.01,0-2.53.5-4.99,1.51-7.38,1.01-2.39,2.48-4.52,4.41-6.4,1.93-1.88,4.31-3.43,7.13-4.65,2.82-1.22,6.07-1.92,9.74-2.12l.54-5.79c.06-.84.43-1.6,1.1-2.26.67-.67,1.5-1,2.51-1h4.97l-.88,9.55c3.51.62,6.51,1.62,9.01,3.02,2.5,1.4,4.64,2.97,6.43,4.72l-3.31,4.87c-.46.75-.94,1.29-1.46,1.63-.52.34-1.14.51-1.85.51-.49,0-1.06-.14-1.73-.41-.67-.28-1.4-.62-2.22-1.02-.81-.41-1.71-.82-2.7-1.24-.99-.42-2.04-.78-3.14-1.07l-1.7,18.9ZM215.36,33.48c-1.66.23-3.07.59-4.24,1.1-1.17.5-2.12,1.11-2.85,1.83-.73.71-1.27,1.5-1.61,2.36-.34.86-.51,1.78-.51,2.75,0,1.1.19,2.09.56,2.95.37.86.9,1.63,1.58,2.31.68.68,1.49,1.29,2.44,1.83.94.54,1.98,1.02,3.12,1.44l1.51-16.56ZM219.11,83.16c3.12-.45,5.45-1.52,7.01-3.19,1.56-1.67,2.34-3.9,2.34-6.7,0-1.1-.19-2.07-.58-2.9-.39-.83-.93-1.57-1.61-2.22-.68-.65-1.49-1.23-2.44-1.73-.94-.5-1.96-.95-3.07-1.34l-1.66,18.07Z" fill="#d4af37"/></g></svg>