<?xml version="1.0" encoding="UTF-8"?><svg id="Acceleration_Dark" xmlns="http://www.w3.org/2000/svg" width="256" height="256" viewBox="0 0 256 256"><g id="Accelerate"><path d="M238.48,99.05c-2.82,0-5.1,2.28-5.1,5.1v65.53c0,2.07-1.68,3.75-3.75,3.75H76.47c-2.82,0-5.1,2.28-5.1,5.1s2.28,5.1,5.1,5.1h30.56l-6.24,18.5-36.02.07c-2.97,0-5.38,2.7-5.38,6.03v.5c0,3.13,2.28,5.67,5.09,5.66l173.91-.34-.02-12.19-63.3.13-6.19-18.35h60.73c7.69,0,13.95-6.26,13.95-13.95v-65.53c0-2.82-2.28-5.1-5.1-5.1Z" fill="#54595f"/><path d="M199.16,49.57c0-3.01-2.44-5.44-5.45-5.44H48.56c-8.56,0-15.53,6.41-15.53,14.29v68.46c0,3.01,2.44,5.44,5.44,5.44s5.44-2.44,5.44-5.44V58.42c0-1.84,2.13-3.4,4.64-3.4h145.15c3.01,0,5.45-2.44,5.45-5.44Z" fill="#54595f"/><path d="M161.97,142.44c-.02-.28-.11-.55-.17-.79l-9.66-15.34c.17-2.8.25-5.7.25-8.66-.34-20.75-10.39-44.18-13.74-48.58-.37-.46-.91-.46-1.28,0-3.38,4.42-13.76,27.3-13.76,48.58,0,2.95.09,5.83.25,8.62l-9.62,15.29c-.15.32-.24.59-.26.87l-1.2,17.39c-.04.54.6.87,1.1.52l13.56-11.37h0,21.14c.02-.06.04-.13.05-.19l-.03.19,13.56,11.37c.42.35,1.05.03,1.02-.52l-1.21-17.39Z" fill="#54595f" stroke="#54595f" stroke-miterlimit="10" stroke-width="8"/><path d="M248.91,72.27l-23.74-27.37c-.35-.46-.74-.9-1.2-1.29-1.17-1.02-2.55-1.63-3.98-1.87-.02,0-.05,0-.08-.01-.21-.03-.41-.06-.62-.07-.08,0-.15-.01-.23-.02-.16,0-.31-.01-.47-.01-.13,0-.26,0-.39,0-.1,0-.2.01-.31.02-.18.02-.36.04-.55.07-.05,0-.1.02-.15.03-.23.04-.46.09-.68.15,0,0,0,0-.01,0-1.16.31-2.28.87-3.25,1.71-.46.39-.85.83-1.2,1.29l-23.74,27.37c-2.95,3.4-2.58,8.54.82,11.48,1.54,1.34,3.44,1.99,5.33,1.99,2.28,0,4.54-.95,6.15-2.81l9.88-11.39v40.08c0,4.5,3.65,8.14,8.14,8.14s8.14-3.64,8.14-8.14v-39.99l9.81,11.31c1.61,1.86,3.88,2.81,6.15,2.81,1.89,0,3.79-.66,5.33-1.99,3.4-2.95,3.76-8.09.82-11.48Z" fill="#d4af37"/><g id="Momentum"><path d="M68.95,166.2c-1.64-.25-3.17.87-3.42,2.51-1.44,9.27-8.23,16.78-17.3,19.14-6.07,1.58-12.39.7-17.8-2.47-4.14-2.43-7.36-5.99-9.36-10.25l2.16,1.48c.52.36,1.11.53,1.7.53.96,0,1.89-.46,2.48-1.3.94-1.37.59-3.23-.78-4.17l-8.49-5.83s-.04-.02-.06-.04l-.11-.08s-.06-.03-.08-.05c-.09-.06-.17-.12-.27-.17-.04-.02-.09-.03-.13-.05-.06-.02-.11-.04-.17-.06-.13-.05-.26-.09-.39-.12-.06-.01-.12-.02-.18-.03-.13-.02-.26-.04-.39-.04-.07,0-.14,0-.21,0-.12,0-.23.01-.35.03-.09.01-.17.04-.26.06-.09.02-.19.05-.28.08-.1.04-.2.09-.3.13-.07.03-.14.07-.21.11-.11.06-.21.14-.31.22-.05.04-.11.08-.16.12-.1.09-.19.19-.28.29-.04.05-.08.09-.12.14-.03.04-.06.07-.09.1-.06.09-.11.19-.16.29-.01.03-.03.05-.05.08l-.06.12s-.02.04-.03.07l-4.57,9.23c-.73,1.48-.13,3.28,1.36,4.02.43.21.88.31,1.33.31,1.1,0,2.17-.61,2.69-1.67l.99-2.01c4.7,10.78,15.42,17.68,27.01,17.68,2.45,0,4.95-.31,7.43-.96,11.39-2.97,19.91-12.4,21.71-24.03.25-1.64-.87-3.17-2.51-3.42Z" fill="#54595f"/><path d="M74.47,153.98c.73-1.48.13-3.28-1.36-4.02-1.48-.74-3.28-.13-4.02,1.36l-.98,1.99c-2.47-5.68-6.65-10.42-12.09-13.61-6.79-3.99-14.73-5.09-22.35-3.1-11.39,2.97-19.91,12.4-21.71,24.03-.25,1.64.87,3.17,2.51,3.42.16.02.31.04.46.04,1.45,0,2.73-1.06,2.96-2.54,1.44-9.27,8.23-16.78,17.3-19.14,6.07-1.58,12.39-.7,17.8,2.47,4.14,2.43,7.36,5.99,9.36,10.25l-2.16-1.48c-1.37-.94-3.23-.59-4.17.78-.94,1.37-.59,3.23.78,4.17l8.49,5.83s.04.02.05.04l.11.08s.09.05.14.08c.07.04.14.1.22.14.02.01.04.01.06.02.16.08.33.13.5.18.07.02.14.03.21.05.16.03.32.05.48.05.03,0,.05,0,.08,0,.22,0,.44-.03.66-.08.03,0,.06-.01.09-.02.19-.05.38-.12.56-.21.05-.02.1-.05.14-.07.17-.09.33-.2.48-.33.04-.04.08-.08.13-.12.13-.12.25-.26.36-.41.02-.03.04-.04.06-.07.05-.07.07-.14.11-.21.03-.05.06-.1.09-.15l.06-.12s.02-.04.03-.06l4.57-9.23Z" fill="#54595f"/></g></g></svg>