<?xml version="1.0" encoding="UTF-8"?><svg id="Dana_White" xmlns="http://www.w3.org/2000/svg" width="256" height="256" viewBox="0 0 256 256"><g id="Dana"><polygon points="129.54 113.77 138.4 136.4 170.4 103.35 173.42 106.17 178.67 89.89 162.8 96.25 165.73 98.99 140.72 124.81 132.58 104.03 80.27 139.14 83.83 144.45 129.54 113.77" fill="#fff"/><path d="M182.2,153.43h-106.51v-71.87c0-1.13-.92-2.04-2.04-2.04s-2.04.92-2.04,2.04v75.95h110.6c1.13,0,2.04-.91,2.04-2.04s-.92-2.04-2.04-2.04Z" fill="#fff"/><path d="M213.94,174.66c7.7,0,13.97-6.31,13.97-14.06v-67.08c0-2.76-2.24-5-5-5s-5,2.24-5,5v67.08c0,2.24-1.78,4.06-3.97,4.06H58.69c-2.76,0-5,2.24-5,5s2.24,5,5,5h42.23l-8.22,17.37-23.36.05c-2.68,0-4.85,2.6-4.84,5.78v.48c0,1.45.48,2.82,1.34,3.85.86,1.03,2.01,1.59,3.24,1.59h0l154.75-.33h.06l-.02-11.7-61.78.13-8.15-17.23h60Z" fill="#fff"/><path d="M138.78,47.16c0-2.76-2.24-5-5-5H39.46c-6.37,0-11.56,6.01-11.56,13.4v65.03c0,2.76,2.24,5,5,5s5-2.24,5-5V55.56c0-2.2,1.17-3.4,1.56-3.4h94.32c2.76,0,5-2.24,5-5Z" fill="#fff"/><path d="M60.42,192.54c0-11.67-9.46-21.13-21.13-21.13s-21.13,9.46-21.13,21.13l1.53,32.08h39.27l1.46-32.08Z" fill="#fff" stroke="#fff" stroke-miterlimit="10" stroke-width="3.1"/><circle cx="39.29" cy="146.91" r="17.71" fill="#fff" stroke="#fff" stroke-miterlimit="10" stroke-width="3.1"/><g id="Exit_Sign"><path d="M157.62,48.41v7.09h9.19v4.31h-9.19v7.24h11.82v4.46h-17.55v-27.56h17.55v4.46h-11.82Z" fill="#d4af37"/><path d="M196.65,71.51h-5.7c-.38,0-.69-.09-.92-.28-.23-.19-.42-.41-.56-.66l-5.96-10.14c-.06.14-.12.28-.18.41-.06.13-.12.26-.2.37l-5.66,9.36c-.16.24-.36.46-.58.66-.22.2-.5.29-.85.29h-5.32l9.02-14.19-8.68-13.37h5.7c.38,0,.66.05.84.15.18.1.34.27.47.49l5.93,9.74c.06-.15.13-.31.21-.47.08-.16.16-.32.27-.48l5.32-8.7c.15-.25.32-.44.5-.56.18-.12.41-.18.67-.18h5.45l-8.76,13.13,8.98,14.44Z" fill="#d4af37"/><path d="M205.24,71.51h-5.74v-27.56h5.74v27.56Z" fill="#d4af37"/><path d="M230.52,48.54h-8.05v22.97h-5.72v-22.97h-8.05v-4.6h21.83v4.6Z" fill="#d4af37"/><path d="M237.84,86.1h-94.36c-1.47,0-2.66-1.19-2.66-2.66V31.32c0-1.47,1.19-2.66,2.66-2.66h94.36c1.47,0,2.66,1.19,2.66,2.66v52.13c0,1.47-1.19,2.66-2.66,2.66ZM146.13,80.79h89.05v-46.81h-89.05v46.81Z" fill="#d4af37"/></g></g></svg>