<?xml version="1.0" encoding="UTF-8"?><svg id="Email_Gray" xmlns="http://www.w3.org/2000/svg" width="256" height="256" viewBox="0 0 256 256"><path d="M58.11,167.82c-.47,1.97-.71,3.59-.72,4.87-.02,1.28.16,2.29.52,3.02.37.73.89,1.24,1.57,1.52.68.28,1.47.42,2.37.42,1.3,0,2.53-.43,3.7-1.3,1.17-.87,2.18-2.07,3.05-3.62.87-1.55,1.55-3.38,2.05-5.5.5-2.12.75-4.42.75-6.92,0-4.23-.65-7.97-1.95-11.22-1.3-3.25-3.12-5.95-5.47-8.12-2.35-2.17-5.17-3.81-8.47-4.92-3.3-1.12-6.93-1.67-10.89-1.67-2.9,0-5.66.37-8.27,1.1-2.62.73-5.04,1.77-7.27,3.12-2.23,1.35-4.25,2.97-6.05,4.87s-3.33,4.02-4.6,6.35c-1.27,2.33-2.24,4.84-2.92,7.52-.68,2.68-1.02,5.49-1.02,8.42,0,5.4.83,10.14,2.5,14.24,1.67,4.1,3.96,7.51,6.87,10.24,2.91,2.73,6.35,4.79,10.32,6.17,3.96,1.38,8.26,2.07,12.89,2.07,2.6,0,5.01-.14,7.22-.42,2.22-.28,4.25-.66,6.1-1.12,1.85-.47,3.51-1,4.97-1.6,1.47-.6,2.75-1.22,3.85-1.85.97-.53,1.81-.69,2.52-.47.72.22,1.24.76,1.57,1.62l1.9,4.85c-3.43,2.27-7.47,4.11-12.12,5.55-4.65,1.43-9.99,2.15-16.02,2.15s-11.79-.96-16.99-2.87c-5.2-1.92-9.69-4.66-13.47-8.25-3.78-3.58-6.74-7.93-8.87-13.04-2.13-5.11-3.2-10.87-3.2-17.27,0-3.53.47-6.98,1.4-10.34.93-3.36,2.25-6.53,3.95-9.5,1.7-2.96,3.76-5.69,6.17-8.17,2.42-2.48,5.11-4.61,8.07-6.4,2.96-1.78,6.17-3.17,9.62-4.17,3.45-1,7.07-1.5,10.87-1.5,3.16,0,6.27.36,9.32,1.07,3.05.72,5.93,1.77,8.65,3.15,2.72,1.38,5.21,3.08,7.5,5.1,2.28,2.02,4.25,4.31,5.9,6.87,1.65,2.57,2.93,5.39,3.85,8.47.92,3.08,1.37,6.41,1.37,9.97s-.53,6.91-1.6,10.02c-1.07,3.12-2.55,5.84-4.45,8.17-1.9,2.33-4.16,4.17-6.77,5.5-2.62,1.33-5.47,2-8.57,2-2.2,0-4.2-.5-6-1.5-1.8-1-3.1-2.65-3.9-4.95-1.97,2.3-4.04,3.94-6.22,4.92-2.18.98-4.54,1.47-7.07,1.47-2.13,0-3.99-.37-5.57-1.1-1.58-.73-2.91-1.76-3.97-3.07-1.07-1.32-1.87-2.87-2.4-4.67-.53-1.8-.8-3.75-.8-5.85,0-1.9.24-3.82.72-5.77.48-1.95,1.21-3.83,2.17-5.65.97-1.82,2.18-3.52,3.65-5.12,1.47-1.6,3.18-2.99,5.15-4.17,1.97-1.18,4.19-2.12,6.67-2.8,2.48-.68,5.24-1.02,8.27-1.02,1.37,0,2.62.05,3.75.15,1.13.1,2.2.25,3.2.45s1.94.45,2.82.75c.88.3,1.77.63,2.67,1l-4.85,18.74ZM51.11,155.38c-.47-.07-.94-.12-1.42-.15-.48-.03-.97-.05-1.47-.05-1.9,0-3.68.42-5.35,1.27-1.67.85-3.12,2-4.37,3.45-1.25,1.45-2.23,3.12-2.95,5.02-.72,1.9-1.07,3.9-1.07,6s.42,3.64,1.25,4.72c.83,1.08,2.05,1.62,3.65,1.62.8,0,1.6-.12,2.4-.37.8-.25,1.57-.68,2.3-1.3.73-.62,1.39-1.43,1.97-2.45.58-1.02,1.07-2.31,1.47-3.87l3.6-13.89Z" fill="#6c757d"/><path d="M47.06,207.26c-6.11,0-11.83-.97-17.01-2.88-5.18-1.91-9.72-4.69-13.49-8.26-3.77-3.57-6.76-7.96-8.88-13.06-2.13-5.1-3.2-10.91-3.2-17.29,0-3.52.47-7.01,1.4-10.36.93-3.35,2.26-6.55,3.95-9.51,1.69-2.96,3.77-5.71,6.18-8.18,2.41-2.47,5.13-4.63,8.08-6.41,2.96-1.78,6.2-3.18,9.63-4.18,3.44-1,7.1-1.5,10.89-1.5,3.15,0,6.29.36,9.33,1.08,3.04.71,5.95,1.78,8.66,3.15,2.71,1.38,5.23,3.1,7.51,5.11,2.28,2.01,4.26,4.33,5.91,6.88,1.64,2.56,2.94,5.41,3.85,8.48.91,3.07,1.38,6.43,1.38,9.99s-.54,6.93-1.6,10.04c-1.06,3.11-2.56,5.86-4.46,8.19-1.9,2.33-4.18,4.18-6.79,5.51-2.61,1.33-5.5,2.01-8.6,2.01-2.2,0-4.22-.51-6.02-1.51-1.78-.99-3.09-2.63-3.89-4.89-1.95,2.26-4.02,3.89-6.18,4.86-2.18.98-4.57,1.48-7.09,1.48-2.13,0-4.01-.37-5.6-1.1-1.58-.73-2.93-1.77-3.99-3.09-1.07-1.32-1.88-2.89-2.41-4.69-.53-1.79-.8-3.77-.8-5.86,0-1.9.24-3.84.73-5.79.48-1.94,1.21-3.85,2.18-5.66.96-1.81,2.19-3.54,3.66-5.13,1.46-1.6,3.2-3,5.16-4.18,1.96-1.18,4.21-2.12,6.69-2.8,2.48-.68,5.26-1.03,8.29-1.03,1.36,0,2.62.05,3.75.15,1.13.1,2.21.25,3.2.45,1,.2,1.95.45,2.83.75.88.3,1.78.64,2.68,1l.05.02-4.86,18.79c-.46,1.95-.71,3.59-.72,4.86-.02,1.27.16,2.28.52,3,.36.72.88,1.22,1.55,1.5.67.28,1.46.42,2.35.42,1.28,0,2.51-.43,3.66-1.29,1.15-.86,2.17-2.07,3.03-3.61.86-1.54,1.55-3.38,2.04-5.48.5-2.1.75-4.43.75-6.91,0-4.2-.65-7.97-1.94-11.2-1.29-3.22-3.13-5.95-5.46-8.1-2.33-2.15-5.17-3.8-8.45-4.91-3.28-1.11-6.94-1.67-10.88-1.67-2.88,0-5.66.37-8.26,1.1-2.6.73-5.04,1.78-7.26,3.12-2.22,1.34-4.25,2.98-6.04,4.86-1.79,1.89-3.33,4.02-4.59,6.34-1.26,2.32-2.24,4.84-2.92,7.51-.68,2.66-1.02,5.49-1.02,8.41,0,5.37.84,10.15,2.49,14.22,1.66,4.07,3.96,7.51,6.86,10.23,2.9,2.71,6.36,4.79,10.3,6.16,3.94,1.37,8.27,2.07,12.88,2.07,2.58,0,5.01-.14,7.21-.42,2.2-.28,4.25-.66,6.09-1.12,1.84-.46,3.51-1,4.97-1.6,1.46-.6,2.75-1.22,3.84-1.85.98-.54,1.84-.7,2.57-.48.73.22,1.27.78,1.61,1.66l1.92,4.89-.04.02c-3.42,2.26-7.5,4.13-12.13,5.55-4.63,1.43-10.03,2.15-16.03,2.15ZM44.62,125.75c-3.78,0-7.43.5-10.85,1.5-3.43.99-6.66,2.4-9.61,4.17-2.95,1.77-5.66,3.92-8.06,6.39-2.4,2.47-4.47,5.21-6.16,8.16-1.69,2.95-3.02,6.14-3.94,9.48-.93,3.34-1.4,6.82-1.4,10.33,0,6.36,1.07,12.16,3.19,17.24,2.12,5.08,5.1,9.47,8.86,13.02,3.76,3.56,8.28,6.33,13.45,8.23,5.17,1.9,10.88,2.87,16.97,2.87s11.38-.72,16-2.15c4.6-1.42,8.66-3.27,12.07-5.52l-1.88-4.81c-.33-.85-.84-1.38-1.54-1.59-.7-.21-1.53-.05-2.48.47-1.09.63-2.39,1.25-3.85,1.85-1.46.6-3.14,1.14-4.98,1.6-1.84.46-3.9.84-6.1,1.13-2.21.28-4.64.43-7.23.43-4.61,0-8.96-.7-12.91-2.08-3.95-1.38-7.43-3.46-10.34-6.18-2.91-2.72-5.22-6.18-6.89-10.26-1.66-4.08-2.5-8.88-2.5-14.26,0-2.92.35-5.76,1.03-8.43.68-2.67,1.67-5.21,2.93-7.53,1.26-2.33,2.81-4.46,4.61-6.36,1.79-1.89,3.83-3.54,6.06-4.88,2.22-1.35,4.68-2.4,7.29-3.13,2.61-.73,5.4-1.1,8.29-1.1,3.95,0,7.62.56,10.91,1.68,3.29,1.11,6.15,2.77,8.49,4.93,2.34,2.16,4.19,4.9,5.49,8.14,1.3,3.24,1.95,7.02,1.95,11.24,0,2.49-.25,4.82-.75,6.93-.5,2.11-1.19,3.96-2.05,5.51-.87,1.55-1.9,2.77-3.06,3.64-1.17.87-2.43,1.31-3.73,1.31-.9,0-1.71-.14-2.4-.43-.69-.29-1.23-.81-1.6-1.55-.37-.74-.55-1.76-.53-3.05.02-1.28.26-2.93.73-4.88h0s4.84-18.69,4.84-18.69c-.88-.36-1.76-.69-2.63-.98-.88-.3-1.82-.55-2.82-.75-.99-.2-2.07-.35-3.19-.45-1.13-.1-2.39-.15-3.74-.15-3.01,0-5.79.34-8.26,1.02-2.47.68-4.71,1.62-6.66,2.79-1.95,1.17-3.68,2.58-5.14,4.16-1.46,1.59-2.68,3.31-3.64,5.11-.96,1.8-1.69,3.7-2.17,5.63-.48,1.93-.72,3.87-.72,5.76,0,2.08.27,4.05.8,5.83.53,1.78,1.33,3.35,2.39,4.65,1.06,1.3,2.39,2.33,3.95,3.06,1.57.73,3.43,1.09,5.55,1.09,2.51,0,4.88-.49,7.05-1.47,2.16-.97,4.25-2.63,6.2-4.91l.06-.07.03.09c.79,2.27,2.09,3.93,3.87,4.92,1.78.99,3.79,1.49,5.97,1.49,3.08,0,5.95-.67,8.55-1.99,2.6-1.32,4.87-3.17,6.75-5.48,1.89-2.31,3.38-5.06,4.44-8.15,1.06-3.1,1.6-6.46,1.6-10s-.46-6.89-1.37-9.95c-.91-3.06-2.2-5.91-3.84-8.46-1.64-2.55-3.62-4.86-5.89-6.86-2.27-2-4.79-3.72-7.48-5.09-2.7-1.37-5.6-2.43-8.63-3.14-3.03-.71-6.16-1.07-9.31-1.07ZM39.37,177.32c-1.61,0-2.85-.55-3.69-1.65-.84-1.09-1.26-2.69-1.26-4.76s.36-4.12,1.08-6.02c.71-1.9,1.71-3.59,2.96-5.04,1.25-1.45,2.73-2.61,4.39-3.46,1.67-.85,3.47-1.28,5.37-1.28.49,0,.99.02,1.48.05.48.03.96.08,1.43.15h.06s-3.61,13.96-3.61,13.96c-.4,1.56-.9,2.87-1.48,3.89-.58,1.02-1.25,1.85-1.99,2.46-.73.62-1.51,1.06-2.32,1.31-.8.25-1.61.38-2.42.38ZM48.21,155.23c-1.88,0-3.67.43-5.32,1.27-1.65.84-3.12,2-4.36,3.44-1.24,1.44-2.23,3.12-2.94,5.01-.71,1.88-1.07,3.89-1.07,5.98s.42,3.62,1.24,4.69c.82,1.06,2.03,1.6,3.6,1.6.79,0,1.59-.13,2.38-.37.79-.25,1.56-.68,2.28-1.29.72-.61,1.38-1.43,1.96-2.43.58-1.01,1.07-2.31,1.47-3.86l3.58-13.83c-.44-.06-.9-.11-1.36-.14-.49-.03-.98-.05-1.47-.05Z" fill="#6c757d"/><path d="M224.49,200.68s-.01,0-.02,0l-141.66-.49c-3.18-.01-5.75-2.6-5.74-5.78.01-3.18,2.59-5.78,5.78-5.74l135.89.47v-64.03c0-3.18,2.58-5.76,5.76-5.76s5.76,2.58,5.76,5.76v69.81c0,1.53-.61,3-1.69,4.08-1.08,1.08-2.54,1.68-4.06,1.68Z" fill="#6c757d"/><path d="M136.96,161.5c-.82,0-1.65-.19-2.4-.57l-83.41-42.07c-1.8-.91-2.93-2.75-2.93-4.76v-24.92c0-1.42.56-2.77,1.56-3.77,1-1,2.36-1.56,3.77-1.56l136.53.22c2.94,0,5.33,2.39,5.32,5.34,0,2.94-2.39,5.35-5.34,5.32l-131.19-.21v16.3l78.2,39.45,72.84-33.15c2.68-1.22,5.84-.04,7.06,2.64,1.22,2.68.04,5.84-2.64,7.06l-75.17,34.21c-.7.32-1.46.48-2.21.48Z" fill="#6c757d"/><path d="M250.9,94.84h-20.78v22.15h-12.25v-22.15h-20.67v-10.99h20.67v-22.09h12.25v22.09h20.78v10.99Z" fill="#d4af37"/></svg>