<?xml version="1.0" encoding="UTF-8"?><svg id="Arrow_Layer" xmlns="http://www.w3.org/2000/svg" width="128" height="128" viewBox="0 0 128 128"><g id="Navigation_Arrow"><path d="M64.27,111.71c-5.52,0-10-4.48-10-10V29.85c0-5.52,4.48-10,10-10s10,4.48,10,10v71.85c0,5.52-4.48,10-10,10Z" fill="#1b1464"/><g id="_Mirror_Repeat_"><path d="M33.94,70.27c-2.37,0-4.75-.84-6.66-2.54-4.12-3.68-4.48-10-.8-14.12l30.3-33.92c3.68-4.12,10-4.47,14.12-.8,4.12,3.68,4.48,10,.8,14.12l-30.3,33.92c-1.98,2.21-4.71,3.34-7.46,3.34Z" fill="#1b1464"/></g><g id="_Mirror_Repeat_-2"><path d="M94.51,70.27c-2.75,0-5.49-1.13-7.46-3.34l-30.3-33.92c-3.68-4.12-3.32-10.44.8-14.12,4.12-3.68,10.44-3.32,14.12.8l30.3,33.92c3.68,4.12,3.32,10.44-.8,14.12-1.91,1.7-4.29,2.54-6.66,2.54Z" fill="#1b1464"/></g></g></svg>