<?xml version="1.0" encoding="UTF-8"?><svg id="Spare_Parts" xmlns="http://www.w3.org/2000/svg" width="728.57" height="728.57" viewBox="0 0 728.57 728.57"><g id="Tile"><g id="Pie_Chart"><path d="M191.18,542.24l23.41.07c-.04,13.87-10.59,25.26-23.41,25.26s-23.41-11.44-23.41-25.34,10.36-25.14,23.08-25.33l.33,25.33Z" fill="none" stroke="#1b1464" stroke-miterlimit="10" stroke-width="4"/><path d="M197.01,536.01l-.2-25.34c.07,0,.13,0,.2,0,12.84,0,23.41,11.44,23.41,25.34,0,.03,0,.05,0,.08l-23.41-.08Z" fill="#1b1464" stroke="#1b1464" stroke-miterlimit="10" stroke-width="4"/></g><g id="Value_Graph"><g id="Chart"><g id="Up_chart"><polyline points="523.42 538.1 544.58 526.55 548.26 534.17 563.04 521.76" fill="none" stroke="#1b1464" stroke-miterlimit="10" stroke-width="4"/><polygon points="562.93 521.81 560.82 522.5 562.23 523.57 562.93 521.81" fill="#1b1464" stroke="#1b1464" stroke-miterlimit="10" stroke-width="4"/></g></g><g id="Bar_Graph"><polygon points="524.87 557.24 524.75 546.69 531.18 546.63 531.3 557.18 524.87 557.24" fill="#1b1464" stroke="#1b1464" stroke-miterlimit="10"/><polygon points="548.77 557.17 548.66 542.29 555.09 542.26 555.21 557.14 548.77 557.17" fill="#1b1464" stroke="#1b1464" stroke-miterlimit="10"/><polygon points="536.8 557.16 536.68 536.11 543.11 536.09 543.23 557.14 536.8 557.16" fill="#1b1464" stroke="#1b1464" stroke-miterlimit="10"/><polygon points="560.78 557.22 560.66 529.94 567.09 529.93 567.21 557.21 560.78 557.22" fill="#1b1464" stroke="#1b1464" stroke-miterlimit="10"/></g></g><path id="Knight" d="M560.06,207.46c-.08-.01-.15-.03-.22-.05-1.52-.32-.88-.3.5-1,1.68-.86,1.73-2.29.63-3.38-.95-.94-3.44-1.6-6.19-2.05-.14-.02-.13-.19,0-.24,0,0,0,0,0,0,.31-.31.51-.8.93-1.52.58-.99,3.91-.74,4.12-.53.56.58.44-5.65.44-5.72,0-.65-.29-8.72-.29-8.95.01-.63-.04-1.69-.44-2.44-.34-.63.45-2.94.3-3.72s-1-3.07-.66-3.03c.41.06.38.3.38-.13,0-.15-1.38-2.58-1.27-2.45.04.05.13.02.13-.05,0-.18-.06-.47-.25-.9-.25-.56-.39-.63-1.19-1.42-.61-.61-2.02-2.03-2.02-2.03.08-.03.11-.12.06-.18-.27-.4-4.36-3.25-4.66-3.46-.78-.54-1.48-.81-1.87-.94-.64-.22-1.08-.36-1.68-.3-.28.03-1.98-.4-1.98-.4.02-.1-.75.05-1.38.09-.76.04-1.47-.12-1.47-.12-.02-.07-.09-.1-.15-.08-.21.06-.65.18-.96.16-.6-.04-1.32-.05-1.93-.11-.09,0-.16.08-.13.16.08.23.19.59.05.57-1.2-.14-3.29-1.79-3.83-2.23-.06-.05-.15-.02-.16.06-.06.31-.36.54.05,1.46.36.81.43,1.52.1,1.64-.88.32-.35.47-1.14,1.26s-2.79-.74-3.57-1.41c-.17-.14-.3-.08-.3.14,0,2.05,1.12,2.79,1.83,3.06.18.07.28.25.23.44-.34,1.25-2.09,1.29-1.83,1.5,0,0,2.14.87,2.04.86-.19-.03-1.57,1.76-.94,2.39,1.2,1.2-1.2,4.78-1.29,6.17-.15,2.26-2.25,5.04-2.44,5.28-.01.02-.02.04-.02.07,0,.1.08.38.89.85.38.22-.46.36.55,1.37,1.01,1.01,1.25,1.54,1.75,2.05.51.51,1.05-.08,1.51.38s2.36-.69,3.02-1.19c.24-.18.86.03,1.1-.49.54-1.14.02-1.11.08-1.51,0-.02.01-.04.03-.06.22-.27,1.86-2.71,1.89-2.71,1.29.21,2.15-1.42,2.47-1.42.47,0,.54.02,1.08-.33.4-.25.94.63.57,1.79-.4,1.26-3.16,2.84-4.74,4.35,0,0,0,0,0,0-.05.05-1.12,1.18-2.18,3.14-3.98,7.33-1.12,9.84.18,10.57.02.01.04.02.06.02.37,0,.73,0,1.09,0-3.43.46-6.92,1.2-8.08,2.35-1.1,1.1-1.04,2.53.64,3.38,1.38.7,2.02.68.5,1-.07.02-.15.03-.22.05-3.91.78-3.32,3.12-3.16,3.59.02.05.06.08.12.08h18.07c.07,0,.19,0,.26,0l18.07-.06c.05,0,.1-.03.12-.08.16-.47.74-2.81-3.18-3.58Z" fill="none" stroke="#1b1464" stroke-miterlimit="10" stroke-width="2"/><g id="Chart-2"><g id="Up_chart-2"><polyline points="167.77 199.89 195.89 181.01 200.77 193.47 220.42 173.18" fill="none" stroke="#1b1464" stroke-miterlimit="10" stroke-width="4"/><polygon points="220.27 173.26 217.47 174.38 219.35 176.14 220.27 173.26" fill="none" stroke="#1b1464" stroke-miterlimit="10" stroke-width="4"/></g><path id="Graph_axis" d="M162.94,165.33v42.42h62.3" fill="none" stroke="#1b1464" stroke-linecap="round" stroke-miterlimit="10" stroke-width="2"/></g></g></svg>