<?xml version="1.0" encoding="UTF-8"?><svg id="Icon_Menu" xmlns="http://www.w3.org/2000/svg" width="24" height="24" viewBox="0 0 24 24"><g id="Hover_Focus_Menu_Icon"><path d="M2.95,8.93l18.06.05h0c.55,0,1-.45,1-1,0-.55-.45-1-1-1l-18.06-.05h0c-.55,0-1,.45-1,1,0,.55.45,1,1,1Z" fill="#dcbe5d"/><path d="M2.95,12.97l18.05.05h0c.55,0,1-.45,1-1,0-.55-.45-1-1-1l-18.06-.05h0c-.55,0-1,.45-1,1,0,.55.45,1,1,1Z" fill="#dcbe5d"/><path d="M21.02,15.06l-18.06-.05h0c-.55,0-1,.45-1,1,0,.55.45,1,1,1l18.06.05h0c.55,0,1-.45,1-1,0-.55-.45-1-1-1Z" fill="#dcbe5d"/></g></svg>