<?xml version="1.0" encoding="UTF-8"?><svg id="Primary_Dark" xmlns="http://www.w3.org/2000/svg" width="775" height="150" xmlns:xlink="http://www.w3.org/1999/xlink" viewBox="0 0 775 150"><defs><clipPath id="clippath"><rect x="55.41" y="109.53" width="37.28" height="18.25" fill="none"/></clipPath><clipPath id="clippath-1"><rect x="92.69" y="109.53" width="37.28" height="18.25" fill="none"/></clipPath></defs><g id="Icon_Dark"><rect x="19.09" y="126.9" width="147.89" height="9.05" transform="translate(-.23 .17) rotate(-.1)" fill="#54595f"/><path d="M18.96,136.21l-.02-9.31,148.16-.26.02,9.31-148.16.26ZM19.21,127.16l.02,8.78,147.63-.26-.02-8.78-147.63.26Z"/><g id="_Mirror_Repeat_"><g clip-path="url(#clippath)"><polygon points="55.41 127.78 93.31 127.78 93.1 109.53 65.27 109.53 55.41 127.78" fill="#54595f"/></g></g><g id="_Mirror_Repeat_-2"><g clip-path="url(#clippath-1)"><polygon points="129.97 127.78 92.06 127.78 92.28 109.53 120.11 109.53 129.97 127.78" fill="#54595f"/></g></g><path d="M162.53,109.45H23.14c-2.49,0-4.51-2.03-4.51-4.52V18.25c0-2.5,2.02-4.52,4.51-4.52h139.39c2.49,0,4.51,2.03,4.51,4.52v86.68c0,2.5-2.02,4.52-4.51,4.52ZM27.65,100.41h130.37V22.78H27.65v77.63Z" fill="#54595f"/><path d="M162.53,109.59H23.14c-2.56,0-4.64-2.09-4.64-4.66V18.25c0-2.57,2.08-4.66,4.64-4.66h139.39c2.56,0,4.64,2.09,4.64,4.66v86.68c0,2.57-2.08,4.66-4.64,4.66ZM23.14,13.86c-2.41,0-4.38,1.97-4.38,4.39v86.68c0,2.42,1.96,4.39,4.38,4.39h139.39c2.41,0,4.38-1.97,4.38-4.39V18.25c0-2.42-1.96-4.39-4.38-4.39H23.14ZM158.16,100.54H27.52V22.64h130.64v77.9ZM27.78,100.27h130.11V22.91H27.78v77.37Z" fill="#54595f"/><rect x="63.6" y="69.33" width="9.02" height="16.36" transform="translate(-.78 .69) rotate(-.58)" fill="#54595f"/><path d="M63.55,85.87l-.17-16.62,9.28-.09.17,16.62-9.28.09ZM63.65,69.51l.16,16.09,8.75-.09-.16-16.09-8.75.09Z"/><rect x="80.32" y="57.98" width="9.02" height="27.6" transform="translate(-.43 .51) rotate(-.34)" fill="#54595f"/><path d="M80.27,85.73l-.17-27.86,9.28-.06.17,27.86-9.28.06ZM80.37,58.13l.16,27.33,8.75-.05-.16-27.33-8.75.05Z"/><rect x="97.1" y="46.53" width="9.02" height="39.04" transform="translate(-.28 .43) rotate(-.24)" fill="#54595f"/><path d="M97.06,85.73l-.17-39.31,9.28-.04.17,39.31-9.28.04ZM97.16,46.68l.16,38.78,8.75-.04-.16-38.78-8.75.04Z"/><rect x="113.92" y="35.1" width="9.02" height="50.59" transform="translate(-.2 .39) rotate(-.19)" fill="#54595f"/><path d="M113.87,85.84l-.17-50.86,9.28-.03.17,50.86-9.28.03ZM113.98,35.25l.16,50.33,8.75-.03-.16-50.33-8.75.03Z"/></g><path d="M204.22,13.6c3.38,0,6.31.39,8.77,1.18,2.46.79,4.49,1.88,6.08,3.28,1.59,1.4,2.76,3.07,3.52,5,.76,1.93,1.14,4.03,1.14,6.29,0,2.4-.4,4.6-1.19,6.6-.8,2-2,3.71-3.61,5.15-1.61,1.44-3.64,2.55-6.1,3.35-2.45.8-5.32,1.19-8.62,1.19h-6.47v16.8h-10.22V13.6h16.69ZM204.22,37.9c3.2,0,5.55-.76,7.03-2.29,1.49-1.53,2.23-3.61,2.23-6.26,0-1.21-.19-2.32-.56-3.32-.37-1-.94-1.85-1.7-2.56-.76-.71-1.72-1.25-2.88-1.63-1.16-.38-2.53-.57-4.12-.57h-6.47v16.63h6.47Z" fill="#54595f"/><path d="M245.36,54.36c1.66,0,3.14-.27,4.46-.82,1.32-.55,2.43-1.33,3.34-2.34.91-1.01,1.6-2.23,2.08-3.67.48-1.44.72-3.05.72-4.85V13.6h10.22v29.08c0,2.96-.48,5.68-1.45,8.16-.97,2.48-2.34,4.62-4.14,6.41-1.79,1.8-3.97,3.2-6.54,4.21-2.57,1.01-5.46,1.51-8.68,1.51s-6.13-.5-8.7-1.51c-2.58-1.01-4.76-2.41-6.56-4.21-1.79-1.79-3.17-3.93-4.14-6.41-.97-2.48-1.45-5.2-1.45-8.16V13.6h10.22v29.08c0,1.8.24,3.41.72,4.85.48,1.44,1.17,2.66,2.08,3.67.91,1.01,2.02,1.79,3.34,2.34,1.32.55,2.82.82,4.5.82Z" fill="#54595f"/><path d="M306.73,62.44h-9.23c-1.73,0-2.97-.65-3.75-1.95l-9.4-14.98c-.39-.58-.81-1.01-1.28-1.28-.47-.27-1.15-.4-2.06-.4h-3.47v18.61h-10.22V13.6h15.53c3.45,0,6.4.35,8.86,1.06,2.45.71,4.46,1.69,6.03,2.94,1.57,1.26,2.71,2.75,3.44,4.49.73,1.74,1.09,3.65,1.09,5.74,0,1.62-.23,3.15-.7,4.59-.47,1.45-1.14,2.77-2.03,3.96-.89,1.19-1.98,2.24-3.27,3.16-1.29.92-2.77,1.66-4.43,2.22.66.36,1.27.79,1.84,1.3.57.5,1.08,1.11,1.53,1.8l11.51,17.57ZM282.79,36.72c1.66,0,3.09-.21,4.29-.62,1.2-.42,2.19-.99,2.96-1.72.77-.73,1.34-1.59,1.7-2.57.36-.99.54-2.06.54-3.23,0-2.31-.78-4.11-2.33-5.39-1.56-1.28-3.92-1.92-7.1-1.92h-5.31v15.45h5.24Z" fill="#54595f"/><path d="M323.63,13.6c3.38,0,6.31.39,8.77,1.18,2.46.79,4.49,1.88,6.08,3.28,1.59,1.4,2.76,3.07,3.52,5,.76,1.93,1.14,4.03,1.14,6.29,0,2.4-.4,4.6-1.19,6.6-.8,2-2,3.71-3.61,5.15-1.61,1.44-3.64,2.55-6.1,3.35-2.45.8-5.32,1.19-8.62,1.19h-6.47v16.8h-10.22V13.6h16.69ZM323.63,37.9c3.2,0,5.55-.76,7.03-2.29,1.49-1.53,2.23-3.61,2.23-6.26,0-1.21-.19-2.32-.56-3.32-.37-1-.94-1.85-1.7-2.56-.76-.71-1.72-1.25-2.88-1.63-1.16-.38-2.53-.57-4.12-.57h-6.47v16.63h6.47Z" fill="#54595f"/><path d="M393.72,38c0,3.57-.61,6.88-1.82,9.93-1.21,3.05-2.93,5.69-5.14,7.91-2.21,2.22-4.88,3.97-7.99,5.23-3.11,1.27-6.56,1.9-10.35,1.9s-7.24-.63-10.35-1.9c-3.11-1.27-5.78-3.01-8-5.23-2.23-2.22-3.95-4.86-5.16-7.91-1.21-3.05-1.82-6.36-1.82-9.93s.61-6.87,1.82-9.91c1.21-3.04,2.93-5.67,5.16-7.89,2.22-2.22,4.89-3.97,8-5.23,3.11-1.27,6.56-1.9,10.35-1.9s7.24.63,10.35,1.9c3.11,1.27,5.77,3.02,7.99,5.25,2.21,2.23,3.93,4.87,5.14,7.91,1.21,3.04,1.82,6.33,1.82,9.88ZM383.26,38c0-2.56-.34-4.85-1.02-6.88-.68-2.03-1.66-3.76-2.95-5.18-1.28-1.42-2.84-2.51-4.67-3.26-1.83-.75-3.9-1.13-6.22-1.13s-4.39.38-6.23,1.13c-1.84.75-3.4,1.84-4.68,3.26-1.28,1.43-2.26,3.15-2.95,5.18-.68,2.03-1.02,4.33-1.02,6.88s.34,4.89,1.02,6.92c.68,2.03,1.66,3.75,2.95,5.17,1.28,1.41,2.84,2.5,4.68,3.25,1.84.75,3.92,1.13,6.23,1.13s4.39-.38,6.22-1.13c1.83-.75,3.38-1.83,4.67-3.25,1.28-1.41,2.26-3.14,2.95-5.17.68-2.03,1.02-4.34,1.02-6.92Z" fill="#54595f"/><path d="M421.64,22.96c-.32.52-.64.89-.97,1.13-.33.24-.76.35-1.28.35s-1.04-.17-1.62-.52c-.58-.35-1.25-.72-2.03-1.13-.77-.4-1.66-.78-2.66-1.13-1-.35-2.17-.52-3.51-.52-2.36,0-4.13.52-5.31,1.57-1.18,1.04-1.77,2.41-1.77,4.09,0,1.08.32,1.97.97,2.68.65.71,1.5,1.32,2.55,1.83,1.06.52,2.25.98,3.59,1.38,1.34.4,2.71.85,4.12,1.33,1.41.48,2.78,1.05,4.12,1.7,1.34.65,2.54,1.47,3.59,2.46,1.06.99,1.91,2.19,2.55,3.62.65,1.43.97,3.16.97,5.2,0,2.22-.39,4.3-1.18,6.24-.78,1.94-1.91,3.64-3.39,5.08-1.48,1.45-3.3,2.59-5.47,3.42-2.17.83-4.63,1.25-7.37,1.25-1.57,0-3.13-.16-4.68-.47-1.56-.31-3.05-.75-4.5-1.31-1.44-.56-2.8-1.23-4.07-2.02-1.27-.79-2.38-1.66-3.34-2.63l3-4.78c.25-.36.58-.66.99-.89.41-.24.84-.35,1.29-.35.61,0,1.26.22,1.94.67.68.45,1.46.94,2.35,1.48.89.54,1.91,1.03,3.08,1.48,1.17.45,2.57.67,4.21.67,2.38,0,4.23-.54,5.53-1.62,1.31-1.08,1.96-2.68,1.96-4.81,0-1.23-.32-2.23-.97-3-.65-.76-1.49-1.4-2.54-1.92-1.04-.52-2.24-.96-3.58-1.33-1.34-.37-2.71-.78-4.12-1.23-1.41-.45-2.78-.99-4.12-1.62-1.34-.63-2.53-1.46-3.58-2.49-1.04-1.03-1.89-2.31-2.54-3.84-.65-1.53-.97-3.42-.97-5.69,0-1.82.36-3.58,1.09-5.28.73-1.71,1.79-3.22,3.2-4.54,1.41-1.32,3.14-2.39,5.19-3.2,2.05-.81,4.41-1.21,7.07-1.21,2.97,0,5.73.45,8.26,1.36,2.53.91,4.67,2.17,6.42,3.79l-2.52,4.75Z" fill="#54595f"/><path d="M436.36,21.51v12.55h16.48v7.64h-16.48v12.82h21.18v7.91h-31.47V13.6h31.47v7.91h-21.18Z" fill="#54595f"/><path d="M468.98,21.51v13.5h17.78v7.94h-17.78v19.49h-10.29V13.6h31.47v7.91h-21.18Z" fill="#54595f"/><path d="M512.17,54.36c1.66,0,3.14-.27,4.46-.82,1.32-.55,2.43-1.33,3.34-2.34.91-1.01,1.6-2.23,2.08-3.67.48-1.44.72-3.05.72-4.85V13.6h10.22v29.08c0,2.96-.48,5.68-1.45,8.16-.97,2.48-2.34,4.62-4.14,6.41-1.79,1.8-3.97,3.2-6.54,4.21-2.57,1.01-5.46,1.51-8.68,1.51s-6.13-.5-8.7-1.51c-2.58-1.01-4.76-2.41-6.56-4.21-1.79-1.79-3.17-3.93-4.14-6.41-.97-2.48-1.45-5.2-1.45-8.16V13.6h10.22v29.08c0,1.8.24,3.41.72,4.85.48,1.44,1.17,2.66,2.08,3.67.91,1.01,2.02,1.79,3.34,2.34,1.32.55,2.82.82,4.5.82Z" fill="#54595f"/><path d="M563.32,54.23v8.21h-29.32V13.6h10.22v40.63h19.11Z" fill="#54595f"/><path d="M625.51,13.6v48.84h-9.03v-29.99c0-.63.02-1.3.05-2.02.03-.72.1-1.45.19-2.19l-14.13,26.49c-.77,1.46-1.96,2.19-3.58,2.19h-1.43c-.8,0-1.5-.19-2.11-.56-.61-.37-1.1-.91-1.46-1.63l-14.2-26.59c.07.79.12,1.54.17,2.27.05.73.07,1.41.07,2.04v29.99h-9.03V13.6h7.77c.43,0,.82.01,1.16.03.34.02.64.08.9.19.26.1.5.26.72.47.22.21.43.51.63.89l13.83,26.05c.43.79.83,1.59,1.21,2.42.37.83.73,1.68,1.07,2.56.34-.9.7-1.77,1.07-2.62.37-.85.78-1.67,1.21-2.46l13.73-25.95c.2-.38.42-.68.65-.89.23-.21.47-.37.73-.47.26-.1.56-.16.89-.19.33-.02.72-.03,1.18-.03h7.77Z" fill="#54595f"/><path d="M636.85,21.51v12.55h16.48v7.64h-16.48v12.82h21.18v7.91h-31.47V13.6h31.47v7.91h-21.18Z" fill="#54595f"/><path d="M703.64,38c0,3.57-.61,6.85-1.82,9.85-1.21,3-2.93,5.57-5.14,7.72-2.21,2.15-4.88,3.84-7.99,5.05-3.11,1.21-6.56,1.82-10.35,1.82h-19V13.6h19c3.79,0,7.24.61,10.35,1.82,3.11,1.21,5.77,2.9,7.99,5.07,2.21,2.17,3.93,4.74,5.14,7.72,1.21,2.98,1.82,6.25,1.82,9.79ZM693.15,38c0-2.56-.34-4.86-1.02-6.9-.68-2.04-1.66-3.77-2.93-5.18-1.27-1.41-2.82-2.5-4.65-3.27-1.83-.76-3.9-1.14-6.22-1.14h-8.72v33.02h8.72c2.32,0,4.39-.38,6.22-1.13,1.83-.75,3.38-1.84,4.65-3.27,1.27-1.42,2.25-3.16,2.93-5.2.68-2.04,1.02-4.35,1.02-6.93Z" fill="#54595f"/><path d="M714.43,62.44h-10.29V13.6h10.29v48.84Z" fill="#54595f"/><path d="M763.48,62.44h-7.94c-.89,0-1.61-.21-2.16-.62-.56-.42-.97-.95-1.24-1.6l-3.34-9.32h-19.69l-3.34,9.32c-.23.56-.62,1.07-1.19,1.53-.57.46-1.28.69-2.15.69h-8l19.31-48.84h10.46l19.28,48.84ZM746.31,43.89l-5.35-14.94c-.32-.79-.65-1.71-1-2.76-.35-1.05-.69-2.2-1-3.43-.32,1.26-.65,2.42-1,3.48-.35,1.07-.69,1.99-1,2.78l-5.31,14.88h14.68Z" fill="#54595f"/><path d="M454.62,94.73c-1.25-1.39-2.77-2.45-4.56-3.19-1.79-.73-3.81-1.1-6.07-1.1s-4.29.37-6.09,1.1c-1.8.73-3.32,1.8-4.57,3.19s-2.21,3.08-2.88,5.06-1,4.22-1,6.72.33,4.77,1,6.76,1.62,3.67,2.88,5.05,2.78,2.44,4.57,3.17c1.8.73,3.83,1.1,6.09,1.1s4.29-.37,6.07-1.1c1.79-.73,3.3-1.79,4.56-3.17,1.25-1.38,2.21-3.06,2.88-5.05.67-1.98,1-4.24,1-6.76s-.33-4.74-1-6.72c-.67-1.98-1.62-3.67-2.88-5.06Z" fill="#54595f"/><path d="M407.52,92.05c-1.52-1.25-3.83-1.87-6.94-1.87h-5.19v15.09h5.12c1.62,0,3.02-.2,4.19-.61,1.17-.41,2.14-.96,2.89-1.68.75-.71,1.31-1.55,1.66-2.51.35-.96.53-2.02.53-3.16,0-2.26-.76-4.01-2.28-5.26Z" fill="#54595f"/><path d="M187.59,76.16v60.14h286.56v-60.14H187.59ZM383.68,104.51c-.78,1.95-1.95,3.63-3.53,5.03-1.57,1.4-3.56,2.49-5.95,3.27-2.4.78-5.2,1.17-8.42,1.17h-6.32v16.4h-9.98v-47.7h16.3c3.3,0,6.16.38,8.57,1.15,2.41.77,4.38,1.84,5.94,3.21s2.7,3,3.44,4.88c.74,1.89,1.11,3.93,1.11,6.15,0,2.35-.39,4.49-1.16,6.44ZM414.88,130.38c-1.69,0-2.91-.64-3.66-1.91l-9.18-14.63c-.38-.57-.79-.99-1.25-1.25-.45-.26-1.13-.39-2.01-.39h-3.39v18.18h-9.98v-47.7h15.17c3.37,0,6.25.35,8.65,1.04,2.39.69,4.36,1.65,5.89,2.88,1.53,1.23,2.65,2.69,3.36,4.39.71,1.7,1.06,3.57,1.06,5.6,0,1.58-.23,3.07-.68,4.49-.45,1.41-1.11,2.7-1.98,3.86-.87,1.16-1.93,2.19-3.19,3.09-1.26.9-2.71,1.62-4.32,2.17.64.35,1.24.77,1.8,1.27s1.05,1.08,1.5,1.76l11.24,17.16h-9.01ZM466.92,116.21c-1.19,2.98-2.86,5.56-5.02,7.73-2.16,2.17-4.76,3.87-7.8,5.11-3.04,1.24-6.41,1.86-10.11,1.86s-7.07-.62-10.11-1.86c-3.04-1.24-5.64-2.94-7.82-5.11-2.17-2.17-3.85-4.74-5.04-7.73-1.19-2.98-1.78-6.21-1.78-9.7s.59-6.71,1.78-9.68c1.19-2.97,2.87-5.54,5.04-7.71,2.17-2.17,4.78-3.87,7.82-5.11,3.04-1.24,6.41-1.86,10.11-1.86s7.07.62,10.11,1.86c3.04,1.24,5.64,2.95,7.8,5.13,2.16,2.18,3.84,4.76,5.02,7.73,1.19,2.97,1.78,6.19,1.78,9.65s-.59,6.72-1.78,9.7Z" fill="#54595f"/><path d="M372.62,92.33c-.74-.69-1.68-1.22-2.81-1.59s-2.47-.56-4.02-.56h-6.32v16.24h6.32c3.13,0,5.42-.74,6.87-2.24,1.45-1.49,2.18-3.53,2.18-6.11,0-1.18-.18-2.26-.55-3.24-.37-.98-.92-1.81-1.66-2.5Z" fill="#54595f"/><path d="M533.15,81.54v48.84h-9.03v-29.99c0-.63.02-1.3.05-2.02.03-.72.1-1.45.19-2.19l-14.13,26.49c-.77,1.46-1.96,2.19-3.58,2.19h-1.43c-.8,0-1.5-.19-2.11-.56-.61-.37-1.1-.91-1.46-1.63l-14.2-26.59c.07.79.12,1.54.17,2.27.05.73.07,1.41.07,2.04v29.99h-9.03v-48.84h7.77c.43,0,.82.01,1.16.03.34.02.64.08.9.19.26.1.5.26.72.47.22.21.43.51.63.89l13.83,26.05c.43.79.83,1.59,1.21,2.42.37.83.73,1.68,1.07,2.56.34-.9.7-1.77,1.07-2.62.37-.85.78-1.67,1.21-2.46l13.73-25.95c.2-.38.42-.68.65-.89.23-.21.47-.37.73-.47.26-.1.56-.16.89-.19.33-.02.72-.03,1.18-.03h7.77Z" fill="#54595f"/><path d="M584.95,105.94c0,3.57-.61,6.88-1.82,9.93-1.21,3.05-2.93,5.69-5.14,7.91-2.21,2.22-4.88,3.97-7.99,5.23-3.11,1.27-6.56,1.9-10.35,1.9s-7.24-.63-10.35-1.9c-3.11-1.27-5.78-3.01-8-5.23-2.23-2.22-3.95-4.86-5.16-7.91-1.21-3.05-1.82-6.36-1.82-9.93s.61-6.87,1.82-9.91c1.21-3.04,2.93-5.67,5.16-7.89,2.22-2.22,4.89-3.97,8-5.23,3.11-1.27,6.56-1.9,10.35-1.9s7.24.63,10.35,1.9c3.11,1.27,5.77,3.02,7.99,5.25,2.21,2.23,3.93,4.87,5.14,7.91,1.21,3.04,1.82,6.33,1.82,9.88ZM574.49,105.94c0-2.56-.34-4.85-1.02-6.88-.68-2.03-1.66-3.76-2.95-5.18-1.28-1.42-2.84-2.51-4.67-3.26-1.83-.75-3.9-1.13-6.22-1.13s-4.39.38-6.23,1.13c-1.84.75-3.4,1.84-4.68,3.26-1.28,1.43-2.26,3.15-2.95,5.18-.68,2.03-1.02,4.33-1.02,6.88s.34,4.89,1.02,6.92c.68,2.03,1.66,3.75,2.95,5.17,1.28,1.41,2.84,2.5,4.68,3.25,1.84.75,3.92,1.13,6.23,1.13s4.39-.38,6.22-1.13c1.83-.75,3.38-1.83,4.67-3.25,1.28-1.41,2.26-3.14,2.95-5.17.68-2.03,1.02-4.34,1.02-6.92Z" fill="#54595f"/><path d="M619.69,89.68h-14.44v40.69h-10.25v-40.69h-14.44v-8.15h39.13v8.15Z" fill="#54595f"/><path d="M631.3,130.38h-10.29v-48.84h10.29v48.84Z" fill="#54595f"/><path d="M683.14,105.94c0,3.57-.61,6.88-1.82,9.93-1.21,3.05-2.93,5.69-5.14,7.91-2.21,2.22-4.88,3.97-7.99,5.23-3.11,1.27-6.56,1.9-10.35,1.9s-7.24-.63-10.35-1.9c-3.11-1.27-5.78-3.01-8-5.23-2.23-2.22-3.95-4.86-5.16-7.91-1.21-3.05-1.82-6.36-1.82-9.93s.61-6.87,1.82-9.91c1.21-3.04,2.93-5.67,5.16-7.89,2.22-2.22,4.89-3.97,8-5.23,3.11-1.27,6.56-1.9,10.35-1.9s7.24.63,10.35,1.9c3.11,1.27,5.77,3.02,7.99,5.25s3.93,4.87,5.14,7.91c1.21,3.04,1.82,6.33,1.82,9.88ZM672.68,105.94c0-2.56-.34-4.85-1.02-6.88-.68-2.03-1.66-3.76-2.95-5.18-1.28-1.42-2.84-2.51-4.67-3.26-1.83-.75-3.9-1.13-6.22-1.13s-4.39.38-6.23,1.13c-1.84.75-3.4,1.84-4.68,3.26-1.28,1.43-2.26,3.15-2.95,5.18-.68,2.03-1.02,4.33-1.02,6.88s.34,4.89,1.02,6.92c.68,2.03,1.66,3.75,2.95,5.17,1.28,1.41,2.84,2.5,4.68,3.25,1.84.75,3.92,1.13,6.23,1.13s4.39-.38,6.22-1.13c1.83-.75,3.38-1.83,4.67-3.25,1.28-1.41,2.26-3.14,2.95-5.17.68-2.03,1.02-4.34,1.02-6.92Z" fill="#54595f"/><path d="M726.42,81.54v48.84h-5.28c-.8,0-1.46-.13-2.01-.39-.54-.26-1.08-.7-1.6-1.33l-24.62-30.97c.07.79.12,1.56.15,2.32s.05,1.47.05,2.12v28.24h-9.03v-48.84h5.38c.43,0,.8.02,1.11.05s.58.11.83.24c.25.12.49.29.72.49.23.2.48.47.75.81l24.79,31.1c-.09-.85-.16-1.68-.2-2.47-.05-.8-.07-1.55-.07-2.27v-27.94h9.03Z" fill="#54595f"/><path d="M757.28,90.9c-.32.52-.64.89-.97,1.13-.33.24-.76.35-1.28.35s-1.04-.17-1.62-.52c-.58-.35-1.25-.72-2.03-1.13-.77-.4-1.66-.78-2.66-1.13-1-.35-2.17-.52-3.51-.52-2.36,0-4.13.52-5.31,1.57-1.18,1.04-1.77,2.41-1.77,4.09,0,1.08.32,1.97.97,2.68.65.71,1.5,1.32,2.55,1.83,1.06.52,2.25.98,3.59,1.38,1.34.4,2.71.85,4.12,1.33,1.41.48,2.78,1.05,4.12,1.7,1.34.65,2.54,1.47,3.59,2.46,1.06.99,1.91,2.19,2.55,3.62.65,1.43.97,3.16.97,5.2,0,2.22-.39,4.3-1.18,6.24-.78,1.94-1.91,3.64-3.39,5.08-1.48,1.45-3.3,2.59-5.47,3.42-2.17.83-4.63,1.25-7.37,1.25-1.57,0-3.13-.16-4.68-.47-1.56-.31-3.05-.75-4.5-1.31-1.44-.56-2.8-1.23-4.07-2.02-1.27-.79-2.38-1.66-3.34-2.63l3-4.78c.25-.36.58-.66.99-.89.41-.24.84-.35,1.29-.35.61,0,1.26.22,1.94.67.68.45,1.46.94,2.35,1.48.89.54,1.91,1.03,3.08,1.48,1.17.45,2.57.67,4.21.67,2.38,0,4.23-.54,5.53-1.62,1.31-1.08,1.96-2.68,1.96-4.81,0-1.23-.32-2.23-.97-3-.65-.76-1.49-1.4-2.54-1.92-1.04-.52-2.24-.96-3.58-1.33-1.34-.37-2.71-.78-4.12-1.23-1.41-.45-2.78-.99-4.12-1.62-1.34-.63-2.53-1.46-3.58-2.49-1.04-1.03-1.89-2.31-2.54-3.84-.65-1.53-.97-3.42-.97-5.69,0-1.82.36-3.58,1.09-5.28.73-1.71,1.79-3.22,3.2-4.54,1.41-1.32,3.14-2.39,5.19-3.2,2.05-.81,4.41-1.21,7.07-1.21,2.97,0,5.73.45,8.26,1.36,2.53.91,4.67,2.17,6.42,3.79l-2.52,4.75Z" fill="#54595f"/></svg>