<svg width="48" height="48" viewBox="0 0 48 48" fill="none" xmlns="http://www.w3.org/2000/svg">
<g filter="url(#filter0_d_3344_203)">
<path d="M0 8C0 3.58172 3.58172 0 8 0H40C44.4183 0 48 3.58172 48 8V40C48 44.4183 44.4183 48 40 48H8C3.58172 48 0 44.4183 0 40V8Z" fill="white" fill-opacity="0.5" shape-rendering="crispEdges"/>
<path d="M38 23.9866C38 25.6308 36.6846 26.9653 35.0638 26.9653H13.9642C12.3434 26.9653 11.028 25.6308 11.028 23.9866C11.028 22.3424 12.3434 21.0079 13.9642 21.0079H35.0609C36.6816 21.0079 37.9971 22.3424 37.9971 23.9866H38Z" fill="#1B1464"/>
<path d="M25.8324 33.021C25.8324 33.7269 25.5857 34.4358 25.0866 35.0048C24.006 36.232 22.1504 36.3392 20.9406 35.2431L10.981 26.2176C9.77132 25.1215 9.66855 23.2389 10.7461 22.0117C11.8267 20.7845 13.6823 20.6773 14.8921 21.7734L24.8517 30.7989C25.5006 31.3886 25.8324 32.2018 25.8324 33.021Z" fill="#1B1464"/>
<path d="M25.8324 14.979C25.8324 15.7982 25.5006 16.6143 24.8517 17.2011L14.8921 26.2266C13.6823 27.3227 11.8267 27.2155 10.7461 25.9883C9.66561 24.7611 9.77132 22.8785 10.981 21.7824L20.9406 12.7569C22.1504 11.6608 24.006 11.768 25.0866 12.9952C25.5857 13.5642 25.8324 14.2731 25.8324 14.979Z" fill="#1B1464"/>
</g>
<defs>
<filter id="filter0_d_3344_203" x="-8" y="-8" width="72" height="72" filterUnits="userSpaceOnUse" color-interpolation-filters="sRGB">
<feFlood flood-opacity="0" result="BackgroundImageFix"/>
<feColorMatrix in="SourceAlpha" type="matrix" values="0 0 0 0 0 0 0 0 0 0 0 0 0 0 0 0 0 0 127 0" result="hardAlpha"/>
<feOffset dx="4" dy="4"/>
<feGaussianBlur stdDeviation="6"/>
<feComposite in2="hardAlpha" operator="out"/>
<feColorMatrix type="matrix" values="0 0 0 0 0 0 0 0 0 0 0 0 0 0 0 0 0 0 0.1 0"/>
<feBlend mode="normal" in2="BackgroundImageFix" result="effect1_dropShadow_3344_203"/>
<feBlend mode="normal" in="SourceGraphic" in2="effect1_dropShadow_3344_203" result="shape"/>
</filter>
</defs>
</svg>
