<svg width="48" height="48" viewBox="0 0 48 48" fill="none" xmlns="http://www.w3.org/2000/svg">
<g filter="url(#filter0_d_3344_202)">
<path d="M0 8C0 3.58172 3.58172 0 8 0H40C44.4183 0 48 3.58172 48 8V40C48 44.4183 44.4183 48 40 48H8C3.58172 48 0 44.4183 0 40V8Z" fill="white" fill-opacity="0.5" shape-rendering="crispEdges"/>
<path d="M10 23.9866C10 25.6308 11.3154 26.9653 12.9362 26.9653H34.0358C35.6566 26.9653 36.972 25.6308 36.972 23.9866C36.972 22.3424 35.6566 21.0079 34.0358 21.0079H12.9391C11.3184 21.0079 10.0029 22.3424 10.0029 23.9866H10Z" fill="#1B1464"/>
<path d="M22.1676 33.021C22.1676 33.7269 22.4143 34.4358 22.9134 35.0048C23.994 36.232 25.8496 36.3392 27.0594 35.2431L37.019 26.2176C38.2287 25.1215 38.3315 23.2389 37.2539 22.0117C36.1733 20.7845 34.3177 20.6773 33.1079 21.7734L23.1483 30.7989C22.4994 31.3886 22.1676 32.2018 22.1676 33.021Z" fill="#1B1464"/>
<path d="M22.1676 14.979C22.1676 15.7982 22.4994 16.6143 23.1483 17.2011L33.1079 26.2266C34.3177 27.3227 36.1733 27.2155 37.2539 25.9883C38.3344 24.7611 38.2287 22.8785 37.019 21.7824L27.0594 12.7569C25.8496 11.6608 23.994 11.768 22.9134 12.9952C22.4143 13.5642 22.1676 14.2731 22.1676 14.979Z" fill="#1B1464"/>
</g>
<defs>
<filter id="filter0_d_3344_202" x="-8" y="-8" width="72" height="72" filterUnits="userSpaceOnUse" color-interpolation-filters="sRGB">
<feFlood flood-opacity="0" result="BackgroundImageFix"/>
<feColorMatrix in="SourceAlpha" type="matrix" values="0 0 0 0 0 0 0 0 0 0 0 0 0 0 0 0 0 0 127 0" result="hardAlpha"/>
<feOffset dx="4" dy="4"/>
<feGaussianBlur stdDeviation="6"/>
<feComposite in2="hardAlpha" operator="out"/>
<feColorMatrix type="matrix" values="0 0 0 0 0 0 0 0 0 0 0 0 0 0 0 0 0 0 0.1 0"/>
<feBlend mode="normal" in2="BackgroundImageFix" result="effect1_dropShadow_3344_202"/>
<feBlend mode="normal" in="SourceGraphic" in2="effect1_dropShadow_3344_202" result="shape"/>
</filter>
</defs>
</svg>
