<?xml version="1.0" encoding="UTF-8"?><svg id="Primary_White" xmlns="http://www.w3.org/2000/svg" width="486" height="94" xmlns:xlink="http://www.w3.org/1999/xlink" viewBox="0 0 486 94"><defs><clipPath id="clippath"><rect x="34.26" y="69.38" width="22.44" height="10.95" fill="none"/></clipPath><clipPath id="clippath-1"><rect x="56.7" y="69.38" width="22.44" height="10.95" fill="none"/></clipPath></defs><g id="Icon_White_on_Blue"><rect x="10" y="80.41" width="93.85" height="5.72" transform="translate(-.15 .1) rotate(-.1)" fill="#fff"/><g id="_Mirror_Repeat_"><g clip-path="url(#clippath)"><polygon points="34.26 80.33 57.08 80.33 56.95 69.38 40.2 69.38 34.26 80.33" fill="#fff"/></g></g><g id="_Mirror_Repeat_-2"><g clip-path="url(#clippath-1)"><polygon points="79.15 80.33 56.33 80.33 56.46 69.38 73.21 69.38 79.15 80.33" fill="#fff"/></g></g><path d="M101.02,69.38H12.57c-1.58,0-2.86-1.28-2.86-2.86V11.7c0-1.58,1.28-2.86,2.86-2.86h88.45c1.58,0,2.86,1.28,2.86,2.86v54.81c0,1.58-1.28,2.86-2.86,2.86ZM15.43,63.66h82.73V14.56H15.43v49.09Z" fill="#fff"/><rect x="38.25" y="44.01" width="5.72" height="10.35" transform="translate(-.5 .42) rotate(-.58)" fill="#fff"/><rect x="48.86" y="36.82" width="5.72" height="17.45" transform="translate(-.27 .31) rotate(-.34)" fill="#fff"/><rect x="59.51" y="29.59" width="5.72" height="24.69" transform="translate(-.18 .27) rotate(-.24)" fill="#fff"/><rect x="70.18" y="22.36" width="5.72" height="31.99" transform="translate(-.13 .24) rotate(-.19)" fill="#fff"/></g><path d="M126.82,8.77c2.13,0,3.97.25,5.53.74,1.55.5,2.83,1.18,3.83,2.07,1,.88,1.74,1.93,2.22,3.15.48,1.22.72,2.54.72,3.97,0,1.51-.25,2.9-.75,4.16-.5,1.26-1.26,2.34-2.27,3.24-1.02.91-2.3,1.61-3.84,2.11-1.55.5-3.35.75-5.43.75h-4.08v10.58h-6.44V8.77h10.51ZM126.82,24.08c2.02,0,3.49-.48,4.43-1.44.94-.96,1.41-2.28,1.41-3.94,0-.76-.12-1.46-.35-2.09-.24-.63-.59-1.17-1.07-1.61-.48-.45-1.08-.79-1.81-1.03-.73-.24-1.6-.36-2.6-.36h-4.08v10.48h4.08Z" fill="#fff"/><path d="M152.74,34.45c1.04,0,1.98-.17,2.81-.52.83-.35,1.53-.84,2.1-1.47.57-.64,1.01-1.41,1.31-2.31.3-.9.45-1.92.45-3.05V8.77h6.44v18.32c0,1.87-.3,3.58-.91,5.14-.61,1.56-1.48,2.91-2.61,4.04-1.13,1.13-2.5,2.01-4.12,2.65-1.62.64-3.44.95-5.47.95s-3.86-.32-5.48-.95c-1.62-.64-3-1.52-4.13-2.65-1.13-1.13-2-2.48-2.61-4.04-.61-1.56-.91-3.28-.91-5.14V8.77h6.44v18.32c0,1.13.15,2.15.45,3.05.3.91.74,1.68,1.31,2.31.57.64,1.27,1.13,2.1,1.47.83.35,1.77.52,2.83.52Z" fill="#fff"/><path d="M191.66,39.54h-5.82c-1.09,0-1.87-.41-2.36-1.23l-5.92-9.44c-.24-.37-.51-.64-.8-.81-.29-.17-.73-.25-1.3-.25h-2.19v11.73h-6.44V8.77h9.79c2.17,0,4.03.22,5.58.67,1.55.45,2.81,1.06,3.8,1.86.99.79,1.71,1.74,2.17,2.83.46,1.1.69,2.3.69,3.62,0,1.02-.15,1.98-.44,2.89-.29.91-.72,1.74-1.28,2.49s-1.24,1.41-2.06,1.99c-.82.58-1.75,1.05-2.79,1.4.41.23.8.5,1.16.82.36.32.68.7.97,1.13l7.25,11.07ZM176.58,23.34c1.04,0,1.95-.13,2.7-.39.76-.26,1.38-.62,1.87-1.08.49-.46.84-1,1.07-1.62.23-.62.34-1.3.34-2.04,0-1.46-.49-2.59-1.47-3.39-.98-.81-2.47-1.21-4.47-1.21h-3.35v9.73h3.3Z" fill="#fff"/><path d="M202.31,8.77c2.13,0,3.97.25,5.53.74,1.55.5,2.83,1.18,3.83,2.07,1,.88,1.74,1.93,2.22,3.15.48,1.22.72,2.54.72,3.97,0,1.51-.25,2.9-.75,4.16-.5,1.26-1.26,2.34-2.27,3.24-1.02.91-2.3,1.61-3.84,2.11-1.55.5-3.35.75-5.43.75h-4.08v10.58h-6.44V8.77h10.51ZM202.31,24.08c2.02,0,3.49-.48,4.43-1.44.94-.96,1.41-2.28,1.41-3.94,0-.76-.12-1.46-.35-2.09-.24-.63-.59-1.17-1.07-1.61-.48-.45-1.08-.79-1.81-1.03-.73-.24-1.6-.36-2.6-.36h-4.08v10.48h4.08Z" fill="#fff"/><path d="M246.47,24.15c0,2.25-.38,4.33-1.15,6.26-.77,1.92-1.85,3.58-3.24,4.98-1.39,1.4-3.07,2.5-5.03,3.3-1.96.8-4.13,1.2-6.52,1.2s-4.56-.4-6.52-1.2c-1.96-.8-3.64-1.9-5.04-3.3-1.4-1.4-2.49-3.06-3.25-4.98-.77-1.92-1.15-4.01-1.15-6.26s.38-4.33,1.15-6.25c.77-1.92,1.85-3.57,3.25-4.97,1.4-1.4,3.08-2.5,5.04-3.3,1.96-.8,4.13-1.2,6.52-1.2s4.56.4,6.52,1.2c1.96.8,3.64,1.9,5.03,3.31,1.39,1.41,2.47,3.07,3.24,4.98.77,1.92,1.15,3.99,1.15,6.22ZM239.88,24.15c0-1.61-.21-3.06-.64-4.34-.43-1.28-1.05-2.37-1.86-3.27-.81-.9-1.79-1.58-2.94-2.06-1.15-.47-2.46-.71-3.92-.71s-2.77.24-3.93.71c-1.16.47-2.14,1.16-2.95,2.06-.81.9-1.43,1.99-1.86,3.27-.43,1.28-.64,2.73-.64,4.34s.21,3.08.64,4.36c.43,1.28,1.05,2.36,1.86,3.26.81.89,1.79,1.57,2.95,2.05,1.16.47,2.47.71,3.93.71s2.76-.24,3.92-.71c1.15-.47,2.13-1.16,2.94-2.05.81-.89,1.43-1.98,1.86-3.26.43-1.28.64-2.73.64-4.36Z" fill="#fff"/><path d="M264.07,14.67c-.2.33-.4.56-.61.71-.21.15-.48.22-.8.22s-.65-.11-1.02-.33c-.36-.22-.79-.46-1.28-.71-.49-.25-1.04-.49-1.67-.71-.63-.22-1.37-.33-2.21-.33-1.49,0-2.6.33-3.35.99-.74.66-1.12,1.52-1.12,2.58,0,.68.2,1.24.61,1.69.41.45.94.83,1.61,1.16.67.33,1.42.62,2.26.87.84.25,1.71.53,2.6.84.89.3,1.75.66,2.6,1.07.84.41,1.6.93,2.26,1.55.67.62,1.2,1.38,1.61,2.28.41.9.61,1.99.61,3.28,0,1.4-.25,2.71-.74,3.93-.49,1.22-1.21,2.29-2.14,3.2-.93.91-2.08,1.63-3.44,2.15-1.37.52-2.92.78-4.65.78-.99,0-1.97-.1-2.95-.3-.98-.2-1.92-.47-2.83-.83-.91-.35-1.76-.78-2.56-1.27-.8-.49-1.5-1.05-2.1-1.65l1.89-3.01c.16-.23.36-.41.62-.56s.53-.22.82-.22c.39,0,.79.14,1.22.42.43.28.92.59,1.48.93.56.34,1.21.65,1.94.93.74.28,1.62.42,2.65.42,1.5,0,2.66-.34,3.49-1.02.82-.68,1.23-1.69,1.23-3.03,0-.78-.2-1.41-.61-1.89-.41-.48-.94-.88-1.6-1.21-.66-.33-1.41-.6-2.25-.84-.84-.23-1.71-.49-2.6-.77-.89-.28-1.75-.62-2.6-1.02-.84-.4-1.6-.92-2.25-1.57-.66-.65-1.19-1.46-1.6-2.42-.41-.96-.61-2.16-.61-3.58,0-1.15.23-2.26.69-3.33.46-1.07,1.13-2.03,2.02-2.86.89-.83,1.98-1.51,3.27-2.01,1.29-.51,2.78-.76,4.45-.76,1.87,0,3.61.29,5.2.86,1.59.57,2.94,1.37,4.04,2.39l-1.59,2.99Z" fill="#fff"/><path d="M273.34,13.75v7.91h10.39v4.81h-10.39v8.08h13.35v4.98h-19.83V8.77h19.83v4.98h-13.35Z" fill="#fff"/><path d="M293.89,13.75v8.5h11.2v5h-11.2v12.28h-6.48V8.77h19.83v4.98h-13.35Z" fill="#fff"/><path d="M321.1,34.45c1.04,0,1.98-.17,2.81-.52.83-.35,1.53-.84,2.1-1.47.57-.64,1.01-1.41,1.31-2.31.3-.9.45-1.92.45-3.05V8.77h6.44v18.32c0,1.87-.3,3.58-.91,5.14-.61,1.56-1.48,2.91-2.61,4.04-1.13,1.13-2.5,2.01-4.12,2.65-1.62.64-3.44.95-5.47.95s-3.86-.32-5.48-.95c-1.62-.64-3-1.52-4.13-2.65-1.13-1.13-2-2.48-2.61-4.04-.61-1.56-.91-3.28-.91-5.14V8.77h6.44v18.32c0,1.13.15,2.15.45,3.05.3.91.74,1.68,1.31,2.31.57.64,1.27,1.13,2.1,1.47.83.35,1.77.52,2.83.52Z" fill="#fff"/><path d="M353.59,34.37v5.17h-18.48V8.77h6.44v25.6h12.04Z" fill="#fff"/><path d="M392.77,8.77v30.77h-5.69v-18.9c0-.4.01-.82.03-1.27.02-.45.06-.91.12-1.38l-8.91,16.69c-.49.92-1.24,1.38-2.25,1.38h-.9c-.5,0-.94-.12-1.33-.35s-.69-.58-.92-1.03l-8.95-16.75c.04.5.08.97.11,1.43.03.46.04.89.04,1.28v18.9h-5.69V8.77h4.89c.27,0,.52,0,.73.02.21.01.4.05.57.12.16.06.31.16.45.3.14.13.27.32.4.56l8.71,16.41c.27.5.53,1,.76,1.53.24.52.46,1.06.68,1.61.21-.57.44-1.12.68-1.65.24-.54.49-1.05.76-1.55l8.65-16.35c.13-.24.26-.43.41-.56.14-.13.3-.23.46-.3.16-.06.35-.1.56-.12.21-.01.45-.02.74-.02h4.89Z" fill="#fff"/><path d="M400.22,13.75v7.91h10.39v4.81h-10.39v8.08h13.35v4.98h-19.83V8.77h19.83v4.98h-13.35Z" fill="#fff"/><path d="M442.3,24.15c0,2.25-.38,4.32-1.15,6.2-.77,1.89-1.85,3.51-3.24,4.87-1.39,1.36-3.07,2.42-5.03,3.18-1.96.76-4.13,1.15-6.52,1.15h-11.97V8.77h11.97c2.39,0,4.56.38,6.52,1.15,1.96.76,3.64,1.83,5.03,3.19,1.39,1.36,2.47,2.99,3.24,4.87.77,1.88,1.15,3.94,1.15,6.17ZM435.69,24.15c0-1.61-.21-3.06-.64-4.35-.43-1.29-1.04-2.37-1.85-3.27-.8-.89-1.78-1.58-2.93-2.06-1.15-.48-2.46-.72-3.92-.72h-5.49v20.8h5.49c1.46,0,2.76-.24,3.92-.71,1.15-.47,2.13-1.16,2.93-2.06.8-.9,1.42-1.99,1.85-3.28.43-1.29.64-2.74.64-4.37Z" fill="#fff"/><path d="M449.1,39.54h-6.48V8.77h6.48v30.77Z" fill="#fff"/><path d="M480,39.54h-5c-.56,0-1.01-.13-1.36-.39-.35-.26-.61-.6-.78-1.01l-2.1-5.87h-12.4l-2.1,5.87c-.14.35-.39.68-.75.96-.36.29-.81.43-1.35.43h-5.04l12.17-30.77h6.59l12.15,30.77ZM469.18,27.86l-3.37-9.42c-.2-.49-.41-1.07-.63-1.74-.22-.66-.43-1.39-.63-2.16-.2.79-.41,1.52-.63,2.2-.22.67-.43,1.25-.63,1.75l-3.35,9.37h9.25Z" fill="#fff"/><path d="M285.4,59.88c-.79-.88-1.75-1.55-2.87-2.01-1.12-.46-2.4-.69-3.82-.69s-2.7.23-3.84.69c-1.13.46-2.09,1.13-2.88,2.01-.79.88-1.39,1.94-1.81,3.19-.42,1.25-.63,2.66-.63,4.24s.21,3.01.63,4.26c.42,1.25,1.02,2.31,1.81,3.18.79.87,1.75,1.54,2.88,2,1.13.46,2.41.69,3.84.69s2.7-.23,3.82-.69c1.12-.46,2.08-1.13,2.87-2,.79-.87,1.39-1.93,1.81-3.18.42-1.25.63-2.67.63-4.26s-.21-2.99-.63-4.24c-.42-1.25-1.02-2.31-1.81-3.19Z" fill="#fff"/><path d="M233.74,58.37c-.47-.44-1.06-.77-1.77-1-.71-.23-1.56-.35-2.54-.35h-3.98v10.23h3.98c1.97,0,3.41-.47,4.33-1.41.91-.94,1.37-2.22,1.37-3.85,0-.75-.12-1.43-.35-2.04s-.58-1.14-1.05-1.57Z" fill="#fff"/><path d="M255.72,58.2c-.96-.79-2.41-1.18-4.37-1.18h-3.27v9.51h3.23c1.02,0,1.9-.13,2.64-.38.74-.26,1.35-.61,1.82-1.06.47-.45.82-.98,1.05-1.58.22-.61.34-1.27.34-1.99,0-1.42-.48-2.53-1.44-3.31Z" fill="#fff"/><path d="M115.88,48.08v38.09h181.52v-38.09H115.88ZM240.71,66.05c-.49,1.23-1.23,2.29-2.22,3.17-.99.88-2.24,1.57-3.75,2.06-1.51.49-3.28.74-5.3.74h-3.98v10.34h-6.29v-30.05h10.27c2.08,0,3.88.24,5.4.72,1.52.48,2.76,1.16,3.74,2.02.98.86,1.7,1.89,2.17,3.08.47,1.19.7,2.48.7,3.87,0,1.48-.24,2.83-.73,4.06ZM260.36,82.35c-1.06,0-1.83-.4-2.31-1.2l-5.78-9.22c-.24-.36-.5-.62-.79-.79s-.71-.25-1.27-.25h-2.14v11.45h-6.29v-30.05h9.56c2.12,0,3.94.22,5.45.65,1.51.43,2.75,1.04,3.71,1.81.96.77,1.67,1.7,2.12,2.77.45,1.07.67,2.25.67,3.53,0,.99-.14,1.94-.43,2.83-.29.89-.7,1.7-1.25,2.43s-1.22,1.38-2.01,1.95c-.8.57-1.7,1.02-2.72,1.37.4.22.78.49,1.13.8.35.31.66.68.94,1.11l7.08,10.81h-5.68ZM293.15,73.42c-.75,1.88-1.8,3.5-3.16,4.87-1.36,1.37-3,2.44-4.91,3.22-1.91.78-4.04,1.17-6.37,1.17s-4.46-.39-6.37-1.17c-1.91-.78-3.56-1.85-4.93-3.22-1.37-1.37-2.43-2.99-3.18-4.87-.75-1.88-1.12-3.91-1.12-6.11s.37-4.23,1.12-6.1c.75-1.87,1.81-3.49,3.18-4.86,1.37-1.37,3.01-2.44,4.93-3.22,1.91-.78,4.04-1.17,6.37-1.17s4.46.39,6.37,1.17c1.91.78,3.55,1.86,4.91,3.23,1.36,1.37,2.42,3,3.16,4.87.75,1.87,1.12,3.9,1.12,6.08s-.37,4.23-1.12,6.11Z" fill="#fff"/><path d="M334.88,51.58v30.77h-5.69v-18.9c0-.4.01-.82.03-1.27.02-.45.06-.91.12-1.38l-8.91,16.69c-.49.92-1.24,1.38-2.25,1.38h-.9c-.5,0-.94-.12-1.33-.35s-.69-.58-.92-1.03l-8.95-16.75c.04.5.08.97.11,1.43.03.46.04.89.04,1.28v18.9h-5.69v-30.77h4.89c.27,0,.52,0,.73.02.21.01.4.05.57.12.16.06.31.16.45.3.14.13.27.32.4.56l8.71,16.41c.27.5.53,1,.76,1.53.24.52.46,1.06.68,1.61.21-.57.44-1.12.68-1.65.24-.54.49-1.05.76-1.55l8.65-16.35c.13-.24.26-.43.41-.56.14-.13.3-.23.46-.3.16-.06.35-.1.56-.12.21-.01.45-.02.74-.02h4.89Z" fill="#fff"/><path d="M367.52,66.95c0,2.25-.38,4.33-1.15,6.26-.77,1.92-1.85,3.58-3.24,4.98s-3.07,2.5-5.03,3.3c-1.96.8-4.13,1.2-6.52,1.2s-4.56-.4-6.52-1.2c-1.96-.8-3.64-1.9-5.04-3.3-1.4-1.4-2.49-3.06-3.25-4.98-.77-1.92-1.15-4.01-1.15-6.26s.38-4.33,1.15-6.25c.77-1.92,1.85-3.57,3.25-4.97,1.4-1.4,3.08-2.5,5.04-3.3,1.96-.8,4.13-1.2,6.52-1.2s4.56.4,6.52,1.2c1.96.8,3.64,1.9,5.03,3.31,1.39,1.41,2.47,3.07,3.24,4.98.77,1.92,1.15,3.99,1.15,6.22ZM360.93,66.95c0-1.61-.21-3.06-.64-4.34-.43-1.28-1.05-2.37-1.86-3.27-.81-.9-1.79-1.58-2.94-2.06-1.15-.47-2.46-.71-3.92-.71s-2.77.24-3.93.71c-1.16.47-2.14,1.16-2.95,2.06-.81.9-1.43,1.99-1.86,3.27-.43,1.28-.64,2.73-.64,4.34s.21,3.08.64,4.36c.43,1.28,1.05,2.36,1.86,3.26.81.89,1.79,1.57,2.95,2.05,1.16.47,2.47.71,3.93.71s2.76-.24,3.92-.71c1.15-.47,2.13-1.16,2.94-2.05.81-.89,1.43-1.98,1.86-3.26.43-1.28.64-2.73.64-4.36Z" fill="#fff"/><path d="M389.4,56.71h-9.1v25.64h-6.46v-25.64h-9.1v-5.13h24.66v5.13Z" fill="#fff"/><path d="M396.72,82.35h-6.48v-30.77h6.48v30.77Z" fill="#fff"/><path d="M429.38,66.95c0,2.25-.38,4.33-1.15,6.26-.77,1.92-1.85,3.58-3.24,4.98s-3.07,2.5-5.03,3.3c-1.96.8-4.13,1.2-6.52,1.2s-4.56-.4-6.52-1.2c-1.96-.8-3.64-1.9-5.04-3.3-1.4-1.4-2.49-3.06-3.25-4.98-.77-1.92-1.15-4.01-1.15-6.26s.38-4.33,1.15-6.25c.77-1.92,1.85-3.57,3.25-4.97,1.4-1.4,3.08-2.5,5.04-3.3,1.96-.8,4.13-1.2,6.52-1.2s4.56.4,6.52,1.2c1.96.8,3.64,1.9,5.03,3.31,1.39,1.41,2.47,3.07,3.24,4.98.77,1.92,1.15,3.99,1.15,6.22ZM422.79,66.95c0-1.61-.21-3.06-.64-4.34-.43-1.28-1.05-2.37-1.86-3.27-.81-.9-1.79-1.58-2.94-2.06-1.15-.47-2.46-.71-3.92-.71s-2.77.24-3.93.71c-1.16.47-2.14,1.16-2.95,2.06-.81.9-1.43,1.99-1.86,3.27-.43,1.28-.64,2.73-.64,4.34s.21,3.08.64,4.36c.43,1.28,1.05,2.36,1.86,3.26.81.89,1.79,1.57,2.95,2.05s2.47.71,3.93.71,2.76-.24,3.92-.71c1.15-.47,2.13-1.16,2.94-2.05.81-.89,1.43-1.98,1.86-3.26.43-1.28.64-2.73.64-4.36Z" fill="#fff"/><path d="M456.65,51.58v30.77h-3.33c-.5,0-.92-.08-1.27-.24-.34-.16-.68-.44-1.01-.84l-15.51-19.51c.04.5.08.98.1,1.46.02.48.03.93.03,1.34v17.79h-5.69v-30.77h3.39c.27,0,.5.01.7.03s.37.07.53.15c.16.08.31.18.45.31.14.13.3.3.47.51l15.62,19.6c-.06-.54-.1-1.06-.13-1.56-.03-.5-.04-.98-.04-1.43v-17.6h5.69Z" fill="#fff"/><path d="M476.09,57.47c-.2.33-.4.56-.61.71-.21.15-.48.22-.8.22s-.65-.11-1.02-.33c-.36-.22-.79-.46-1.28-.71-.49-.25-1.04-.49-1.67-.71-.63-.22-1.37-.33-2.21-.33-1.49,0-2.6.33-3.35.99-.74.66-1.12,1.52-1.12,2.58,0,.68.2,1.24.61,1.69.41.45.94.83,1.61,1.16.67.33,1.42.62,2.26.87.84.25,1.71.53,2.6.84.89.3,1.75.66,2.6,1.07.84.41,1.6.93,2.26,1.55.67.62,1.2,1.38,1.61,2.28.41.9.61,1.99.61,3.28,0,1.4-.25,2.71-.74,3.93-.49,1.22-1.21,2.29-2.14,3.2-.93.91-2.08,1.63-3.44,2.15-1.37.52-2.92.78-4.65.78-.99,0-1.97-.1-2.95-.3-.98-.2-1.92-.47-2.83-.83-.91-.35-1.76-.78-2.56-1.27-.8-.49-1.5-1.05-2.1-1.65l1.89-3.01c.16-.23.36-.41.62-.56.26-.15.53-.22.82-.22.39,0,.79.14,1.22.42.43.28.92.59,1.48.93s1.2.65,1.94.93c.74.28,1.62.42,2.65.42,1.5,0,2.66-.34,3.49-1.02.82-.68,1.23-1.69,1.23-3.03,0-.78-.2-1.41-.61-1.89-.41-.48-.94-.88-1.6-1.21-.66-.33-1.41-.6-2.25-.84-.84-.23-1.71-.49-2.6-.77-.89-.28-1.75-.62-2.6-1.02-.84-.4-1.6-.92-2.25-1.57-.66-.65-1.19-1.46-1.6-2.42-.41-.96-.61-2.16-.61-3.58,0-1.15.23-2.26.69-3.33.46-1.07,1.13-2.03,2.02-2.86.89-.83,1.98-1.51,3.27-2.01,1.29-.51,2.78-.76,4.45-.76,1.87,0,3.61.29,5.2.86,1.59.57,2.94,1.37,4.04,2.39l-1.59,2.99Z" fill="#fff"/></svg>