<?xml version="1.0" encoding="UTF-8"?><svg id="Primary_White" xmlns="http://www.w3.org/2000/svg" width="582" height="112.5" xmlns:xlink="http://www.w3.org/1999/xlink" viewBox="0 0 582 112.5"><defs><clipPath id="clippath"><rect x="42.05" y="82.12" width="27.89" height="13.61" fill="none"/></clipPath><clipPath id="clippath-1"><rect x="69.94" y="82.12" width="27.89" height="13.61" fill="none"/></clipPath></defs><g id="Large"><g id="Icon_White_on_Blue"><rect x="14.89" y="95.12" width="110.62" height="6.74" transform="translate(-.18 .13) rotate(-.1)" fill="#fff"/><g id="_Mirror_Repeat_"><g clip-path="url(#clippath)"><polygon points="42.05 95.72 70.41 95.72 70.24 82.12 49.43 82.12 42.05 95.72" fill="#fff"/></g></g><g id="_Mirror_Repeat_-2"><g clip-path="url(#clippath-1)"><polygon points="97.83 95.72 69.47 95.72 69.64 82.12 90.45 82.12 97.83 95.72" fill="#fff"/></g></g><path d="M122.18,82.12H17.92c-1.86,0-3.37-1.51-3.37-3.37V14.13c0-1.86,1.51-3.37,3.37-3.37h104.26c1.86,0,3.37,1.51,3.37,3.37v64.61c0,1.86-1.51,3.37-3.37,3.37ZM21.29,75.37h97.51V17.51H21.29v57.87Z" fill="#fff"/><rect x="48.18" y="52.21" width="6.74" height="12.19" transform="translate(-.59 .53) rotate(-.58)" fill="#fff"/><rect x="60.69" y="43.74" width="6.74" height="20.57" transform="translate(-.32 .39) rotate(-.34)" fill="#fff"/><rect x="73.24" y="35.21" width="6.74" height="29.1" transform="translate(-.21 .33) rotate(-.24)" fill="#fff"/><rect x="85.82" y="26.69" width="6.74" height="37.71" transform="translate(-.15 .29) rotate(-.19)" fill="#fff"/></g><path d="M152.58,10.68c2.51,0,4.68.29,6.51.87,1.83.58,3.33,1.4,4.51,2.44,1.18,1.04,2.05,2.28,2.62,3.71.56,1.43.85,2.99.85,4.67,0,1.78-.3,3.42-.89,4.9-.59,1.48-1.48,2.76-2.68,3.82-1.2,1.07-2.71,1.9-4.53,2.49-1.82.59-3.95.89-6.4.89h-4.81v12.47h-7.59V10.68h12.39ZM152.58,28.72c2.38,0,4.12-.57,5.22-1.7,1.1-1.13,1.66-2.68,1.66-4.65,0-.9-.14-1.72-.42-2.46-.28-.74-.7-1.37-1.26-1.9-.57-.52-1.28-.93-2.14-1.21-.86-.28-1.88-.42-3.06-.42h-4.81v12.35h4.81Z" fill="#fff"/><path d="M183.14,40.95c1.23,0,2.34-.2,3.31-.61.98-.41,1.8-.99,2.48-1.74.67-.75,1.19-1.66,1.54-2.72.35-1.07.53-2.27.53-3.6V10.68h7.59v21.6c0,2.2-.36,4.22-1.07,6.06-.72,1.84-1.74,3.43-3.07,4.76-1.33,1.33-2.95,2.37-4.86,3.12-1.91.75-4.06,1.12-6.45,1.12s-4.55-.37-6.46-1.12c-1.91-.75-3.54-1.79-4.87-3.12-1.33-1.33-2.36-2.92-3.07-4.76-.72-1.84-1.07-3.86-1.07-6.06V10.68h7.59v21.6c0,1.33.18,2.53.53,3.6.35,1.07.87,1.97,1.54,2.72.67.75,1.5,1.33,2.48,1.74.98.41,2.09.61,3.34.61Z" fill="#fff"/><path d="M229.02,46.95h-6.85c-1.28,0-2.21-.48-2.78-1.45l-6.98-11.12c-.29-.43-.6-.75-.95-.95-.35-.2-.86-.3-1.53-.3h-2.58v13.82h-7.59V10.68h11.53c2.56,0,4.76.26,6.58.79,1.82.53,3.31,1.25,4.48,2.19,1.16.93,2.01,2.05,2.55,3.34.54,1.29.81,2.71.81,4.26,0,1.2-.17,2.34-.52,3.41-.35,1.08-.85,2.05-1.5,2.94s-1.47,1.67-2.43,2.35-2.06,1.23-3.29,1.65c.49.27.94.59,1.37.96.42.37.8.82,1.14,1.34l8.55,13.05ZM211.24,27.85c1.23,0,2.29-.15,3.19-.46.89-.31,1.63-.73,2.2-1.27.57-.54.99-1.18,1.26-1.91.27-.73.4-1.53.4-2.4,0-1.72-.58-3.05-1.73-4-1.16-.95-2.91-1.42-5.27-1.42h-3.95v11.47h3.9Z" fill="#fff"/><path d="M241.56,10.68c2.51,0,4.68.29,6.51.87,1.83.58,3.33,1.4,4.51,2.44,1.18,1.04,2.05,2.28,2.62,3.71.56,1.43.85,2.99.85,4.67,0,1.78-.3,3.42-.89,4.9-.59,1.48-1.48,2.76-2.68,3.82-1.2,1.07-2.71,1.9-4.53,2.49-1.82.59-3.95.89-6.4.89h-4.81v12.47h-7.59V10.68h12.39ZM241.56,28.72c2.38,0,4.12-.57,5.22-1.7,1.1-1.13,1.66-2.68,1.66-4.65,0-.9-.14-1.72-.42-2.46-.28-.74-.7-1.37-1.26-1.9-.57-.52-1.28-.93-2.14-1.21-.86-.28-1.88-.42-3.06-.42h-4.81v12.35h4.81Z" fill="#fff"/><path d="M293.62,28.8c0,2.65-.45,5.11-1.35,7.37-.9,2.27-2.18,4.22-3.82,5.87-1.64,1.65-3.62,2.95-5.93,3.89-2.31.94-4.87,1.41-7.69,1.41s-5.38-.47-7.69-1.41c-2.31-.94-4.29-2.24-5.94-3.89-1.65-1.65-2.93-3.61-3.83-5.87-.9-2.27-1.35-4.72-1.35-7.37s.45-5.1,1.35-7.36c.9-2.26,2.18-4.21,3.83-5.86,1.65-1.65,3.63-2.95,5.94-3.89,2.31-.94,4.87-1.41,7.69-1.41s5.38.47,7.69,1.41c2.31.94,4.29,2.24,5.93,3.9,1.64,1.66,2.92,3.62,3.82,5.87.9,2.26,1.35,4.7,1.35,7.34ZM285.85,28.8c0-1.9-.25-3.6-.76-5.11-.51-1.51-1.24-2.79-2.19-3.85-.95-1.06-2.11-1.87-3.47-2.42-1.36-.56-2.9-.84-4.62-.84s-3.26.28-4.63.84c-1.37.56-2.53,1.37-3.48,2.42-.95,1.06-1.68,2.34-2.19,3.85-.51,1.51-.76,3.21-.76,5.11s.25,3.63.76,5.14c.51,1.51,1.24,2.79,2.19,3.84.95,1.05,2.11,1.85,3.48,2.41s2.91.84,4.63.84,3.26-.28,4.62-.84c1.36-.56,2.51-1.36,3.47-2.41.95-1.05,1.68-2.33,2.19-3.84.51-1.51.76-3.22.76-5.14Z" fill="#fff"/><path d="M314.36,17.63c-.24.38-.48.66-.72.84-.24.17-.56.26-.95.26s-.77-.13-1.2-.39c-.43-.26-.93-.54-1.5-.84-.57-.3-1.23-.58-1.97-.84-.74-.26-1.61-.39-2.61-.39-1.75,0-3.07.39-3.95,1.16-.88.77-1.32,1.79-1.32,3.04,0,.8.24,1.46.72,1.99.48.53,1.11.98,1.9,1.36.78.38,1.67.73,2.67,1.03.99.3,2.01.63,3.06.99,1.05.36,2.07.78,3.06,1.26.99.48,1.88,1.09,2.67,1.82.78.73,1.42,1.63,1.9,2.69.48,1.06.72,2.35.72,3.86,0,1.65-.29,3.2-.87,4.64-.58,1.44-1.42,2.7-2.52,3.77-1.1,1.07-2.45,1.92-4.06,2.54-1.61.62-3.44.92-5.48.92-1.16,0-2.32-.12-3.48-.35-1.16-.23-2.27-.56-3.34-.97-1.07-.42-2.08-.92-3.02-1.5-.94-.58-1.77-1.23-2.48-1.95l2.23-3.55c.19-.27.43-.49.73-.66s.62-.26.96-.26c.46,0,.94.17,1.44.5.51.33,1.09.7,1.75,1.1s1.42.77,2.29,1.1c.87.33,1.91.5,3.12.5,1.77,0,3.14-.4,4.11-1.2.97-.8,1.45-1.99,1.45-3.57,0-.92-.24-1.66-.72-2.22-.48-.57-1.11-1.04-1.88-1.42-.78-.38-1.66-.71-2.66-.99-1-.27-2.02-.58-3.06-.91-1.05-.33-2.07-.73-3.06-1.2-1-.47-1.88-1.08-2.66-1.85-.78-.77-1.4-1.72-1.88-2.85-.48-1.13-.72-2.54-.72-4.22,0-1.35.27-2.66.81-3.92.54-1.27,1.33-2.39,2.38-3.37,1.05-.98,2.33-1.77,3.86-2.37,1.53-.6,3.28-.9,5.25-.9,2.21,0,4.25.34,6.13,1.01,1.88.67,3.47,1.61,4.77,2.81l-1.87,3.52Z" fill="#fff"/><path d="M325.28,16.55v9.32h12.24v5.67h-12.24v9.52h15.73v5.87h-23.37V10.68h23.37v5.87h-15.73Z" fill="#fff"/><path d="M349.51,16.55v10.02h13.2v5.9h-13.2v14.47h-7.64V10.68h23.37v5.87h-15.73Z" fill="#fff"/><path d="M381.59,40.95c1.23,0,2.34-.2,3.31-.61.98-.41,1.8-.99,2.48-1.74.67-.75,1.19-1.66,1.54-2.72.35-1.07.53-2.27.53-3.6V10.68h7.59v21.6c0,2.2-.36,4.22-1.07,6.06-.72,1.84-1.74,3.43-3.07,4.76-1.33,1.33-2.95,2.37-4.86,3.12-1.91.75-4.06,1.12-6.45,1.12s-4.55-.37-6.46-1.12c-1.91-.75-3.54-1.79-4.87-3.12-1.33-1.33-2.36-2.92-3.07-4.76-.72-1.84-1.07-3.86-1.07-6.06V10.68h7.59v21.6c0,1.33.18,2.53.53,3.6.35,1.07.87,1.97,1.54,2.72.67.75,1.5,1.33,2.48,1.74.98.41,2.09.61,3.34.61Z" fill="#fff"/><path d="M419.88,40.85v6.1h-21.78V10.68h7.59v30.17h14.19Z" fill="#fff"/><path d="M466.06,10.68v36.27h-6.7v-22.27c0-.47.01-.97.04-1.5.03-.53.07-1.07.14-1.62l-10.5,19.67c-.57,1.08-1.46,1.62-2.66,1.62h-1.06c-.59,0-1.11-.14-1.57-.41s-.82-.68-1.09-1.21l-10.55-19.75c.05.58.09,1.15.13,1.69.03.54.05,1.05.05,1.51v22.27h-6.7V10.68h5.77c.32,0,.61,0,.86.02.25.02.48.06.67.14.19.07.37.19.53.35.16.16.32.38.47.66l10.27,19.35c.32.58.62,1.18.9,1.8.28.62.54,1.25.8,1.9.25-.67.52-1.32.8-1.95.28-.63.58-1.24.9-1.82l10.19-19.27c.15-.28.31-.5.48-.66.17-.16.35-.27.54-.35.19-.07.41-.12.66-.14.24-.02.54-.02.87-.02h5.77Z" fill="#fff"/><path d="M474.84,16.55v9.32h12.24v5.67h-12.24v9.52h15.73v5.87h-23.37V10.68h23.37v5.87h-15.73Z" fill="#fff"/><path d="M524.44,28.8c0,2.65-.45,5.09-1.35,7.31-.9,2.22-2.18,4.14-3.82,5.74-1.64,1.6-3.62,2.85-5.93,3.75-2.31.9-4.87,1.35-7.69,1.35h-14.11V10.68h14.11c2.82,0,5.38.45,7.69,1.35,2.31.9,4.29,2.15,5.93,3.76,1.64,1.61,2.92,3.52,3.82,5.74.9,2.22,1.35,4.64,1.35,7.27ZM516.65,28.8c0-1.9-.25-3.61-.76-5.12-.51-1.52-1.23-2.8-2.18-3.85-.94-1.05-2.1-1.86-3.45-2.42-1.36-.57-2.9-.85-4.62-.85h-6.48v24.52h6.48c1.72,0,3.26-.28,4.62-.84,1.36-.56,2.51-1.37,3.45-2.42.94-1.06,1.67-2.35,2.18-3.86.51-1.52.76-3.23.76-5.15Z" fill="#fff"/><path d="M532.46,46.95h-7.64V10.68h7.64v36.27Z" fill="#fff"/><path d="M568.88,46.95h-5.89c-.66,0-1.19-.15-1.61-.46-.41-.31-.72-.7-.92-1.19l-2.48-6.92h-14.62l-2.48,6.92c-.17.42-.46.8-.89,1.14-.42.34-.95.51-1.59.51h-5.94l14.34-36.27h7.77l14.32,36.27ZM556.13,33.17l-3.97-11.1c-.24-.58-.48-1.27-.75-2.05-.26-.78-.51-1.63-.75-2.55-.24.93-.48,1.8-.75,2.59-.26.79-.51,1.48-.75,2.06l-3.95,11.05h10.9Z" fill="#fff"/><path d="M339.5,70.92c-.93-1.03-2.06-1.82-3.38-2.37-1.33-.54-2.83-.82-4.51-.82s-3.19.27-4.52.82c-1.33.55-2.47,1.33-3.4,2.37-.93,1.03-1.64,2.29-2.14,3.76-.49,1.47-.74,3.14-.74,4.99s.25,3.54.74,5.02c.49,1.47,1.21,2.72,2.14,3.75.93,1.03,2.06,1.81,3.4,2.36,1.33.55,2.84.82,4.52.82s3.18-.27,4.51-.82c1.33-.55,2.45-1.33,3.38-2.36.93-1.03,1.64-2.27,2.14-3.75.49-1.47.74-3.15.74-5.02s-.25-3.52-.74-4.99c-.49-1.47-1.21-2.73-2.14-3.76Z" fill="#fff"/><path d="M278.61,69.14c-.55-.51-1.25-.91-2.09-1.18-.84-.28-1.84-.42-2.99-.42h-4.69v12.06h4.69c2.32,0,4.02-.55,5.1-1.66,1.08-1.11,1.62-2.62,1.62-4.54,0-.88-.14-1.68-.41-2.4s-.68-1.34-1.24-1.86Z" fill="#fff"/><path d="M304.52,68.93c-1.13-.93-2.85-1.39-5.15-1.39h-3.85v11.21h3.8c1.2,0,2.24-.15,3.11-.45.87-.3,1.59-.72,2.15-1.25.56-.53.97-1.15,1.24-1.87.26-.72.4-1.5.4-2.34,0-1.68-.56-2.98-1.69-3.91Z" fill="#fff"/><path d="M139.69,57.01v44.9h213.96v-44.9h-213.96ZM286.82,78.19c-.58,1.45-1.45,2.69-2.62,3.74-1.17,1.04-2.64,1.85-4.42,2.43-1.78.58-3.86.87-6.25.87h-4.69v12.18h-7.41v-35.42h12.1c2.45,0,4.57.28,6.36.85,1.79.57,3.26,1.36,4.41,2.38,1.15,1.02,2,2.23,2.56,3.63.55,1.4.83,2.92.83,4.57,0,1.74-.29,3.34-.86,4.79ZM309.99,97.4c-1.25,0-2.16-.47-2.72-1.42l-6.82-10.86c-.28-.42-.59-.73-.93-.93s-.84-.29-1.49-.29h-2.52v13.5h-7.41v-35.42h11.26c2.5,0,4.64.26,6.42.77,1.78.51,3.24,1.22,4.37,2.14,1.14.91,1.97,2,2.49,3.26.53,1.26.79,2.65.79,4.16,0,1.17-.17,2.28-.51,3.33-.34,1.05-.83,2.01-1.47,2.87s-1.43,1.63-2.37,2.29c-.94.67-2.01,1.2-3.21,1.61.48.26.92.57,1.33.94.41.37.78.8,1.11,1.31l8.35,12.74h-6.69ZM348.64,86.88c-.88,2.21-2.12,4.13-3.73,5.74-1.61,1.61-3.54,2.88-5.79,3.8-2.26.92-4.76,1.38-7.51,1.38s-5.25-.46-7.51-1.38c-2.26-.92-4.19-2.19-5.81-3.8-1.61-1.61-2.86-3.52-3.74-5.74-.88-2.21-1.32-4.61-1.32-7.2s.44-4.98,1.32-7.19c.88-2.21,2.13-4.11,3.74-5.73,1.61-1.61,3.55-2.88,5.81-3.8,2.26-.92,4.76-1.38,7.51-1.38s5.25.46,7.51,1.38c2.26.92,4.19,2.19,5.79,3.81,1.61,1.62,2.85,3.53,3.73,5.74.88,2.21,1.32,4.59,1.32,7.17s-.44,4.99-1.32,7.2Z" fill="#fff"/><path d="M397.82,61.13v36.27h-6.7v-22.27c0-.47.01-.97.04-1.5.03-.53.07-1.07.14-1.62l-10.5,19.67c-.57,1.08-1.46,1.62-2.66,1.62h-1.06c-.59,0-1.11-.14-1.57-.41s-.82-.68-1.09-1.21l-10.55-19.75c.05.58.09,1.15.13,1.69.03.54.05,1.05.05,1.51v22.27h-6.7v-36.27h5.77c.32,0,.61,0,.86.02.25.02.48.06.67.14.19.07.37.19.53.35.16.16.32.38.47.66l10.27,19.35c.32.58.62,1.18.9,1.8.28.62.54,1.25.8,1.9.25-.67.52-1.32.8-1.95.28-.63.58-1.24.9-1.82l10.19-19.27c.15-.28.31-.5.48-.66.17-.16.35-.27.54-.35.19-.07.41-.12.66-.14.24-.02.54-.02.87-.02h5.77Z" fill="#fff"/><path d="M436.29,79.25c0,2.65-.45,5.11-1.35,7.37-.9,2.27-2.18,4.22-3.82,5.87-1.64,1.65-3.62,2.95-5.93,3.89-2.31.94-4.87,1.41-7.69,1.41s-5.38-.47-7.69-1.41c-2.31-.94-4.29-2.24-5.94-3.89-1.65-1.65-2.93-3.61-3.83-5.87-.9-2.27-1.35-4.72-1.35-7.37s.45-5.1,1.35-7.36c.9-2.26,2.18-4.21,3.83-5.86,1.65-1.65,3.63-2.95,5.94-3.89,2.31-.94,4.87-1.41,7.69-1.41s5.38.47,7.69,1.41c2.31.94,4.29,2.24,5.93,3.9,1.64,1.66,2.92,3.62,3.82,5.87.9,2.26,1.35,4.7,1.35,7.34ZM428.53,79.25c0-1.9-.25-3.6-.76-5.11-.51-1.51-1.24-2.79-2.19-3.85-.95-1.06-2.11-1.87-3.47-2.42-1.36-.56-2.9-.84-4.62-.84s-3.26.28-4.63.84c-1.37.56-2.53,1.37-3.48,2.42-.95,1.06-1.68,2.34-2.19,3.85-.51,1.51-.76,3.21-.76,5.11s.25,3.63.76,5.14c.51,1.51,1.24,2.79,2.19,3.84.95,1.05,2.11,1.85,3.48,2.41,1.37.56,2.91.84,4.63.84s3.26-.28,4.62-.84c1.36-.56,2.51-1.36,3.47-2.41.95-1.05,1.68-2.33,2.19-3.84.51-1.51.76-3.22.76-5.14Z" fill="#fff"/><path d="M462.09,67.18h-10.72v30.22h-7.61v-30.22h-10.72v-6.05h29.06v6.05Z" fill="#fff"/><path d="M470.72,97.4h-7.64v-36.27h7.64v36.27Z" fill="#fff"/><path d="M509.21,79.25c0,2.65-.45,5.11-1.35,7.37-.9,2.27-2.18,4.22-3.82,5.87-1.64,1.65-3.62,2.95-5.93,3.89-2.31.94-4.87,1.41-7.69,1.41s-5.38-.47-7.69-1.41c-2.31-.94-4.29-2.24-5.94-3.89-1.65-1.65-2.93-3.61-3.83-5.87-.9-2.27-1.35-4.72-1.35-7.37s.45-5.1,1.35-7.36c.9-2.26,2.18-4.21,3.83-5.86,1.65-1.65,3.63-2.95,5.94-3.89,2.31-.94,4.87-1.41,7.69-1.41s5.38.47,7.69,1.41c2.31.94,4.29,2.24,5.93,3.9,1.64,1.66,2.92,3.62,3.82,5.87.9,2.26,1.35,4.7,1.35,7.34ZM501.45,79.25c0-1.9-.25-3.6-.76-5.11-.51-1.51-1.24-2.79-2.19-3.85-.95-1.06-2.11-1.87-3.47-2.42-1.36-.56-2.9-.84-4.62-.84s-3.26.28-4.63.84c-1.37.56-2.53,1.37-3.48,2.42-.95,1.06-1.68,2.34-2.19,3.85-.51,1.51-.76,3.21-.76,5.11s.25,3.63.76,5.14c.51,1.51,1.24,2.79,2.19,3.84.95,1.05,2.11,1.85,3.48,2.41,1.37.56,2.91.84,4.63.84s3.26-.28,4.62-.84c1.36-.56,2.51-1.36,3.47-2.41.95-1.05,1.68-2.33,2.19-3.84.51-1.51.76-3.22.76-5.14Z" fill="#fff"/><path d="M541.36,61.13v36.27h-3.92c-.59,0-1.09-.1-1.49-.29-.4-.19-.8-.52-1.19-.99l-18.29-23c.05.58.09,1.16.11,1.72.03.57.04,1.09.04,1.57v20.97h-6.7v-36.27h4c.32,0,.59.01.82.04s.43.08.62.18c.19.09.36.21.53.36.17.15.35.35.56.6l18.41,23.1c-.07-.63-.12-1.25-.15-1.84-.03-.59-.05-1.15-.05-1.69v-20.75h6.7Z" fill="#fff"/><path d="M564.28,68.08c-.24.38-.48.66-.72.84-.24.17-.56.26-.95.26s-.77-.13-1.2-.39c-.43-.26-.93-.54-1.5-.84-.57-.3-1.23-.58-1.97-.84-.74-.26-1.61-.39-2.61-.39-1.75,0-3.07.39-3.95,1.16-.88.77-1.32,1.79-1.32,3.04,0,.8.24,1.46.72,1.99.48.53,1.11.98,1.9,1.36.78.38,1.67.73,2.67,1.03.99.3,2.01.63,3.06.99,1.05.36,2.07.78,3.06,1.26.99.48,1.88,1.09,2.67,1.82.78.73,1.42,1.63,1.9,2.69.48,1.06.72,2.35.72,3.86,0,1.65-.29,3.2-.87,4.64-.58,1.44-1.42,2.7-2.52,3.77-1.1,1.07-2.45,1.92-4.06,2.54-1.61.62-3.44.92-5.48.92-1.16,0-2.32-.12-3.48-.35-1.16-.23-2.27-.56-3.34-.97-1.07-.42-2.08-.92-3.02-1.5-.94-.58-1.77-1.23-2.48-1.95l2.23-3.55c.19-.27.43-.49.73-.66.3-.18.62-.26.96-.26.46,0,.94.17,1.44.5.51.33,1.09.7,1.75,1.1s1.42.77,2.29,1.1c.87.33,1.91.5,3.12.5,1.77,0,3.14-.4,4.11-1.2.97-.8,1.45-1.99,1.45-3.57,0-.92-.24-1.66-.72-2.22-.48-.57-1.11-1.04-1.88-1.42-.78-.38-1.66-.71-2.66-.99-1-.27-2.02-.58-3.06-.91-1.05-.33-2.07-.73-3.06-1.2-1-.47-1.88-1.08-2.66-1.85-.78-.77-1.4-1.72-1.88-2.85-.48-1.13-.72-2.54-.72-4.22,0-1.35.27-2.66.81-3.92.54-1.27,1.33-2.39,2.38-3.37,1.05-.98,2.33-1.77,3.86-2.37,1.53-.6,3.28-.9,5.25-.9,2.21,0,4.25.34,6.13,1.01,1.88.67,3.47,1.61,4.77,2.81l-1.87,3.52Z" fill="#fff"/></g></svg>