<svg width="24" height="24" viewBox="0 0 24 24" fill="none" xmlns="http://www.w3.org/2000/svg">
<path d="M6.33396 22C5.85408 22 5.37042 21.8745 4.93587 21.6196C4.0479 21.0981 3.5 20.1216 3.5 19.0589V4.9414C3.5 3.88259 4.0479 2.90221 4.93587 2.38065C5.82385 1.85909 6.91587 1.87478 7.78873 2.41987L19.1246 9.4786C19.9786 10.0119 20.5 10.9688 20.5 12.0001C20.5 13.0315 19.9786 13.9923 19.1246 14.5217L7.78873 21.5804C7.33908 21.8588 6.83652 22 6.33018 22H6.33396ZM9.16793 10.1374V13.8668L12.1606 12.0041L9.16793 10.1413V10.1374Z" fill="#6C757D"/>
</svg>
